<svg width="320" height="568" viewBox="0 0 320 568" version="1.1" xmlns="http://www.w3.org/2000/svg" xmlns:xlink="http://www.w3.org/1999/xlink">
<title>answer-short</title>
<desc>Created using Figma</desc>
<g id="Canvas" transform="translate(-496 -1580)">
<clipPath id="clip-0" clip-rule="evenodd">
<path d="M 496 1580L 816 1580L 816 2148L 496 2148L 496 1580Z" fill="#FFFFFF"/>
</clipPath>
<g id="answer-short" clip-path="url(#clip-0)">
<path d="M 496 1580L 816 1580L 816 2148L 496 2148L 496 1580Z" fill="#DBF3FB"/>
<g id="background">
<g id="frost">
<use xlink:href="#path0_fill" transform="translate(496 1580)" fill="#E5E5E5"/>
</g>
<g id="sky" filter="url(#filter0_f)">
<g id="sky">
<use xlink:href="#path0_fill" transform="translate(496 1580)" fill="url(#paint1_linear)"/>
</g>
<g id="clouds">
<use xlink:href="#path1_fill" transform="translate(578 1582.72)" fill="#FFFFFF"/>
</g>
</g>
<g id="light">
<use xlink:href="#path0_fill" transform="translate(496 1580)" fill="#FFFFFF" fill-opacity="0.3"/>
</g>
</g>
<g id="answer">
<g id="Rectangle 9" filter="url(#filter1_d)">
<use xlink:href="#path2_fill" transform="translate(528 2051)" fill="#F5FCFF"/>
</g>
<g id="text">
<g id="/example">
<use xlink:href="#path3_fill" transform="translate(628 2064)"/>
</g>
</g>
</g>
<g id="answer">
<g id="Rectangle 9" filter="url(#filter2_d)">
<use xlink:href="#path2_fill" transform="translate(528 1971)" fill="#F5FCFF"/>
</g>
<g id="text">
<g id="/example">
<use xlink:href="#path4_fill" transform="translate(584 1986.53)"/>
</g>
</g>
</g>
<g id="answer">
<g id="Rectangle 9" filter="url(#filter3_d)">
<use xlink:href="#path2_fill" transform="translate(528 1891)" fill="#F5FCFF"/>
</g>
<g id="text">
<g id="/example">
<use xlink:href="#path5_fill" transform="translate(581 1904.27)"/>
</g>
</g>
</g>
<g id="answer">
<g id="Rectangle 9" filter="url(#filter4_d)">
<use xlink:href="#path2_fill" transform="translate(528 1811)" fill="#F5FCFF"/>
</g>
<g id="text">
<g id="/example">
<use xlink:href="#path6_fill" transform="translate(620 1823)"/>
</g>
</g>
</g>
<g id="question">
<g id="/example">
<use xlink:href="#path7_fill" transform="translate(525 1614)"/>
</g>
</g>
</g>
</g>
<defs>
<filter id="filter0_f" filterUnits="userSpaceOnUse" x="476" y="1560" width="782" height="608" color-interpolation-filters="sRGB">
<feFlood flood-opacity="0" result="BackgroundImageFix"/>
<feBlend mode="normal" in="SourceGraphic" in2="BackgroundImageFix" result="shape"/>
<feGaussianBlur stdDeviation="10" result="effect1_foregroundBlur"/>
</filter>
<filter id="filter1_d" filterUnits="userSpaceOnUse" x="525" y="2051" width="262" height="56" color-interpolation-filters="sRGB">
<feFlood flood-opacity="0" result="BackgroundImageFix"/>
<feColorMatrix in="SourceAlpha" type="matrix" values="0 0 0 0 0 0 0 0 0 0 0 0 0 0 0 0 0 0 255 0"/>
<feOffset dx="0" dy="3"/>
<feGaussianBlur stdDeviation="1.5"/>
<feColorMatrix type="matrix" values="0 0 0 0 0 0 0 0 0 0 0 0 0 0 0 0 0 0 0.25 0"/>
<feBlend mode="normal" in2="BackgroundImageFix" result="effect1_dropShadow"/>
<feBlend mode="normal" in="SourceGraphic" in2="effect1_dropShadow" result="shape"/>
</filter>
<filter id="filter2_d" filterUnits="userSpaceOnUse" x="525" y="1971" width="262" height="56" color-interpolation-filters="sRGB">
<feFlood flood-opacity="0" result="BackgroundImageFix"/>
<feColorMatrix in="SourceAlpha" type="matrix" values="0 0 0 0 0 0 0 0 0 0 0 0 0 0 0 0 0 0 255 0"/>
<feOffset dx="0" dy="3"/>
<feGaussianBlur stdDeviation="1.5"/>
<feColorMatrix type="matrix" values="0 0 0 0 0 0 0 0 0 0 0 0 0 0 0 0 0 0 0.25 0"/>
<feBlend mode="normal" in2="BackgroundImageFix" result="effect1_dropShadow"/>
<feBlend mode="normal" in="SourceGraphic" in2="effect1_dropShadow" result="shape"/>
</filter>
<filter id="filter3_d" filterUnits="userSpaceOnUse" x="525" y="1891" width="262" height="56" color-interpolation-filters="sRGB">
<feFlood flood-opacity="0" result="BackgroundImageFix"/>
<feColorMatrix in="SourceAlpha" type="matrix" values="0 0 0 0 0 0 0 0 0 0 0 0 0 0 0 0 0 0 255 0"/>
<feOffset dx="0" dy="3"/>
<feGaussianBlur stdDeviation="1.5"/>
<feColorMatrix type="matrix" values="0 0 0 0 0 0 0 0 0 0 0 0 0 0 0 0 0 0 0.25 0"/>
<feBlend mode="normal" in2="BackgroundImageFix" result="effect1_dropShadow"/>
<feBlend mode="normal" in="SourceGraphic" in2="effect1_dropShadow" result="shape"/>
</filter>
<filter id="filter4_d" filterUnits="userSpaceOnUse" x="525" y="1811" width="262" height="56" color-interpolation-filters="sRGB">
<feFlood flood-opacity="0" result="BackgroundImageFix"/>
<feColorMatrix in="SourceAlpha" type="matrix" values="0 0 0 0 0 0 0 0 0 0 0 0 0 0 0 0 0 0 255 0"/>
<feOffset dx="0" dy="3"/>
<feGaussianBlur stdDeviation="1.5"/>
<feColorMatrix type="matrix" values="0 0 0 0 0 0 0 0 0 0 0 0 0 0 0 0 0 0 0.25 0"/>
<feBlend mode="normal" in2="BackgroundImageFix" result="effect1_dropShadow"/>
<feBlend mode="normal" in="SourceGraphic" in2="effect1_dropShadow" result="shape"/>
</filter>
<linearGradient id="paint1_linear" x1="0" y1="0" x2="1" y2="0" gradientUnits="userSpaceOnUse" gradientTransform="matrix(1.95943e-14 568 -320 3.478e-14 320 -3.478e-14)">
<stop offset="0" stop-color="#BADFEF"/>
<stop offset="0.977901" stop-color="#E3F7FC" stop-opacity="0.6"/>
</linearGradient>
<path id="path0_fill" d="M 0 0L 320 0L 320 568L 0 568L 0 0Z"/>
<path id="path1_fill" fill-rule="evenodd" d="M 562.711 0.6469C 553.571 1.89566 547.184 5.31486 539.248 13.2051C 533.307 19.1125 532.055 21.0785 528.391 30.2658C 527.617 32.2058 527.08 32.5589 525.571 32.1185C 520.496 30.6393 518.47 30.6951 514.858 32.414C 510.831 34.328 506.514 39.5553 506.514 42.5155C 506.514 46.1465 504.993 47.6685 501.939 47.0961C 497.343 46.2357 487.355 48.2018 482.653 50.8944C 453.741 67.4534 474.381 104.015 507.716 95.2921C 514.594 93.4915 517.417 94.1493 517.417 97.5536C 517.417 99.2651 523.609 105.087 527.584 107.114C 533.272 110.011 540.957 109.222 546.619 105.158C 551.646 101.549 551.295 101.599 558.792 103.416C 565.471 105.037 570.205 104.331 577.613 100.612L 582.029 98.3936L 584.322 100.44C 599.63 114.1 621.851 111.485 633.666 94.6343C 634.57 93.3428 635.814 92.815 637.945 92.815C 650.18 92.815 658.907 76.8507 653.247 64.8221C 649.94 57.7923 641.916 52.9329 635.371 53.994C 632.756 54.4177 632.006 54.1129 629.497 51.6061C 625.325 47.438 620.408 44.4016 616.057 43.3071C 611.411 42.1383 610.894 41.5548 609.823 36.2513C 606.315 18.8802 594.076 5.73669 577.45 1.4887C 570.425 -0.30639 569.908 -0.336122 562.711 0.6469ZM 184.865 10.0683C 182.572 11.0792 180.07 12.5287 179.31 13.2887C 178.549 14.0506 177.589 14.8125 177.176 14.9853C 175.761 15.5818 170.482 22.8476 169.035 26.1943C 167.592 29.5299 167.562 29.5467 162.912 29.5467C 157.911 29.5467 153.841 32.6797 153.224 37.0076C 153.008 38.5128 152.056 38.903 146.58 39.7355C 131.8 41.9785 124.331 52.5669 129.87 63.4173C 133.91 71.3261 143.479 74.2082 156.471 71.4264C 158.923 70.9005 159.308 71.1328 161.346 74.3569C 165.981 81.6933 175.417 83.1985 181.438 77.5605C 182.782 76.3025 183.729 76.0888 185.684 76.6035C 189.947 77.7278 198.447 77.2428 200.733 75.745C 203.493 73.9388 204.338 74.015 207.412 76.3508C 217.659 84.1295 231.46 82.6429 238.036 73.0542C 239.564 70.828 240.585 70.1888 242.619 70.1832C 247.377 70.1739 254.043 63.3039 254.043 58.4111C 254.043 52.0596 248.361 45.0502 243.215 45.0502C 240.016 45.0502 237.7 43.9649 234.495 40.9657C 233.201 39.756 230.383 38.1709 228.233 37.4443C 224.431 36.1602 224.278 35.9763 222.749 30.788C 217.424 12.7219 200.216 3.31165 184.865 10.0683ZM 425.153 91.0515C 410.88 94.9428 397.696 105.524 391.629 117.956C 390.617 120.029 389.442 122.382 389.018 123.181C 388.594 123.982 388.246 125.149 388.246 125.775C 388.246 127.68 385.439 129.707 384.033 128.821C 381.844 127.436 374.131 127.905 370.751 129.627C 364.805 132.658 361.122 137.882 359.385 145.755C 358.892 147.985 358.866 147.993 352.81 147.541C 335.929 146.285 319.762 156.223 315.64 170.392C 308.189 195.997 337.887 217.696 365.5 206.823C 369.57 205.22 372.31 205.248 372.31 206.89C 372.31 207.312 373.348 209.23 374.616 211.151C 384.256 225.748 401.082 228.389 413.504 217.254L 416.532 214.539L 422.311 216.505C 431.544 219.649 440.517 218.805 449.149 213.987C 454.067 211.24 454.507 211.261 457.498 214.383C 472.508 230.048 505.35 226.861 516.578 208.652C 518.665 205.266 520.7 204.27 525.519 204.27C 530.212 204.27 536.348 199.873 541.87 192.559C 551.79 179.414 539.077 155.92 522.192 156.193L 516.482 156.284L 512.544 152.391C 507.879 147.779 502.192 144.456 494.986 142.13C 489.977 140.513 489.737 140.312 489.737 137.722C 489.737 133.979 486.162 123.82 482.673 117.645C 470.334 95.8124 447.094 85.0679 425.153 91.0515ZM 113.13 111.26C 109.157 111.946 102.361 114.362 101.01 115.568C 100.572 115.96 99.7029 116.279 99.078 116.279C 97.3668 116.279 86.9993 124.822 84.2131 128.529C 82.8664 130.319 81.5124 131.971 81.2018 132.201C 79.8905 133.177 75.3782 141.355 73.7582 145.692L 72.0042 150.386L 67.6296 149.251C 57.9837 146.751 47.5586 153.87 45.6856 164.23C 45.1388 167.261 41.7425 170.89 41.1398 169.086C 39.8397 165.185 18.1934 170.557 11.4528 176.454C -17.0475 201.39 12.1429 240.809 49.7645 228.192C 53.3654 226.984 56.3842 226.105 56.4734 226.237C 56.5609 226.369 57.6806 228.303 58.9621 230.535C 67.8807 246.089 87.8921 249.983 98.8083 238.291C 101.25 235.677 101.444 235.666 108.097 237.79C 117.248 240.711 125.808 239.652 135.528 234.398L 139.051 232.493L 142.657 235.43C 162.14 251.301 186.772 248.751 202.321 229.253C 205.236 225.597 205.866 225.218 209.032 225.211C 216.797 225.192 225.664 218.376 228.415 210.308C 234.023 193.868 223.523 177.258 207.423 177.095C 201.721 177.037 201.369 176.913 198.616 174.008C 194.53 169.695 187.237 165.271 180.768 163.184C 176.038 161.656 175.199 161.095 175.199 159.458C 175.199 155.795 171.362 144.311 168.327 138.894C 156.605 117.974 135.496 107.406 113.13 111.26ZM 653.642 149.189C 645.065 154.623 639.809 160.517 635.539 169.493C 633.327 174.142 632.401 175.313 631.071 175.138C 623.89 174.192 613.875 177.288 613.875 180.453C 613.875 181.033 613.325 182.575 612.652 183.879C 611.976 185.186 611.232 187.224 610.994 188.412C 610.576 190.5 610.354 190.571 604.027 190.64C 579.148 190.907 565.743 214.05 580.599 231.085C 587.378 238.858 603.158 242.738 613.037 239.059C 620.127 236.416 620.116 236.414 622.677 240.858C 629.944 253.47 643.062 256.229 654.029 247.454C 656.045 245.84 658.027 244.725 658.433 244.975C 658.853 245.236 659.169 224.183 659.169 195.94C 659.169 168.718 658.887 146.456 658.541 146.467C 658.195 146.476 655.991 147.703 653.642 149.189Z"/>
<path id="path2_fill" d="M 0 25C 0 11.1929 11.1929 0 25 0L 231 0C 244.807 0 256 11.1929 256 25C 256 38.8071 244.807 50 231 50L 25 50C 11.1929 50 0 38.8071 0 25Z"/>
<path id="path3_fill" d="M 11.9795 4.62305L 11.9795 18L 10.1602 18L 4.62305 9.50098L 3.39258 7.3125L 3.49805 9.63281L 3.49805 18L 1.69629 18L 1.69629 4.62305L 3.48926 4.62305L 9.21094 13.4561L 10.3008 15.4336L 10.1777 13.21L 10.1777 4.62305L 11.9795 4.62305ZM 17.3057 7.99805L 17.3057 18L 15.3721 18L 15.3721 7.99805L 17.3057 7.99805ZM 15.0029 4.97461C 15.0029 4.72852 15.0703 4.5 15.2051 4.28906C 15.3457 4.07812 15.5273 3.91113 15.75 3.78809C 15.9727 3.66504 16.1982 3.60352 16.4268 3.60352C 16.8252 3.60352 17.1299 3.71484 17.3408 3.9375C 17.5576 4.16016 17.666 4.44434 17.666 4.79004C 17.666 5.04785 17.5986 5.28223 17.4639 5.49316C 17.3291 5.7041 17.1533 5.86816 16.9365 5.98535C 16.7197 6.10254 16.4883 6.16113 16.2422 6.16113C 16.0195 6.16113 15.8145 6.11426 15.627 6.02051C 15.4395 5.9209 15.2871 5.78027 15.1699 5.59863C 15.0586 5.41699 15.0029 5.20898 15.0029 4.97461ZM 24.6973 7.83984C 25.2656 7.83984 25.7695 7.89551 26.209 8.00684C 26.6484 8.1123 26.9648 8.22949 27.1582 8.3584L 26.8506 9.8877C 26.5811 9.7002 26.2646 9.5625 25.9014 9.47461C 25.5381 9.38086 25.1045 9.33398 24.6006 9.33398C 24.0967 9.33398 23.625 9.46289 23.1855 9.7207C 22.752 9.97852 22.4004 10.3828 22.1309 10.9336C 21.8613 11.4785 21.7266 12.167 21.7266 12.999C 21.7266 13.7725 21.8496 14.4375 22.0957 14.9941C 22.3418 15.5449 22.6787 15.9639 23.1064 16.251C 23.5342 16.5381 24.0146 16.6816 24.5479 16.6816C 25.0107 16.6816 25.4619 16.623 25.9014 16.5059C 26.3408 16.3828 26.6865 16.2451 26.9385 16.0928L 27.334 17.1914C 27.0234 17.4785 26.5898 17.71 26.0332 17.8857C 25.4766 18.0557 24.8848 18.1406 24.2578 18.1406C 23.3438 18.1406 22.5527 17.9238 21.8848 17.4902C 21.2227 17.0508 20.7187 16.4502 20.373 15.6885C 20.0273 14.9268 19.8545 14.0625 19.8545 13.0957C 19.8545 12.0938 20.0361 11.1973 20.3994 10.4062C 20.7686 9.60937 21.3164 8.98242 22.043 8.52539C 22.7695 8.06836 23.6543 7.83984 24.6973 7.83984ZM 34.6992 7.83105C 35.3965 7.83105 35.959 7.97168 36.3867 8.25293C 36.8203 8.52832 37.1367 8.96484 37.3359 9.5625C 37.541 10.1543 37.6436 10.9307 37.6436 11.8916L 37.6436 18L 35.71 18L 35.71 11.751C 35.71 11.1826 35.6514 10.7285 35.5342 10.3887C 35.4229 10.0488 35.2236 9.80273 34.9365 9.65039C 34.6553 9.49219 34.2627 9.4248 33.7588 9.44824C 33.4072 9.45996 33.0029 9.54785 32.5459 9.71191C 32.0889 9.87012 31.6699 10.0869 31.2891 10.3623L 31.2891 18L 29.3555 18L 29.3555 3.375L 31.2891 3.375L 31.2891 7.5498L 31.2012 8.96484C 31.6348 8.6543 32.1738 8.3877 32.8184 8.16504C 33.4688 7.94238 34.0957 7.83105 34.6992 7.83105ZM 41.1504 9.43945L 39.8496 9.43945L 39.8496 8.39355L 40.166 8.30566C 40.4355 8.22949 40.6348 8.16797 40.7637 8.12109C 40.8926 8.06836 41.0039 7.99805 41.0977 7.91016C 41.1973 7.81641 41.2764 7.69043 41.335 7.53223C 41.4229 7.30957 41.5518 6.9082 41.7217 6.32812L 41.915 5.69531L 43.0752 5.69531L 43.0752 7.98047L 45.9053 7.98047L 45.9053 9.43945L 43.0752 9.43945L 43.0752 14.5107C 43.0752 15.1787 43.1016 15.6533 43.1543 15.9346C 43.207 16.21 43.3037 16.3887 43.4443 16.4707C 43.5908 16.5527 43.8369 16.5938 44.1826 16.5938C 44.4346 16.5938 44.7393 16.5527 45.0967 16.4707C 45.46 16.3887 45.7266 16.3037 45.8965 16.2158L 46.2305 17.3232C 45.9434 17.5342 45.5303 17.7246 44.9912 17.8945C 44.458 18.0586 43.9482 18.1406 43.4619 18.1406C 42.7295 18.1406 42.1611 17.959 41.7568 17.5957C 41.3525 17.2266 41.1504 16.5615 41.1504 15.6006L 41.1504 9.43945ZM 47.8916 15.9873C 48.0029 16.0635 48.208 16.1602 48.5068 16.2773C 48.8057 16.3887 49.1543 16.4883 49.5527 16.5762C 49.9512 16.6641 50.3467 16.708 50.7393 16.708C 51.3135 16.708 51.7529 16.5996 52.0576 16.3828C 52.3682 16.166 52.5234 15.8643 52.5234 15.4775C 52.5234 15.1084 52.3477 14.792 51.9961 14.5283C 51.6504 14.2646 51.1377 13.9893 50.458 13.7021C 49.5732 13.3271 48.8848 12.8877 48.3926 12.3838C 47.9063 11.8799 47.6631 11.2441 47.6631 10.4766C 47.6631 9.9082 47.8213 9.42773 48.1377 9.03516C 48.46 8.63672 48.8936 8.33789 49.4385 8.13867C 49.9834 7.93945 50.5986 7.83984 51.2842 7.83984C 51.8232 7.83984 52.3301 7.89844 52.8047 8.01562C 53.2793 8.13281 53.6191 8.24707 53.8242 8.3584L 53.5078 9.81738C 53.3437 9.67676 53.0537 9.55078 52.6377 9.43945C 52.2217 9.32227 51.791 9.26367 51.3457 9.26367C 50.7305 9.26367 50.2588 9.36328 49.9307 9.5625C 49.6084 9.76172 49.4473 10.0342 49.4473 10.3799C 49.4473 10.6729 49.5205 10.9248 49.667 11.1357C 49.8193 11.3467 50.0332 11.5312 50.3086 11.6895C 50.584 11.8477 50.9443 12.0176 51.3896 12.1992C 52.2451 12.5449 52.9482 12.9639 53.499 13.4561C 54.0498 13.9424 54.3252 14.5693 54.3252 15.3369C 54.3252 15.9346 54.1816 16.4443 53.8945 16.8662C 53.6133 17.2822 53.2061 17.5986 52.6729 17.8154C 52.1455 18.0322 51.5186 18.1406 50.792 18.1406C 50.1416 18.1406 49.5088 18.0674 48.8936 17.9209C 48.2842 17.7744 47.8535 17.6104 47.6016 17.4287L 47.8916 15.9873Z"/>
<path id="path4_fill" d="M 7.61133 6.81152L 8.12109 6.1875L 1.5293 6.1875L 1.5293 4.62305L 10.2832 4.62305L 10.6875 5.33496L 4.00781 15.7148L 3.35742 16.4619L 10.1689 16.4619L 10.1689 18L 1.17773 18L 0.782227 17.2617L 7.61133 6.81152ZM 25.5322 7.98047L 22.4736 18.1406L 20.6895 18.1406L 18.8965 11.5928L 18.5713 9.99316L 18.2197 11.5928L 16.4531 18.1406L 14.6162 18.1406L 11.5576 7.98047L 13.4912 7.98047L 15.1084 13.9922L 15.5479 15.873L 15.9521 14.001L 17.6221 7.98047L 19.5469 7.98047L 21.208 13.9922L 21.6387 15.9082L 22.0781 14.0537L 23.6426 7.98047L 25.5322 7.98047ZM 34.7344 11.6191C 34.7344 12.0938 34.7285 12.4629 34.7168 12.7266C 34.7051 12.9844 34.6787 13.2129 34.6377 13.4121L 28.459 13.4121C 28.4648 13.4531 28.4678 13.5117 28.4678 13.5879C 28.5674 15.6504 29.5869 16.6816 31.5264 16.6816C 31.8779 16.6816 32.3232 16.626 32.8623 16.5146C 33.4014 16.4033 33.7881 16.2773 34.0225 16.1367L 34.3916 17.2441C 34.0693 17.5078 33.5801 17.7246 32.9238 17.8945C 32.2676 18.0586 31.6289 18.1406 31.0078 18.1406C 30.0645 18.1406 29.2617 17.9385 28.5996 17.5342C 27.9375 17.124 27.4336 16.5322 27.0879 15.7588C 26.7422 14.9854 26.5693 14.0566 26.5693 12.9727C 26.5693 11.9883 26.7393 11.1123 27.0791 10.3447C 27.4248 9.57715 27.9316 8.97363 28.5996 8.53418C 29.2734 8.08887 30.0879 7.85742 31.043 7.83984C 31.7168 7.82812 32.3291 7.96582 32.8799 8.25293C 33.4307 8.54004 33.8701 8.9707 34.1982 9.54492C 34.5322 10.1191 34.7109 10.8105 34.7344 11.6191ZM 32.9238 12.1289C 32.9355 11.9414 32.9414 11.8037 32.9414 11.7158C 32.9414 10.9717 32.7891 10.3682 32.4844 9.90527C 32.1855 9.44238 31.6699 9.21094 30.9375 9.21094C 30.2871 9.21094 29.7451 9.44238 29.3115 9.90527C 28.8838 10.3623 28.6172 11.1035 28.5117 12.1289L 32.9238 12.1289ZM 39.2256 7.99805L 39.2256 18L 37.292 18L 37.292 7.99805L 39.2256 7.99805ZM 36.9229 4.97461C 36.9229 4.72852 36.9902 4.5 37.125 4.28906C 37.2656 4.07812 37.4473 3.91113 37.6699 3.78809C 37.8926 3.66504 38.1182 3.60352 38.3467 3.60352C 38.7451 3.60352 39.0498 3.71484 39.2607 3.9375C 39.4775 4.16016 39.5859 4.44434 39.5859 4.79004C 39.5859 5.04785 39.5186 5.28223 39.3838 5.49316C 39.249 5.7041 39.0732 5.86816 38.8564 5.98535C 38.6396 6.10254 38.4082 6.16113 38.1621 6.16113C 37.9395 6.16113 37.7344 6.11426 37.5469 6.02051C 37.3594 5.9209 37.207 5.78027 37.0898 5.59863C 36.9785 5.41699 36.9229 5.20898 36.9229 4.97461ZM 56.1182 7.98047L 56.1182 18.1406L 55.3711 18.1406C 55.1426 18.1406 54.9609 18.123 54.8262 18.0879C 54.6914 18.0527 54.5859 17.9795 54.5098 17.8682C 54.4395 17.7568 54.4043 17.5898 54.4043 17.3672L 54.4043 17.1211C 53.9473 17.3965 53.4199 17.6367 52.8223 17.8418C 52.2305 18.041 51.6768 18.1406 51.1611 18.1406C 50.3467 18.1406 49.7227 17.9678 49.2891 17.6221C 48.8555 17.2764 48.5625 16.7988 48.4102 16.1895C 48.2578 15.5742 48.1816 14.7891 48.1816 13.834L 48.1816 7.98047L 50.1152 7.98047L 50.1152 13.8252C 50.1152 14.6396 50.1738 15.2402 50.291 15.627C 50.4141 16.0078 50.5986 16.2568 50.8447 16.374C 51.0967 16.4912 51.4658 16.5498 51.9521 16.5498C 52.3037 16.5498 52.6992 16.4736 53.1387 16.3213C 53.584 16.1689 53.9326 16.0107 54.1846 15.8467L 54.1846 7.98047L 56.1182 7.98047ZM 60.9434 7.99805L 60.9521 9.05273C 61.4092 8.74219 61.9746 8.46094 62.6484 8.20898C 63.3281 7.95703 63.9756 7.83105 64.5908 7.83105C 65.2822 7.83105 65.833 7.95996 66.2432 8.21777C 66.6533 8.47559 66.9521 8.88867 67.1396 9.45703C 67.3271 10.0254 67.4209 10.793 67.4209 11.7598L 67.4209 18L 65.4873 18L 65.4873 11.751C 65.4873 11.1885 65.4434 10.7432 65.3555 10.415C 65.2676 10.0811 65.1064 9.83203 64.8721 9.66797C 64.6377 9.50391 64.2979 9.42188 63.8525 9.42188C 63.7471 9.42188 63.668 9.4248 63.6152 9.43066C 63.2637 9.44238 62.8594 9.5332 62.4023 9.70312C 61.9512 9.86719 61.5352 10.0869 61.1543 10.3623L 61.1543 18L 59.2207 18L 59.2207 7.99805L 60.9434 7.99805ZM 78.3369 3.375L 78.3369 18.1406L 77.502 18.1406C 77.2734 18.1406 77.0889 18.123 76.9482 18.0879C 76.8135 18.0527 76.7051 17.9795 76.623 17.8682C 76.5469 17.7568 76.5088 17.5898 76.5088 17.3672L 76.5088 17.0068C 76.1924 17.3291 75.8174 17.5986 75.3838 17.8154C 74.9502 18.0322 74.3965 18.1406 73.7227 18.1406C 72.9961 18.1406 72.334 17.9648 71.7363 17.6133C 71.1445 17.2559 70.6699 16.7197 70.3125 16.0049C 69.9551 15.2842 69.7764 14.4023 69.7764 13.3594C 69.7764 12.2871 69.9844 11.332 70.4004 10.4941C 70.8164 9.65625 71.4023 9.00586 72.1582 8.54297C 72.9199 8.07422 73.7988 7.83984 74.7949 7.83984C 75.3574 7.83984 75.9023 7.92188 76.4297 8.08594L 76.4033 7.5498L 76.4033 3.375L 78.3369 3.375ZM 71.7451 13.1924C 71.7451 14.3467 71.959 15.208 72.3867 15.7764C 72.8203 16.3389 73.4443 16.6201 74.2588 16.6201C 74.6865 16.6201 75.082 16.541 75.4453 16.3828C 75.8145 16.2187 76.1338 16.0283 76.4033 15.8115L 76.4033 9.68555C 76.2275 9.5332 75.9932 9.42188 75.7002 9.35156C 75.4072 9.28125 75.041 9.24609 74.6016 9.24609C 74.0566 9.24609 73.5674 9.39844 73.1338 9.70312C 72.7002 10.0078 72.3604 10.459 72.1143 11.0566C 71.8682 11.6484 71.7451 12.3604 71.7451 13.1924ZM 95.1855 7.98047L 91.3359 18.1406L 89.71 18.1406L 85.7373 7.98047L 87.8203 7.98047L 89.8066 13.6846L 90.5449 16.0752L 91.2217 13.6846L 93.1289 7.98047L 95.1855 7.98047ZM 98.9912 7.99805L 98.9912 18L 97.0576 18L 97.0576 7.99805L 98.9912 7.99805ZM 96.6885 4.97461C 96.6885 4.72852 96.7559 4.5 96.8906 4.28906C 97.0312 4.07812 97.2129 3.91113 97.4355 3.78809C 97.6582 3.66504 97.8838 3.60352 98.1123 3.60352C 98.5107 3.60352 98.8154 3.71484 99.0264 3.9375C 99.2432 4.16016 99.3516 4.44434 99.3516 4.79004C 99.3516 5.04785 99.2842 5.28223 99.1494 5.49316C 99.0146 5.7041 98.8389 5.86816 98.6221 5.98535C 98.4053 6.10254 98.1738 6.16113 97.9277 6.16113C 97.7051 6.16113 97.5 6.11426 97.3125 6.02051C 97.125 5.9209 96.9727 5.78027 96.8555 5.59863C 96.7441 5.41699 96.6885 5.20898 96.6885 4.97461ZM 109.705 11.6191C 109.705 12.0938 109.699 12.4629 109.688 12.7266C 109.676 12.9844 109.649 13.2129 109.608 13.4121L 103.43 13.4121C 103.436 13.4531 103.438 13.5117 103.438 13.5879C 103.538 15.6504 104.558 16.6816 106.497 16.6816C 106.849 16.6816 107.294 16.626 107.833 16.5146C 108.372 16.4033 108.759 16.2773 108.993 16.1367L 109.362 17.2441C 109.04 17.5078 108.551 17.7246 107.895 17.8945C 107.238 18.0586 106.6 18.1406 105.979 18.1406C 105.035 18.1406 104.232 17.9385 103.57 17.5342C 102.908 17.124 102.404 16.5322 102.059 15.7588C 101.713 14.9854 101.54 14.0566 101.54 12.9727C 101.54 11.9883 101.71 11.1123 102.05 10.3447C 102.396 9.57715 102.902 8.97363 103.57 8.53418C 104.244 8.08887 105.059 7.85742 106.014 7.83984C 106.688 7.82812 107.3 7.96582 107.851 8.25293C 108.401 8.54004 108.841 8.9707 109.169 9.54492C 109.503 10.1191 109.682 10.8105 109.705 11.6191ZM 107.895 12.1289C 107.906 11.9414 107.912 11.8037 107.912 11.7158C 107.912 10.9717 107.76 10.3682 107.455 9.90527C 107.156 9.44238 106.641 9.21094 105.908 9.21094C 105.258 9.21094 104.716 9.44238 104.282 9.90527C 103.854 10.3623 103.588 11.1035 103.482 12.1289L 107.895 12.1289ZM 116.508 7.83105C 116.977 7.83105 117.302 7.87207 117.483 7.9541L 117.483 9.76465C 117.36 9.69434 117.199 9.63867 117 9.59766C 116.807 9.55078 116.528 9.52734 116.165 9.52734C 115.72 9.52734 115.307 9.60937 114.926 9.77344C 114.551 9.93164 114.234 10.125 113.977 10.3535L 113.977 18L 112.043 18L 112.043 7.99805L 113.669 7.99805L 113.801 9.10547C 113.93 8.92969 114.138 8.74219 114.425 8.54297C 114.718 8.34375 115.049 8.17676 115.418 8.04199C 115.793 7.90137 116.156 7.83105 116.508 7.83105ZM 123.855 9.45703L 119.021 9.45703L 119.021 7.98047L 126.158 7.98047L 126.466 8.81543L 121.632 15.8555L 121.113 16.5938L 126.29 16.5938L 126.29 18L 118.863 18L 118.494 17.2793L 123.855 9.45703ZM 130.737 7.99805L 130.737 18L 128.804 18L 128.804 7.99805L 130.737 7.99805ZM 128.435 4.97461C 128.435 4.72852 128.502 4.5 128.637 4.28906C 128.777 4.07812 128.959 3.91113 129.182 3.78809C 129.404 3.66504 129.63 3.60352 129.858 3.60352C 130.257 3.60352 130.562 3.71484 130.772 3.9375C 130.989 4.16016 131.098 4.44434 131.098 4.79004C 131.098 5.04785 131.03 5.28223 130.896 5.49316C 130.761 5.7041 130.585 5.86816 130.368 5.98535C 130.151 6.10254 129.92 6.16113 129.674 6.16113C 129.451 6.16113 129.246 6.11426 129.059 6.02051C 128.871 5.9209 128.719 5.78027 128.602 5.59863C 128.49 5.41699 128.435 5.20898 128.435 4.97461ZM 142.866 9.44824L 141.029 9.44824C 141.328 9.95215 141.478 10.5322 141.478 11.1885C 141.478 11.9092 141.302 12.5303 140.95 13.0518C 140.599 13.5674 140.118 13.96 139.509 14.2295C 138.899 14.4932 138.211 14.625 137.443 14.625C 137.045 14.625 136.682 14.5869 136.354 14.5107C 136.189 14.6221 136.055 14.7686 135.949 14.9502C 135.844 15.1318 135.791 15.3193 135.791 15.5127C 135.791 15.8818 135.873 16.1367 136.037 16.2773C 136.207 16.4121 136.506 16.4795 136.934 16.4795L 138.753 16.4795C 140.142 16.4795 141.103 16.7402 141.636 17.2617C 142.175 17.7773 142.444 18.4482 142.444 19.2744C 142.444 19.9248 142.228 20.4961 141.794 20.9883C 141.36 21.4863 140.774 21.8701 140.036 22.1396C 139.304 22.4092 138.492 22.5439 137.602 22.5439C 136.283 22.5439 135.252 22.2979 134.508 21.8057C 133.77 21.3135 133.4 20.5752 133.4 19.5908C 133.4 19.1338 133.538 18.7295 133.813 18.3779C 134.089 18.0264 134.417 17.7451 134.798 17.5342C 134.282 17.2354 134.024 16.752 134.024 16.084C 134.024 15.7441 134.133 15.3955 134.35 15.0381C 134.572 14.6748 134.874 14.3643 135.255 14.1064C 134.716 13.8193 134.291 13.4326 133.98 12.9463C 133.676 12.46 133.523 11.9121 133.523 11.3027C 133.523 10.5352 133.699 9.89355 134.051 9.37793C 134.402 8.85644 134.883 8.46973 135.492 8.21777C 136.107 7.96582 136.808 7.83984 137.593 7.83984C 138.548 7.83984 139.356 8.04199 140.019 8.44629C 140.241 8.29394 140.522 8.16797 140.862 8.06836C 141.202 7.96289 141.545 7.91016 141.891 7.91016L 142.866 7.91016L 142.866 9.44824ZM 137.487 13.333C 138.167 13.333 138.68 13.1777 139.025 12.8672C 139.377 12.5566 139.553 12.0205 139.553 11.2588C 139.553 10.5674 139.389 10.043 139.061 9.68555C 138.732 9.32812 138.237 9.14941 137.575 9.14941C 136.931 9.14941 136.415 9.30176 136.028 9.60645C 135.642 9.90527 135.448 10.4414 135.448 11.2148C 135.448 11.8301 135.615 12.3369 135.949 12.7354C 136.289 13.1338 136.802 13.333 137.487 13.333ZM 137.224 18C 136.69 18 136.257 17.9795 135.923 17.9385C 135.724 18.1143 135.565 18.3105 135.448 18.5273C 135.337 18.7441 135.281 19.0225 135.281 19.3623C 135.281 19.9893 135.466 20.4551 135.835 20.7598C 136.21 21.0645 136.813 21.2168 137.646 21.2168C 138.179 21.2168 138.668 21.1582 139.113 21.041C 139.564 20.9238 139.925 20.751 140.194 20.5225C 140.464 20.2939 140.599 20.0186 140.599 19.6963C 140.599 19.3096 140.528 18.9932 140.388 18.7471C 140.253 18.5068 140.004 18.3223 139.641 18.1934C 139.283 18.0645 138.776 18 138.12 18L 137.224 18Z"/>
<path id="path5_fill" d="M 2.27637 4.62305L 5.44043 13.623L 6.0293 15.6885L 6.63574 13.623L 9.65918 4.62305L 11.7158 4.62305L 6.83789 18.1143L 5.19434 18.1143L 0.193359 4.62305L 2.27637 4.62305ZM 15.5479 7.99805L 15.5479 18L 13.6143 18L 13.6143 7.99805L 15.5479 7.99805ZM 13.2451 4.97461C 13.2451 4.72852 13.3125 4.5 13.4473 4.28906C 13.5879 4.07812 13.7695 3.91113 13.9922 3.78809C 14.2148 3.66504 14.4404 3.60352 14.6689 3.60352C 15.0674 3.60352 15.3721 3.71484 15.583 3.9375C 15.7998 4.16016 15.9082 4.44434 15.9082 4.79004C 15.9082 5.04785 15.8408 5.28223 15.7061 5.49316C 15.5713 5.7041 15.3955 5.86816 15.1787 5.98535C 14.9619 6.10254 14.7305 6.16113 14.4844 6.16113C 14.2617 6.16113 14.0566 6.11426 13.8691 6.02051C 13.6816 5.9209 13.5293 5.78027 13.4121 5.59863C 13.3008 5.41699 13.2451 5.20898 13.2451 4.97461ZM 26.2617 11.6191C 26.2617 12.0938 26.2559 12.4629 26.2441 12.7266C 26.2324 12.9844 26.2061 13.2129 26.165 13.4121L 19.9863 13.4121C 19.9922 13.4531 19.9951 13.5117 19.9951 13.5879C 20.0947 15.6504 21.1143 16.6816 23.0537 16.6816C 23.4053 16.6816 23.8506 16.626 24.3896 16.5146C 24.9287 16.4033 25.3154 16.2773 25.5498 16.1367L 25.9189 17.2441C 25.5967 17.5078 25.1074 17.7246 24.4512 17.8945C 23.7949 18.0586 23.1563 18.1406 22.5352 18.1406C 21.5918 18.1406 20.7891 17.9385 20.127 17.5342C 19.4648 17.124 18.9609 16.5322 18.6152 15.7588C 18.2695 14.9854 18.0967 14.0566 18.0967 12.9727C 18.0967 11.9883 18.2666 11.1123 18.6064 10.3447C 18.9521 9.57715 19.459 8.97363 20.127 8.53418C 20.8008 8.08887 21.6152 7.85742 22.5703 7.83984C 23.2441 7.82812 23.8564 7.96582 24.4072 8.25293C 24.958 8.54004 25.3975 8.9707 25.7256 9.54492C 26.0596 10.1191 26.2383 10.8105 26.2617 11.6191ZM 24.4512 12.1289C 24.4629 11.9414 24.4688 11.8037 24.4688 11.7158C 24.4688 10.9717 24.3164 10.3682 24.0117 9.90527C 23.7129 9.44238 23.1973 9.21094 22.4648 9.21094C 21.8145 9.21094 21.2725 9.44238 20.8389 9.90527C 20.4111 10.3623 20.1445 11.1035 20.0391 12.1289L 24.4512 12.1289ZM 33.0645 7.83105C 33.5332 7.83105 33.8584 7.87207 34.04 7.9541L 34.04 9.76465C 33.917 9.69434 33.7559 9.63867 33.5566 9.59766C 33.3633 9.55078 33.085 9.52734 32.7217 9.52734C 32.2764 9.52734 31.8633 9.60937 31.4824 9.77344C 31.1074 9.93164 30.791 10.125 30.5332 10.3535L 30.5332 18L 28.5996 18L 28.5996 7.99805L 30.2256 7.99805L 30.3574 9.10547C 30.4863 8.92969 30.6943 8.74219 30.9814 8.54297C 31.2744 8.34375 31.6055 8.17676 31.9746 8.04199C 32.3496 7.90137 32.7129 7.83105 33.0645 7.83105ZM 49.5264 7.98047L 49.5264 18.1406L 48.7793 18.1406C 48.5508 18.1406 48.3691 18.123 48.2344 18.0879C 48.0996 18.0527 47.9941 17.9795 47.918 17.8682C 47.8477 17.7568 47.8125 17.5898 47.8125 17.3672L 47.8125 17.1211C 47.3555 17.3965 46.8281 17.6367 46.2305 17.8418C 45.6387 18.041 45.085 18.1406 44.5693 18.1406C 43.7549 18.1406 43.1309 17.9678 42.6973 17.6221C 42.2637 17.2764 41.9707 16.7988 41.8184 16.1895C 41.666 15.5742 41.5898 14.7891 41.5898 13.834L 41.5898 7.98047L 43.5234 7.98047L 43.5234 13.8252C 43.5234 14.6396 43.582 15.2402 43.6992 15.627C 43.8223 16.0078 44.0068 16.2568 44.2529 16.374C 44.5049 16.4912 44.874 16.5498 45.3604 16.5498C 45.7119 16.5498 46.1074 16.4736 46.5469 16.3213C 46.9922 16.1689 47.3408 16.0107 47.5928 15.8467L 47.5928 7.98047L 49.5264 7.98047ZM 54.3516 7.99805L 54.3604 9.05273C 54.8174 8.74219 55.3828 8.46094 56.0566 8.20898C 56.7363 7.95703 57.3838 7.83105 57.999 7.83105C 58.6904 7.83105 59.2412 7.95996 59.6514 8.21777C 60.0615 8.47559 60.3604 8.88867 60.5479 9.45703C 60.7354 10.0254 60.8291 10.793 60.8291 11.7598L 60.8291 18L 58.8955 18L 58.8955 11.751C 58.8955 11.1885 58.8516 10.7432 58.7637 10.415C 58.6758 10.0811 58.5146 9.83203 58.2803 9.66797C 58.0459 9.50391 57.7061 9.42188 57.2607 9.42188C 57.1553 9.42188 57.0762 9.4248 57.0234 9.43066C 56.6719 9.44238 56.2676 9.5332 55.8105 9.70312C 55.3594 9.86719 54.9434 10.0869 54.5625 10.3623L 54.5625 18L 52.6289 18L 52.6289 7.99805L 54.3516 7.99805ZM 71.7451 3.375L 71.7451 18.1406L 70.9102 18.1406C 70.6816 18.1406 70.4971 18.123 70.3564 18.0879C 70.2217 18.0527 70.1133 17.9795 70.0312 17.8682C 69.9551 17.7568 69.917 17.5898 69.917 17.3672L 69.917 17.0068C 69.6006 17.3291 69.2256 17.5986 68.792 17.8154C 68.3584 18.0322 67.8047 18.1406 67.1309 18.1406C 66.4043 18.1406 65.7422 17.9648 65.1445 17.6133C 64.5527 17.2559 64.0781 16.7197 63.7207 16.0049C 63.3633 15.2842 63.1846 14.4023 63.1846 13.3594C 63.1846 12.2871 63.3926 11.332 63.8086 10.4941C 64.2246 9.65625 64.8105 9.00586 65.5664 8.54297C 66.3281 8.07422 67.207 7.83984 68.2031 7.83984C 68.7656 7.83984 69.3105 7.92188 69.8379 8.08594L 69.8115 7.5498L 69.8115 3.375L 71.7451 3.375ZM 65.1533 13.1924C 65.1533 14.3467 65.3672 15.208 65.7949 15.7764C 66.2285 16.3389 66.8525 16.6201 67.667 16.6201C 68.0947 16.6201 68.4902 16.541 68.8535 16.3828C 69.2227 16.2187 69.542 16.0283 69.8115 15.8115L 69.8115 9.68555C 69.6357 9.5332 69.4014 9.42188 69.1084 9.35156C 68.8154 9.28125 68.4492 9.24609 68.0098 9.24609C 67.4648 9.24609 66.9756 9.39844 66.542 9.70312C 66.1084 10.0078 65.7686 10.459 65.5225 11.0566C 65.2764 11.6484 65.1533 12.3604 65.1533 13.1924ZM 85.0605 9.45703L 80.2266 9.45703L 80.2266 7.98047L 87.3633 7.98047L 87.6709 8.81543L 82.8369 15.8555L 82.3184 16.5938L 87.4951 16.5938L 87.4951 18L 80.0684 18L 79.6992 17.2793L 85.0605 9.45703ZM 102.472 7.98047L 99.4131 18.1406L 97.6289 18.1406L 95.8359 11.5928L 95.5107 9.99316L 95.1592 11.5928L 93.3926 18.1406L 91.5557 18.1406L 88.4971 7.98047L 90.4307 7.98047L 92.0479 13.9922L 92.4873 15.873L 92.8916 14.001L 94.5615 7.98047L 96.4863 7.98047L 98.1475 13.9922L 98.5781 15.9082L 99.0176 14.0537L 100.582 7.98047L 102.472 7.98047ZM 107.613 7.83105C 108.387 7.83105 109.031 7.91895 109.547 8.09473C 110.063 8.27051 110.464 8.59277 110.751 9.06152C 111.038 9.52441 111.182 10.1777 111.182 11.0215L 111.182 18.1406L 110.391 18.1406C 110.127 18.1406 109.928 18.123 109.793 18.0879C 109.658 18.0527 109.553 17.9707 109.477 17.8418C 109.4 17.7129 109.362 17.5078 109.362 17.2266L 109.362 17.1562C 109.069 17.4258 108.665 17.6572 108.149 17.8506C 107.64 18.0439 107.106 18.1406 106.55 18.1406C 105.958 18.1406 105.428 18.0264 104.959 17.7979C 104.496 17.5693 104.133 17.2441 103.869 16.8223C 103.611 16.3945 103.482 15.8936 103.482 15.3193C 103.482 14.6865 103.652 14.1387 103.992 13.6758C 104.338 13.2129 104.818 12.8555 105.434 12.6035C 105.979 12.3867 106.594 12.2256 107.279 12.1201C 107.971 12.0088 108.627 11.9531 109.248 11.9531L 109.248 10.9424C 109.248 10.4736 109.172 10.1221 109.02 9.8877C 108.873 9.65332 108.65 9.49512 108.352 9.41309C 108.053 9.33105 107.64 9.29004 107.112 9.29004C 106.831 9.29004 106.506 9.32812 106.137 9.4043C 105.773 9.48047 105.431 9.57715 105.108 9.69434C 104.792 9.80566 104.558 9.91406 104.405 10.0195L 103.931 8.75391C 104.083 8.66016 104.358 8.54004 104.757 8.39355C 105.161 8.24707 105.618 8.11816 106.128 8.00684C 106.644 7.88965 107.139 7.83105 107.613 7.83105ZM 107.121 16.6992C 107.396 16.6992 107.687 16.6582 107.991 16.5762C 108.296 16.4941 108.562 16.3975 108.791 16.2861C 109.025 16.1689 109.178 16.0693 109.248 15.9873L 109.248 13.1836C 108.82 13.1836 108.337 13.2246 107.798 13.3066C 107.265 13.3887 106.834 13.5088 106.506 13.667C 106.148 13.8369 105.873 14.0361 105.68 14.2646C 105.486 14.4932 105.39 14.7891 105.39 15.1523C 105.39 16.1836 105.967 16.6992 107.121 16.6992ZM 115.875 7.99805L 115.884 9.05273C 116.341 8.74219 116.906 8.46094 117.58 8.20898C 118.26 7.95703 118.907 7.83105 119.522 7.83105C 120.214 7.83105 120.765 7.95996 121.175 8.21777C 121.585 8.47559 121.884 8.88867 122.071 9.45703C 122.259 10.0254 122.353 10.793 122.353 11.7598L 122.353 18L 120.419 18L 120.419 11.751C 120.419 11.1885 120.375 10.7432 120.287 10.415C 120.199 10.0811 120.038 9.83203 119.804 9.66797C 119.569 9.50391 119.229 9.42188 118.784 9.42188C 118.679 9.42188 118.6 9.4248 118.547 9.43066C 118.195 9.44238 117.791 9.5332 117.334 9.70312C 116.883 9.86719 116.467 10.0869 116.086 10.3623L 116.086 18L 114.152 18L 114.152 7.99805L 115.875 7.99805ZM 129.938 9.45703L 125.104 9.45703L 125.104 7.98047L 132.24 7.98047L 132.548 8.81543L 127.714 15.8555L 127.195 16.5938L 132.372 16.5938L 132.372 18L 124.945 18L 124.576 17.2793L 129.938 9.45703ZM 136.819 7.99805L 136.819 18L 134.886 18L 134.886 7.99805L 136.819 7.99805ZM 134.517 4.97461C 134.517 4.72852 134.584 4.5 134.719 4.28906C 134.859 4.07812 135.041 3.91113 135.264 3.78809C 135.486 3.66504 135.712 3.60352 135.94 3.60352C 136.339 3.60352 136.644 3.71484 136.854 3.9375C 137.071 4.16016 137.18 4.44434 137.18 4.79004C 137.18 5.04785 137.112 5.28223 136.978 5.49316C 136.843 5.7041 136.667 5.86816 136.45 5.98535C 136.233 6.10254 136.002 6.16113 135.756 6.16113C 135.533 6.16113 135.328 6.11426 135.141 6.02051C 134.953 5.9209 134.801 5.78027 134.684 5.59863C 134.572 5.41699 134.517 5.20898 134.517 4.97461ZM 148.948 9.44824L 147.111 9.44824C 147.41 9.95215 147.56 10.5322 147.56 11.1885C 147.56 11.9092 147.384 12.5303 147.032 13.0518C 146.681 13.5674 146.2 13.96 145.591 14.2295C 144.981 14.4932 144.293 14.625 143.525 14.625C 143.127 14.625 142.764 14.5869 142.436 14.5107C 142.271 14.6221 142.137 14.7686 142.031 14.9502C 141.926 15.1318 141.873 15.3193 141.873 15.5127C 141.873 15.8818 141.955 16.1367 142.119 16.2773C 142.289 16.4121 142.588 16.4795 143.016 16.4795L 144.835 16.4795C 146.224 16.4795 147.185 16.7402 147.718 17.2617C 148.257 17.7773 148.526 18.4482 148.526 19.2744C 148.526 19.9248 148.31 20.4961 147.876 20.9883C 147.442 21.4863 146.856 21.8701 146.118 22.1396C 145.386 22.4092 144.574 22.5439 143.684 22.5439C 142.365 22.5439 141.334 22.2979 140.59 21.8057C 139.852 21.3135 139.482 20.5752 139.482 19.5908C 139.482 19.1338 139.62 18.7295 139.896 18.3779C 140.171 18.0264 140.499 17.7451 140.88 17.5342C 140.364 17.2354 140.106 16.752 140.106 16.084C 140.106 15.7441 140.215 15.3955 140.432 15.0381C 140.654 14.6748 140.956 14.3643 141.337 14.1064C 140.798 13.8193 140.373 13.4326 140.062 12.9463C 139.758 12.46 139.605 11.9121 139.605 11.3027C 139.605 10.5352 139.781 9.89355 140.133 9.37793C 140.484 8.85644 140.965 8.46973 141.574 8.21777C 142.189 7.96582 142.89 7.83984 143.675 7.83984C 144.63 7.83984 145.438 8.04199 146.101 8.44629C 146.323 8.29394 146.604 8.16797 146.944 8.06836C 147.284 7.96289 147.627 7.91016 147.973 7.91016L 148.948 7.91016L 148.948 9.44824ZM 143.569 13.333C 144.249 13.333 144.762 13.1777 145.107 12.8672C 145.459 12.5566 145.635 12.0205 145.635 11.2588C 145.635 10.5674 145.471 10.043 145.143 9.68555C 144.814 9.32812 144.319 9.14941 143.657 9.14941C 143.013 9.14941 142.497 9.30176 142.11 9.60645C 141.724 9.90527 141.53 10.4414 141.53 11.2148C 141.53 11.8301 141.697 12.3369 142.031 12.7354C 142.371 13.1338 142.884 13.333 143.569 13.333ZM 143.306 18C 142.772 18 142.339 17.9795 142.005 17.9385C 141.806 18.1143 141.647 18.3105 141.53 18.5273C 141.419 18.7441 141.363 19.0225 141.363 19.3623C 141.363 19.9893 141.548 20.4551 141.917 20.7598C 142.292 21.0645 142.896 21.2168 143.728 21.2168C 144.261 21.2168 144.75 21.1582 145.195 21.041C 145.646 20.9238 146.007 20.751 146.276 20.5225C 146.546 20.2939 146.681 20.0186 146.681 19.6963C 146.681 19.3096 146.61 18.9932 146.47 18.7471C 146.335 18.5068 146.086 18.3223 145.723 18.1934C 145.365 18.0645 144.858 18 144.202 18L 143.306 18Z"/>
<path id="path6_fill" d="M 11.6631 18.9932C 12.4189 18.9932 12.958 18.9375 13.2803 18.8262L 13.2803 20.2324C 13.1396 20.3262 12.917 20.4082 12.6123 20.4785C 12.3076 20.5488 11.9941 20.584 11.6719 20.584C 11.0039 20.584 10.3916 20.5137 9.83496 20.373C 9.28418 20.2324 8.74805 19.9834 8.22656 19.626C 7.71094 19.2686 7.21582 18.7734 6.74121 18.1406C 5.56934 18.1465 4.53809 17.8652 3.64746 17.2969C 2.7627 16.7227 2.08008 15.9258 1.59961 14.9062C 1.11914 13.8809 0.878906 12.7178 0.878906 11.417C 0.878906 9.92871 1.15137 8.66309 1.69629 7.62012C 2.24707 6.57715 2.99121 5.79492 3.92871 5.27344C 4.87207 4.74609 5.92969 4.48242 7.10156 4.48242C 8.25586 4.48242 9.26953 4.75488 10.1426 5.2998C 11.0215 5.84473 11.7012 6.61816 12.1816 7.62012C 12.668 8.61621 12.9111 9.7793 12.9111 11.1094C 12.9111 12.334 12.7324 13.4121 12.375 14.3438C 12.0176 15.2754 11.5166 16.0371 10.8721 16.6289C 10.2275 17.2207 9.47168 17.6396 8.60449 17.8857C 8.96191 18.2607 9.41016 18.5391 9.94922 18.7207C 10.4883 18.9023 11.0596 18.9932 11.6631 18.9932ZM 2.85645 11.3379C 2.85645 12.2871 3.01172 13.166 3.32227 13.9746C 3.63281 14.7773 4.09277 15.4219 4.70215 15.9082C 5.31152 16.3945 6.04395 16.6377 6.89941 16.6377C 7.71387 16.6377 8.42285 16.4297 9.02637 16.0137C 9.63574 15.5977 10.1045 14.9854 10.4326 14.1768C 10.7607 13.3623 10.9248 12.375 10.9248 11.2148C 10.9248 10.2598 10.7754 9.38379 10.4766 8.58691C 10.1777 7.79004 9.73535 7.15723 9.14941 6.68848C 8.56934 6.21387 7.86621 5.97656 7.04004 5.97656C 6.26074 5.97656 5.55469 6.17578 4.92188 6.57422C 4.28906 6.9668 3.78516 7.56445 3.41016 8.36719C 3.04102 9.16992 2.85645 10.1602 2.85645 11.3379ZM 23.2295 7.98047L 23.2295 18.1406L 22.4824 18.1406C 22.2539 18.1406 22.0723 18.123 21.9375 18.0879C 21.8027 18.0527 21.6973 17.9795 21.6211 17.8682C 21.5508 17.7568 21.5156 17.5898 21.5156 17.3672L 21.5156 17.1211C 21.0586 17.3965 20.5312 17.6367 19.9336 17.8418C 19.3418 18.041 18.7881 18.1406 18.2725 18.1406C 17.458 18.1406 16.834 17.9678 16.4004 17.6221C 15.9668 17.2764 15.6738 16.7988 15.5215 16.1895C 15.3691 15.5742 15.293 14.7891 15.293 13.834L 15.293 7.98047L 17.2266 7.98047L 17.2266 13.8252C 17.2266 14.6396 17.2852 15.2402 17.4023 15.627C 17.5254 16.0078 17.71 16.2568 17.9561 16.374C 18.208 16.4912 18.5771 16.5498 19.0635 16.5498C 19.415 16.5498 19.8105 16.4736 20.25 16.3213C 20.6953 16.1689 21.0439 16.0107 21.2959 15.8467L 21.2959 7.98047L 23.2295 7.98047ZM 29.7422 7.83105C 30.5156 7.83105 31.1602 7.91895 31.6758 8.09473C 32.1914 8.27051 32.5928 8.59277 32.8799 9.06152C 33.167 9.52441 33.3105 10.1777 33.3105 11.0215L 33.3105 18.1406L 32.5195 18.1406C 32.2559 18.1406 32.0566 18.123 31.9219 18.0879C 31.7871 18.0527 31.6816 17.9707 31.6055 17.8418C 31.5293 17.7129 31.4912 17.5078 31.4912 17.2266L 31.4912 17.1562C 31.1982 17.4258 30.7939 17.6572 30.2783 17.8506C 29.7686 18.0439 29.2354 18.1406 28.6787 18.1406C 28.0869 18.1406 27.5566 18.0264 27.0879 17.7979C 26.625 17.5693 26.2617 17.2441 25.998 16.8223C 25.7402 16.3945 25.6113 15.8936 25.6113 15.3193C 25.6113 14.6865 25.7813 14.1387 26.1211 13.6758C 26.4668 13.2129 26.9473 12.8555 27.5625 12.6035C 28.1074 12.3867 28.7227 12.2256 29.4082 12.1201C 30.0996 12.0088 30.7559 11.9531 31.377 11.9531L 31.377 10.9424C 31.377 10.4736 31.3008 10.1221 31.1484 9.8877C 31.002 9.65332 30.7793 9.49512 30.4805 9.41309C 30.1816 9.33105 29.7686 9.29004 29.2412 9.29004C 28.96 9.29004 28.6348 9.32812 28.2656 9.4043C 27.9023 9.48047 27.5596 9.57715 27.2373 9.69434C 26.9209 9.80566 26.6865 9.91406 26.5342 10.0195L 26.0596 8.75391C 26.2119 8.66016 26.4873 8.54004 26.8857 8.39355C 27.29 8.24707 27.7471 8.11816 28.2568 8.00684C 28.7725 7.88965 29.2676 7.83105 29.7422 7.83105ZM 29.25 16.6992C 29.5254 16.6992 29.8154 16.6582 30.1201 16.5762C 30.4248 16.4941 30.6914 16.3975 30.9199 16.2861C 31.1543 16.1689 31.3066 16.0693 31.377 15.9873L 31.377 13.1836C 30.9492 13.1836 30.4658 13.2246 29.9268 13.3066C 29.3936 13.3887 28.9629 13.5088 28.6348 13.667C 28.2773 13.8369 28.002 14.0361 27.8086 14.2646C 27.6152 14.4932 27.5186 14.7891 27.5186 15.1523C 27.5186 16.1836 28.0957 16.6992 29.25 16.6992ZM 36.7383 9.43945L 35.4375 9.43945L 35.4375 8.39355L 35.7539 8.30566C 36.0234 8.22949 36.2227 8.16797 36.3516 8.12109C 36.4805 8.06836 36.5918 7.99805 36.6855 7.91016C 36.7852 7.81641 36.8643 7.69043 36.9229 7.53223C 37.0107 7.30957 37.1396 6.9082 37.3096 6.32812L 37.5029 5.69531L 38.6631 5.69531L 38.6631 7.98047L 41.4932 7.98047L 41.4932 9.43945L 38.6631 9.43945L 38.6631 14.5107C 38.6631 15.1787 38.6895 15.6533 38.7422 15.9346C 38.7949 16.21 38.8916 16.3887 39.0322 16.4707C 39.1787 16.5527 39.4248 16.5938 39.7705 16.5938C 40.0225 16.5938 40.3271 16.5527 40.6846 16.4707C 41.0479 16.3887 41.3145 16.3037 41.4844 16.2158L 41.8184 17.3232C 41.5312 17.5342 41.1182 17.7246 40.5791 17.8945C 40.0459 18.0586 39.5361 18.1406 39.0498 18.1406C 38.3174 18.1406 37.749 17.959 37.3447 17.5957C 36.9404 17.2266 36.7383 16.5615 36.7383 15.6006L 36.7383 9.43945ZM 43.4795 15.9873C 43.5908 16.0635 43.7959 16.1602 44.0947 16.2773C 44.3936 16.3887 44.7422 16.4883 45.1406 16.5762C 45.5391 16.6641 45.9346 16.708 46.3271 16.708C 46.9014 16.708 47.3408 16.5996 47.6455 16.3828C 47.9561 16.166 48.1113 15.8643 48.1113 15.4775C 48.1113 15.1084 47.9355 14.792 47.584 14.5283C 47.2383 14.2646 46.7256 13.9893 46.0459 13.7021C 45.1611 13.3271 44.4727 12.8877 43.9805 12.3838C 43.4941 11.8799 43.251 11.2441 43.251 10.4766C 43.251 9.9082 43.4092 9.42773 43.7256 9.03516C 44.0479 8.63672 44.4814 8.33789 45.0264 8.13867C 45.5713 7.93945 46.1865 7.83984 46.8721 7.83984C 47.4111 7.83984 47.918 7.89844 48.3926 8.01562C 48.8672 8.13281 49.207 8.24707 49.4121 8.3584L 49.0957 9.81738C 48.9316 9.67676 48.6416 9.55078 48.2256 9.43945C 47.8096 9.32227 47.3789 9.26367 46.9336 9.26367C 46.3184 9.26367 45.8467 9.36328 45.5186 9.5625C 45.1963 9.76172 45.0352 10.0342 45.0352 10.3799C 45.0352 10.6729 45.1084 10.9248 45.2549 11.1357C 45.4072 11.3467 45.6211 11.5312 45.8965 11.6895C 46.1719 11.8477 46.5322 12.0176 46.9775 12.1992C 47.833 12.5449 48.5361 12.9639 49.0869 13.4561C 49.6377 13.9424 49.9131 14.5693 49.9131 15.3369C 49.9131 15.9346 49.7695 16.4443 49.4824 16.8662C 49.2012 17.2822 48.7939 17.5986 48.2607 17.8154C 47.7334 18.0322 47.1064 18.1406 46.3799 18.1406C 45.7295 18.1406 45.0967 18.0674 44.4814 17.9209C 43.8721 17.7744 43.4414 17.6104 43.1895 17.4287L 43.4795 15.9873ZM 56.4961 7.83984C 57.0645 7.83984 57.5684 7.89551 58.0078 8.00684C 58.4473 8.1123 58.7637 8.22949 58.957 8.3584L 58.6494 9.8877C 58.3799 9.7002 58.0635 9.5625 57.7002 9.47461C 57.3369 9.38086 56.9033 9.33398 56.3994 9.33398C 55.8955 9.33398 55.4238 9.46289 54.9844 9.7207C 54.5508 9.97852 54.1992 10.3828 53.9297 10.9336C 53.6602 11.4785 53.5254 12.167 53.5254 12.999C 53.5254 13.7725 53.6484 14.4375 53.8945 14.9941C 54.1406 15.5449 54.4775 15.9639 54.9053 16.251C 55.333 16.5381 55.8135 16.6816 56.3467 16.6816C 56.8096 16.6816 57.2607 16.623 57.7002 16.5059C 58.1396 16.3828 58.4854 16.2451 58.7373 16.0928L 59.1328 17.1914C 58.8223 17.4785 58.3887 17.71 57.832 17.8857C 57.2754 18.0557 56.6836 18.1406 56.0566 18.1406C 55.1426 18.1406 54.3516 17.9238 53.6836 17.4902C 53.0215 17.0508 52.5176 16.4502 52.1719 15.6885C 51.8262 14.9268 51.6533 14.0625 51.6533 13.0957C 51.6533 12.0938 51.835 11.1973 52.1982 10.4062C 52.5674 9.60937 53.1152 8.98242 53.8418 8.52539C 54.5684 8.06836 55.4531 7.83984 56.4961 7.83984ZM 66.498 7.83105C 67.1953 7.83105 67.7578 7.97168 68.1855 8.25293C 68.6191 8.52832 68.9355 8.96484 69.1348 9.5625C 69.3398 10.1543 69.4424 10.9307 69.4424 11.8916L 69.4424 18L 67.5088 18L 67.5088 11.751C 67.5088 11.1826 67.4502 10.7285 67.333 10.3887C 67.2217 10.0488 67.0225 9.80273 66.7354 9.65039C 66.4541 9.49219 66.0615 9.4248 65.5576 9.44824C 65.2061 9.45996 64.8018 9.54785 64.3447 9.71191C 63.8877 9.87012 63.4688 10.0869 63.0879 10.3623L 63.0879 18L 61.1543 18L 61.1543 3.375L 63.0879 3.375L 63.0879 7.5498L 63 8.96484C 63.4336 8.6543 63.9727 8.3877 64.6172 8.16504C 65.2676 7.94238 65.8945 7.83105 66.498 7.83105Z"/>
<path id="path7_fill" d="M 47.4287 9.77051L 47.4287 7.70508L 56.833 7.70508L 56.833 9.77051L 54.3721 10.21L 57.9902 23.4961L 58.5322 26.3965L 59.0449 23.4961L 62.1064 12.7734L 61.2568 10.1953L 59.3818 9.77051L 59.3818 7.70508L 69.1523 7.70508L 69.1523 9.77051L 66.3691 10.1953L 70.002 23.4961L 70.6318 26.6162L 71.1445 23.4961L 74.4844 10.1953L 71.877 9.77051L 71.877 7.70508L 79.2451 7.70508L 79.2451 9.77051L 77.3555 10.21L 71.6865 30.1465L 67.248 30.1465L 63.3662 16.8164L 59.6602 30.1465L 55.3096 30.1465L 49.1865 10.21L 47.4287 9.77051ZM 89.2646 19.1162C 89.2646 18.3838 89.1816 17.8027 89.0156 17.373C 88.8594 16.9434 88.5664 16.6211 88.1367 16.4062C 87.707 16.1914 87.0918 16.084 86.291 16.084C 85.2949 16.084 84.3916 16.1963 83.5811 16.4209C 82.7803 16.6357 81.9746 16.9189 81.1641 17.2705L 81.1494 17.2705L 80.1973 15.293C 80.5195 15.0195 81.0518 14.7021 81.7939 14.3408C 82.5459 13.9697 83.4199 13.6475 84.416 13.374C 85.4219 13.0908 86.4473 12.9492 87.4922 12.9492C 89.0547 12.9492 90.2803 13.1543 91.1689 13.5645C 92.0674 13.9648 92.707 14.6045 93.0879 15.4834C 93.4688 16.3623 93.6592 17.5488 93.6592 19.043L 93.6592 28.0225L 95.2559 28.0225L 95.2559 29.8828C 94.7578 29.9902 94.1328 30.0977 93.3809 30.2051C 92.6289 30.3125 91.9697 30.3662 91.4033 30.3662C 90.8857 30.3662 90.4854 30.3174 90.2021 30.2197C 89.9287 30.1318 89.7334 29.9707 89.6162 29.7363C 89.499 29.4922 89.4404 29.1406 89.4404 28.6816L 89.4404 28.2275C 88.9619 28.7842 88.3125 29.2773 87.4922 29.707C 86.6719 30.127 85.7295 30.3369 84.665 30.3369C 83.7275 30.3369 82.8682 30.1465 82.0869 29.7656C 81.3154 29.375 80.7002 28.8037 80.2412 28.0518C 79.7822 27.2998 79.5527 26.3916 79.5527 25.3271C 79.5527 23.4912 80.4121 22.1094 82.1309 21.1816C 83.8496 20.2441 86.2275 19.7607 89.2646 19.7314L 89.2646 19.1162ZM 89.2646 21.709C 87.6338 21.7188 86.4521 22.0117 85.7197 22.5879C 84.9971 23.1641 84.6357 23.8965 84.6357 24.7852C 84.6357 25.6836 84.8408 26.377 85.251 26.8652C 85.6709 27.3438 86.2324 27.583 86.9355 27.583C 87.2773 27.583 87.6729 27.4951 88.1221 27.3193C 88.5811 27.1338 88.9619 26.9043 89.2646 26.6309L 89.2646 21.709ZM 100.09 25.1367L 100.837 27.4219C 100.983 27.666 101.315 27.8906 101.833 28.0957C 102.36 28.291 102.902 28.3887 103.459 28.3887C 104.309 28.3887 104.934 28.2129 105.334 27.8613C 105.734 27.5 105.935 27.0361 105.935 26.4697C 105.935 26.0498 105.778 25.6738 105.466 25.3418C 105.163 25.0098 104.758 24.7119 104.25 24.4482C 103.752 24.1748 103.02 23.8184 102.053 23.3789L 101.291 23.0273C 99.9238 22.4219 98.9082 21.709 98.2441 20.8887C 97.5898 20.0586 97.2627 19.0088 97.2627 17.7393C 97.2627 16.8213 97.5313 16.001 98.0684 15.2783C 98.6055 14.5557 99.3721 13.9893 100.368 13.5791C 101.374 13.1592 102.556 12.9492 103.913 12.9492C 104.841 12.9492 105.637 13.0078 106.301 13.125C 106.965 13.2422 107.697 13.4033 108.498 13.6084C 108.928 13.7354 109.27 13.8184 109.523 13.8574L 109.523 17.8564L 106.887 17.8564L 106.125 15.7031C 106.018 15.4883 105.773 15.2979 105.393 15.1318C 105.021 14.9658 104.577 14.8828 104.06 14.8828C 103.278 14.8828 102.678 15.0488 102.258 15.3809C 101.838 15.7129 101.628 16.1475 101.628 16.6846C 101.628 17.1338 101.76 17.5195 102.023 17.8418C 102.297 18.1543 102.634 18.4229 103.034 18.6475C 103.444 18.8623 104.021 19.1309 104.763 19.4531L 105.451 19.7461C 106.516 20.2148 107.399 20.6738 108.103 21.123C 108.806 21.5625 109.387 22.124 109.846 22.8076C 110.314 23.4912 110.549 24.3164 110.549 25.2832C 110.549 26.2402 110.3 27.0996 109.802 27.8613C 109.304 28.623 108.537 29.2285 107.502 29.6777C 106.477 30.1172 105.207 30.3369 103.693 30.3369C 102.639 30.3369 101.677 30.2441 100.808 30.0586C 99.9482 29.8828 99.04 29.6484 98.083 29.3555C 97.8877 29.2871 97.6191 29.209 97.2773 29.1211L 97.2773 25.1367L 100.09 25.1367ZM 123.044 27.7441L 123.044 16.4941L 121.066 15.8936L 121.066 13.6523L 126.838 12.9199L 126.911 12.9199L 127.819 13.5645L 127.819 27.7588L 129.694 28.0371L 129.694 30L 121.081 30L 121.081 28.0371L 123.044 27.7441ZM 122.326 8.20312C 122.326 7.67578 122.434 7.19238 122.648 6.75293C 122.873 6.31348 123.195 5.9668 123.615 5.71289C 124.045 5.44922 124.553 5.31738 125.139 5.31738L 125.153 5.31738C 125.71 5.31738 126.184 5.42969 126.574 5.6543C 126.975 5.87891 127.277 6.17676 127.482 6.54785C 127.697 6.91895 127.805 7.3291 127.805 7.77832C 127.805 8.61816 127.551 9.30664 127.043 9.84375C 126.535 10.3711 125.808 10.6348 124.86 10.6348L 124.846 10.6348C 124.357 10.6348 123.923 10.5273 123.542 10.3125C 123.161 10.0977 122.863 9.80957 122.648 9.44824C 122.434 9.07715 122.326 8.66211 122.326 8.20312ZM 134.895 25.1367L 135.642 27.4219C 135.788 27.666 136.12 27.8906 136.638 28.0957C 137.165 28.291 137.707 28.3887 138.264 28.3887C 139.113 28.3887 139.738 28.2129 140.139 27.8613C 140.539 27.5 140.739 27.0361 140.739 26.4697C 140.739 26.0498 140.583 25.6738 140.271 25.3418C 139.968 25.0098 139.563 24.7119 139.055 24.4482C 138.557 24.1748 137.824 23.8184 136.857 23.3789L 136.096 23.0273C 134.729 22.4219 133.713 21.709 133.049 20.8887C 132.395 20.0586 132.067 19.0088 132.067 17.7393C 132.067 16.8213 132.336 16.001 132.873 15.2783C 133.41 14.5557 134.177 13.9893 135.173 13.5791C 136.179 13.1592 137.36 12.9492 138.718 12.9492C 139.646 12.9492 140.441 13.0078 141.105 13.125C 141.77 13.2422 142.502 13.4033 143.303 13.6084C 143.732 13.7354 144.074 13.8184 144.328 13.8574L 144.328 17.8564L 141.691 17.8564L 140.93 15.7031C 140.822 15.4883 140.578 15.2979 140.197 15.1318C 139.826 14.9658 139.382 14.8828 138.864 14.8828C 138.083 14.8828 137.482 15.0488 137.062 15.3809C 136.643 15.7129 136.433 16.1475 136.433 16.6846C 136.433 17.1338 136.564 17.5195 136.828 17.8418C 137.102 18.1543 137.438 18.4229 137.839 18.6475C 138.249 18.8623 138.825 19.1309 139.567 19.4531L 140.256 19.7461C 141.32 20.2148 142.204 20.6738 142.907 21.123C 143.61 21.5625 144.191 22.124 144.65 22.8076C 145.119 23.4912 145.354 24.3164 145.354 25.2832C 145.354 26.2402 145.104 27.0996 144.606 27.8613C 144.108 28.623 143.342 29.2285 142.307 29.6777C 141.281 30.1172 140.012 30.3369 138.498 30.3369C 137.443 30.3369 136.481 30.2441 135.612 30.0586C 134.753 29.8828 133.845 29.6484 132.888 29.3555C 132.692 29.2871 132.424 29.209 132.082 29.1211L 132.082 25.1367L 134.895 25.1367ZM 147.082 15.8057L 147.082 14.0918C 147.316 14.0039 147.648 13.8672 148.078 13.6816C 148.508 13.4961 148.747 13.3838 148.796 13.3447C 149.167 12.9834 149.479 12.5098 149.733 11.9238C 149.909 11.543 150.1 11.0645 150.305 10.4883C 150.51 9.91211 150.681 9.38965 150.817 8.9209L 153.527 8.9209L 153.659 13.3301L 158.054 13.3301L 158.054 15.8057L 153.688 15.8057L 153.688 23.7451C 153.688 24.8975 153.713 25.6934 153.762 26.1328C 153.82 26.5723 153.942 26.8604 154.128 26.9971C 154.313 27.124 154.641 27.1875 155.109 27.1875L 155.124 27.1875C 155.954 27.1875 156.867 27.041 157.863 26.748L 157.878 26.748L 158.508 28.5645C 158.156 28.8574 157.673 29.1357 157.058 29.3994C 156.452 29.6533 155.773 29.8633 155.021 30.0293C 154.279 30.1953 153.557 30.2783 152.854 30.2783L 152.824 30.2783C 151.496 30.2783 150.505 29.9805 149.851 29.3848C 149.206 28.7793 148.884 27.8467 148.884 26.5869L 148.884 15.8057L 147.082 15.8057ZM 168.015 22.0459C 168.015 20.3662 168.356 18.833 169.04 17.4463C 169.733 16.0596 170.754 14.9561 172.102 14.1357C 173.449 13.3057 175.065 12.8906 176.95 12.8906C 177.526 12.8906 178.146 12.959 178.811 13.0957L 178.811 8.27637L 175.983 7.89551L 175.983 6.02051L 182.458 5.39062L 182.575 5.39062L 183.498 6.0791L 183.498 27.9492L 185.065 27.9492L 185.065 29.8828C 183.532 30.2051 182.272 30.3662 181.286 30.3662C 180.808 30.3662 180.432 30.3223 180.158 30.2344C 179.885 30.1465 179.675 29.9805 179.528 29.7363C 179.392 29.4922 179.323 29.1406 179.323 28.6816L 179.323 28.0371C 178.806 28.7109 178.117 29.2627 177.258 29.6924C 176.398 30.1221 175.485 30.3369 174.519 30.3369C 173.278 30.3369 172.17 30.0391 171.193 29.4434C 170.217 28.8477 169.44 27.9297 168.864 26.6895C 168.298 25.4492 168.015 23.9014 168.015 22.0459ZM 178.811 15.6006C 178.684 15.415 178.43 15.2588 178.049 15.1318C 177.668 14.9951 177.248 14.9268 176.789 14.9268C 175.666 14.9268 174.763 15.4688 174.079 16.5527C 173.405 17.627 173.068 19.3701 173.068 21.7822C 173.068 23.7549 173.361 25.2246 173.947 26.1914C 174.533 27.1582 175.319 27.6416 176.306 27.6416C 176.853 27.6416 177.341 27.5342 177.771 27.3193C 178.2 27.0947 178.547 26.8262 178.811 26.5137L 178.811 15.6006ZM 188.962 27.7441L 188.962 16.4941L 186.984 15.8936L 186.984 13.6523L 192.756 12.9199L 192.829 12.9199L 193.737 13.5645L 193.737 27.7588L 195.612 28.0371L 195.612 30L 186.999 30L 186.999 28.0371L 188.962 27.7441ZM 188.244 8.20312C 188.244 7.67578 188.352 7.19238 188.566 6.75293C 188.791 6.31348 189.113 5.9668 189.533 5.71289C 189.963 5.44922 190.471 5.31738 191.057 5.31738L 191.071 5.31738C 191.628 5.31738 192.102 5.42969 192.492 5.6543C 192.893 5.87891 193.195 6.17676 193.4 6.54785C 193.615 6.91895 193.723 7.3291 193.723 7.77832C 193.723 8.61816 193.469 9.30664 192.961 9.84375C 192.453 10.3711 191.726 10.6348 190.778 10.6348L 190.764 10.6348C 190.275 10.6348 189.841 10.5273 189.46 10.3125C 189.079 10.0977 188.781 9.80957 188.566 9.44824C 188.352 9.07715 188.244 8.66211 188.244 8.20312ZM 197.429 21.6797C 197.429 19.873 197.766 18.3105 198.439 16.9922C 199.123 15.6738 200.08 14.6631 201.311 13.96C 202.541 13.2568 203.967 12.9053 205.588 12.9053C 207.648 12.9053 209.226 13.4277 210.319 14.4727C 211.423 15.5176 211.999 17.0166 212.048 18.9697C 212.048 20.3271 211.975 21.3574 211.828 22.0605L 202.365 22.0605C 202.482 23.8574 202.922 25.1904 203.684 26.0596C 204.455 26.9287 205.476 27.3633 206.745 27.3633C 207.478 27.3633 208.239 27.2363 209.03 26.9824C 209.831 26.7285 210.48 26.4404 210.979 26.1182L 211.828 27.9346C 211.486 28.2959 210.979 28.6621 210.305 29.0332C 209.641 29.4043 208.874 29.7168 208.005 29.9707C 207.146 30.2148 206.281 30.3369 205.412 30.3369C 203.596 30.3369 202.092 29.9756 200.9 29.2529C 199.709 28.5303 198.83 27.5244 198.264 26.2354C 197.707 24.9365 197.429 23.418 197.429 21.6797ZM 207.375 20.0537L 207.39 18.8232C 207.39 17.6025 207.214 16.6553 206.862 15.9814C 206.511 15.3076 205.915 14.9707 205.075 14.9707C 204.519 14.9707 204.045 15.1123 203.654 15.3955C 203.264 15.6787 202.951 16.1963 202.717 16.9482C 202.482 17.6904 202.351 18.7256 202.321 20.0537L 207.375 20.0537ZM 10.5879 64.6562L 17.3555 44.6025L 22.5264 44.6025L 29.3379 64.6709L 31.0371 65.0371L 31.0371 67L 21.7646 67L 21.7646 65.0371L 23.874 64.6562L 22.8193 61.0381L 15.4512 61.0381L 14.4258 64.7148L 16.7549 65.0371L 16.7549 67L 8.85938 67L 8.83008 65.0371L 10.5879 64.6562ZM 22.1602 58.7822L 19.5088 49.7148L 19.0547 47.6494L 18.6006 49.7148L 16.0811 58.7822L 22.1602 58.7822ZM 33.8203 64.7734L 33.8203 53.4941L 32.0186 52.9082L 32.0186 50.5938L 37.3066 49.9199L 37.3799 49.9199L 38.1855 50.5645L 38.1855 51.6338L 38.1562 52.3076C 38.8496 51.6631 39.7334 51.1162 40.8076 50.667C 41.8916 50.208 42.9951 49.9785 44.1182 49.9785C 45.3291 49.9785 46.2812 50.1982 46.9746 50.6377C 47.6777 51.0674 48.1807 51.7607 48.4834 52.7178C 48.7959 53.6748 48.9521 54.9736 48.9521 56.6143L 48.9521 64.7441L 50.71 65.0078L 50.71 67L 42.5654 67L 42.5654 65.0371L 44.1035 64.7588L 44.1035 56.6143C 44.1035 55.6475 44.04 54.8955 43.9131 54.3584C 43.7861 53.8115 43.5566 53.4111 43.2246 53.1572C 42.8926 52.9033 42.4141 52.7764 41.7891 52.7764C 41.2227 52.7764 40.6563 52.8984 40.0898 53.1426C 39.5332 53.377 39.0547 53.6553 38.6543 53.9775L 38.6543 64.7588L 40.3535 65.0371L 40.3535 67L 32.1211 67L 32.1211 65.0371L 33.8203 64.7734ZM 52.1309 52.8057L 52.1309 51.0918C 52.3652 51.0039 52.6973 50.8672 53.127 50.6816C 53.5566 50.4961 53.7959 50.3838 53.8447 50.3447C 54.2158 49.9834 54.5283 49.5098 54.7822 48.9238C 54.958 48.543 55.1484 48.0645 55.3535 47.4883C 55.5586 46.9121 55.7295 46.3896 55.8662 45.9209L 58.5762 45.9209L 58.708 50.3301L 63.1025 50.3301L 63.1025 52.8057L 58.7373 52.8057L 58.7373 60.7451C 58.7373 61.8975 58.7617 62.6934 58.8105 63.1328C 58.8691 63.5723 58.9912 63.8604 59.1768 63.9971C 59.3623 64.124 59.6895 64.1875 60.1582 64.1875L 60.1729 64.1875C 61.0029 64.1875 61.916 64.041 62.9121 63.748L 62.9268 63.748L 63.5566 65.5645C 63.2051 65.8574 62.7217 66.1357 62.1064 66.3994C 61.501 66.6533 60.8223 66.8633 60.0703 67.0293C 59.3281 67.1953 58.6055 67.2783 57.9023 67.2783L 57.873 67.2783C 56.5449 67.2783 55.5537 66.9805 54.8994 66.3848C 54.2549 65.7793 53.9326 64.8467 53.9326 63.5869L 53.9326 52.8057L 52.1309 52.8057ZM 63.3223 52.249L 63.3223 50.3447L 71.4375 50.3447L 71.4375 52.249L 69.416 52.6152L 71.4229 60.1885L 72.0381 63.25L 72.5801 60.2031L 75.3047 50.3447L 79.2891 50.3447L 82.3066 60.1885L 82.9219 63.2207L 83.5371 60.2178L 85.4414 52.6299L 83.2734 52.249L 83.2734 50.3447L 89.9092 50.3447L 89.9092 52.249L 88.4443 52.6006L 83.9473 67.2344L 80.1094 67.2344L 77.1064 57.6836L 76.5205 54.2852L 76.0811 57.6836L 73.2539 67.2344L 69.4014 67.2344L 64.6992 52.6006L 63.3223 52.249ZM 98.6543 49.8906C 100.314 49.8906 101.74 50.2373 102.932 50.9307C 104.133 51.6143 105.046 52.6055 105.671 53.9043C 106.306 55.1934 106.623 56.7266 106.623 58.5039C 106.623 60.4473 106.242 62.083 105.48 63.4111C 104.719 64.7393 103.703 65.7256 102.434 66.3701C 101.164 67.0146 99.7627 67.3369 98.2295 67.3369C 96.5693 67.3369 95.1387 66.9951 93.9375 66.3115C 92.7461 65.6182 91.833 64.627 91.1982 63.3379C 90.5732 62.0391 90.2607 60.501 90.2607 58.7236C 90.2607 56.8291 90.6416 55.2178 91.4033 53.8896C 92.1748 52.5615 93.1953 51.5654 94.4648 50.9014C 95.7441 50.2275 97.1406 49.8906 98.6543 49.8906ZM 101.452 58.8701C 101.452 56.5752 101.213 54.8564 100.734 53.7139C 100.266 52.5615 99.4941 51.9854 98.4199 51.9854C 97.4043 51.9854 96.6475 52.5029 96.1494 53.5381C 95.6514 54.5732 95.4023 56.1797 95.4023 58.3574C 95.4023 60.6328 95.6465 62.3516 96.1348 63.5137C 96.6328 64.666 97.4189 65.2422 98.4932 65.2422C 99.499 65.2422 100.241 64.7295 100.72 63.7041C 101.208 62.6689 101.452 61.0576 101.452 58.8701ZM 110.769 64.7588L 110.769 53.4941L 108.996 52.9082L 108.996 50.5938L 113.903 49.9199L 113.977 49.9199L 114.841 50.5645L 114.841 51.4141L 114.768 53.7285L 114.841 53.7285C 114.978 53.2891 115.285 52.7666 115.764 52.1611C 116.252 51.5557 116.872 51.0283 117.624 50.5791C 118.376 50.1201 119.196 49.8906 120.085 49.8906C 120.329 49.8906 120.549 49.915 120.744 49.9639C 120.949 50.0029 121.11 50.0566 121.228 50.125L 121.228 55.1201C 120.886 54.8857 120.534 54.7148 120.173 54.6074C 119.821 54.5 119.392 54.4463 118.884 54.4463C 118.161 54.4463 117.497 54.5244 116.892 54.6807C 116.286 54.8369 115.827 55.0322 115.515 55.2666L 115.515 64.7441L 118.972 65.0518L 118.972 67L 108.835 67L 108.835 65.0371L 110.769 64.7588ZM 122.619 52.8057L 122.619 51.0918C 122.854 51.0039 123.186 50.8672 123.615 50.6816C 124.045 50.4961 124.284 50.3838 124.333 50.3447C 124.704 49.9834 125.017 49.5098 125.271 48.9238C 125.446 48.543 125.637 48.0645 125.842 47.4883C 126.047 46.9121 126.218 46.3896 126.354 45.9209L 129.064 45.9209L 129.196 50.3301L 133.591 50.3301L 133.591 52.8057L 129.226 52.8057L 129.226 60.7451C 129.226 61.8975 129.25 62.6934 129.299 63.1328C 129.357 63.5723 129.479 63.8604 129.665 63.9971C 129.851 64.124 130.178 64.1875 130.646 64.1875L 130.661 64.1875C 131.491 64.1875 132.404 64.041 133.4 63.748L 133.415 63.748L 134.045 65.5645C 133.693 65.8574 133.21 66.1357 132.595 66.3994C 131.989 66.6533 131.311 66.8633 130.559 67.0293C 129.816 67.1953 129.094 67.2783 128.391 67.2783L 128.361 67.2783C 127.033 67.2783 126.042 66.9805 125.388 66.3848C 124.743 65.7793 124.421 64.8467 124.421 63.5869L 124.421 52.8057L 122.619 52.8057ZM 153.103 56.1162C 153.103 55.3838 153.02 54.8027 152.854 54.373C 152.697 53.9434 152.404 53.6211 151.975 53.4062C 151.545 53.1914 150.93 53.084 150.129 53.084C 149.133 53.084 148.229 53.1963 147.419 53.4209C 146.618 53.6357 145.812 53.9189 145.002 54.2705L 144.987 54.2705L 144.035 52.293C 144.357 52.0195 144.89 51.7021 145.632 51.3408C 146.384 50.9697 147.258 50.6475 148.254 50.374C 149.26 50.0908 150.285 49.9492 151.33 49.9492C 152.893 49.9492 154.118 50.1543 155.007 50.5645C 155.905 50.9648 156.545 51.6045 156.926 52.4834C 157.307 53.3623 157.497 54.5488 157.497 56.043L 157.497 65.0225L 159.094 65.0225L 159.094 66.8828C 158.596 66.9902 157.971 67.0977 157.219 67.2051C 156.467 67.3125 155.808 67.3662 155.241 67.3662C 154.724 67.3662 154.323 67.3174 154.04 67.2197C 153.767 67.1318 153.571 66.9707 153.454 66.7363C 153.337 66.4922 153.278 66.1406 153.278 65.6816L 153.278 65.2275C 152.8 65.7842 152.15 66.2773 151.33 66.707C 150.51 67.127 149.567 67.3369 148.503 67.3369C 147.565 67.3369 146.706 67.1465 145.925 66.7656C 145.153 66.375 144.538 65.8037 144.079 65.0518C 143.62 64.2998 143.391 63.3916 143.391 62.3271C 143.391 60.4912 144.25 59.1094 145.969 58.1816C 147.688 57.2441 150.065 56.7607 153.103 56.7314L 153.103 56.1162ZM 153.103 58.709C 151.472 58.7188 150.29 59.0117 149.558 59.5879C 148.835 60.1641 148.474 60.8965 148.474 61.7852C 148.474 62.6836 148.679 63.377 149.089 63.8652C 149.509 64.3438 150.07 64.583 150.773 64.583C 151.115 64.583 151.511 64.4951 151.96 64.3193C 152.419 64.1338 152.8 63.9043 153.103 63.6309L 153.103 58.709ZM 172.395 64.9492C 172.082 65.3496 171.657 65.7354 171.12 66.1064C 170.593 66.4678 170.002 66.7656 169.348 67C 168.693 67.2246 168.044 67.3369 167.399 67.3369C 166.11 67.3369 165.07 67.127 164.279 66.707C 163.498 66.2871 162.917 65.6133 162.536 64.6855C 162.165 63.7578 161.979 62.5225 161.979 60.9795L 161.979 52.7031L 160.544 52.2344L 160.544 50.3887L 166.022 49.9639L 166.052 49.9639L 166.726 50.374L 166.726 61.082C 166.726 61.9805 166.794 62.6885 166.931 63.2061C 167.077 63.7139 167.316 64.0801 167.648 64.3047C 167.98 64.5195 168.435 64.627 169.011 64.627C 170.036 64.627 170.983 64.2754 171.853 63.5723L 171.853 52.7031L 169.992 52.2051L 169.992 50.374L 175.749 49.9639L 175.808 49.9639L 176.599 50.374L 176.599 64.9346L 178.195 64.9346L 178.195 66.8242C 177.57 66.9707 176.97 67.0928 176.394 67.1904C 175.827 67.2881 175.192 67.3369 174.489 67.3369C 173.767 67.3369 173.234 67.1855 172.893 66.8828C 172.561 66.5703 172.395 66.1064 172.395 65.4912L 172.395 64.9492ZM 182.312 64.7295L 182.312 52.8496L 179.909 52.8496L 179.909 51.0479L 182.312 50.3887L 182.312 49.0996C 182.312 47.7812 182.673 46.5752 183.396 45.4814C 184.128 44.3779 185.09 43.5088 186.281 42.874C 187.482 42.2393 188.762 41.9219 190.119 41.9219C 190.607 41.9219 190.988 41.9512 191.262 42.0098C 191.535 42.0586 191.809 42.127 192.082 42.2148L 192.082 46.5508C 191.945 46.4043 191.711 46.248 191.379 46.082C 191.047 45.9062 190.661 45.7646 190.222 45.6572C 189.782 45.54 189.353 45.4814 188.933 45.4814C 188.435 45.4814 188.049 45.5449 187.775 45.6719C 187.512 45.7891 187.321 45.999 187.204 46.3018C 187.097 46.6045 187.043 47.0342 187.043 47.5908L 187.043 50.3594L 190.749 50.3594L 190.749 52.8496L 187.043 52.8496L 187.043 64.7588L 190.046 65.0518L 190.046 67L 180.041 67L 180.041 65.0518L 182.312 64.7295ZM 200.856 59.0459C 200.856 57.3662 201.198 55.833 201.882 54.4463C 202.575 53.0596 203.596 51.9561 204.943 51.1357C 206.291 50.3057 207.907 49.8906 209.792 49.8906C 210.368 49.8906 210.988 49.959 211.652 50.0957L 211.652 45.2764L 208.825 44.8955L 208.825 43.0205L 215.3 42.3906L 215.417 42.3906L 216.34 43.0791L 216.34 64.9492L 217.907 64.9492L 217.907 66.8828C 216.374 67.2051 215.114 67.3662 214.128 67.3662C 213.649 67.3662 213.273 67.3223 213 67.2344C 212.727 67.1465 212.517 66.9805 212.37 66.7363C 212.233 66.4922 212.165 66.1406 212.165 65.6816L 212.165 65.0371C 211.647 65.7109 210.959 66.2627 210.1 66.6924C 209.24 67.1221 208.327 67.3369 207.36 67.3369C 206.12 67.3369 205.012 67.0391 204.035 66.4434C 203.059 65.8477 202.282 64.9297 201.706 63.6895C 201.14 62.4492 200.856 60.9014 200.856 59.0459ZM 211.652 52.6006C 211.525 52.415 211.271 52.2588 210.891 52.1318C 210.51 51.9951 210.09 51.9268 209.631 51.9268C 208.508 51.9268 207.604 52.4688 206.921 53.5527C 206.247 54.627 205.91 56.3701 205.91 58.7822C 205.91 60.7549 206.203 62.2246 206.789 63.1914C 207.375 64.1582 208.161 64.6416 209.147 64.6416C 209.694 64.6416 210.183 64.5342 210.612 64.3193C 211.042 64.0947 211.389 63.8262 211.652 63.5137L 211.652 52.6006ZM 229.274 56.1162C 229.274 55.3838 229.191 54.8027 229.025 54.373C 228.869 53.9434 228.576 53.6211 228.146 53.4062C 227.717 53.1914 227.102 53.084 226.301 53.084C 225.305 53.084 224.401 53.1963 223.591 53.4209C 222.79 53.6357 221.984 53.9189 221.174 54.2705L 221.159 54.2705L 220.207 52.293C 220.529 52.0195 221.062 51.7021 221.804 51.3408C 222.556 50.9697 223.43 50.6475 224.426 50.374C 225.432 50.0908 226.457 49.9492 227.502 49.9492C 229.064 49.9492 230.29 50.1543 231.179 50.5645C 232.077 50.9648 232.717 51.6045 233.098 52.4834C 233.479 53.3623 233.669 54.5488 233.669 56.043L 233.669 65.0225L 235.266 65.0225L 235.266 66.8828C 234.768 66.9902 234.143 67.0977 233.391 67.2051C 232.639 67.3125 231.979 67.3662 231.413 67.3662C 230.896 67.3662 230.495 67.3174 230.212 67.2197C 229.938 67.1318 229.743 66.9707 229.626 66.7363C 229.509 66.4922 229.45 66.1406 229.45 65.6816L 229.45 65.2275C 228.972 65.7842 228.322 66.2773 227.502 66.707C 226.682 67.127 225.739 67.3369 224.675 67.3369C 223.737 67.3369 222.878 67.1465 222.097 66.7656C 221.325 66.375 220.71 65.8037 220.251 65.0518C 219.792 64.2998 219.562 63.3916 219.562 62.3271C 219.562 60.4912 220.422 59.1094 222.141 58.1816C 223.859 57.2441 226.237 56.7607 229.274 56.7314L 229.274 56.1162ZM 229.274 58.709C 227.644 58.7188 226.462 59.0117 225.729 59.5879C 225.007 60.1641 224.646 60.8965 224.646 61.7852C 224.646 62.6836 224.851 63.377 225.261 63.8652C 225.681 64.3438 226.242 64.583 226.945 64.583C 227.287 64.583 227.683 64.4951 228.132 64.3193C 228.591 64.1338 228.972 63.9043 229.274 63.6309L 229.274 58.709ZM 240.1 62.1367L 240.847 64.4219C 240.993 64.666 241.325 64.8906 241.843 65.0957C 242.37 65.291 242.912 65.3887 243.469 65.3887C 244.318 65.3887 244.943 65.2129 245.344 64.8613C 245.744 64.5 245.944 64.0361 245.944 63.4697C 245.944 63.0498 245.788 62.6738 245.476 62.3418C 245.173 62.0098 244.768 61.7119 244.26 61.4482C 243.762 61.1748 243.029 60.8184 242.062 60.3789L 241.301 60.0273C 239.934 59.4219 238.918 58.709 238.254 57.8887C 237.6 57.0586 237.272 56.0088 237.272 54.7393C 237.272 53.8213 237.541 53.001 238.078 52.2783C 238.615 51.5557 239.382 50.9893 240.378 50.5791C 241.384 50.1592 242.565 49.9492 243.923 49.9492C 244.851 49.9492 245.646 50.0078 246.311 50.125C 246.975 50.2422 247.707 50.4033 248.508 50.6084C 248.937 50.7354 249.279 50.8184 249.533 50.8574L 249.533 54.8564L 246.896 54.8564L 246.135 52.7031C 246.027 52.4883 245.783 52.2979 245.402 52.1318C 245.031 51.9658 244.587 51.8828 244.069 51.8828C 243.288 51.8828 242.687 52.0488 242.268 52.3809C 241.848 52.7129 241.638 53.1475 241.638 53.6846C 241.638 54.1338 241.77 54.5195 242.033 54.8418C 242.307 55.1543 242.644 55.4229 243.044 55.6475C 243.454 55.8623 244.03 56.1309 244.772 56.4531L 245.461 56.7461C 246.525 57.2148 247.409 57.6738 248.112 58.123C 248.815 58.5625 249.396 59.124 249.855 59.8076C 250.324 60.4912 250.559 61.3164 250.559 62.2832C 250.559 63.2402 250.31 64.0996 249.812 64.8613C 249.313 65.623 248.547 66.2285 247.512 66.6777C 246.486 67.1172 245.217 67.3369 243.703 67.3369C 242.648 67.3369 241.687 67.2441 240.817 67.0586C 239.958 66.8828 239.05 66.6484 238.093 66.3555C 237.897 66.2871 237.629 66.209 237.287 66.1211L 237.287 62.1367L 240.1 62.1367ZM 41.3496 85.1953L 39.4453 84.7705L 39.4453 82.7051L 48.9668 82.7051L 48.9668 84.7705L 46.4912 85.21L 46.4912 96.2842C 46.4912 98.6182 46.8818 100.347 47.6631 101.47C 48.4443 102.593 49.626 103.154 51.208 103.154C 52.7705 103.154 53.9277 102.559 54.6797 101.367C 55.4316 100.176 55.8076 98.5059 55.8076 96.3574L 55.8076 85.1953L 53.2881 84.7705L 53.2881 82.7051L 60.9639 82.7051L 60.9639 84.7705L 58.9863 85.1953L 58.9863 96.1084C 58.9863 98.2178 58.625 99.9561 57.9023 101.323C 57.1895 102.681 56.2031 103.672 54.9434 104.297C 53.6836 104.922 52.2139 105.234 50.5342 105.234C 48.4346 105.234 46.7109 104.912 45.3633 104.268C 44.0156 103.623 43.0098 102.612 42.3457 101.235C 41.6816 99.8584 41.3496 98.0664 41.3496 95.8594L 41.3496 85.1953ZM 64.4941 102.773L 64.4941 91.4941L 62.6924 90.9082L 62.6924 88.5938L 67.9805 87.9199L 68.0537 87.9199L 68.8594 88.5645L 68.8594 89.6338L 68.8301 90.3076C 69.5234 89.6631 70.4072 89.1162 71.4814 88.667C 72.5654 88.208 73.6689 87.9785 74.792 87.9785C 76.0029 87.9785 76.9551 88.1982 77.6484 88.6377C 78.3516 89.0674 78.8545 89.7607 79.1572 90.7178C 79.4697 91.6748 79.626 92.9736 79.626 94.6143L 79.626 102.744L 81.3838 103.008L 81.3838 105L 73.2393 105L 73.2393 103.037L 74.7773 102.759L 74.7773 94.6143C 74.7773 93.6475 74.7139 92.8955 74.5869 92.3584C 74.46 91.8115 74.2305 91.4111 73.8984 91.1572C 73.5664 90.9033 73.0879 90.7764 72.4629 90.7764C 71.8965 90.7764 71.3301 90.8984 70.7637 91.1426C 70.207 91.377 69.7285 91.6553 69.3281 91.9775L 69.3281 102.759L 71.0273 103.037L 71.0273 105L 62.7949 105L 62.7949 103.037L 64.4941 102.773ZM 85.1631 102.744L 85.1631 91.4941L 83.1855 90.8936L 83.1855 88.6523L 88.957 87.9199L 89.0303 87.9199L 89.9385 88.5645L 89.9385 102.759L 91.8135 103.037L 91.8135 105L 83.2002 105L 83.2002 103.037L 85.1631 102.744ZM 84.4453 83.2031C 84.4453 82.6758 84.5527 82.1924 84.7676 81.7529C 84.9922 81.3135 85.3145 80.9668 85.7344 80.7129C 86.1641 80.4492 86.6719 80.3174 87.2578 80.3174L 87.2725 80.3174C 87.8291 80.3174 88.3027 80.4297 88.6934 80.6543C 89.0938 80.8789 89.3965 81.1768 89.6016 81.5479C 89.8164 81.9189 89.9238 82.3291 89.9238 82.7783C 89.9238 83.6182 89.6699 84.3066 89.1621 84.8438C 88.6543 85.3711 87.9268 85.6348 86.9795 85.6348L 86.9648 85.6348C 86.4766 85.6348 86.042 85.5273 85.6611 85.3125C 85.2803 85.0977 84.9824 84.8096 84.7676 84.4482C 84.5527 84.0771 84.4453 83.6621 84.4453 83.2031ZM 92.4141 90.249L 92.4141 88.3301L 100.925 88.3301L 100.925 90.249L 98.9473 90.6299L 101.467 98.4229L 102.316 101.455L 103.02 98.4814L 105.437 90.6152L 103.562 90.249L 103.562 88.3301L 110.446 88.3301L 110.446 90.249L 108.923 90.6152L 103.474 105.234L 99.5918 105.234L 93.6445 90.6299L 92.4141 90.249ZM 110.856 96.6797C 110.856 94.873 111.193 93.3105 111.867 91.9922C 112.551 90.6738 113.508 89.6631 114.738 88.96C 115.969 88.2568 117.395 87.9053 119.016 87.9053C 121.076 87.9053 122.653 88.4277 123.747 89.4727C 124.851 90.5176 125.427 92.0166 125.476 93.9697C 125.476 95.3271 125.402 96.3574 125.256 97.0605L 115.793 97.0605C 115.91 98.8574 116.35 100.19 117.111 101.06C 117.883 101.929 118.903 102.363 120.173 102.363C 120.905 102.363 121.667 102.236 122.458 101.982C 123.259 101.729 123.908 101.44 124.406 101.118L 125.256 102.935C 124.914 103.296 124.406 103.662 123.732 104.033C 123.068 104.404 122.302 104.717 121.433 104.971C 120.573 105.215 119.709 105.337 118.84 105.337C 117.023 105.337 115.52 104.976 114.328 104.253C 113.137 103.53 112.258 102.524 111.691 101.235C 111.135 99.9365 110.856 98.418 110.856 96.6797ZM 120.803 95.0537L 120.817 93.8232C 120.817 92.6025 120.642 91.6553 120.29 90.9814C 119.938 90.3076 119.343 89.9707 118.503 89.9707C 117.946 89.9707 117.473 90.1123 117.082 90.3955C 116.691 90.6787 116.379 91.1963 116.145 91.9482C 115.91 92.6904 115.778 93.7256 115.749 95.0537L 120.803 95.0537ZM 129.636 102.759L 129.636 91.4941L 127.863 90.9082L 127.863 88.5938L 132.771 87.9199L 132.844 87.9199L 133.708 88.5645L 133.708 89.4141L 133.635 91.7285L 133.708 91.7285C 133.845 91.2891 134.152 90.7666 134.631 90.1611C 135.119 89.5557 135.739 89.0283 136.491 88.5791C 137.243 88.1201 138.063 87.8906 138.952 87.8906C 139.196 87.8906 139.416 87.915 139.611 87.9639C 139.816 88.0029 139.978 88.0566 140.095 88.125L 140.095 93.1201C 139.753 92.8857 139.401 92.7148 139.04 92.6074C 138.688 92.5 138.259 92.4463 137.751 92.4463C 137.028 92.4463 136.364 92.5244 135.759 92.6807C 135.153 92.8369 134.694 93.0322 134.382 93.2666L 134.382 102.744L 137.839 103.052L 137.839 105L 127.702 105L 127.702 103.037L 129.636 102.759ZM 145.119 100.137L 145.866 102.422C 146.013 102.666 146.345 102.891 146.862 103.096C 147.39 103.291 147.932 103.389 148.488 103.389C 149.338 103.389 149.963 103.213 150.363 102.861C 150.764 102.5 150.964 102.036 150.964 101.47C 150.964 101.05 150.808 100.674 150.495 100.342C 150.192 100.01 149.787 99.7119 149.279 99.4482C 148.781 99.1748 148.049 98.8184 147.082 98.3789L 146.32 98.0273C 144.953 97.4219 143.937 96.709 143.273 95.8887C 142.619 95.0586 142.292 94.0088 142.292 92.7393C 142.292 91.8213 142.561 91.001 143.098 90.2783C 143.635 89.5557 144.401 88.9893 145.397 88.5791C 146.403 88.1592 147.585 87.9492 148.942 87.9492C 149.87 87.9492 150.666 88.0078 151.33 88.125C 151.994 88.2422 152.727 88.4033 153.527 88.6084C 153.957 88.7354 154.299 88.8184 154.553 88.8574L 154.553 92.8564L 151.916 92.8564L 151.154 90.7031C 151.047 90.4883 150.803 90.2979 150.422 90.1318C 150.051 89.9658 149.606 89.8828 149.089 89.8828C 148.308 89.8828 147.707 90.0488 147.287 90.3809C 146.867 90.7129 146.657 91.1475 146.657 91.6846C 146.657 92.1338 146.789 92.5195 147.053 92.8418C 147.326 93.1543 147.663 93.4229 148.063 93.6475C 148.474 93.8623 149.05 94.1309 149.792 94.4531L 150.48 94.7461C 151.545 95.2148 152.429 95.6738 153.132 96.123C 153.835 96.5625 154.416 97.124 154.875 97.8076C 155.344 98.4912 155.578 99.3164 155.578 100.283C 155.578 101.24 155.329 102.1 154.831 102.861C 154.333 103.623 153.566 104.229 152.531 104.678C 151.506 105.117 150.236 105.337 148.723 105.337C 147.668 105.337 146.706 105.244 145.837 105.059C 144.978 104.883 144.069 104.648 143.112 104.355C 142.917 104.287 142.648 104.209 142.307 104.121L 142.307 100.137L 145.119 100.137ZM 169.406 102.949C 169.094 103.35 168.669 103.735 168.132 104.106C 167.604 104.468 167.014 104.766 166.359 105C 165.705 105.225 165.056 105.337 164.411 105.337C 163.122 105.337 162.082 105.127 161.291 104.707C 160.51 104.287 159.929 103.613 159.548 102.686C 159.177 101.758 158.991 100.522 158.991 98.9795L 158.991 90.7031L 157.556 90.2344L 157.556 88.3887L 163.034 87.9639L 163.063 87.9639L 163.737 88.374L 163.737 99.082C 163.737 99.9805 163.806 100.688 163.942 101.206C 164.089 101.714 164.328 102.08 164.66 102.305C 164.992 102.52 165.446 102.627 166.022 102.627C 167.048 102.627 167.995 102.275 168.864 101.572L 168.864 90.7031L 167.004 90.2051L 167.004 88.374L 172.761 87.9639L 172.819 87.9639L 173.61 88.374L 173.61 102.935L 175.207 102.935L 175.207 104.824C 174.582 104.971 173.981 105.093 173.405 105.19C 172.839 105.288 172.204 105.337 171.501 105.337C 170.778 105.337 170.246 105.186 169.904 104.883C 169.572 104.57 169.406 104.106 169.406 103.491L 169.406 102.949ZM 179.191 102.773L 179.191 91.4941L 177.39 90.9082L 177.39 88.5938L 182.678 87.9199L 182.751 87.9199L 183.542 88.5645L 183.542 89.6338L 183.527 90.3223C 183.957 89.9023 184.528 89.5117 185.241 89.1504C 185.954 88.7891 186.691 88.5059 187.453 88.3008C 188.225 88.0859 188.898 87.9785 189.475 87.9785C 190.559 87.9785 191.433 88.1641 192.097 88.5352C 192.771 88.8965 193.278 89.4629 193.62 90.2344C 194.284 89.6094 195.139 89.0771 196.184 88.6377C 197.238 88.1982 198.293 87.9785 199.348 87.9785C 200.559 87.9785 201.521 88.2129 202.233 88.6816C 202.946 89.1406 203.459 89.8535 203.771 90.8203C 204.084 91.7773 204.24 93.0371 204.24 94.5996L 204.24 102.773L 206.071 103.052L 206.071 105L 198.059 105L 198.059 103.052L 199.421 102.759L 199.421 94.7168C 199.421 93.7207 199.348 92.9443 199.201 92.3877C 199.064 91.8213 198.82 91.4111 198.469 91.1572C 198.127 90.9033 197.639 90.7764 197.004 90.7764C 196.516 90.7764 196.013 90.8887 195.495 91.1133C 194.978 91.3281 194.509 91.5869 194.089 91.8896C 194.216 92.6514 194.279 93.5596 194.279 94.6143L 194.279 102.759L 196.066 103.052L 196.066 105L 187.893 105L 187.893 103.052L 189.445 102.759L 189.445 94.6143C 189.445 93.6475 189.382 92.8955 189.255 92.3584C 189.128 91.8115 188.898 91.4111 188.566 91.1572C 188.234 90.9033 187.756 90.7764 187.131 90.7764C 186.574 90.7764 186.013 90.8936 185.446 91.1279C 184.88 91.3525 184.401 91.626 184.011 91.9482L 184.011 102.759L 185.695 103.052L 185.695 105L 177.565 105L 177.565 103.052L 179.191 102.773ZM 210.1 92.9736C 210.1 92.4463 210.231 91.9873 210.495 91.5967C 210.759 91.1963 211.11 90.8398 211.55 90.5273C 211.989 90.2148 212.644 89.8047 213.513 89.2969C 214.772 88.5742 215.817 87.9199 216.647 87.334L 216.647 86.9385C 216.638 85.9131 216.418 84.9316 215.988 83.9941C 215.568 83.0566 214.914 82.29 214.025 81.6943C 213.146 81.0889 212.048 80.7861 210.729 80.7861C 210.319 80.7861 209.987 80.8057 209.733 80.8447C 209.489 80.874 209.201 80.9277 208.869 81.0059L 208.21 78.4424C 208.435 78.3057 208.967 78.1738 209.807 78.0469C 210.656 77.9199 211.608 77.8564 212.663 77.8564C 214.636 77.8564 216.276 78.2129 217.585 78.9258C 218.903 79.6289 219.865 80.542 220.471 81.665C 221.086 82.7783 221.394 83.96 221.394 85.21C 221.394 86.1084 221.184 86.8896 220.764 87.5537C 220.344 88.208 219.836 88.75 219.24 89.1797C 218.654 89.5996 217.883 90.0781 216.926 90.6152C 216.164 91.0449 215.568 91.4062 215.139 91.6992C 214.719 91.9824 214.392 92.2998 214.157 92.6514C 214.128 92.7393 214.099 92.8613 214.069 93.0176C 214.04 93.1641 214.025 93.2959 214.025 93.4131C 214.025 94.4482 214.143 95.6689 214.377 97.0752L 211.696 97.6172C 211.501 97.4023 211.281 97.0166 211.037 96.46C 210.793 95.8936 210.578 95.2881 210.393 94.6436C 210.217 93.9893 210.119 93.4326 210.1 92.9736ZM 214.23 100.342C 214.855 100.342 215.378 100.527 215.798 100.898C 216.228 101.27 216.491 101.733 216.589 102.29C 216.608 102.446 216.618 102.568 216.618 102.656C 216.618 103.301 216.389 103.828 215.93 104.238C 215.48 104.639 214.89 104.873 214.157 104.941C 214.001 104.961 213.884 104.971 213.806 104.971C 213.259 104.971 212.766 104.795 212.326 104.443C 211.887 104.082 211.623 103.613 211.535 103.037C 211.525 102.979 211.521 102.896 211.521 102.788C 211.521 102.339 211.643 101.929 211.887 101.558C 212.131 101.177 212.458 100.879 212.868 100.664C 213.288 100.449 213.742 100.342 214.23 100.342Z"/>
</defs>
</svg>
