<svg width="320" height="568" viewBox="0 0 320 568" version="1.1" xmlns="http://www.w3.org/2000/svg" xmlns:xlink="http://www.w3.org/1999/xlink">
<title>bmi proto</title>
<desc>Created using Figma</desc>
<g id="Canvas" transform="translate(-479 -1306)">
<rect x="479" y="1306" width="320" height="568" fill="#E5E5E5"/>
<clipPath id="clip-0" clip-rule="evenodd">
<path d="M 479 1306L 799 1306L 799 1874L 479 1874L 479 1306Z" fill="#FFFFFF"/>
</clipPath>
<g id="bmi proto" clip-path="url(#clip-0)">
<path d="M 479 1306L 799 1306L 799 1874L 479 1874L 479 1306Z" fill="#FFFFFF"/>
<g id="Rectangle">
<use xlink:href="#path0_fill" transform="translate(479 1306)" fill="#C8E6FA"/>
</g>
<g id="back /action=nav">
<g id="click-area-hint">
<use xlink:href="#path1_fill" transform="translate(483 1316)" fill="url(#paint1_linear)"/>
</g>
<g id="Vector" filter="url(#filter0_d)">
<use xlink:href="#path2_fill" transform="translate(495 1323)" fill="#FFFFFF"/>
</g>
</g>
<g id="bmi">
<g id="/example">
<use xlink:href="#path3_fill" transform="translate(536 1356)" fill="#D10000"/>
</g>
<g id="hint /for=text /style=&#34;font-family: Tuffy; font-size: 111px; color: #D10000;&#34;">
<use xlink:href="#path4_fill" transform="translate(536 1356)" fill="url(#paint4_linear)"/>
</g>
</g>
<g id="weight">
<g id="scale">
<use xlink:href="#path5_stroke" transform="matrix(0.99997 0.00769208 -0.00672828 0.999977 510 1793)" fill="#A9A9A9"/>
</g>
<g id="marked-scale">
<use xlink:href="#path6_stroke" transform="matrix(0.99997 0.00769208 -0.00672828 0.999977 510 1793)" fill="#212121"/>
</g>
<g id="label">
<g id="icon">
<g id="Group">
<g id="Vector">
<use xlink:href="#path7_fill" transform="translate(640 1746)" fill="#6E0000"/>
</g>
</g>
</g>
<g id="/example">
<use xlink:href="#path8_fill" transform="translate(649 1754)"/>
</g>
</g>
<g id="&#233;&#171;&#148;&#233;&#135;&#141; (kg)">
<use xlink:href="#path9_fill" transform="translate(502 1720)"/>
</g>
</g>
<g id="height">
<g id="scale">
<use xlink:href="#path5_stroke" transform="matrix(0.99997 0.00769208 -0.00672828 0.999977 510 1663)" fill="#A9A9A9"/>
</g>
<g id="marked-scale">
<use xlink:href="#path6_stroke" transform="matrix(0.99997 0.00769208 -0.00672828 0.999977 510 1663)" fill="#212121"/>
</g>
<g id="label">
<g id="icon">
<g id="Group">
<g id="Vector">
<use xlink:href="#path7_fill" transform="translate(640 1616)" fill="#400080"/>
</g>
</g>
</g>
<g id="/example">
<use xlink:href="#path8_fill" transform="translate(649 1624)"/>
</g>
</g>
<g id="&#233;&#171;&#152;&#229;&#186;&#166; (cm)">
<use xlink:href="#path10_fill" transform="translate(502 1590)"/>
</g>
</g>
</g>
</g>
<defs>
<filter id="filter0_d" filterUnits="userSpaceOnUse" x="491" y="1321" width="23" height="34" color-interpolation-filters="sRGB">
<feFlood flood-opacity="0" result="BackgroundImageFix"/>
<feColorMatrix in="SourceAlpha" type="matrix" values="0 0 0 0 0 0 0 0 0 0 0 0 0 0 0 0 0 0 255 0"/>
<feOffset dx="0" dy="2"/>
<feGaussianBlur stdDeviation="2"/>
<feColorMatrix type="matrix" values="0 0 0 0 0 0 0 0 0 0 0 0 0 0 0 0 0 0 0.25 0"/>
<feBlend mode="normal" in2="BackgroundImageFix" result="effect1_dropShadow"/>
<feBlend mode="normal" in="SourceGraphic" in2="effect1_dropShadow" result="shape"/>
</filter>
<linearGradient id="paint1_linear" x1="0" y1="0" x2="1" y2="0" gradientUnits="userSpaceOnUse" gradientTransform="matrix(2.44929e-15 40 -40 2.44929e-15 40 -2.44929e-15)">
<stop offset="0.0276243" stop-color="#FFFFFF" stop-opacity="0.01"/>
<stop offset="0.933702" stop-color="#FFFFFF" stop-opacity="0"/>
</linearGradient>
<linearGradient id="paint4_linear" x1="0" y1="0" x2="1" y2="0" gradientUnits="userSpaceOnUse" gradientTransform="matrix(1.26751e-14 165 -207 1.01033e-14 207 -1.01033e-14)">
<stop offset="0" stop-color="#000000" stop-opacity="0"/>
<stop offset="1" stop-color="#000000" stop-opacity="0.01"/>
</linearGradient>
<path id="path0_fill" d="M 0 0L 320 0L 320 568L 0 568L 0 0Z"/>
<path id="path1_fill" d="M 0 0L 40 0L 40 40L 0 40L 0 0Z"/>
<path id="path2_fill" d="M 15 3.055L 12.1457 0L 0 13L 12.1457 26L 15 22.945L 5.72874 13L 15 3.055Z"/>
<path id="path3_fill" d="M 47.7832 104.887C 47.7832 99.7559 45.7778 95.5283 41.7671 92.2041C 38.8042 89.7832 35.1367 88.5728 30.7647 88.5728C 26.4287 88.5728 22.7612 90.1987 19.7622 93.4507C 16.7632 96.7026 15.2637 100.442 15.2637 104.67C 15.2637 109.837 17.2329 113.956 21.1714 117.027C 24.1343 119.304 27.7656 120.442 32.0654 120.442C 36.3652 120.442 40.0508 118.87 43.1221 115.727C 46.2295 112.547 47.7832 108.934 47.7832 104.887ZM 23.773 82.1772C 26.4106 81.0571 28.8857 80.4971 31.1982 80.4971C 37.0518 80.4971 42.2368 82.3037 46.7534 85.917C 52.8237 90.8311 55.8589 97.1543 55.8589 104.887C 55.8589 110.704 53.6187 116.052 49.1382 120.93C 47.0786 123.206 44.459 125.049 41.2793 126.458C 38.1357 127.867 34.7393 128.572 31.0898 128.572C 25.0918 128.572 19.979 126.711 15.7515 122.989C 10.0064 118.003 7.1338 111.933 7.1338 104.778C 7.1338 100.479 7.76612 96.8472 9.03077 93.8843C 10.2954 90.9214 11.2349 88.8257 11.8491 87.5972C 12.4634 86.3687 13.2944 84.8511 14.3423 83.0444C 15.4263 81.2378 16.0586 80.1719 16.2393 79.8467L 34.3418 48.1943L 42.7427 48.1943L 23.773 82.1772ZM 77.4302 121.363C 70.5649 113.522 67.1323 102.141 67.1323 87.2178C 67.1323 76.0527 69.4087 66.4775 73.9614 58.4922C 76.1655 54.6982 78.9297 51.6812 82.2539 49.4409C 85.5781 47.2007 89.2456 46.0806 93.2563 46.0806C 99.2183 46.0806 104.241 48.4653 108.324 53.2349C 112.443 58.0044 115.333 64.3276 116.996 72.2046C 118.043 77.1187 118.567 82.7915 118.567 89.2231C 118.567 95.6187 117.574 101.888 115.586 108.03C 113.635 114.137 110.672 119.087 106.698 122.881C 102.723 126.675 97.8813 128.572 92.1724 128.572C 86.4995 128.572 81.5855 126.169 77.4302 121.363ZM 79.9233 64.9961C 78.5503 68.3564 77.5024 71.9878 76.7798 75.8901C 76.0571 79.7563 75.6958 83.8936 75.6958 88.3018C 75.6958 92.71 76.2378 97.4434 77.3218 102.502C 78.4058 107.561 80.2666 111.896 82.9043 115.51C 85.542 119.087 88.8301 120.875 92.7686 120.875C 95.6592 120.875 98.2427 119.864 100.519 117.84C 102.832 115.817 104.638 113.161 105.939 109.873C 108.649 103.116 110.004 95.6909 110.004 87.5972C 110.004 82.4663 109.444 77.3174 108.324 72.1504C 107.24 66.9473 105.415 62.5752 102.85 59.0342C 100.32 55.4932 97.1226 53.7227 93.2563 53.7227C 90.3657 53.7227 87.7642 54.7705 85.4517 56.8662C 83.1392 58.9258 81.2964 61.6357 79.9233 64.9961ZM 128.865 122.068C 128.865 120.333 129.443 118.906 130.6 117.786C 131.756 116.63 133.075 116.052 134.556 116.052C 136.074 116.052 137.356 116.485 138.404 117.353C 139.813 118.545 140.518 120.008 140.518 121.743C 140.518 123.441 139.94 124.868 138.784 126.024C 137.664 127.145 136.345 127.705 134.827 127.705C 133.346 127.705 132.081 127.271 131.033 126.404C 129.588 125.211 128.865 123.766 128.865 122.068ZM 159.867 107.271C 160.734 111.282 162.758 114.552 165.937 117.082C 169.117 119.611 172.965 120.875 177.482 120.875C 181.999 120.875 186.009 119.195 189.514 115.835C 193.019 112.438 194.771 108.355 194.771 103.586C 194.771 97.9854 192.585 93.6133 188.213 90.4697C 184.925 88.1211 180.969 86.9468 176.344 86.9468C 171.755 86.9468 167.798 88.4463 164.474 91.4453C 161.15 94.4082 159.488 98.4551 159.488 103.586C 159.488 104.67 159.614 105.898 159.867 107.271ZM 168.214 76.5947C 170.635 78.3652 173.706 79.2505 177.428 79.2505C 181.186 79.2505 184.329 78.0762 186.858 75.7275C 189.424 73.3789 190.707 70.1631 190.707 66.0801C 190.707 61.8164 189.117 58.4922 185.937 56.1074C 183.588 54.3731 180.427 53.5059 176.452 53.5059C 172.478 53.5059 169.28 54.6982 166.859 57.083C 164.474 59.4678 163.282 62.7197 163.282 66.8389C 163.282 70.9219 164.926 74.1738 168.214 76.5947ZM 164.799 83.2612C 158.079 79.3228 154.718 73.5957 154.718 66.0801C 154.718 60.335 156.832 55.5293 161.06 51.6631C 165.287 47.7969 170.364 45.8638 176.29 45.8638C 182.251 45.8638 187.238 47.3633 191.249 50.3623C 195.259 53.3252 197.771 57.1733 198.782 61.9067C 199.071 63.063 199.216 64.4541 199.216 66.0801C 199.216 73.5596 195.819 79.2866 189.026 83.2612C 192.098 84.6704 194.97 86.7119 197.644 89.3857C 201.438 93.1797 203.335 97.6602 203.335 102.827C 203.335 107.994 202.106 112.511 199.649 116.377C 197.229 120.207 193.995 123.206 189.948 125.374C 185.901 127.506 181.529 128.572 176.832 128.572C 170.653 128.572 165.197 126.729 160.463 123.043C 155.73 119.322 152.731 114.57 151.466 108.789C 151.105 106.91 150.924 104.869 150.924 102.665C 150.924 100.46 151.376 98.148 152.279 95.7271C 153.219 93.3062 154.429 91.3008 155.911 89.7109C 158.729 86.7119 161.692 84.562 164.799 83.2612Z"/>
<path id="path4_fill" d="M 0 0L 207 0L 207 165L 0 165L 0 0Z"/>
<path id="path5_stroke" d="M 0 0L 260.008 0L 260.008 -1L 0 -1L 0 0Z"/>
<path id="path6_stroke" d="M 0 0L 149.029 0L 149.029 -1L 0 -1L 0 0Z"/>
<path id="path7_fill" d="M -1.33596e-07 18.7009C -1.33596e-07 24.372 2.50569 29.4404 6.45226 32.866C 7.20688 33.5209 8.23084 34.4001 9.16974 35.2818C 10.182 36.2326 11.4887 38.0634 12.1949 39.2637L 14.8907 43.8449C 15.597 45.0452 16.8786 47.0126 18.1252 46.9999C 19.3726 46.9873 20.5942 44.9837 21.2513 43.7547L 23.064 40.3629C 23.7211 39.1339 24.9752 37.2668 26.0233 36.3573C 26.9789 35.5287 28.0421 34.7373 28.86 34.1759C 33.7689 30.8169 37 25.1449 37 18.7017C 37 8.37349 28.7175 0 18.4996 0C 8.2842 0 -1.33596e-07 8.37265 -1.33596e-07 18.7009ZM 18.5004 34.1396C 10.1128 34.1396 3.31368 27.2665 3.31368 18.7885C 3.31368 10.3097 10.1128 3.43655 18.5004 3.43655C 26.888 3.43655 33.6871 10.3097 33.6871 18.7885C 33.6871 27.2665 26.888 34.1396 18.5004 34.1396Z"/>
<path id="path8_fill" d="M 1.91416 9.68576L 2.47764 3.93499L 8.36098 3.93499L 8.36098 4.37417L 2.88367 4.37417L 2.39477 9.21343C 2.68203 8.97589 3.06045 8.78254 3.53001 8.63338C 4.0051 8.48423 4.46914 8.40965 4.92213 8.40965C 6.00488 8.40965 6.86943 8.75216 7.51577 9.43717C 8.16211 10.1222 8.48528 11.0282 8.48528 12.1551C 8.48528 13.4644 8.19249 14.4615 7.60692 15.1465C 7.02135 15.826 6.18166 16.1657 5.08785 16.1657C 4.05482 16.1657 3.22065 15.8702 2.58536 15.2791C 1.95007 14.688 1.59099 13.8704 1.50813 12.8263L 1.96388 12.8263C 2.05227 13.771 2.36163 14.4891 2.89196 14.9808C 3.42229 15.4724 4.15425 15.7183 5.08785 15.7183C 6.08222 15.7183 6.81971 15.42 7.30032 14.8233C 7.78646 14.2212 8.02953 13.3373 8.02953 12.1717C 8.02953 11.1663 7.74779 10.3625 7.18432 9.76034C 6.62636 9.15819 5.87506 8.85712 4.93041 8.85712C 4.35036 8.85712 3.84489 8.93446 3.414 9.08914C 2.98311 9.24382 2.59641 9.48688 2.2539 9.81834L 1.91416 9.68576ZM 17.5506 11.0779C 17.5506 12.6965 17.2357 13.9505 16.606 14.8399C 15.9762 15.7238 15.0923 16.1657 13.9543 16.1657C 12.8218 16.1657 11.9352 15.7183 11.2944 14.8233C 10.6536 13.9284 10.3331 12.6689 10.3331 11.0447L 10.3331 8.85712C 10.3331 7.25508 10.648 6.00659 11.2778 5.11166C 11.9131 4.21121 12.7997 3.76098 13.9377 3.76098C 15.0813 3.76098 15.9679 4.21121 16.5977 5.11166C 17.233 6.00659 17.5506 7.26613 17.5506 8.89026L 17.5506 11.0779ZM 17.1031 8.85712C 17.1031 7.39319 16.8269 6.25242 16.2745 5.43483C 15.7276 4.61724 14.9487 4.20844 13.9377 4.20844C 12.9213 4.20844 12.1396 4.62 11.5927 5.44312C 11.0513 6.26071 10.7806 7.41252 10.7806 8.89855L 10.7806 11.0613C 10.7806 12.5197 11.0596 13.6605 11.6175 14.4836C 12.1755 15.3067 12.9544 15.7183 13.9543 15.7183C 14.9597 15.7183 15.7359 15.3067 16.2828 14.4836C 16.8297 13.6605 17.1031 12.5059 17.1031 11.0199L 17.1031 8.85712Z"/>
<path id="path9_fill" d="M 2.96 14.36L 6.28 14.36L 6.28 12.62L 2.96 12.62L 2.96 14.36ZM 2.96 11.62L 6.28 11.62L 6.28 10.02L 6.12 9.8L 2.98 9.8L 2.96 11.62ZM 7.04 8.82C 7.25333 8.1 7.36 7.6 7.36 7.32C 7.36 7.09333 7.28 6.94667 7.12 6.88L 2.1 6.88L 1.9 7.08L 1.9 8.82L 7.04 8.82ZM 4.88 5.88L 6.3 5.88L 6.3 3.8L 5.02 3.8L 4.88 4L 4.88 5.88ZM 6.3 2.78C 6.3 2.24667 6.24 1.85333 6.12 1.6L 3.06 1.6L 2.84 1.82L 2.84 5.88L 4.02 5.88L 4.02 3.06L 4.12 2.98L 6.3 2.98L 6.3 2.78ZM 6.32 15.96C 6.32 15.8933 6.31333 15.8133 6.3 15.72C 6.3 15.6267 6.3 15.5667 6.3 15.54L 6.3 15.34L 2.94 15.34L 2.94 18.18L 1.9 18.18L 1.9 8.88L 0.92 8.84L 0.92 5.98C 1.04 5.94 1.2 5.92 1.4 5.92C 1.46667 5.92 1.54 5.92 1.62 5.92L 1.84 5.94L 1.9 0.78C 1.92667 0.74 1.96667 0.706666 2.02 0.680001L 7.18 0.72L 7.26 0.8L 7.3 5.8L 8.64 6.38C 8.6 7.03333 8.41333 7.87333 8.08 8.9L 7.42 8.68L 7.34 17.4C 7.34 17.6533 7.22 17.8667 6.98 18.04C 6.75333 18.2133 6.56667 18.32 6.42 18.36C 6.32667 18.3867 6.16667 18.4 5.94 18.4C 5.60667 18.4 5.17333 18.36 4.64 18.28L 4.6 17.14C 5.02667 17.2733 5.38 17.34 5.66 17.34L 5.7 17.34C 6.11333 17.14 6.32 16.68 6.32 15.96ZM 15.14 17.08L 15.9 15.12L 12.46 15.12L 13.06 17.1L 15.14 17.08ZM 10.9 14.1L 17.34 14.06L 17.22 12.46L 10.88 12.46L 10.9 14.1ZM 19.08 18.12L 8.84 18.12L 8.84 17.16L 11.86 17.16L 11.84 16.94C 11.8267 16.6733 11.68 16.1333 11.4 15.32L 11.3 15.12L 9.9 15.02L 9.9 11.5L 18.3 11.5L 18.3 15.06L 16.9 15.12C 16.5533 16.1467 16.3667 16.7267 16.34 16.86L 16.3 17.1L 19.08 17.16L 19.08 18.12ZM 18.78 10.08L 9.24 10.08L 9.24 9.16L 18.78 9.16L 18.78 10.08ZM 10.28 6.94L 11.98 6.94L 11.98 5.1L 10.24 5.1L 10.28 6.94ZM 10.24 4.16L 11.98 4.16L 11.98 2.46L 10.24 2.46L 10.24 4.16ZM 13.02 6.94L 14.74 6.94L 14.74 5.1L 13.02 5.1L 13.02 6.94ZM 15.72 6.94L 17.42 6.88L 17.42 5.1L 15.72 5.1L 15.72 6.94ZM 13.02 4.16L 14.74 4.16L 14.74 2.46L 13.02 2.46L 13.02 4.16ZM 15.72 4.16L 17.42 4.16L 17.4 2.46L 15.72 2.46L 15.72 4.16ZM 18.48 7.78L 18.42 7.82L 18.4 7.82L 18.4 7.94L 18.48 7.78ZM 18.3 15.06L 18.3 15.1L 18.32 15.06L 18.3 15.06ZM 18.3 11.5L 18.34 11.5L 18.3 11.48L 18.3 11.5ZM 9.9 11.5L 9.9 11.46L 9.84 11.5L 9.9 11.5ZM 9.9 15.02L 9.8 15.02L 9.76 15.02L 9.9 15.2L 9.9 15.02ZM 9.24 1.58L 11.98 1.58L 12.04 0.26L 13 0.26L 13 1.56L 14.74 1.58L 14.78 0.26L 15.7 0.26L 15.7 1.56L 18.38 1.6L 18.4 7.82L 9.24 7.82L 9.24 1.58ZM 9.24 1.58L 9.24 1.52L 9.2 1.58L 9.24 1.58ZM 9.24 7.82L 9.2 7.82L 9.24 7.88L 9.24 7.82ZM 24 11.94L 29.3 11.94L 29.3 10.36L 23.98 10.36L 24 11.94ZM 23.98 9.22L 29.3 9.22L 29.3 7.56L 23.98 7.56L 23.98 9.22ZM 30.7 11.94L 36.08 11.88L 36.08 10.36L 30.7 10.36L 30.7 11.94ZM 30.7 9.22L 36.08 9.22L 36.02 7.56L 30.7 7.56L 30.7 9.22ZM 23.18 1.34C 25.0067 1.34 27.3267 1.28 30.14 1.16C 32.9533 1.02667 35.1333 0.82 36.68 0.54L 36.82 1.8C 35.3533 2.04 33.3133 2.24667 30.7 2.42L 30.66 3.82L 39.02 3.86L 39.02 4.94L 30.7 4.94L 30.66 6.4L 37.32 6.46L 37.32 13.02L 30.7 13.02L 30.66 14.54L 37.9 14.6L 37.9 15.68L 30.7 15.68L 30.66 17.06L 38.88 17.08L 38.88 18.18L 21.12 18.18L 21.12 17.08L 29.28 17.08L 29.38 15.72L 22.1 15.68L 22.1 14.6L 29.28 14.6L 29.38 13.06L 22.76 13L 22.76 6.44L 29.28 6.44L 29.38 4.96L 20.98 4.94L 20.98 3.86L 29.28 3.86L 29.38 2.54L 29.16 2.54C 26.4133 2.56667 24.3333 2.58 22.92 2.58L 22.78 1.34C 22.9133 1.34 23.0467 1.34 23.18 1.34ZM 22.76 6.44L 22.76 6.42L 22.74 6.44L 22.76 6.44ZM 22.76 13L 22.6 13L 22.78 13.12L 22.76 13.08L 22.76 13ZM 37.32 6.46L 37.48 6.46L 37.3 6.34L 37.32 6.38L 37.32 6.46ZM 43.7383 12.5664C 43.7383 11.7227 43.8418 10.8926 44.0488 10.0762C 44.2559 9.25977 44.5488 8.52734 44.9277 7.87891C 45.3105 7.23047 45.7227 6.76758 46.1641 6.49023L 46.2754 6.74219C 45.8926 6.99609 45.5312 7.41992 45.1914 8.01367C 44.8516 8.60742 44.5801 9.29492 44.377 10.0762C 44.1738 10.8574 44.0664 11.6289 44.0547 12.3906L 44.0547 12.6953C 44.0547 13.4688 44.1523 14.2539 44.3477 15.0508C 44.543 15.8438 44.8145 16.5508 45.1621 17.1719C 45.5098 17.7969 45.8809 18.2402 46.2754 18.502L 46.1641 18.7539C 45.7109 18.4688 45.2969 18.0156 44.9219 17.3945C 44.5508 16.7773 44.2598 16.0586 44.0488 15.2383C 43.8418 14.4141 43.7383 13.5234 43.7383 12.5664ZM 48.6895 12.5723L 48.6777 12.584L 47.7578 13.375L 47.7578 16L 47.4414 16L 47.4414 7L 47.7578 7L 47.7578 13.0293L 48.502 12.3262L 51.3848 9.66016L 51.8359 9.66016L 48.9238 12.3613L 52.0176 16L 51.6074 16L 48.6895 12.5723ZM 52.709 12.7656C 52.709 11.7539 52.9219 10.9648 53.3477 10.3984C 53.7734 9.82812 54.3574 9.54297 55.0996 9.54297C 55.5723 9.54297 55.9922 9.65234 56.3594 9.87109C 56.7266 10.0859 57.0215 10.4023 57.2441 10.8203L 57.2441 9.66016L 57.5664 9.66016L 57.5664 15.8887C 57.5664 16.7246 57.3516 17.377 56.9219 17.8457C 56.4922 18.3184 55.9082 18.5547 55.1699 18.5547C 54.7441 18.5547 54.3535 18.4629 53.998 18.2793C 53.6465 18.0957 53.3457 17.832 53.0957 17.4883L 53.3184 17.2773C 53.5645 17.5898 53.834 17.8281 54.127 17.9922C 54.4199 18.1602 54.7637 18.2441 55.1582 18.2441C 55.8105 18.2441 56.3184 18.0449 56.6816 17.6465C 57.0449 17.252 57.2324 16.6934 57.2441 15.9707L 57.2441 14.998C 57.0254 15.3574 56.7285 15.6348 56.3535 15.8301C 55.9824 16.0215 55.5605 16.1172 55.0879 16.1172C 54.3535 16.1172 53.7734 15.8262 53.3477 15.2441C 52.9219 14.6621 52.709 13.8633 52.709 12.8477L 52.709 12.7656ZM 53.0312 12.8887C 53.0312 13.7949 53.2109 14.5078 53.5703 15.0273C 53.9297 15.543 54.4336 15.8008 55.082 15.8008C 55.6172 15.8008 56.0723 15.6777 56.4473 15.4316C 56.8223 15.1816 57.0879 14.832 57.2441 14.3828L 57.2441 11.5059C 56.9004 10.4082 56.1836 9.85938 55.0938 9.85938C 54.4414 9.85938 53.9336 10.1152 53.5703 10.627C 53.2109 11.1387 53.0312 11.8926 53.0312 12.8887ZM 61.2871 12.6836C 61.2871 13.5625 61.1816 14.4141 60.9707 15.2383C 60.7637 16.0586 60.4727 16.7773 60.0977 17.3945C 59.7266 18.0156 59.3145 18.4688 58.8613 18.7539L 58.75 18.502C 59.1563 18.2285 59.5332 17.7754 59.8809 17.1426C 60.2285 16.5098 60.4961 15.8027 60.6836 15.0215C 60.875 14.2402 60.9707 13.4141 60.9707 12.543C 60.9707 11.7539 60.8711 10.9629 60.6719 10.1699C 60.4727 9.37305 60.1992 8.66797 59.8516 8.05469C 59.5078 7.4375 59.1406 7 58.75 6.74219L 58.8613 6.49023C 59.3027 6.76758 59.7129 7.23047 60.0918 7.87891C 60.4746 8.52734 60.7695 9.25977 60.9766 10.0762C 61.1836 10.8926 61.2871 11.7617 61.2871 12.6836Z"/>
<path id="path10_fill" d="M 6.42 15.46L 13.64 15.4L 13.6 13.26L 6.4 13.26L 6.42 15.46ZM 18.22 9.54C 18.2733 9.56667 18.3133 9.6 18.34 9.64L 18.3 17.04C 18.3 17.32 18.0933 17.6267 17.68 17.96L 17.42 18.16C 17.1267 18.2933 16.74 18.36 16.26 18.36C 15.7933 18.36 15.1667 18.2867 14.38 18.14L 14.26 16.48L 5.26 16.48L 5.26 12.22L 14.76 12.24L 14.76 16.5L 14.5 16.7L 14.8 16.84C 15.08 16.9733 15.3933 17.04 15.74 17.04C 15.8333 17.04 16.06 17.02 16.42 16.98C 16.7933 16.6467 17.0067 16.3667 17.06 16.14L 17.06 10.78L 16.82 10.64L 3.12 10.64L 2.96 10.8L 2.96 18.16L 1.72 18.16L 1.72 9.62C 1.73333 9.58 1.76667 9.55333 1.82 9.54L 18.22 9.54ZM 5.18 7.2L 14.88 7.18L 14.86 5.32L 5.12 5.32L 5.18 7.2ZM 16.22 8.24L 16.2 8.26L 3.84 8.26L 3.84 4.26L 16.22 4.3L 16.22 8.24ZM 18.9 2.74L 1.1 2.74L 1.1 1.56L 9.36 1.56L 9.38 0.16L 10.7 0.16L 10.7 1.54L 18.9 1.56L 18.9 2.74ZM 14.76 12.24L 14.8 12.24L 14.76 12.2L 14.76 12.24ZM 5.26 12.22L 5.26 12.2L 5.24 12.22L 5.26 12.22ZM 5.26 16.48L 5.24 16.48L 5.26 16.5L 5.26 16.48ZM 16.22 4.3L 16.26 4.3L 16.22 4.26L 16.22 4.3ZM 26.28 12.5C 27.6933 13.38 28.7133 13.9933 29.34 14.34C 29.98 14.6733 30.6 14.9533 31.2 15.18C 32.0133 14.7267 32.7333 14.2733 33.36 13.82C 33.9867 13.3667 34.4067 13.0333 34.62 12.82C 34.8333 12.5933 35.0667 12.34 35.32 12.06L 35.06 11.8L 25.3 11.8L 25.3 10.6L 36.36 10.6L 37.2 11.28L 37.34 11.48L 37.34 11.5L 36.38 12.74C 35.5267 13.8067 34.4267 14.72 33.08 15.48L 32.68 15.7L 33.12 15.86C 34.4667 16.3 36.42 16.68 38.98 17L 38.4 18.34C 35.4933 17.8333 33.08 17.2067 31.16 16.46C 28.8933 17.38 26.5267 18.0267 24.06 18.4L 23.6 17.14C 25.76 16.7667 27.0867 16.5267 27.58 16.42C 28.0733 16.3133 28.5933 16.16 29.14 15.96L 29.58 15.82L 29.18 15.6C 28.1933 15.08 27.08 14.4467 25.84 13.7L 26.28 12.5ZM 23.74 4.88L 26.28 4.88L 26.28 2.8L 24 2.8L 23.74 3.02L 23.74 4.88ZM 27.62 7.48C 27.66 7.76 27.7867 7.92667 28 7.98L 33.9 7.98C 34.18 7.98 34.32 7.86667 34.32 7.64L 34.32 6.14L 27.64 6.14L 27.62 7.48ZM 27.64 4.88L 34.32 4.88L 34.32 2.8L 27.64 2.8L 27.64 4.88ZM 26.64 9.22C 26.44 9.11333 26.34 9.03333 26.34 8.98L 26.3 6.14L 23.74 6.1L 23.66 12.2C 23.6333 14.1067 23.0933 15.96 22.04 17.76L 22.02 17.76L 20.92 17.28C 21.9067 15.64 22.4067 13.7067 22.42 11.48L 22.5 1.68L 22.6 1.6L 29.74 1.58L 29.78 0.26L 31.04 0.26L 31.04 1.56L 38.6 1.58L 38.6 2.74L 35.66 2.74L 35.6 4.88L 38.54 4.94L 38.54 6.1L 35.66 6.1L 35.58 8.96C 35.5667 9.05333 35.4867 9.14 35.34 9.22L 26.64 9.22ZM 20.92 17.28L 20.76 17.22L 20.88 17.4L 20.88 17.36L 20.92 17.28ZM 43.7383 12.5664C 43.7383 11.7227 43.8418 10.8926 44.0488 10.0762C 44.2559 9.25977 44.5488 8.52734 44.9277 7.87891C 45.3105 7.23047 45.7227 6.76758 46.1641 6.49023L 46.2754 6.74219C 45.8926 6.99609 45.5312 7.41992 45.1914 8.01367C 44.8516 8.60742 44.5801 9.29492 44.377 10.0762C 44.1738 10.8574 44.0664 11.6289 44.0547 12.3906L 44.0547 12.6953C 44.0547 13.4688 44.1523 14.2539 44.3477 15.0508C 44.543 15.8438 44.8145 16.5508 45.1621 17.1719C 45.5098 17.7969 45.8809 18.2402 46.2754 18.502L 46.1641 18.7539C 45.7109 18.4688 45.2969 18.0156 44.9219 17.3945C 44.5508 16.7773 44.2598 16.0586 44.0488 15.2383C 43.8418 14.4141 43.7383 13.5234 43.7383 12.5664ZM 49.5918 15.8008C 50.166 15.8008 50.6387 15.6484 51.0098 15.3438C 51.3848 15.0391 51.5898 14.6172 51.625 14.0781L 51.9414 14.0781C 51.9102 14.6914 51.6738 15.1855 51.2324 15.5605C 50.791 15.9316 50.2441 16.1172 49.5918 16.1172C 48.7988 16.1172 48.168 15.8301 47.6992 15.2559C 47.2344 14.6816 47.002 13.9023 47.002 12.918L 47.002 12.707C 47.002 11.7461 47.2344 10.9785 47.6992 10.4043C 48.168 9.83008 48.7949 9.54297 49.5801 9.54297C 50.252 9.54297 50.8066 9.74414 51.2441 10.1465C 51.6816 10.5488 51.9141 11.084 51.9414 11.752L 51.625 11.752C 51.5977 11.1816 51.3965 10.7246 51.0215 10.3809C 50.6504 10.0332 50.1699 9.85938 49.5801 9.85938C 48.873 9.85938 48.3184 10.1152 47.916 10.627C 47.5176 11.1348 47.3184 11.8418 47.3184 12.748L 47.3184 12.9531C 47.3184 13.8398 47.5195 14.5371 47.9219 15.0449C 48.3281 15.5488 48.8848 15.8008 49.5918 15.8008ZM 58.0703 16L 57.7539 16L 57.7539 11.7402C 57.75 11.1035 57.6094 10.6309 57.332 10.3223C 57.0586 10.0098 56.6211 9.85352 56.0195 9.85352C 55.3242 9.85352 54.7559 10.1602 54.3145 10.7734C 54.0527 11.1406 53.8789 11.5469 53.793 11.9922L 53.793 16L 53.4707 16L 53.4707 9.66016L 53.793 9.66016L 53.793 11.1602C 54.0078 10.6445 54.3145 10.2461 54.7129 9.96484C 55.1113 9.68359 55.5527 9.54297 56.0371 9.54297C 56.5684 9.54297 57.002 9.66016 57.3379 9.89453C 57.6777 10.1289 57.9004 10.5117 58.0059 11.043C 58.1934 10.5859 58.498 10.2227 58.9199 9.95312C 59.3418 9.67969 59.8145 9.54297 60.3379 9.54297C 61.0215 9.54297 61.5293 9.73633 61.8613 10.123C 62.1973 10.5098 62.3672 11.0898 62.3711 11.8633L 62.3711 16L 62.0547 16L 62.0547 11.8867C 62.0547 11.1914 61.9141 10.6777 61.6328 10.3457C 61.3555 10.0098 60.918 9.8457 60.3203 9.85352C 59.5508 9.86523 58.9414 10.1719 58.4922 10.7734C 58.2344 11.1211 58.0938 11.457 58.0703 11.7812L 58.0703 16ZM 65.9863 12.6836C 65.9863 13.5625 65.8809 14.4141 65.6699 15.2383C 65.4629 16.0586 65.1719 16.7773 64.7969 17.3945C 64.4258 18.0156 64.0137 18.4688 63.5605 18.7539L 63.4492 18.502C 63.8555 18.2285 64.2324 17.7754 64.5801 17.1426C 64.9277 16.5098 65.1953 15.8027 65.3828 15.0215C 65.5742 14.2402 65.6699 13.4141 65.6699 12.543C 65.6699 11.7539 65.5703 10.9629 65.3711 10.1699C 65.1719 9.37305 64.8984 8.66797 64.5508 8.05469C 64.207 7.4375 63.8398 7 63.4492 6.74219L 63.5605 6.49023C 64.002 6.76758 64.4121 7.23047 64.791 7.87891C 65.1738 8.52734 65.4687 9.25977 65.6758 10.0762C 65.8828 10.8926 65.9863 11.7617 65.9863 12.6836Z"/>
</defs>
</svg>
