<svg width="320" height="568" viewBox="0 0 320 568" version="1.1" xmlns="http://www.w3.org/2000/svg" xmlns:xlink="http://www.w3.org/1999/xlink">
<title>login</title>
<desc>Created using Figma</desc>
<g id="Canvas" transform="translate(-136 244)">
<clipPath id="clip-0" clip-rule="evenodd">
<path d="M 136 -244L 456 -244L 456 324L 136 324L 136 -244Z" fill="#FFFFFF"/>
</clipPath>
<g id="login" clip-path="url(#clip-0)">
<path d="M 136 -244L 456 -244L 456 324L 136 324L 136 -244Z" fill="#FFFFFF"/>
<g id="background">
<path d="M -29 -244L 630.169 -244L 630.169 324L -29 324L -29 -244Z" fill="#EEEEEE"/>
<g id="frost">
<use xlink:href="#path0_fill" transform="translate(136 -244)" fill="#E5E5E5"/>
</g>
<g id="sky" filter="url(#filter0_f)">
<g id="sky">
<use xlink:href="#path0_fill" transform="translate(136 -244)" fill="url(#paint1_linear)"/>
</g>
<g id="clouds">
<use xlink:href="#path1_fill" transform="translate(-29 -241.283)" fill="#FFFFFF"/>
</g>
</g>
</g>
<g id="dialog" filter="url(#filter1_d)">
<g id="background">
<use xlink:href="#path2_fill" transform="translate(164 -134)" fill="#FFFFFF"/>
</g>
<g id="make-account /action=side">
<g id="make-account">
<g id="click-area-hint">
<use xlink:href="#path3_fill" transform="translate(258 97)" fill="url(#paint4_linear)"/>
</g>
<g id="Create new account">
<use xlink:href="#path4_fill" transform="translate(295 109)" fill="#80B6E8"/>
</g>
</g>
</g>
<g id="login /action=focus">
<g id="Rectangle 6">
<use xlink:href="#path5_fill" transform="translate(181 19)" fill="#4D9DE7"/>
</g>
<g id="Login">
<use xlink:href="#path6_fill" transform="translate(267 31)" fill="#FFFFFF"/>
</g>
</g>
<g id="password /input">
<g id="Line">
<use xlink:href="#path7_stroke" transform="translate(180 -10)" fill="#000000" fill-opacity="0.5"/>
</g>
<g id="placeholder">
<use xlink:href="#path8_fill" transform="translate(180 -33)" fill="#000000" fill-opacity="0.298"/>
</g>
<g id="hint /for=input /type=password /style=&#34;font-size: 14px;&#34;">
<mask id="mask0_outline_ins">
<use xlink:href="#path9_fill" fill="white" transform="translate(181 -33)"/>
</mask>
<g mask="url(#mask0_outline_ins)">
<use xlink:href="#path10_stroke_2x" transform="translate(181 -33)" fill="url(#paint10_linear)"/>
</g>
</g>
</g>
<g id="email /input">
<g id="Line">
<use xlink:href="#path7_stroke" transform="translate(180 -45)" fill="#000000" fill-opacity="0.5"/>
</g>
<g id="placeholder">
<use xlink:href="#path11_fill" transform="translate(180 -68)" fill="#000000" fill-opacity="0.298"/>
</g>
<g id="hint /for=input /type=email /style=&#34;font-size: 14px;&#34;">
<mask id="mask1_outline_ins">
<use xlink:href="#path9_fill" fill="white" transform="translate(181 -68)"/>
</mask>
<g mask="url(#mask1_outline_ins)">
<use xlink:href="#path10_stroke_2x" transform="translate(181 -68)" fill="url(#paint13_linear)"/>
</g>
</g>
</g>
<g id="header">
<g id="Rectangle 7">
<use xlink:href="#path12_fill" transform="translate(164 -134)" fill="#4D9DE7"/>
</g>
<g id="haha">
<use xlink:href="#path13_fill" transform="translate(208 -117)" fill="#FFFFFF"/>
</g>
</g>
</g>
</g>
</g>
<defs>
<filter id="filter0_f" filterUnits="userSpaceOnUse" x="-50" y="-264" width="701" height="608" color-interpolation-filters="sRGB">
<feFlood flood-opacity="0" result="BackgroundImageFix"/>
<feBlend mode="normal" in="SourceGraphic" in2="BackgroundImageFix" result="shape"/>
<feGaussianBlur stdDeviation="10" result="effect1_foregroundBlur"/>
</filter>
<filter id="filter1_d" filterUnits="userSpaceOnUse" x="160" y="-134" width="270" height="284" color-interpolation-filters="sRGB">
<feFlood flood-opacity="0" result="BackgroundImageFix"/>
<feColorMatrix in="SourceAlpha" type="matrix" values="0 0 0 0 0 0 0 0 0 0 0 0 0 0 0 0 0 0 255 0"/>
<feOffset dx="0" dy="4"/>
<feGaussianBlur stdDeviation="2"/>
<feColorMatrix type="matrix" values="0 0 0 0 0 0 0 0 0 0 0 0 0 0 0 0 0 0 0.25 0"/>
<feBlend mode="normal" in2="BackgroundImageFix" result="effect1_dropShadow"/>
<feBlend mode="normal" in="SourceGraphic" in2="effect1_dropShadow" result="shape"/>
</filter>
<linearGradient id="paint1_linear" x1="0" y1="0" x2="1" y2="0" gradientUnits="userSpaceOnUse" gradientTransform="matrix(1.95943e-14 568 -320 3.478e-14 320 -3.478e-14)">
<stop offset="0" stop-color="#BADFEF"/>
<stop offset="0.977901" stop-color="#EDF8FC"/>
</linearGradient>
<linearGradient id="paint4_linear" x1="0" y1="0" x2="1" y2="0" gradientUnits="userSpaceOnUse" gradientTransform="matrix(1.0287e-14 40 -168 2.44929e-15 168 -2.44929e-15)">
<stop offset="0" stop-color="#FFFFFF" stop-opacity="0"/>
<stop offset="1" stop-color="#FFFFFF" stop-opacity="0.01"/>
</linearGradient>
<linearGradient id="paint10_linear" x1="0" y1="0" x2="1" y2="0" gradientUnits="userSpaceOnUse" gradientTransform="matrix(1.40834e-14 18 -230 1.10218e-15 230 -1.10218e-15)">
<stop offset="0.00552486" stop-color="#FFFFFF" stop-opacity="0"/>
<stop offset="1" stop-color="#FFFFFF" stop-opacity="0.01"/>
<stop offset="1" stop-color="#FFFFFF" stop-opacity="0.01"/>
</linearGradient>
<linearGradient id="paint13_linear" x1="0" y1="0" x2="1" y2="0" gradientUnits="userSpaceOnUse" gradientTransform="matrix(1.40834e-14 18 -230 1.10218e-15 230 -1.10218e-15)">
<stop offset="0.00552486" stop-color="#FFFFFF" stop-opacity="0"/>
<stop offset="0.98895" stop-color="#FFFFFF" stop-opacity="0.01"/>
</linearGradient>
<path id="path0_fill" d="M 0 0L 320 0L 320 568L 0 568L 0 0Z"/>
<path id="path1_fill" fill-rule="evenodd" d="M 562.711 0.6469C 553.571 1.89566 547.184 5.31486 539.248 13.2051C 533.307 19.1125 532.055 21.0785 528.391 30.2658C 527.617 32.2058 527.08 32.5589 525.571 32.1185C 520.496 30.6393 518.47 30.6951 514.858 32.414C 510.831 34.328 506.514 39.5553 506.514 42.5155C 506.514 46.1465 504.993 47.6685 501.939 47.0961C 497.343 46.2357 487.355 48.2018 482.653 50.8944C 453.741 67.4534 474.381 104.015 507.716 95.2921C 514.594 93.4914 517.417 94.1493 517.417 97.5536C 517.417 99.2651 523.609 105.087 527.584 107.114C 533.272 110.011 540.957 109.222 546.619 105.158C 551.646 101.549 551.295 101.599 558.792 103.416C 565.471 105.037 570.205 104.331 577.613 100.612L 582.029 98.3936L 584.322 100.44C 599.63 114.1 621.851 111.485 633.666 94.6343C 634.57 93.3428 635.814 92.815 637.945 92.815C 650.18 92.815 658.907 76.8507 653.247 64.8221C 649.94 57.7923 641.916 52.9329 635.371 53.994C 632.756 54.4177 632.006 54.1129 629.497 51.6061C 625.325 47.438 620.408 44.4016 616.057 43.3071C 611.411 42.1383 610.894 41.5548 609.823 36.2513C 606.315 18.8802 594.076 5.73669 577.45 1.48869C 570.425 -0.30639 569.908 -0.336122 562.711 0.6469ZM 184.865 10.0683C 182.572 11.0792 180.07 12.5287 179.31 13.2887C 178.549 14.0506 177.589 14.8125 177.176 14.9853C 175.761 15.5818 170.482 22.8476 169.035 26.1943C 167.592 29.5299 167.562 29.5467 162.912 29.5467C 157.911 29.5467 153.841 32.6797 153.224 37.0076C 153.008 38.5128 152.056 38.903 146.58 39.7355C 131.8 41.9785 124.331 52.5669 129.87 63.4173C 133.91 71.326 143.479 74.2082 156.471 71.4264C 158.923 70.9005 159.308 71.1328 161.346 74.3569C 165.981 81.6933 175.417 83.1985 181.438 77.5605C 182.782 76.3025 183.729 76.0888 185.684 76.6035C 189.947 77.7278 198.447 77.2428 200.733 75.745C 203.493 73.9388 204.338 74.015 207.412 76.3508C 217.659 84.1295 231.46 82.6429 238.036 73.0542C 239.564 70.828 240.585 70.1888 242.619 70.1832C 247.377 70.1739 254.043 63.3039 254.043 58.4111C 254.043 52.0595 248.361 45.0502 243.215 45.0502C 240.016 45.0502 237.7 43.9649 234.495 40.9657C 233.201 39.756 230.383 38.1709 228.233 37.4443C 224.431 36.1602 224.278 35.9763 222.749 30.788C 217.424 12.7219 200.216 3.31165 184.865 10.0683ZM 425.153 91.0515C 410.88 94.9427 397.696 105.524 391.629 117.956C 390.617 120.029 389.442 122.382 389.018 123.181C 388.594 123.982 388.246 125.149 388.246 125.775C 388.246 127.68 385.439 129.707 384.033 128.821C 381.844 127.436 374.131 127.905 370.751 129.627C 364.805 132.658 361.122 137.882 359.385 145.755C 358.892 147.985 358.866 147.993 352.81 147.541C 335.929 146.285 319.762 156.223 315.64 170.392C 308.189 195.997 337.887 217.696 365.5 206.823C 369.57 205.22 372.31 205.248 372.31 206.89C 372.31 207.312 373.348 209.23 374.616 211.151C 384.256 225.748 401.082 228.389 413.504 217.254L 416.532 214.539L 422.311 216.505C 431.544 219.649 440.517 218.805 449.149 213.987C 454.067 211.24 454.507 211.261 457.498 214.383C 472.508 230.048 505.35 226.861 516.578 208.652C 518.665 205.266 520.7 204.27 525.519 204.27C 530.212 204.27 536.348 199.873 541.87 192.559C 551.79 179.414 539.077 155.92 522.192 156.193L 516.482 156.284L 512.544 152.391C 507.879 147.779 502.192 144.456 494.986 142.13C 489.977 140.513 489.737 140.312 489.737 137.722C 489.737 133.979 486.162 123.82 482.673 117.645C 470.334 95.8124 447.094 85.0679 425.153 91.0515ZM 113.13 111.26C 109.157 111.946 102.361 114.362 101.01 115.568C 100.572 115.96 99.7029 116.279 99.078 116.279C 97.3668 116.279 86.9993 124.822 84.2131 128.529C 82.8664 130.319 81.5124 131.971 81.2018 132.201C 79.8905 133.177 75.3782 141.355 73.7582 145.692L 72.0042 150.386L 67.6296 149.251C 57.9837 146.751 47.5586 153.87 45.6856 164.23C 45.1388 167.261 41.7425 170.89 41.1398 169.086C 39.8397 165.185 18.1934 170.557 11.4528 176.454C -17.0475 201.39 12.1429 240.809 49.7645 228.192C 53.3654 226.984 56.3842 226.105 56.4734 226.237C 56.5609 226.369 57.6806 228.303 58.9621 230.535C 67.8807 246.089 87.8921 249.983 98.8083 238.291C 101.25 235.677 101.444 235.666 108.097 237.79C 117.248 240.711 125.808 239.652 135.528 234.398L 139.051 232.493L 142.657 235.43C 162.14 251.301 186.772 248.751 202.321 229.253C 205.236 225.597 205.866 225.218 209.032 225.211C 216.797 225.192 225.664 218.376 228.415 210.308C 234.023 193.868 223.523 177.258 207.423 177.095C 201.721 177.037 201.369 176.913 198.616 174.008C 194.53 169.695 187.237 165.271 180.768 163.184C 176.038 161.656 175.199 161.095 175.199 159.458C 175.199 155.795 171.362 144.311 168.327 138.894C 156.605 117.974 135.496 107.406 113.13 111.26ZM 653.642 149.189C 645.065 154.623 639.809 160.517 635.539 169.493C 633.327 174.142 632.401 175.313 631.071 175.138C 623.89 174.192 613.875 177.288 613.875 180.453C 613.875 181.033 613.325 182.575 612.652 183.879C 611.976 185.186 611.232 187.224 610.994 188.412C 610.576 190.5 610.354 190.571 604.027 190.64C 579.148 190.907 565.743 214.05 580.599 231.085C 587.378 238.858 603.158 242.738 613.037 239.059C 620.127 236.416 620.116 236.414 622.677 240.858C 629.944 253.47 643.062 256.229 654.029 247.454C 656.045 245.84 658.027 244.725 658.433 244.975C 658.853 245.236 659.169 224.183 659.169 195.94C 659.169 168.718 658.887 146.456 658.541 146.467C 658.195 146.476 655.991 147.703 653.642 149.189Z"/>
<path id="path2_fill" d="M 0 0L 262 0L 262 276L 0 276L 0 0Z"/>
<path id="path3_fill" d="M 0 0L 168 0L 168 40L 0 40L 0 0Z"/>
<path id="path4_fill" d="M 4.68164 2.98828C 5.18164 2.98828 5.59766 3.01562 5.92969 3.07031C 6.26172 3.125 6.56641 3.19336 6.84375 3.27539L 7.01953 3.32227L 6.83203 4.48242C 6.6875 4.4082 6.55078 4.3457 6.42188 4.29492C 6.29297 4.24023 6.08594 4.18555 5.80078 4.13086C 5.51562 4.07617 5.17188 4.04883 4.76953 4.04883C 4.17188 4.04883 3.65234 4.18945 3.21094 4.4707C 2.77344 4.75195 2.4375 5.15234 2.20312 5.67188C 1.96875 6.19141 1.85156 6.80078 1.85156 7.5C 1.85156 8.19531 1.96875 8.8125 2.20312 9.35156C 2.4375 9.89062 2.77344 10.3105 3.21094 10.6113C 3.65234 10.9121 4.16992 11.0625 4.76367 11.0625C 5.05664 11.0625 5.35352 11.0371 5.6543 10.9863C 5.95508 10.9355 6.2207 10.8691 6.45117 10.7871C 6.68164 10.7012 6.84961 10.6113 6.95508 10.5176L 6.96094 11.625C 6.70703 11.7266 6.48828 11.8086 6.30469 11.8711C 6.125 11.9297 5.89844 11.9805 5.625 12.0234C 5.35547 12.0703 5.05078 12.0938 4.71094 12.0938C 3.87891 12.0938 3.14844 11.9062 2.51953 11.5312C 1.89453 11.1562 1.41016 10.6289 1.06641 9.94922C 0.726562 9.26953 0.556641 8.48242 0.556641 7.58789C 0.556641 6.63867 0.744141 5.81641 1.11914 5.12109C 1.49414 4.42578 1.99609 3.89648 2.625 3.5332C 3.25391 3.16992 3.93945 2.98828 4.68164 2.98828ZM 11.6602 5.2207C 11.9727 5.2207 12.1895 5.24805 12.3105 5.30273L 12.3105 6.50977C 12.2285 6.46289 12.1211 6.42578 11.9883 6.39844C 11.8594 6.36719 11.6738 6.35156 11.4316 6.35156C 11.1348 6.35156 10.8594 6.40625 10.6055 6.51562C 10.3555 6.62109 10.1445 6.75 9.97266 6.90234L 9.97266 12L 8.68359 12L 8.68359 5.33203L 9.76758 5.33203L 9.85547 6.07031C 9.94141 5.95312 10.0801 5.82812 10.2715 5.69531C 10.4668 5.5625 10.6875 5.45117 10.9336 5.36133C 11.1836 5.26758 11.4258 5.2207 11.6602 5.2207ZM 18.5156 7.74609C 18.5156 8.0625 18.5117 8.30859 18.5039 8.48438C 18.4961 8.65625 18.4785 8.80859 18.4512 8.94141L 14.332 8.94141C 14.3359 8.96875 14.3379 9.00781 14.3379 9.05859C 14.4043 10.4336 15.084 11.1211 16.377 11.1211C 16.6113 11.1211 16.9082 11.084 17.2676 11.0098C 17.627 10.9355 17.8848 10.8516 18.041 10.7578L 18.2871 11.4961C 18.0723 11.6719 17.7461 11.8164 17.3086 11.9297C 16.8711 12.0391 16.4453 12.0938 16.0312 12.0938C 15.4023 12.0938 14.8672 11.959 14.4258 11.6895C 13.9844 11.416 13.6484 11.0215 13.418 10.5059C 13.1875 9.99023 13.0723 9.37109 13.0723 8.64844C 13.0723 7.99219 13.1855 7.4082 13.4121 6.89648C 13.6426 6.38477 13.9805 5.98242 14.4258 5.68945C 14.875 5.39258 15.418 5.23828 16.0547 5.22656C 16.5039 5.21875 16.9121 5.31055 17.2793 5.50195C 17.6465 5.69336 17.9395 5.98047 18.1582 6.36328C 18.3809 6.74609 18.5 7.20703 18.5156 7.74609ZM 17.3086 8.08594C 17.3164 7.96094 17.3203 7.86914 17.3203 7.81055C 17.3203 7.31445 17.2188 6.91211 17.0156 6.60352C 16.8164 6.29492 16.4727 6.14062 15.9844 6.14062C 15.5508 6.14062 15.1895 6.29492 14.9004 6.60352C 14.6152 6.9082 14.4375 7.40234 14.3672 8.08594L 17.3086 8.08594ZM 22.3945 5.2207C 22.9102 5.2207 23.3398 5.2793 23.6836 5.39648C 24.0273 5.51367 24.2949 5.72852 24.4863 6.04102C 24.6777 6.34961 24.7734 6.78516 24.7734 7.34766L 24.7734 12.0938L 24.2461 12.0938C 24.0703 12.0938 23.9375 12.082 23.8477 12.0586C 23.7578 12.0352 23.6875 11.9805 23.6367 11.8945C 23.5859 11.8086 23.5605 11.6719 23.5605 11.4844L 23.5605 11.4375C 23.3652 11.6172 23.0957 11.7715 22.752 11.9004C 22.4121 12.0293 22.0566 12.0938 21.6855 12.0938C 21.291 12.0938 20.9375 12.0176 20.625 11.8652C 20.3164 11.7129 20.0742 11.4961 19.8984 11.2148C 19.7266 10.9297 19.6406 10.5957 19.6406 10.2129C 19.6406 9.79102 19.7539 9.42578 19.9805 9.11719C 20.2109 8.80859 20.5312 8.57031 20.9414 8.40234C 21.3047 8.25781 21.7148 8.15039 22.1719 8.08008C 22.6328 8.00586 23.0703 7.96875 23.4844 7.96875L 23.4844 7.29492C 23.4844 6.98242 23.4336 6.74805 23.332 6.5918C 23.2344 6.43555 23.0859 6.33008 22.8867 6.27539C 22.6875 6.2207 22.4121 6.19336 22.0605 6.19336C 21.873 6.19336 21.6562 6.21875 21.4102 6.26953C 21.168 6.32031 20.9395 6.38477 20.7246 6.46289C 20.5137 6.53711 20.3574 6.60938 20.2559 6.67969L 19.9395 5.83594C 20.041 5.77344 20.2246 5.69336 20.4902 5.5957C 20.7598 5.49805 21.0645 5.41211 21.4043 5.33789C 21.748 5.25977 22.0781 5.2207 22.3945 5.2207ZM 22.0664 11.1328C 22.25 11.1328 22.4434 11.1055 22.6465 11.0508C 22.8496 10.9961 23.0273 10.9316 23.1797 10.8574C 23.3359 10.7793 23.4375 10.7129 23.4844 10.6582L 23.4844 8.78906C 23.1992 8.78906 22.877 8.81641 22.5176 8.87109C 22.1621 8.92578 21.875 9.00586 21.6562 9.11133C 21.418 9.22461 21.2344 9.35742 21.1055 9.50977C 20.9766 9.66211 20.9121 9.85937 20.9121 10.1016C 20.9121 10.7891 21.2969 11.1328 22.0664 11.1328ZM 27.0586 6.29297L 26.1914 6.29297L 26.1914 5.5957L 26.4023 5.53711C 26.582 5.48633 26.7148 5.44531 26.8008 5.41406C 26.8867 5.37891 26.9609 5.33203 27.0234 5.27344C 27.0898 5.21094 27.1426 5.12695 27.1816 5.02148C 27.2402 4.87305 27.3262 4.60547 27.4395 4.21875L 27.5684 3.79688L 28.3418 3.79688L 28.3418 5.32031L 30.2285 5.32031L 30.2285 6.29297L 28.3418 6.29297L 28.3418 9.67383C 28.3418 10.1191 28.3594 10.4355 28.3945 10.623C 28.4297 10.8066 28.4941 10.9258 28.5879 10.9805C 28.6855 11.0352 28.8496 11.0625 29.0801 11.0625C 29.248 11.0625 29.4512 11.0352 29.6895 10.9805C 29.9316 10.9258 30.1094 10.8691 30.2227 10.8105L 30.4453 11.5488C 30.2539 11.6895 29.9785 11.8164 29.6191 11.9297C 29.2637 12.0391 28.9238 12.0938 28.5996 12.0938C 28.1113 12.0938 27.7324 11.9727 27.4629 11.7305C 27.1934 11.4844 27.0586 11.041 27.0586 10.4004L 27.0586 6.29297ZM 36.7148 7.74609C 36.7148 8.0625 36.7109 8.30859 36.7031 8.48438C 36.6953 8.65625 36.6777 8.80859 36.6504 8.94141L 32.5312 8.94141C 32.5352 8.96875 32.5371 9.00781 32.5371 9.05859C 32.6035 10.4336 33.2832 11.1211 34.5762 11.1211C 34.8105 11.1211 35.1074 11.084 35.4668 11.0098C 35.8262 10.9355 36.084 10.8516 36.2402 10.7578L 36.4863 11.4961C 36.2715 11.6719 35.9453 11.8164 35.5078 11.9297C 35.0703 12.0391 34.6445 12.0938 34.2305 12.0938C 33.6016 12.0938 33.0664 11.959 32.625 11.6895C 32.1836 11.416 31.8477 11.0215 31.6172 10.5059C 31.3867 9.99023 31.2715 9.37109 31.2715 8.64844C 31.2715 7.99219 31.3848 7.4082 31.6113 6.89648C 31.8418 6.38477 32.1797 5.98242 32.625 5.68945C 33.0742 5.39258 33.6172 5.23828 34.2539 5.22656C 34.7031 5.21875 35.1113 5.31055 35.4785 5.50195C 35.8457 5.69336 36.1387 5.98047 36.3574 6.36328C 36.5801 6.74609 36.6992 7.20703 36.7148 7.74609ZM 35.5078 8.08594C 35.5156 7.96094 35.5195 7.86914 35.5195 7.81055C 35.5195 7.31445 35.418 6.91211 35.2148 6.60352C 35.0156 6.29492 34.6719 6.14062 34.1836 6.14062C 33.75 6.14062 33.3887 6.29492 33.0996 6.60352C 32.8145 6.9082 32.6367 7.40234 32.5664 8.08594L 35.5078 8.08594ZM 43.3125 5.33203L 43.3184 6.03516C 43.623 5.82812 44 5.64062 44.4492 5.47266C 44.9023 5.30469 45.334 5.2207 45.7441 5.2207C 46.2051 5.2207 46.5723 5.30664 46.8457 5.47852C 47.1191 5.65039 47.3184 5.92578 47.4434 6.30469C 47.5684 6.68359 47.6309 7.19531 47.6309 7.83984L 47.6309 12L 46.3418 12L 46.3418 7.83398C 46.3418 7.45898 46.3125 7.16211 46.2539 6.94336C 46.1953 6.7207 46.0879 6.55469 45.9316 6.44531C 45.7754 6.33594 45.5488 6.28125 45.252 6.28125C 45.1816 6.28125 45.1289 6.2832 45.0938 6.28711C 44.8594 6.29492 44.5898 6.35547 44.2852 6.46875C 43.9844 6.57813 43.707 6.72461 43.4531 6.9082L 43.4531 12L 42.1641 12L 42.1641 5.33203L 43.3125 5.33203ZM 54.6445 7.74609C 54.6445 8.0625 54.6406 8.30859 54.6328 8.48438C 54.625 8.65625 54.6074 8.80859 54.5801 8.94141L 50.4609 8.94141C 50.4648 8.96875 50.4668 9.00781 50.4668 9.05859C 50.5332 10.4336 51.2129 11.1211 52.5059 11.1211C 52.7402 11.1211 53.0371 11.084 53.3965 11.0098C 53.7559 10.9355 54.0137 10.8516 54.1699 10.7578L 54.416 11.4961C 54.2012 11.6719 53.875 11.8164 53.4375 11.9297C 53 12.0391 52.5742 12.0938 52.1602 12.0938C 51.5312 12.0938 50.9961 11.959 50.5547 11.6895C 50.1133 11.416 49.7773 11.0215 49.5469 10.5059C 49.3164 9.99023 49.2012 9.37109 49.2012 8.64844C 49.2012 7.99219 49.3145 7.4082 49.541 6.89648C 49.7715 6.38477 50.1094 5.98242 50.5547 5.68945C 51.0039 5.39258 51.5469 5.23828 52.1836 5.22656C 52.6328 5.21875 53.041 5.31055 53.4082 5.50195C 53.7754 5.69336 54.0684 5.98047 54.2871 6.36328C 54.5098 6.74609 54.6289 7.20703 54.6445 7.74609ZM 53.4375 8.08594C 53.4453 7.96094 53.4492 7.86914 53.4492 7.81055C 53.4492 7.31445 53.3477 6.91211 53.1445 6.60352C 52.9453 6.29492 52.6016 6.14062 52.1133 6.14062C 51.6797 6.14062 51.3184 6.29492 51.0293 6.60352C 50.7441 6.9082 50.5664 7.40234 50.4961 8.08594L 53.4375 8.08594ZM 64.6582 5.32031L 62.6191 12.0938L 61.4297 12.0938L 60.2344 7.72852L 60.0176 6.66211L 59.7832 7.72852L 58.6055 12.0938L 57.3809 12.0938L 55.3418 5.32031L 56.6309 5.32031L 57.709 9.32812L 58.002 10.582L 58.2715 9.33398L 59.3848 5.32031L 60.668 5.32031L 61.7754 9.32812L 62.0625 10.6055L 62.3555 9.36914L 63.3984 5.32031L 64.6582 5.32031ZM 71.9297 5.2207C 72.4453 5.2207 72.875 5.2793 73.2188 5.39648C 73.5625 5.51367 73.8301 5.72852 74.0215 6.04102C 74.2129 6.34961 74.3086 6.78516 74.3086 7.34766L 74.3086 12.0938L 73.7812 12.0938C 73.6055 12.0938 73.4727 12.082 73.3828 12.0586C 73.293 12.0352 73.2227 11.9805 73.1719 11.8945C 73.1211 11.8086 73.0957 11.6719 73.0957 11.4844L 73.0957 11.4375C 72.9004 11.6172 72.6309 11.7715 72.2871 11.9004C 71.9473 12.0293 71.5918 12.0938 71.2207 12.0938C 70.8262 12.0938 70.4727 12.0176 70.1602 11.8652C 69.8516 11.7129 69.6094 11.4961 69.4336 11.2148C 69.2617 10.9297 69.1758 10.5957 69.1758 10.2129C 69.1758 9.79102 69.2891 9.42578 69.5156 9.11719C 69.7461 8.80859 70.0664 8.57031 70.4766 8.40234C 70.8398 8.25781 71.25 8.15039 71.707 8.08008C 72.168 8.00586 72.6055 7.96875 73.0195 7.96875L 73.0195 7.29492C 73.0195 6.98242 72.9687 6.74805 72.8672 6.5918C 72.7695 6.43555 72.6211 6.33008 72.4219 6.27539C 72.2227 6.2207 71.9473 6.19336 71.5957 6.19336C 71.4082 6.19336 71.1914 6.21875 70.9453 6.26953C 70.7031 6.32031 70.4746 6.38477 70.2598 6.46289C 70.0488 6.53711 69.8926 6.60938 69.791 6.67969L 69.4746 5.83594C 69.5762 5.77344 69.7598 5.69336 70.0254 5.5957C 70.2949 5.49805 70.5996 5.41211 70.9395 5.33789C 71.2832 5.25977 71.6133 5.2207 71.9297 5.2207ZM 71.6016 11.1328C 71.7852 11.1328 71.9785 11.1055 72.1816 11.0508C 72.3848 10.9961 72.5625 10.9316 72.7148 10.8574C 72.8711 10.7793 72.9727 10.7129 73.0195 10.6582L 73.0195 8.78906C 72.7344 8.78906 72.4121 8.81641 72.0527 8.87109C 71.6973 8.92578 71.4102 9.00586 71.1914 9.11133C 70.9531 9.22461 70.7695 9.35742 70.6406 9.50977C 70.5117 9.66211 70.4473 9.85937 70.4473 10.1016C 70.4473 10.7891 70.832 11.1328 71.6016 11.1328ZM 79.0547 5.22656C 79.4336 5.22656 79.7695 5.26367 80.0625 5.33789C 80.3555 5.4082 80.5664 5.48633 80.6953 5.57227L 80.4902 6.5918C 80.3105 6.4668 80.0996 6.375 79.8574 6.31641C 79.6152 6.25391 79.3262 6.22266 78.9902 6.22266C 78.6543 6.22266 78.3398 6.30859 78.0469 6.48047C 77.7578 6.65234 77.5234 6.92187 77.3438 7.28906C 77.1641 7.65234 77.0742 8.11133 77.0742 8.66602C 77.0742 9.18164 77.1562 9.625 77.3203 9.99609C 77.4844 10.3633 77.709 10.6426 77.9941 10.834C 78.2793 11.0254 78.5996 11.1211 78.9551 11.1211C 79.2637 11.1211 79.5645 11.082 79.8574 11.0039C 80.1504 10.9219 80.3809 10.8301 80.5488 10.7285L 80.8125 11.4609C 80.6055 11.6523 80.3164 11.8066 79.9453 11.9238C 79.5742 12.0371 79.1797 12.0938 78.7617 12.0938C 78.1523 12.0938 77.625 11.9492 77.1797 11.6602C 76.7383 11.3672 76.4023 10.9668 76.1719 10.459C 75.9414 9.95117 75.8262 9.375 75.8262 8.73047C 75.8262 8.0625 75.9473 7.46484 76.1895 6.9375C 76.4355 6.40625 76.8008 5.98828 77.2852 5.68359C 77.7695 5.37891 78.3594 5.22656 79.0547 5.22656ZM 84.9258 5.22656C 85.3047 5.22656 85.6406 5.26367 85.9336 5.33789C 86.2266 5.4082 86.4375 5.48633 86.5664 5.57227L 86.3613 6.5918C 86.1816 6.4668 85.9707 6.375 85.7285 6.31641C 85.4863 6.25391 85.1973 6.22266 84.8613 6.22266C 84.5254 6.22266 84.2109 6.30859 83.918 6.48047C 83.6289 6.65234 83.3945 6.92187 83.2148 7.28906C 83.0352 7.65234 82.9453 8.11133 82.9453 8.66602C 82.9453 9.18164 83.0273 9.625 83.1914 9.99609C 83.3555 10.3633 83.5801 10.6426 83.8652 10.834C 84.1504 11.0254 84.4707 11.1211 84.8262 11.1211C 85.1348 11.1211 85.4355 11.082 85.7285 11.0039C 86.0215 10.9219 86.252 10.8301 86.4199 10.7285L 86.6836 11.4609C 86.4766 11.6523 86.1875 11.8066 85.8164 11.9238C 85.4453 12.0371 85.0508 12.0938 84.6328 12.0938C 84.0234 12.0938 83.4961 11.9492 83.0508 11.6602C 82.6094 11.3672 82.2734 10.9668 82.043 10.459C 81.8125 9.95117 81.6973 9.375 81.6973 8.73047C 81.6973 8.0625 81.8184 7.46484 82.0605 6.9375C 82.3066 6.40625 82.6719 5.98828 83.1562 5.68359C 83.6406 5.37891 84.2305 5.22656 84.9258 5.22656ZM 87.5625 8.60156C 87.5625 7.88672 87.6934 7.27734 87.9551 6.77344C 88.2168 6.26562 88.5781 5.88086 89.0391 5.61914C 89.5 5.35742 90.0234 5.22656 90.6094 5.22656C 91.2852 5.22656 91.8418 5.38281 92.2793 5.69531C 92.7168 6.00781 93.0371 6.42578 93.2402 6.94922C 93.4434 7.47266 93.5449 8.0625 93.5449 8.71875C 93.5449 9.43359 93.4141 10.0449 93.1523 10.5527C 92.8906 11.0605 92.5293 11.4453 92.0684 11.707C 91.6074 11.9648 91.082 12.0938 90.4922 12.0938C 89.8203 12.0938 89.2656 11.9375 88.8281 11.625C 88.3906 11.3125 88.0703 10.8945 87.8672 10.3711C 87.6641 9.84766 87.5625 9.25781 87.5625 8.60156ZM 92.2383 8.74219C 92.2383 8.24219 92.1758 7.79883 92.0508 7.41211C 91.9297 7.02148 91.7422 6.71484 91.4883 6.49219C 91.2344 6.26562 90.916 6.15234 90.5332 6.15234C 89.9902 6.15234 89.5762 6.35937 89.291 6.77344C 89.0098 7.18359 88.8691 7.77148 88.8691 8.53711C 88.8691 9.0332 88.9316 9.48242 89.0566 9.88477C 89.1816 10.2832 89.3711 10.5996 89.625 10.834C 89.8789 11.0645 90.1934 11.1797 90.5684 11.1797C 91.1113 11.1797 91.5254 10.9668 91.8105 10.541C 92.0957 10.1152 92.2383 9.51562 92.2383 8.74219ZM 100.4 5.32031L 100.4 12.0938L 99.9023 12.0938C 99.75 12.0938 99.6289 12.082 99.5391 12.0586C 99.4492 12.0352 99.3789 11.9863 99.3281 11.9121C 99.2812 11.8379 99.2578 11.7266 99.2578 11.5781L 99.2578 11.4141C 98.9531 11.5977 98.6016 11.7578 98.2031 11.8945C 97.8086 12.0273 97.4395 12.0938 97.0957 12.0938C 96.5527 12.0938 96.1367 11.9785 95.8477 11.748C 95.5586 11.5176 95.3633 11.1992 95.2617 10.793C 95.1602 10.3828 95.1094 9.85937 95.1094 9.22266L 95.1094 5.32031L 96.3984 5.32031L 96.3984 9.2168C 96.3984 9.75977 96.4375 10.1602 96.5156 10.418C 96.5977 10.6719 96.7207 10.8379 96.8848 10.916C 97.0527 10.9941 97.2988 11.0332 97.623 11.0332C 97.8574 11.0332 98.1211 10.9824 98.4141 10.8809C 98.7109 10.7793 98.9434 10.6738 99.1113 10.5645L 99.1113 5.32031L 100.4 5.32031ZM 103.617 5.33203L 103.623 6.03516C 103.928 5.82812 104.305 5.64062 104.754 5.47266C 105.207 5.30469 105.639 5.2207 106.049 5.2207C 106.51 5.2207 106.877 5.30664 107.15 5.47852C 107.424 5.65039 107.623 5.92578 107.748 6.30469C 107.873 6.68359 107.936 7.19531 107.936 7.83984L 107.936 12L 106.646 12L 106.646 7.83398C 106.646 7.45898 106.617 7.16211 106.559 6.94336C 106.5 6.7207 106.393 6.55469 106.236 6.44531C 106.08 6.33594 105.854 6.28125 105.557 6.28125C 105.486 6.28125 105.434 6.2832 105.398 6.28711C 105.164 6.29492 104.895 6.35547 104.59 6.46875C 104.289 6.57813 104.012 6.72461 103.758 6.9082L 103.758 12L 102.469 12L 102.469 5.33203L 103.617 5.33203ZM 110.273 6.29297L 109.406 6.29297L 109.406 5.5957L 109.617 5.53711C 109.797 5.48633 109.93 5.44531 110.016 5.41406C 110.102 5.37891 110.176 5.33203 110.238 5.27344C 110.305 5.21094 110.357 5.12695 110.396 5.02148C 110.455 4.87305 110.541 4.60547 110.654 4.21875L 110.783 3.79688L 111.557 3.79688L 111.557 5.32031L 113.443 5.32031L 113.443 6.29297L 111.557 6.29297L 111.557 9.67383C 111.557 10.1191 111.574 10.4355 111.609 10.623C 111.645 10.8066 111.709 10.9258 111.803 10.9805C 111.9 11.0352 112.064 11.0625 112.295 11.0625C 112.463 11.0625 112.666 11.0352 112.904 10.9805C 113.146 10.9258 113.324 10.8691 113.438 10.8105L 113.66 11.5488C 113.469 11.6895 113.193 11.8164 112.834 11.9297C 112.479 12.0391 112.139 12.0938 111.814 12.0938C 111.326 12.0938 110.947 11.9727 110.678 11.7305C 110.408 11.4844 110.273 11.041 110.273 10.4004L 110.273 6.29297Z"/>
<path id="path5_fill" d="M 0 8C 0 3.58172 3.58172 0 8 0L 222 0C 226.418 0 230 3.58172 230 8L 230 34C 230 38.4183 226.418 42 222 42L 8 42C 3.58172 42 0 38.4183 0 34L 0 8Z"/>
<path id="path6_fill" d="M 8.91 12.886C 9.32067 13.0767 9.636 13.348 9.856 13.7C 10.0907 14.052 10.208 14.4333 10.208 14.844C 10.208 15.4453 9.98067 15.9733 9.526 16.428C 8.61667 16.6187 7.64133 16.7653 6.6 16.868C 5.55867 16.9707 4.62 17.022 3.784 17.022C 3.432 17.022 3.17533 17.0147 3.014 17C 2.75 16.9853 2.40533 16.846 1.98 16.582C 1.56933 16.318 1.20267 16.0173 0.88 15.68C 0.557333 15.328 0.396 15.0273 0.396 14.778C 0.396 14.514 0.557333 13.6853 0.88 12.292C 1.188 10.9867 1.474 9.61533 1.738 8.178L 1.914 7.21C 2.20733 5.55267 2.47867 4.20333 2.728 3.162C 2.992 2.12067 3.256 1.6 3.52 1.6C 3.79867 1.6 4.17267 1.72467 4.642 1.974C 5.11133 2.22333 5.522 2.51667 5.874 2.854C 6.24067 3.19133 6.424 3.48467 6.424 3.734C 6.424 3.88067 6.34333 4.24 6.182 4.812C 6.03533 5.36933 5.94733 5.714 5.918 5.846C 5.434 7.562 5.05267 9.058 4.774 10.334C 4.58333 11.2433 4.29733 12.4607 3.916 13.986C 5.632 13.81 7.29667 13.4433 8.91 12.886ZM 15.9342 4.57C 16.9755 4.68733 17.9215 5.00267 18.7722 5.516C 19.6375 6.01467 20.3122 6.616 20.7962 7.32C 21.2802 8.024 21.5222 8.728 21.5222 9.432C 21.5222 10.488 21.2509 11.61 20.7082 12.798C 20.1655 13.986 19.4102 14.9833 18.4422 15.79C 17.4742 16.5967 16.3962 17 15.2082 17C 14.6215 17 13.9982 16.7873 13.3382 16.362C 12.6782 15.922 12.1209 15.394 11.6662 14.778C 11.2262 14.1473 11.0062 13.59 11.0062 13.106C 11.0062 12.2113 11.1162 11.2947 11.3362 10.356C 11.5562 9.40267 11.8935 8.47867 12.3482 7.584C 12.7735 7.34933 13.1989 7.232 13.6242 7.232C 13.8149 7.232 13.9909 7.254 14.1522 7.298C 14.0935 7.122 14.0642 6.91667 14.0642 6.682C 14.0642 6.21267 14.2255 5.78733 14.5482 5.406C 14.8855 5.02467 15.3475 4.746 15.9342 4.57ZM 14.4162 14.492C 15.6335 14.0813 16.5795 13.3773 17.2542 12.38C 17.9289 11.3827 18.3762 10.1947 18.5962 8.816C 17.9362 8.34667 17.0415 8.112 15.9122 8.112C 15.6335 8.112 15.4209 8.11933 15.2742 8.134C 15.4355 8.42733 15.5162 8.75733 15.5162 9.124C 15.1349 9.72533 14.8415 10.3927 14.6362 11.126C 14.4309 11.8447 14.3282 12.5707 14.3282 13.304C 14.3282 13.744 14.3575 14.14 14.4162 14.492ZM 30.0228 13.524C 29.1281 14.228 28.2261 14.8367 27.3168 15.35C 26.4221 15.8633 25.6814 16.12 25.0948 16.12C 24.7574 16.12 24.3834 15.9953 23.9728 15.746C 23.5768 15.482 23.2394 15.1667 22.9608 14.8C 22.6821 14.4187 22.5428 14.0667 22.5428 13.744C 22.5428 12.5267 22.7848 11.1993 23.2688 9.762C 23.7674 8.31 24.4348 7.08533 25.2708 6.088C 26.1214 5.09067 27.0528 4.592 28.0648 4.592C 28.4608 4.592 28.8494 4.77533 29.2308 5.142C 29.6121 5.494 29.9128 5.89 30.1328 6.33C 30.1914 5.978 30.2868 5.69933 30.4188 5.494C 30.5654 5.28867 30.7121 5.186 30.8588 5.186C 31.0788 5.186 31.4161 5.33267 31.8708 5.626C 32.3254 5.90467 32.7361 6.22 33.1028 6.572C 33.4694 6.924 33.6528 7.188 33.6528 7.364C 33.6528 7.92133 33.4328 9.41 32.9928 11.83C 32.5674 14.25 32.0981 16.604 31.5848 18.892C 31.0861 21.18 30.7268 22.5073 30.5068 22.874C 30.1694 23.402 29.6414 23.864 28.9228 24.26C 28.2188 24.656 27.5294 24.854 26.8548 24.854C 26.2241 24.854 25.5861 24.6633 24.9408 24.282C 24.2954 23.9007 23.7674 23.4313 23.3568 22.874C 22.9461 22.3167 22.7408 21.8107 22.7408 21.356C 22.7408 20.828 23.0488 20.212 23.6648 19.508C 24.2954 18.804 25.0581 18.1 25.9528 17.396C 26.8474 16.7067 27.9914 15.8707 29.3848 14.888C 29.6341 14.6973 30.0081 14.426 30.5068 14.074L 30.0228 13.524ZM 28.8348 7.386C 28.3214 7.386 27.8374 7.716 27.3828 8.376C 26.9428 9.02133 26.5688 9.83533 26.2608 10.818C 25.9528 11.786 25.7474 12.7393 25.6448 13.678C 27.0234 13.106 28.1234 12.3067 28.9448 11.28C 29.7661 10.2533 30.2134 9.19733 30.2868 8.112C 30.1108 7.92133 29.8834 7.75267 29.6048 7.606C 29.3408 7.45933 29.0841 7.386 28.8348 7.386ZM 29.7588 17.066C 27.2654 19.0167 26.0188 20.41 26.0188 21.246C 26.0188 21.5393 26.1434 21.7887 26.3928 21.994C 26.6568 22.214 26.9868 22.39 27.3828 22.522C 27.8228 22.0087 28.2261 21.312 28.5928 20.432C 28.9594 19.552 29.3481 18.43 29.7588 17.066ZM 39.194 3.954C 38.9154 3.954 38.578 3.844 38.182 3.624C 37.8007 3.38933 37.4707 3.118 37.192 2.81C 36.9134 2.48733 36.774 2.20133 36.774 1.952C 36.774 1.556 36.8767 1.16 37.082 0.764001C 37.2874 0.368 37.544 0.0820001 37.852 -0.0940002C 37.9987 -0.167333 38.2334 -0.204 38.556 -0.204C 39.084 -0.204 39.612 -0.0866661 40.14 0.148001C 40.6827 0.382667 41.0127 0.676 41.13 1.028C 41.1594 1.10133 41.174 1.21133 41.174 1.358C 41.174 1.69533 41.0714 2.06933 40.866 2.48C 40.6607 2.89067 40.404 3.24267 40.096 3.536C 39.788 3.81467 39.4874 3.954 39.194 3.954ZM 37.698 17C 37.3167 17 36.884 16.8753 36.4 16.626C 35.9307 16.362 35.52 16.0613 35.168 15.724C 34.8307 15.372 34.662 15.0787 34.662 14.844C 34.662 14.58 34.7574 14.1913 34.948 13.678C 35.1387 13.1647 35.4247 12.4607 35.806 11.566C 36.0994 10.8767 36.3194 10.3413 36.466 9.96C 36.6127 9.564 36.686 9.28533 36.686 9.124C 36.686 9.00667 36.6127 8.882 36.466 8.75C 36.334 8.60333 36.1287 8.42733 35.85 8.222C 35.5274 7.97267 35.2854 7.77467 35.124 7.628C 34.9774 7.48133 34.904 7.32733 34.904 7.166C 34.904 6.858 35.0434 6.49867 35.322 6.088C 35.6154 5.67733 35.9527 5.32533 36.334 5.032C 36.73 4.73867 37.0674 4.592 37.346 4.592C 37.6834 4.592 38.05 4.73867 38.446 5.032C 38.8567 5.32533 39.2014 5.67733 39.48 6.088C 39.7734 6.484 39.92 6.80667 39.92 7.056C 39.92 7.70133 39.7514 8.62533 39.414 9.828C 39.0914 11.016 38.6734 12.2993 38.16 13.678C 38.512 13.5167 38.82 13.348 39.084 13.172C 39.348 12.996 39.7147 12.7247 40.184 12.358C 40.844 12.578 41.328 12.8933 41.636 13.304C 41.944 13.7 42.098 14.1327 42.098 14.602C 42.098 14.9833 41.8487 15.3573 41.35 15.724C 40.866 16.0907 40.272 16.3987 39.568 16.648C 38.864 16.8827 38.2407 17 37.698 17ZM 54.6989 12.358C 55.3442 12.578 55.8209 12.886 56.1289 13.282C 56.4515 13.6633 56.6129 14.1033 56.6129 14.602C 56.6129 14.954 56.3635 15.3207 55.8649 15.702C 55.3662 16.0687 54.7722 16.3767 54.0829 16.626C 53.3935 16.8753 52.8069 17 52.3229 17C 51.9855 17 51.5969 16.868 51.1569 16.604C 50.7169 16.34 50.3355 16.0393 50.0129 15.702C 49.7049 15.35 49.5509 15.0787 49.5509 14.888C 49.5509 14.7413 49.7122 14.1693 50.0349 13.172C 50.6069 11.4267 50.8929 10.3267 50.8929 9.872C 50.8929 9.696 50.8489 9.608 50.7609 9.608C 50.1742 9.608 49.0815 10.6347 47.4829 12.688C 47.4242 12.9227 47.3582 13.216 47.2849 13.568C 47.2262 13.92 47.1822 14.1693 47.1529 14.316C 46.9915 15.1813 46.8375 15.8487 46.6909 16.318C 46.5589 16.7727 46.3829 17 46.1629 17C 45.7815 17 45.3489 16.8753 44.8649 16.626C 44.3955 16.362 43.9849 16.0613 43.6329 15.724C 43.2955 15.372 43.1269 15.0787 43.1269 14.844C 43.1269 14.58 43.2222 14.1913 43.4129 13.678C 43.6035 13.1647 43.8895 12.4607 44.2709 11.566C 44.5642 10.8767 44.7842 10.3413 44.9309 9.96C 45.0775 9.564 45.1509 9.28533 45.1509 9.124C 45.1509 9.00667 45.0775 8.882 44.9309 8.75C 44.7989 8.60333 44.5935 8.42733 44.3149 8.222C 43.9922 7.97267 43.7502 7.77467 43.5889 7.628C 43.4422 7.48133 43.3689 7.32733 43.3689 7.166C 43.3689 6.858 43.5082 6.49867 43.7869 6.088C 44.0802 5.67733 44.4175 5.32533 44.7989 5.032C 45.1949 4.73867 45.5322 4.592 45.8109 4.592C 46.1189 4.592 46.4709 4.73133 46.8669 5.01C 47.2775 5.28867 47.6295 5.61133 47.9229 5.978C 48.2309 6.33 48.3849 6.60133 48.3849 6.792C 48.3849 7.144 48.3409 7.57667 48.2529 8.09C 48.1795 8.60333 48.0769 9.10933 47.9449 9.608C 49.0155 8.2 49.9029 7.11467 50.6069 6.352C 51.3109 5.57467 51.8609 5.186 52.2569 5.186C 52.5355 5.186 52.8729 5.32533 53.2689 5.604C 53.6649 5.88267 54.0022 6.20533 54.2809 6.572C 54.5742 6.924 54.7209 7.19533 54.7209 7.386C 54.7062 7.63533 54.6035 8.06067 54.4129 8.662C 54.2222 9.26333 53.9509 10.0627 53.5989 11.06C 53.1295 12.3507 52.8289 13.2233 52.6969 13.678C 53.1515 13.4433 53.5035 13.2453 53.7529 13.084C 54.0169 12.908 54.3322 12.666 54.6989 12.358Z"/>
<path id="path7_stroke" d="M 0 0.5L 232 0.5L 232 -0.5L 0 -0.5L 0 0.5Z"/>
<path id="path8_fill" d="M 2.04395 3.5957C 2.28548 3.5957 2.67057 3.57747 3.19922 3.54102C 3.76432 3.50456 4.21322 3.48633 4.5459 3.48633C 5.70801 3.48633 6.60352 3.76204 7.23242 4.31348C 7.86133 4.86035 8.17578 5.70801 8.17578 6.85645C 8.17578 7.61296 8.02311 8.25781 7.71777 8.79102C 7.41699 9.32422 6.9681 9.7321 6.37109 10.0146C 5.77865 10.2926 5.05404 10.4316 4.19727 10.4316C 3.81901 10.4316 3.45671 10.4225 3.11035 10.4043L 2.85059 10.3975L 2.85059 14L 1.32617 14L 1.32617 3.5957L 2.04395 3.5957ZM 4.1084 9.31055C 4.6097 9.31055 5.04492 9.24447 5.41406 9.1123C 5.78776 8.98014 6.08854 8.73405 6.31641 8.37402C 6.54427 8.014 6.6582 7.5127 6.6582 6.87012C 6.6582 6.08171 6.45768 5.50293 6.05664 5.13379C 5.66016 4.76465 5.06543 4.58008 4.27246 4.58008C 3.6709 4.58008 3.19694 4.62337 2.85059 4.70996L 2.85059 9.24219C 3.18783 9.28776 3.6071 9.31055 4.1084 9.31055ZM 12.5371 6.09082C 13.1387 6.09082 13.64 6.15918 14.041 6.2959C 14.4421 6.43262 14.7542 6.68327 14.9775 7.04785C 15.2008 7.40788 15.3125 7.91602 15.3125 8.57227L 15.3125 14.1094L 14.6973 14.1094C 14.4922 14.1094 14.3372 14.0957 14.2324 14.0684C 14.1276 14.041 14.0456 13.9772 13.9863 13.877C 13.9271 13.7767 13.8975 13.6172 13.8975 13.3984L 13.8975 13.3438C 13.6696 13.5534 13.3551 13.7334 12.9541 13.8838C 12.5576 14.0342 12.1429 14.1094 11.71 14.1094C 11.2497 14.1094 10.8372 14.0205 10.4727 13.8428C 10.1126 13.665 9.83008 13.4121 9.625 13.084C 9.42448 12.7513 9.32422 12.3617 9.32422 11.915C 9.32422 11.4229 9.45638 10.9967 9.7207 10.6367C 9.98958 10.2767 10.3633 9.9987 10.8418 9.80273C 11.2656 9.63411 11.7441 9.50879 12.2773 9.42676C 12.8151 9.34017 13.3255 9.29688 13.8086 9.29688L 13.8086 8.51074C 13.8086 8.14616 13.7493 7.87272 13.6309 7.69043C 13.5169 7.50814 13.3438 7.38509 13.1113 7.32129C 12.8789 7.25749 12.5576 7.22559 12.1475 7.22559C 11.9287 7.22559 11.6758 7.25521 11.3887 7.31445C 11.1061 7.3737 10.8395 7.44889 10.5889 7.54004C 10.3428 7.62663 10.1605 7.71094 10.042 7.79297L 9.67285 6.80859C 9.79134 6.73568 10.0055 6.64225 10.3154 6.52832C 10.6299 6.41439 10.9854 6.31413 11.3818 6.22754C 11.7829 6.13639 12.168 6.09082 12.5371 6.09082ZM 12.1543 12.9883C 12.3685 12.9883 12.5941 12.9564 12.8311 12.8926C 13.068 12.8288 13.2754 12.7536 13.4531 12.667C 13.6354 12.5758 13.7539 12.4984 13.8086 12.4346L 13.8086 10.2539C 13.4759 10.2539 13.0999 10.2858 12.6807 10.3496C 12.266 10.4134 11.931 10.5068 11.6758 10.6299C 11.3978 10.762 11.1836 10.917 11.0332 11.0947C 10.8828 11.2725 10.8076 11.5026 10.8076 11.7852C 10.8076 12.5872 11.2565 12.9883 12.1543 12.9883ZM 17.4111 12.4346C 17.4977 12.4938 17.6572 12.569 17.8896 12.6602C 18.1221 12.7467 18.3932 12.8242 18.7031 12.8926C 19.013 12.9609 19.3206 12.9951 19.626 12.9951C 20.0726 12.9951 20.4144 12.9108 20.6514 12.7422C 20.8929 12.5736 21.0137 12.3389 21.0137 12.0381C 21.0137 11.751 20.877 11.5049 20.6035 11.2998C 20.3346 11.0947 19.9359 10.8805 19.4072 10.6572C 18.7191 10.3656 18.1836 10.0238 17.8008 9.63184C 17.4225 9.23991 17.2334 8.74544 17.2334 8.14844C 17.2334 7.70638 17.3564 7.33268 17.6025 7.02734C 17.8532 6.71745 18.1904 6.48503 18.6143 6.33008C 19.0381 6.17513 19.5166 6.09766 20.0498 6.09766C 20.4691 6.09766 20.8633 6.14323 21.2324 6.23438C 21.6016 6.32552 21.8659 6.41439 22.0254 6.50098L 21.7793 7.63574C 21.6517 7.52637 21.4261 7.42839 21.1025 7.3418C 20.779 7.25065 20.444 7.20508 20.0977 7.20508C 19.6191 7.20508 19.2523 7.28255 18.9971 7.4375C 18.7464 7.59245 18.6211 7.80436 18.6211 8.07324C 18.6211 8.30111 18.6781 8.49707 18.792 8.66113C 18.9105 8.8252 19.0768 8.96875 19.291 9.0918C 19.5052 9.21484 19.7855 9.34701 20.1318 9.48828C 20.7972 9.75716 21.3441 10.083 21.7725 10.4658C 22.2008 10.8441 22.415 11.3317 22.415 11.9287C 22.415 12.3936 22.3034 12.79 22.0801 13.1182C 21.8613 13.4417 21.5446 13.6878 21.1299 13.8564C 20.7197 14.0251 20.2321 14.1094 19.667 14.1094C 19.1611 14.1094 18.6689 14.0524 18.1904 13.9385C 17.7165 13.8245 17.3815 13.6969 17.1855 13.5557L 17.4111 12.4346ZM 24.0967 12.4346C 24.1833 12.4938 24.3428 12.569 24.5752 12.6602C 24.8076 12.7467 25.0788 12.8242 25.3887 12.8926C 25.6986 12.9609 26.0062 12.9951 26.3115 12.9951C 26.7581 12.9951 27.0999 12.9108 27.3369 12.7422C 27.5785 12.5736 27.6992 12.3389 27.6992 12.0381C 27.6992 11.751 27.5625 11.5049 27.2891 11.2998C 27.0202 11.0947 26.6214 10.8805 26.0928 10.6572C 25.4046 10.3656 24.8691 10.0238 24.4863 9.63184C 24.1081 9.23991 23.9189 8.74544 23.9189 8.14844C 23.9189 7.70638 24.042 7.33268 24.2881 7.02734C 24.5387 6.71745 24.876 6.48503 25.2998 6.33008C 25.7236 6.17513 26.2021 6.09766 26.7354 6.09766C 27.1546 6.09766 27.5488 6.14323 27.918 6.23438C 28.2871 6.32552 28.5514 6.41439 28.7109 6.50098L 28.4648 7.63574C 28.3372 7.52637 28.1117 7.42839 27.7881 7.3418C 27.4645 7.25065 27.1296 7.20508 26.7832 7.20508C 26.3047 7.20508 25.9378 7.28255 25.6826 7.4375C 25.432 7.59245 25.3066 7.80436 25.3066 8.07324C 25.3066 8.30111 25.3636 8.49707 25.4775 8.66113C 25.596 8.8252 25.7624 8.96875 25.9766 9.0918C 26.1908 9.21484 26.471 9.34701 26.8174 9.48828C 27.4827 9.75716 28.0296 10.083 28.458 10.4658C 28.8864 10.8441 29.1006 11.3317 29.1006 11.9287C 29.1006 12.3936 28.9889 12.79 28.7656 13.1182C 28.5469 13.4417 28.2301 13.6878 27.8154 13.8564C 27.4053 14.0251 26.9176 14.1094 26.3525 14.1094C 25.8467 14.1094 25.3545 14.0524 24.876 13.9385C 24.402 13.8245 24.0671 13.6969 23.8711 13.5557L 24.0967 12.4346ZM 40.8037 6.20703L 38.4248 14.1094L 37.0371 14.1094L 35.6426 9.0166L 35.3896 7.77246L 35.1162 9.0166L 33.7422 14.1094L 32.3135 14.1094L 29.9346 6.20703L 31.4385 6.20703L 32.6963 10.8828L 33.0381 12.3457L 33.3525 10.8896L 34.6514 6.20703L 36.1484 6.20703L 37.4404 10.8828L 37.7754 12.373L 38.1172 10.9307L 39.334 6.20703L 40.8037 6.20703ZM 41.6035 10.0352C 41.6035 9.20117 41.7562 8.49023 42.0615 7.90234C 42.3669 7.3099 42.7884 6.861 43.3262 6.55566C 43.8639 6.25033 44.4746 6.09766 45.1582 6.09766C 45.9466 6.09766 46.596 6.27995 47.1064 6.64453C 47.6169 7.00911 47.9906 7.49674 48.2275 8.10742C 48.4645 8.7181 48.583 9.40625 48.583 10.1719C 48.583 11.0059 48.4303 11.7191 48.125 12.3115C 47.8197 12.904 47.3981 13.3529 46.8604 13.6582C 46.3226 13.959 45.7096 14.1094 45.0215 14.1094C 44.2376 14.1094 43.5905 13.9271 43.0801 13.5625C 42.5697 13.1979 42.196 12.7103 41.959 12.0996C 41.722 11.4889 41.6035 10.8008 41.6035 10.0352ZM 47.0586 10.1992C 47.0586 9.61589 46.9857 9.09863 46.8398 8.64746C 46.6986 8.19173 46.4798 7.83398 46.1836 7.57422C 45.8874 7.3099 45.516 7.17773 45.0693 7.17773C 44.4359 7.17773 43.9528 7.41927 43.6201 7.90234C 43.292 8.38086 43.1279 9.06673 43.1279 9.95996C 43.1279 10.5387 43.2008 11.0628 43.3467 11.5322C 43.4925 11.9971 43.7135 12.3662 44.0098 12.6396C 44.306 12.9085 44.6729 13.043 45.1104 13.043C 45.7438 13.043 46.2269 12.7946 46.5596 12.2979C 46.8923 11.8011 47.0586 11.1016 47.0586 10.1992ZM 53.8672 6.09082C 54.2318 6.09082 54.4847 6.12272 54.626 6.18652L 54.626 7.59473C 54.5303 7.54004 54.4049 7.49674 54.25 7.46484C 54.0996 7.42839 53.8831 7.41016 53.6006 7.41016C 53.2542 7.41016 52.9329 7.47396 52.6367 7.60156C 52.3451 7.72461 52.099 7.875 51.8984 8.05273L 51.8984 14L 50.3945 14L 50.3945 6.2207L 51.6592 6.2207L 51.7617 7.08203C 51.862 6.94531 52.0238 6.79948 52.2471 6.64453C 52.4749 6.48958 52.7324 6.3597 53.0195 6.25488C 53.3112 6.14551 53.5938 6.09082 53.8672 6.09082ZM 62.1729 2.625L 62.1729 14.1094L 61.5234 14.1094C 61.3457 14.1094 61.2021 14.0957 61.0928 14.0684C 60.988 14.041 60.9036 13.984 60.8398 13.8975C 60.7806 13.8109 60.751 13.681 60.751 13.5078L 60.751 13.2275C 60.5049 13.4782 60.2132 13.6878 59.876 13.8564C 59.5387 14.0251 59.1081 14.1094 58.584 14.1094C 58.0189 14.1094 57.5039 13.9727 57.0391 13.6992C 56.5788 13.4212 56.2096 13.0042 55.9316 12.4482C 55.6536 11.8877 55.5146 11.2018 55.5146 10.3906C 55.5146 9.55664 55.6764 8.8138 56 8.16211C 56.3236 7.51042 56.7793 7.00456 57.3672 6.64453C 57.9596 6.27995 58.6432 6.09766 59.418 6.09766C 59.8555 6.09766 60.2793 6.16146 60.6895 6.28906L 60.6689 5.87207L 60.6689 2.625L 62.1729 2.625ZM 57.0459 10.2607C 57.0459 11.1585 57.2122 11.8285 57.5449 12.2705C 57.8822 12.708 58.3675 12.9268 59.001 12.9268C 59.3337 12.9268 59.6413 12.8652 59.9238 12.7422C 60.2109 12.6146 60.4593 12.4665 60.6689 12.2979L 60.6689 7.5332C 60.5322 7.41471 60.3499 7.32812 60.1221 7.27344C 59.8942 7.21875 59.6094 7.19141 59.2676 7.19141C 58.8438 7.19141 58.4632 7.3099 58.126 7.54688C 57.7887 7.78385 57.5244 8.13477 57.333 8.59961C 57.1416 9.0599 57.0459 9.61361 57.0459 10.2607Z"/>
<path id="path9_fill" d="M 0 0L 230 0L 230 18L 0 18L 0 0Z"/>
<path id="path10_stroke_2x" d="M 0 0L 0 -1L -1 -1L -1 0L 0 0ZM 230 0L 231 0L 231 -1L 230 -1L 230 0ZM 230 18L 230 19L 231 19L 231 18L 230 18ZM 0 18L -1 18L -1 19L 0 19L 0 18ZM 0 1L 230 1L 230 -1L 0 -1L 0 1ZM 229 0L 229 18L 231 18L 231 0L 229 0ZM 230 17L 0 17L 0 19L 230 19L 230 17ZM 1 18L 1 0L -1 0L -1 18L 1 18Z"/>
<path id="path11_fill" d="M 7.31445 3.5957L 7.31445 4.77148L 2.85059 4.77148L 2.85059 8.05273L 6.125 8.05273L 6.125 9.22852L 2.85059 9.22852L 2.85059 12.8037L 7.81348 12.8037L 7.81348 14L 1.32617 14L 1.32617 3.5957L 7.31445 3.5957ZM 18.4023 6.09082C 18.9447 6.09082 19.3776 6.1888 19.7012 6.38477C 20.0247 6.58073 20.2617 6.89974 20.4121 7.3418C 20.5671 7.7793 20.6445 8.37174 20.6445 9.11914L 20.6445 14L 19.1406 14L 19.1406 9.13965C 19.1406 8.68392 19.1042 8.32845 19.0312 8.07324C 18.9583 7.81348 18.8193 7.62435 18.6143 7.50586C 18.4092 7.38281 18.1107 7.3304 17.7188 7.34863C 17.4408 7.35775 17.1263 7.42611 16.7754 7.55371C 16.4245 7.67676 16.1032 7.84082 15.8115 8.0459C 15.8525 8.36035 15.873 8.7181 15.873 9.11914L 15.873 14L 14.3691 14L 14.3691 9.13965C 14.3691 8.68392 14.3304 8.32845 14.2529 8.07324C 14.18 7.81348 14.041 7.62435 13.8359 7.50586C 13.6309 7.38281 13.3346 7.3304 12.9473 7.34863C 12.6784 7.35775 12.3639 7.42611 12.0039 7.55371C 11.6484 7.67676 11.3249 7.84538 11.0332 8.05957L 11.0332 14L 9.5293 14L 9.5293 6.2207L 10.8691 6.2207L 10.876 7.04102C 11.2269 6.80404 11.6439 6.58984 12.127 6.39844C 12.6146 6.20703 13.0908 6.10449 13.5557 6.09082C 14.0706 6.07715 14.4876 6.14779 14.8066 6.30273C 15.1302 6.45312 15.3763 6.70605 15.5449 7.06152C 15.8913 6.80176 16.3288 6.57617 16.8574 6.38477C 17.3906 6.1888 17.9056 6.09082 18.4023 6.09082ZM 25.6621 6.09082C 26.2637 6.09082 26.765 6.15918 27.166 6.2959C 27.5671 6.43262 27.8792 6.68327 28.1025 7.04785C 28.3258 7.40788 28.4375 7.91602 28.4375 8.57227L 28.4375 14.1094L 27.8223 14.1094C 27.6172 14.1094 27.4622 14.0957 27.3574 14.0684C 27.2526 14.041 27.1706 13.9772 27.1113 13.877C 27.0521 13.7767 27.0225 13.6172 27.0225 13.3984L 27.0225 13.3438C 26.7946 13.5534 26.4801 13.7334 26.0791 13.8838C 25.6826 14.0342 25.2679 14.1094 24.835 14.1094C 24.3747 14.1094 23.9622 14.0205 23.5977 13.8428C 23.2376 13.665 22.9551 13.4121 22.75 13.084C 22.5495 12.7513 22.4492 12.3617 22.4492 11.915C 22.4492 11.4229 22.5814 10.9967 22.8457 10.6367C 23.1146 10.2767 23.4883 9.9987 23.9668 9.80273C 24.3906 9.63411 24.8691 9.50879 25.4023 9.42676C 25.9401 9.34017 26.4505 9.29688 26.9336 9.29688L 26.9336 8.51074C 26.9336 8.14616 26.8743 7.87272 26.7559 7.69043C 26.6419 7.50814 26.4688 7.38509 26.2363 7.32129C 26.0039 7.25749 25.6826 7.22559 25.2725 7.22559C 25.0537 7.22559 24.8008 7.25521 24.5137 7.31445C 24.2311 7.3737 23.9645 7.44889 23.7139 7.54004C 23.4678 7.62663 23.2855 7.71094 23.167 7.79297L 22.7979 6.80859C 22.9163 6.73568 23.1305 6.64225 23.4404 6.52832C 23.7549 6.41439 24.1104 6.31413 24.5068 6.22754C 24.9079 6.13639 25.293 6.09082 25.6621 6.09082ZM 25.2793 12.9883C 25.4935 12.9883 25.7191 12.9564 25.9561 12.8926C 26.193 12.8288 26.4004 12.7536 26.5781 12.667C 26.7604 12.5758 26.8789 12.4984 26.9336 12.4346L 26.9336 10.2539C 26.6009 10.2539 26.2249 10.2858 25.8057 10.3496C 25.391 10.4134 25.056 10.5068 24.8008 10.6299C 24.5228 10.762 24.3086 10.917 24.1582 11.0947C 24.0078 11.2725 23.9326 11.5026 23.9326 11.7852C 23.9326 12.5872 24.3815 12.9883 25.2793 12.9883ZM 32.3682 6.2207L 32.3682 14L 30.8643 14L 30.8643 6.2207L 32.3682 6.2207ZM 30.5771 3.86914C 30.5771 3.67773 30.6296 3.5 30.7344 3.33594C 30.8438 3.17188 30.985 3.04199 31.1582 2.94629C 31.3314 2.85059 31.5068 2.80273 31.6846 2.80273C 31.9945 2.80273 32.2314 2.88932 32.3955 3.0625C 32.5641 3.23568 32.6484 3.45671 32.6484 3.72559C 32.6484 3.92611 32.596 4.1084 32.4912 4.27246C 32.3864 4.43652 32.2497 4.56413 32.0811 4.65527C 31.9124 4.74642 31.7324 4.79199 31.541 4.79199C 31.3678 4.79199 31.2083 4.75553 31.0625 4.68262C 30.9167 4.60514 30.7982 4.49577 30.707 4.35449C 30.6204 4.21322 30.5771 4.05143 30.5771 3.86914ZM 36.5381 2.625L 36.5381 14L 35.0342 14L 35.0342 2.625L 36.5381 2.625Z"/>
<path id="path12_fill" d="M 0 0L 262 0L 262 50L 0 50L 0 0Z"/>
<path id="path13_fill" d="M 9.812 1.842C 10.6333 1.81267 11.2787 1.98133 11.748 2.348C 12.232 2.7 12.474 3.19133 12.474 3.822C 12.474 4.07133 12.4447 4.306 12.386 4.526C 10.45 6.75533 8.27933 8.53 5.874 9.85C 6.69533 10.642 7.62667 11.3753 8.668 12.05C 9.724 12.7247 10.736 13.2527 11.704 13.634C 11.748 13.8687 11.77 14.1033 11.77 14.338C 11.77 15.0273 11.5647 15.6213 11.154 16.12C 10.758 16.604 10.186 16.8973 9.438 17C 8.36733 16.3693 7.45067 15.6433 6.688 14.822C 5.92533 13.986 5.148 12.9447 4.356 11.698C 4.224 13.5753 4.092 14.932 3.96 15.768C 3.828 16.5893 3.61533 17 3.322 17C 2.98467 17 2.58133 16.8827 2.112 16.648C 1.65733 16.3987 1.254 16.1053 0.902 15.768C 0.564667 15.4307 0.396 15.152 0.396 14.932C 0.381333 14.6973 0.447333 14.206 0.594 13.458C 0.755333 12.6953 0.858 12.204 0.902 11.984C 0.960667 11.6907 1.07067 11.1553 1.232 10.378C 1.39333 9.586 1.52533 8.85267 1.628 8.178L 1.804 7.144C 2.08267 5.50133 2.33933 4.16667 2.574 3.14C 2.82333 2.11333 3.07267 1.6 3.322 1.6C 3.60067 1.6 3.97467 1.72467 4.444 1.974C 4.928 2.22333 5.346 2.51667 5.698 2.854C 6.06467 3.19133 6.248 3.48467 6.248 3.734C 6.248 3.89533 6.116 4.40133 5.852 5.252C 5.588 6.10267 5.33867 6.836 5.104 7.452C 5.984 6.704 6.76133 5.90467 7.436 5.054C 8.12533 4.20333 8.91733 3.13267 9.812 1.842ZM 17.8893 4.57C 18.9306 4.68733 19.8766 5.00267 20.7273 5.516C 21.5926 6.01467 22.2673 6.616 22.7513 7.32C 23.2353 8.024 23.4773 8.728 23.4773 9.432C 23.4773 10.488 23.2059 11.61 22.6633 12.798C 22.1206 13.986 21.3653 14.9833 20.3973 15.79C 19.4293 16.5967 18.3513 17 17.1633 17C 16.5766 17 15.9533 16.7873 15.2933 16.362C 14.6333 15.922 14.0759 15.394 13.6213 14.778C 13.1813 14.1473 12.9613 13.59 12.9613 13.106C 12.9613 12.2113 13.0713 11.2947 13.2913 10.356C 13.5113 9.40267 13.8486 8.47867 14.3033 7.584C 14.7286 7.34933 15.1539 7.232 15.5793 7.232C 15.7699 7.232 15.9459 7.254 16.1073 7.298C 16.0486 7.122 16.0193 6.91667 16.0193 6.682C 16.0193 6.21267 16.1806 5.78733 16.5033 5.406C 16.8406 5.02467 17.3026 4.746 17.8893 4.57ZM 16.3713 14.492C 17.5886 14.0813 18.5346 13.3773 19.2093 12.38C 19.8839 11.3827 20.3313 10.1947 20.5513 8.816C 19.8913 8.34667 18.9966 8.112 17.8673 8.112C 17.5886 8.112 17.3759 8.11933 17.2293 8.134C 17.3906 8.42733 17.4713 8.75733 17.4713 9.124C 17.0899 9.72533 16.7966 10.3927 16.5913 11.126C 16.3859 11.8447 16.2833 12.5707 16.2833 13.304C 16.2833 13.744 16.3126 14.14 16.3713 14.492ZM 37.0379 12.358C 37.6832 12.578 38.1599 12.886 38.4679 13.282C 38.7905 13.6633 38.9519 14.1033 38.9519 14.602C 38.9519 14.954 38.7025 15.3207 38.2039 15.702C 37.7052 16.0687 37.1112 16.3767 36.4219 16.626C 35.7325 16.8753 35.1459 17 34.6619 17C 34.3245 17 33.9359 16.8753 33.4959 16.626C 33.0705 16.3767 32.6965 16.0833 32.3739 15.746C 32.0659 15.4087 31.9119 15.1447 31.9119 14.954C 31.9119 14.8073 31.9705 14.6093 32.0879 14.36C 32.2199 14.1107 32.3592 13.854 32.5059 13.59C 32.6525 13.326 32.7479 13.15 32.7919 13.062L 32.2419 12.754C 31.4645 14.0153 30.7239 15.042 30.0199 15.834C 29.3305 16.6113 28.6705 17 28.0399 17C 27.5705 17 27.0645 16.7947 26.5219 16.384C 25.9792 15.9587 25.5172 15.46 25.1359 14.888C 24.7545 14.3013 24.5639 13.7807 24.5639 13.326C 24.5639 11.962 24.8499 10.6053 25.4219 9.256C 25.9939 7.892 26.7492 6.77733 27.6879 5.912C 28.6412 5.032 29.6459 4.592 30.7019 4.592C 31.1272 4.592 31.5599 4.702 31.9999 4.922C 32.4545 5.142 32.8799 5.44267 33.2759 5.824C 33.4079 4.40133 33.4739 2.81 33.4739 1.05C 33.4739 0.742 33.5692 0.485333 33.7599 0.28C 33.9652 0.0600004 34.2072 -0.0499995 34.4859 -0.0499995C 34.8965 -0.0499995 35.3512 0.0966671 35.8499 0.39C 36.3632 0.683333 36.7959 1.03533 37.1479 1.446C 37.4999 1.842 37.6759 2.16467 37.6759 2.414C 37.6759 2.75133 37.6025 3.184 37.4559 3.712C 37.3092 4.22533 37.0452 5.06133 36.6639 6.22C 36.1359 7.78933 35.8059 8.86733 35.6739 9.454C 35.2779 11.0527 34.9772 12.49 34.7719 13.766C 35.6665 13.326 36.4219 12.8567 37.0379 12.358ZM 28.0179 13.942C 29.0152 13.194 29.9245 12.3947 30.7459 11.544C 31.5672 10.6787 32.2565 9.68133 32.8139 8.552L 33.0119 7.694C 32.5572 7.48867 32.1539 7.386 31.8019 7.386C 31.1125 7.386 30.4965 7.694 29.9539 8.31C 29.4112 8.926 28.9785 9.73267 28.6559 10.73C 28.3332 11.7273 28.1205 12.798 28.0179 13.942ZM 44.5222 3.954C 44.2435 3.954 43.9062 3.844 43.5102 3.624C 43.1288 3.38933 42.7988 3.118 42.5202 2.81C 42.2415 2.48733 42.1022 2.20133 42.1022 1.952C 42.1022 1.556 42.2048 1.16 42.4102 0.764001C 42.6155 0.368 42.8722 0.0820001 43.1802 -0.0940002C 43.3268 -0.167333 43.5615 -0.204 43.8842 -0.204C 44.4122 -0.204 44.9402 -0.0866661 45.4682 0.148001C 46.0108 0.382667 46.3408 0.676 46.4582 1.028C 46.4875 1.10133 46.5022 1.21133 46.5022 1.358C 46.5022 1.69533 46.3995 2.06933 46.1942 2.48C 45.9888 2.89067 45.7322 3.24267 45.4242 3.536C 45.1162 3.81467 44.8155 3.954 44.5222 3.954ZM 43.0262 17C 42.6448 17 42.2122 16.8753 41.7282 16.626C 41.2588 16.362 40.8482 16.0613 40.4962 15.724C 40.1588 15.372 39.9902 15.0787 39.9902 14.844C 39.9902 14.58 40.0855 14.1913 40.2762 13.678C 40.4668 13.1647 40.7528 12.4607 41.1342 11.566C 41.4275 10.8767 41.6475 10.3413 41.7942 9.96C 41.9408 9.564 42.0142 9.28533 42.0142 9.124C 42.0142 9.00667 41.9408 8.882 41.7942 8.75C 41.6622 8.60333 41.4568 8.42733 41.1782 8.222C 40.8555 7.97267 40.6135 7.77467 40.4522 7.628C 40.3055 7.48133 40.2322 7.32733 40.2322 7.166C 40.2322 6.858 40.3715 6.49867 40.6502 6.088C 40.9435 5.67733 41.2808 5.32533 41.6622 5.032C 42.0582 4.73867 42.3955 4.592 42.6742 4.592C 43.0115 4.592 43.3782 4.73867 43.7742 5.032C 44.1848 5.32533 44.5295 5.67733 44.8082 6.088C 45.1015 6.484 45.2482 6.80667 45.2482 7.056C 45.2482 7.70133 45.0795 8.62533 44.7422 9.828C 44.4195 11.016 44.0015 12.2993 43.4882 13.678C 43.8402 13.5167 44.1482 13.348 44.4122 13.172C 44.6762 12.996 45.0428 12.7247 45.5122 12.358C 46.1722 12.578 46.6562 12.8933 46.9642 13.304C 47.2722 13.7 47.4262 14.1327 47.4262 14.602C 47.4262 14.9833 47.1768 15.3573 46.6782 15.724C 46.1942 16.0907 45.6002 16.3987 44.8962 16.648C 44.1922 16.8827 43.5688 17 43.0262 17ZM 60.027 12.358C 60.6723 12.578 61.149 12.886 61.457 13.282C 61.7797 13.6633 61.941 14.1033 61.941 14.602C 61.941 14.954 61.6917 15.3207 61.193 15.702C 60.6943 16.0687 60.1003 16.3767 59.411 16.626C 58.7217 16.8753 58.135 17 57.651 17C 57.3137 17 56.925 16.868 56.485 16.604C 56.045 16.34 55.6637 16.0393 55.341 15.702C 55.033 15.35 54.879 15.0787 54.879 14.888C 54.879 14.7413 55.0403 14.1693 55.363 13.172C 55.935 11.4267 56.221 10.3267 56.221 9.872C 56.221 9.696 56.177 9.608 56.089 9.608C 55.5023 9.608 54.4097 10.6347 52.811 12.688C 52.7523 12.9227 52.6863 13.216 52.613 13.568C 52.5543 13.92 52.5103 14.1693 52.481 14.316C 52.3197 15.1813 52.1657 15.8487 52.019 16.318C 51.887 16.7727 51.711 17 51.491 17C 51.1097 17 50.677 16.8753 50.193 16.626C 49.7237 16.362 49.313 16.0613 48.961 15.724C 48.6237 15.372 48.455 15.0787 48.455 14.844C 48.455 14.58 48.5503 14.1913 48.741 13.678C 48.9317 13.1647 49.2177 12.4607 49.599 11.566C 49.8923 10.8767 50.1123 10.3413 50.259 9.96C 50.4057 9.564 50.479 9.28533 50.479 9.124C 50.479 9.00667 50.4057 8.882 50.259 8.75C 50.127 8.60333 49.9217 8.42733 49.643 8.222C 49.3203 7.97267 49.0783 7.77467 48.917 7.628C 48.7703 7.48133 48.697 7.32733 48.697 7.166C 48.697 6.858 48.8363 6.49867 49.115 6.088C 49.4083 5.67733 49.7457 5.32533 50.127 5.032C 50.523 4.73867 50.8603 4.592 51.139 4.592C 51.447 4.592 51.799 4.73133 52.195 5.01C 52.6057 5.28867 52.9577 5.61133 53.251 5.978C 53.559 6.33 53.713 6.60133 53.713 6.792C 53.713 7.144 53.669 7.57667 53.581 8.09C 53.5077 8.60333 53.405 9.10933 53.273 9.608C 54.3437 8.2 55.231 7.11467 55.935 6.352C 56.639 5.57467 57.189 5.186 57.585 5.186C 57.8637 5.186 58.201 5.32533 58.597 5.604C 58.993 5.88267 59.3303 6.20533 59.609 6.572C 59.9023 6.924 60.049 7.19533 60.049 7.386C 60.0343 7.63533 59.9317 8.06067 59.741 8.662C 59.5503 9.26333 59.279 10.0627 58.927 11.06C 58.4577 12.3507 58.157 13.2233 58.025 13.678C 58.4797 13.4433 58.8317 13.2453 59.081 13.084C 59.345 12.908 59.6603 12.666 60.027 12.358ZM 70.3704 13.524C 69.4758 14.228 68.5738 14.8367 67.6644 15.35C 66.7698 15.8633 66.0291 16.12 65.4424 16.12C 65.1051 16.12 64.7311 15.9953 64.3204 15.746C 63.9244 15.482 63.5871 15.1667 63.3084 14.8C 63.0298 14.4187 62.8904 14.0667 62.8904 13.744C 62.8904 12.5267 63.1324 11.1993 63.6164 9.762C 64.1151 8.31 64.7824 7.08533 65.6184 6.088C 66.4691 5.09067 67.4004 4.592 68.4124 4.592C 68.8084 4.592 69.1971 4.77533 69.5784 5.142C 69.9598 5.494 70.2604 5.89 70.4804 6.33C 70.5391 5.978 70.6344 5.69933 70.7664 5.494C 70.9131 5.28867 71.0598 5.186 71.2064 5.186C 71.4264 5.186 71.7638 5.33267 72.2184 5.626C 72.6731 5.90467 73.0838 6.22 73.4504 6.572C 73.8171 6.924 74.0004 7.188 74.0004 7.364C 74.0004 7.92133 73.7804 9.41 73.3404 11.83C 72.9151 14.25 72.4458 16.604 71.9324 18.892C 71.4338 21.18 71.0744 22.5073 70.8544 22.874C 70.5171 23.402 69.9891 23.864 69.2704 24.26C 68.5664 24.656 67.8771 24.854 67.2024 24.854C 66.5718 24.854 65.9338 24.6633 65.2884 24.282C 64.6431 23.9007 64.1151 23.4313 63.7044 22.874C 63.2938 22.3167 63.0884 21.8107 63.0884 21.356C 63.0884 20.828 63.3964 20.212 64.0124 19.508C 64.6431 18.804 65.4058 18.1 66.3004 17.396C 67.1951 16.7067 68.3391 15.8707 69.7324 14.888C 69.9818 14.6973 70.3558 14.426 70.8544 14.074L 70.3704 13.524ZM 69.1824 7.386C 68.6691 7.386 68.1851 7.716 67.7304 8.376C 67.2904 9.02133 66.9164 9.83533 66.6084 10.818C 66.3004 11.786 66.0951 12.7393 65.9924 13.678C 67.3711 13.106 68.4711 12.3067 69.2924 11.28C 70.1138 10.2533 70.5611 9.19733 70.6344 8.112C 70.4584 7.92133 70.2311 7.75267 69.9524 7.606C 69.6884 7.45933 69.4318 7.386 69.1824 7.386ZM 70.1064 17.066C 67.6131 19.0167 66.3664 20.41 66.3664 21.246C 66.3664 21.5393 66.4911 21.7887 66.7404 21.994C 67.0044 22.214 67.3344 22.39 67.7304 22.522C 68.1704 22.0087 68.5738 21.312 68.9404 20.432C 69.3071 19.552 69.6958 18.43 70.1064 17.066ZM 90.4858 1.842C 91.3072 1.81267 91.9525 1.98133 92.4218 2.348C 92.9058 2.7 93.1478 3.19133 93.1478 3.822C 93.1478 4.07133 93.1185 4.306 93.0598 4.526C 91.1238 6.75533 88.9532 8.53 86.5478 9.85C 87.3692 10.642 88.3005 11.3753 89.3418 12.05C 90.3978 12.7247 91.4098 13.2527 92.3778 13.634C 92.4218 13.8687 92.4438 14.1033 92.4438 14.338C 92.4438 15.0273 92.2385 15.6213 91.8278 16.12C 91.4318 16.604 90.8598 16.8973 90.1118 17C 89.0412 16.3693 88.1245 15.6433 87.3618 14.822C 86.5992 13.986 85.8218 12.9447 85.0298 11.698C 84.8978 13.5753 84.7658 14.932 84.6338 15.768C 84.5018 16.5893 84.2892 17 83.9958 17C 83.6585 17 83.2552 16.8827 82.7858 16.648C 82.3312 16.3987 81.9278 16.1053 81.5758 15.768C 81.2385 15.4307 81.0698 15.152 81.0698 14.932C 81.0552 14.6973 81.1212 14.206 81.2678 13.458C 81.4292 12.6953 81.5318 12.204 81.5758 11.984C 81.6345 11.6907 81.7445 11.1553 81.9058 10.378C 82.0672 9.586 82.1992 8.85267 82.3018 8.178L 82.4778 7.144C 82.7565 5.50133 83.0132 4.16667 83.2478 3.14C 83.4972 2.11333 83.7465 1.6 83.9958 1.6C 84.2745 1.6 84.6485 1.72467 85.1178 1.974C 85.6018 2.22333 86.0198 2.51667 86.3718 2.854C 86.7385 3.19133 86.9218 3.48467 86.9218 3.734C 86.9218 3.89533 86.7898 4.40133 86.5258 5.252C 86.2618 6.10267 86.0125 6.836 85.7778 7.452C 86.6578 6.704 87.4352 5.90467 88.1098 5.054C 88.7992 4.20333 89.5912 3.13267 90.4858 1.842ZM 98.2331 3.954C 97.9544 3.954 97.6171 3.844 97.2211 3.624C 96.8398 3.38933 96.5098 3.118 96.2311 2.81C 95.9524 2.48733 95.8131 2.20133 95.8131 1.952C 95.8131 1.556 95.9158 1.16 96.1211 0.764001C 96.3264 0.368 96.5831 0.0820001 96.8911 -0.0940002C 97.0378 -0.167333 97.2724 -0.204 97.5951 -0.204C 98.1231 -0.204 98.6511 -0.0866661 99.1791 0.148001C 99.7218 0.382667 100.052 0.676 100.169 1.028C 100.198 1.10133 100.213 1.21133 100.213 1.358C 100.213 1.69533 100.11 2.06933 99.9051 2.48C 99.6998 2.89067 99.4431 3.24267 99.1351 3.536C 98.8271 3.81467 98.5264 3.954 98.2331 3.954ZM 96.7371 17C 96.3558 17 95.9231 16.8753 95.4391 16.626C 94.9698 16.362 94.5591 16.0613 94.2071 15.724C 93.8698 15.372 93.7011 15.0787 93.7011 14.844C 93.7011 14.58 93.7964 14.1913 93.9871 13.678C 94.1778 13.1647 94.4638 12.4607 94.8451 11.566C 95.1384 10.8767 95.3584 10.3413 95.5051 9.96C 95.6518 9.564 95.7251 9.28533 95.7251 9.124C 95.7251 9.00667 95.6518 8.882 95.5051 8.75C 95.3731 8.60333 95.1678 8.42733 94.8891 8.222C 94.5664 7.97267 94.3244 7.77467 94.1631 7.628C 94.0164 7.48133 93.9431 7.32733 93.9431 7.166C 93.9431 6.858 94.0824 6.49867 94.3611 6.088C 94.6544 5.67733 94.9918 5.32533 95.3731 5.032C 95.7691 4.73867 96.1064 4.592 96.3851 4.592C 96.7224 4.592 97.0891 4.73867 97.4851 5.032C 97.8958 5.32533 98.2404 5.67733 98.5191 6.088C 98.8124 6.484 98.9591 6.80667 98.9591 7.056C 98.9591 7.70133 98.7904 8.62533 98.4531 9.828C 98.1304 11.016 97.7124 12.2993 97.1991 13.678C 97.5511 13.5167 97.8591 13.348 98.1231 13.172C 98.3871 12.996 98.7538 12.7247 99.2231 12.358C 99.8831 12.578 100.367 12.8933 100.675 13.304C 100.983 13.7 101.137 14.1327 101.137 14.602C 101.137 14.9833 100.888 15.3573 100.389 15.724C 99.9051 16.0907 99.3111 16.3987 98.6071 16.648C 97.9031 16.8827 97.2798 17 96.7371 17ZM 113.738 12.358C 114.383 12.578 114.86 12.886 115.168 13.282C 115.491 13.6633 115.652 14.1033 115.652 14.602C 115.652 14.954 115.403 15.3207 114.904 15.702C 114.405 16.0687 113.811 16.3767 113.122 16.626C 112.433 16.8753 111.846 17 111.362 17C 111.025 17 110.636 16.868 110.196 16.604C 109.756 16.34 109.375 16.0393 109.052 15.702C 108.744 15.35 108.59 15.0787 108.59 14.888C 108.59 14.7413 108.751 14.1693 109.074 13.172C 109.646 11.4267 109.932 10.3267 109.932 9.872C 109.932 9.696 109.888 9.608 109.8 9.608C 109.213 9.608 108.121 10.6347 106.522 12.688C 106.463 12.9227 106.397 13.216 106.324 13.568C 106.265 13.92 106.221 14.1693 106.192 14.316C 106.031 15.1813 105.877 15.8487 105.73 16.318C 105.598 16.7727 105.422 17 105.202 17C 104.821 17 104.388 16.8753 103.904 16.626C 103.435 16.362 103.024 16.0613 102.672 15.724C 102.335 15.372 102.166 15.0787 102.166 14.844C 102.166 14.58 102.261 14.1913 102.452 13.678C 102.643 13.1647 102.929 12.4607 103.31 11.566C 103.603 10.8767 103.823 10.3413 103.97 9.96C 104.117 9.564 104.19 9.28533 104.19 9.124C 104.19 9.00667 104.117 8.882 103.97 8.75C 103.838 8.60333 103.633 8.42733 103.354 8.222C 103.031 7.97267 102.789 7.77467 102.628 7.628C 102.481 7.48133 102.408 7.32733 102.408 7.166C 102.408 6.858 102.547 6.49867 102.826 6.088C 103.119 5.67733 103.457 5.32533 103.838 5.032C 104.234 4.73867 104.571 4.592 104.85 4.592C 105.158 4.592 105.51 4.73133 105.906 5.01C 106.317 5.28867 106.669 5.61133 106.962 5.978C 107.27 6.33 107.424 6.60133 107.424 6.792C 107.424 7.144 107.38 7.57667 107.292 8.09C 107.219 8.60333 107.116 9.10933 106.984 9.608C 108.055 8.2 108.942 7.11467 109.646 6.352C 110.35 5.57467 110.9 5.186 111.296 5.186C 111.575 5.186 111.912 5.32533 112.308 5.604C 112.704 5.88267 113.041 6.20533 113.32 6.572C 113.613 6.924 113.76 7.19533 113.76 7.386C 113.745 7.63533 113.643 8.06067 113.452 8.662C 113.261 9.26333 112.99 10.0627 112.638 11.06C 112.169 12.3507 111.868 13.2233 111.736 13.678C 112.191 13.4433 112.543 13.2453 112.792 13.084C 113.056 12.908 113.371 12.666 113.738 12.358ZM 124.081 13.524C 123.187 14.228 122.285 14.8367 121.375 15.35C 120.481 15.8633 119.74 16.12 119.153 16.12C 118.816 16.12 118.442 15.9953 118.031 15.746C 117.635 15.482 117.298 15.1667 117.019 14.8C 116.741 14.4187 116.601 14.0667 116.601 13.744C 116.601 12.5267 116.843 11.1993 117.327 9.762C 117.826 8.31 118.493 7.08533 119.329 6.088C 120.18 5.09067 121.111 4.592 122.123 4.592C 122.519 4.592 122.908 4.77533 123.289 5.142C 123.671 5.494 123.971 5.89 124.191 6.33C 124.25 5.978 124.345 5.69933 124.477 5.494C 124.624 5.28867 124.771 5.186 124.917 5.186C 125.137 5.186 125.475 5.33267 125.929 5.626C 126.384 5.90467 126.795 6.22 127.161 6.572C 127.528 6.924 127.711 7.188 127.711 7.364C 127.711 7.92133 127.491 9.41 127.051 11.83C 126.626 14.25 126.157 16.604 125.643 18.892C 125.145 21.18 124.785 22.5073 124.565 22.874C 124.228 23.402 123.7 23.864 122.981 24.26C 122.277 24.656 121.588 24.854 120.913 24.854C 120.283 24.854 119.645 24.6633 118.999 24.282C 118.354 23.9007 117.826 23.4313 117.415 22.874C 117.005 22.3167 116.799 21.8107 116.799 21.356C 116.799 20.828 117.107 20.212 117.723 19.508C 118.354 18.804 119.117 18.1 120.011 17.396C 120.906 16.7067 122.05 15.8707 123.443 14.888C 123.693 14.6973 124.067 14.426 124.565 14.074L 124.081 13.524ZM 122.893 7.386C 122.38 7.386 121.896 7.716 121.441 8.376C 121.001 9.02133 120.627 9.83533 120.319 10.818C 120.011 11.786 119.806 12.7393 119.703 13.678C 121.082 13.106 122.182 12.3067 123.003 11.28C 123.825 10.2533 124.272 9.19733 124.345 8.112C 124.169 7.92133 123.942 7.75267 123.663 7.606C 123.399 7.45933 123.143 7.386 122.893 7.386ZM 123.817 17.066C 121.324 19.0167 120.077 20.41 120.077 21.246C 120.077 21.5393 120.202 21.7887 120.451 21.994C 120.715 22.214 121.045 22.39 121.441 22.522C 121.881 22.0087 122.285 21.312 122.651 20.432C 123.018 19.552 123.407 18.43 123.817 17.066ZM 141.173 12.358C 141.818 12.578 142.295 12.886 142.603 13.282C 142.925 13.6633 143.087 14.1033 143.087 14.602C 143.087 14.954 142.837 15.3207 142.339 15.702C 141.84 16.0687 141.246 16.3767 140.557 16.626C 139.867 16.8753 139.281 17 138.797 17C 138.459 17 138.071 16.8753 137.631 16.626C 137.205 16.3767 136.831 16.0833 136.509 15.746C 136.201 15.4087 136.047 15.1447 136.047 14.954C 136.047 14.8073 136.105 14.6093 136.223 14.36C 136.355 14.1107 136.494 13.854 136.641 13.59C 136.787 13.326 136.883 13.15 136.927 13.062L 136.377 12.754C 135.599 14.0153 134.859 15.042 134.155 15.834C 133.465 16.6113 132.805 17 132.175 17C 131.705 17 131.199 16.7947 130.657 16.384C 130.114 15.9587 129.652 15.46 129.271 14.888C 128.889 14.3013 128.699 13.7807 128.699 13.326C 128.699 11.962 128.985 10.6053 129.557 9.256C 130.129 7.892 130.884 6.77733 131.823 5.912C 132.776 5.032 133.781 4.592 134.837 4.592C 135.262 4.592 135.695 4.702 136.135 4.922C 136.589 5.142 137.015 5.44267 137.411 5.824C 137.543 4.40133 137.609 2.81 137.609 1.05C 137.609 0.742 137.704 0.485333 137.895 0.28C 138.1 0.0600004 138.342 -0.0499995 138.621 -0.0499995C 139.031 -0.0499995 139.486 0.0966671 139.985 0.39C 140.498 0.683333 140.931 1.03533 141.283 1.446C 141.635 1.842 141.811 2.16467 141.811 2.414C 141.811 2.75133 141.737 3.184 141.591 3.712C 141.444 4.22533 141.18 5.06133 140.799 6.22C 140.271 7.78933 139.941 8.86733 139.809 9.454C 139.413 11.0527 139.112 12.49 138.907 13.766C 139.801 13.326 140.557 12.8567 141.173 12.358ZM 132.153 13.942C 133.15 13.194 134.059 12.3947 134.881 11.544C 135.702 10.6787 136.391 9.68133 136.949 8.552L 137.147 7.694C 136.692 7.48867 136.289 7.386 135.937 7.386C 135.247 7.386 134.631 7.694 134.089 8.31C 133.546 8.926 133.113 9.73267 132.791 10.73C 132.468 11.7273 132.255 12.798 132.153 13.942ZM 148.987 4.57C 150.028 4.68733 150.974 5.00267 151.825 5.516C 152.69 6.01467 153.365 6.616 153.849 7.32C 154.333 8.024 154.575 8.728 154.575 9.432C 154.575 10.488 154.304 11.61 153.761 12.798C 153.218 13.986 152.463 14.9833 151.495 15.79C 150.527 16.5967 149.449 17 148.261 17C 147.674 17 147.051 16.7873 146.391 16.362C 145.731 15.922 145.174 15.394 144.719 14.778C 144.279 14.1473 144.059 13.59 144.059 13.106C 144.059 12.2113 144.169 11.2947 144.389 10.356C 144.609 9.40267 144.946 8.47867 145.401 7.584C 145.826 7.34933 146.252 7.232 146.677 7.232C 146.868 7.232 147.044 7.254 147.205 7.298C 147.146 7.122 147.117 6.91667 147.117 6.682C 147.117 6.21267 147.278 5.78733 147.601 5.406C 147.938 5.02467 148.4 4.746 148.987 4.57ZM 147.469 14.492C 148.686 14.0813 149.632 13.3773 150.307 12.38C 150.982 11.3827 151.429 10.1947 151.649 8.816C 150.989 8.34667 150.094 8.112 148.965 8.112C 148.686 8.112 148.474 8.11933 148.327 8.134C 148.488 8.42733 148.569 8.75733 148.569 9.124C 148.188 9.72533 147.894 10.3927 147.689 11.126C 147.484 11.8447 147.381 12.5707 147.381 13.304C 147.381 13.744 147.41 14.14 147.469 14.492ZM 160.179 9.608C 161.338 8.08267 162.233 6.968 162.863 6.264C 163.494 5.54533 164.007 5.186 164.403 5.186C 164.682 5.186 165.005 5.30333 165.371 5.538C 165.753 5.77267 166.075 6.044 166.339 6.352C 166.618 6.64533 166.75 6.88 166.735 7.056C 166.721 7.42267 166.669 7.81867 166.581 8.244C 166.493 8.66933 166.369 9.19 166.207 9.806C 167.425 8.25133 168.378 7.09267 169.067 6.33C 169.771 5.56733 170.321 5.186 170.717 5.186C 170.996 5.186 171.333 5.32533 171.729 5.604C 172.125 5.88267 172.463 6.20533 172.741 6.572C 173.035 6.924 173.181 7.19533 173.181 7.386C 173.167 7.63533 173.064 8.06067 172.873 8.662C 172.683 9.26333 172.411 10.0627 172.059 11.06C 171.59 12.3507 171.289 13.2233 171.157 13.678C 171.627 13.4287 171.986 13.2233 172.235 13.062C 172.499 12.886 172.807 12.6513 173.159 12.358C 173.805 12.578 174.289 12.886 174.611 13.282C 174.934 13.6633 175.095 14.1033 175.095 14.602C 175.095 14.954 174.839 15.3207 174.325 15.702C 173.827 16.0687 173.233 16.3767 172.543 16.626C 171.854 16.8753 171.267 17 170.783 17C 170.461 17 170.079 16.868 169.639 16.604C 169.199 16.34 168.818 16.0393 168.495 15.702C 168.173 15.35 168.011 15.0787 168.011 14.888C 168.011 14.7707 168.085 14.492 168.231 14.052C 168.378 13.5973 168.473 13.2893 168.517 13.128C 168.796 12.248 169.001 11.5513 169.133 11.038C 169.28 10.51 169.353 10.1213 169.353 9.872C 169.353 9.696 169.317 9.608 169.243 9.608C 168.627 9.608 167.535 10.6347 165.965 12.688C 165.848 13.1133 165.738 13.6487 165.635 14.294C 165.459 15.2327 165.305 15.922 165.173 16.362C 165.041 16.7873 164.865 17 164.645 17C 164.337 17 163.956 16.868 163.501 16.604C 163.047 16.34 162.651 16.0393 162.313 15.702C 161.976 15.35 161.807 15.064 161.807 14.844C 161.807 14.6973 161.969 14.1253 162.291 13.128C 162.555 12.292 162.761 11.61 162.907 11.082C 163.054 10.5393 163.127 10.136 163.127 9.872C 163.127 9.696 163.083 9.608 162.995 9.608C 162.409 9.608 161.316 10.6347 159.717 12.688C 159.659 12.9227 159.593 13.216 159.519 13.568C 159.461 13.92 159.417 14.1693 159.387 14.316C 159.226 15.1813 159.072 15.8487 158.925 16.318C 158.793 16.7727 158.617 17 158.397 17C 158.016 17 157.583 16.8753 157.099 16.626C 156.63 16.362 156.219 16.0613 155.867 15.724C 155.53 15.372 155.361 15.0787 155.361 14.844C 155.361 14.58 155.457 14.1913 155.647 13.678C 155.838 13.1647 156.124 12.4607 156.505 11.566C 156.799 10.8767 157.019 10.3413 157.165 9.96C 157.312 9.564 157.385 9.28533 157.385 9.124C 157.385 9.00667 157.312 8.882 157.165 8.75C 157.033 8.60333 156.828 8.42733 156.549 8.222C 156.227 7.97267 155.985 7.77467 155.823 7.628C 155.677 7.48133 155.603 7.32733 155.603 7.166C 155.603 6.858 155.743 6.49867 156.021 6.088C 156.315 5.67733 156.652 5.32533 157.033 5.032C 157.429 4.73867 157.767 4.592 158.045 4.592C 158.353 4.592 158.705 4.73133 159.101 5.01C 159.512 5.28867 159.864 5.61133 160.157 5.978C 160.465 6.33 160.619 6.60133 160.619 6.792C 160.619 7.144 160.575 7.57667 160.487 8.09C 160.414 8.60333 160.311 9.10933 160.179 9.608Z"/>
</defs>
</svg>
