<svg width="320" height="568" viewBox="0 0 320 568" version="1.1" xmlns="http://www.w3.org/2000/svg" xmlns:xlink="http://www.w3.org/1999/xlink">
<title>make-account</title>
<desc>Created using Figma</desc>
<g id="Canvas" transform="translate(-496 244)">
<clipPath id="clip-0" clip-rule="evenodd">
<path d="M 496 -244L 816 -244L 816 324L 496 324L 496 -244Z" fill="#FFFFFF"/>
</clipPath>
<g id="make-account" clip-path="url(#clip-0)">
<path d="M 496 -244L 816 -244L 816 324L 496 324L 496 -244Z" fill="#FFFFFF"/>
<g id="background">
<g id="frost">
<use xlink:href="#path0_fill" transform="translate(496 -244)" fill="#E5E5E5"/>
</g>
<g id="sky" filter="url(#filter0_f)">
<g id="sky">
<use xlink:href="#path0_fill" transform="translate(496 -244)" fill="url(#paint1_linear)"/>
</g>
<g id="clouds">
<use xlink:href="#path1_fill" transform="translate(265 -241.283)" fill="#FFFFFF"/>
</g>
</g>
</g>
<g id="dialog" filter="url(#filter1_d)">
<g id="background">
<use xlink:href="#path2_fill" transform="translate(525 -134)" fill="#FFFFFF"/>
</g>
<g id="make-account /action=focus">
<g id="Rectangle 6">
<use xlink:href="#path3_fill" transform="translate(541 82)" fill="#4D9DE7"/>
</g>
<g id="Make Account">
<use xlink:href="#path4_fill" transform="translate(582 94)" fill="#FFFFFF"/>
</g>
</g>
<g id="retype-password /input">
<g id="Line">
<use xlink:href="#path5_stroke" transform="translate(540 25)" fill="#000000" fill-opacity="0.5"/>
</g>
<g id="placeholder">
<use xlink:href="#path6_fill" transform="translate(540 2)" fill="#000000" fill-opacity="0.298"/>
</g>
<g id="hint /for=input /type=password /style=&#34;font-size: 14px;&#34;">
<mask id="mask0_outline_ins">
<use xlink:href="#path7_fill" fill="white" transform="translate(541 2)"/>
</mask>
<g mask="url(#mask0_outline_ins)">
<use xlink:href="#path8_stroke_2x" transform="translate(541 2)" fill="url(#paint8_linear)"/>
</g>
</g>
</g>
<g id="password /input">
<g id="Line">
<use xlink:href="#path5_stroke" transform="translate(540 -10)" fill="#000000" fill-opacity="0.5"/>
</g>
<g id="placeholder">
<use xlink:href="#path9_fill" transform="translate(540 -33)" fill="#000000" fill-opacity="0.298"/>
</g>
<g id="hint /for=input /type=password /style=&#34;font-size: 14px;&#34;">
<mask id="mask1_outline_ins">
<use xlink:href="#path7_fill" fill="white" transform="translate(541 -33)"/>
</mask>
<g mask="url(#mask1_outline_ins)">
<use xlink:href="#path8_stroke_2x" transform="translate(541 -33)" fill="url(#paint11_linear)"/>
</g>
</g>
</g>
<g id="email /input">
<g id="Line">
<use xlink:href="#path5_stroke" transform="translate(540 -45)" fill="#000000" fill-opacity="0.5"/>
</g>
<g id="placeholder">
<use xlink:href="#path10_fill" transform="translate(540 -68)" fill="#000000" fill-opacity="0.298"/>
</g>
<g id="hint /for=input /type=email /style=&#34;font-size: 14px;&#34;">
<mask id="mask2_outline_ins">
<use xlink:href="#path7_fill" fill="white" transform="translate(541 -68)"/>
</mask>
<g mask="url(#mask2_outline_ins)">
<use xlink:href="#path8_stroke_2x" transform="translate(541 -68)" fill="url(#paint14_linear)"/>
</g>
</g>
</g>
<g id="header">
<g id="Rectangle 7">
<use xlink:href="#path11_fill" transform="translate(525 -134)" fill="#4D9DE7"/>
</g>
<g id="Koding Kingdom">
<use xlink:href="#path12_fill" transform="translate(579 -117)" fill="#FFFFFF"/>
</g>
<g id="back /action=nav">
<g id="Vector">
<use xlink:href="#path13_fill" transform="translate(536.667 -118.75)" fill="#FFFFFF"/>
</g>
<g id="hint /for=click">
<use xlink:href="#path14_fill" transform="translate(528 -129)" fill="url(#paint18_linear)"/>
</g>
</g>
</g>
</g>
</g>
</g>
<defs>
<filter id="filter0_f" filterUnits="userSpaceOnUse" x="245" y="-264" width="700" height="608" color-interpolation-filters="sRGB">
<feFlood flood-opacity="0" result="BackgroundImageFix"/>
<feBlend mode="normal" in="SourceGraphic" in2="BackgroundImageFix" result="shape"/>
<feGaussianBlur stdDeviation="10" result="effect1_foregroundBlur"/>
</filter>
<filter id="filter1_d" filterUnits="userSpaceOnUse" x="521" y="-134" width="270" height="284" color-interpolation-filters="sRGB">
<feFlood flood-opacity="0" result="BackgroundImageFix"/>
<feColorMatrix in="SourceAlpha" type="matrix" values="0 0 0 0 0 0 0 0 0 0 0 0 0 0 0 0 0 0 255 0"/>
<feOffset dx="0" dy="4"/>
<feGaussianBlur stdDeviation="2"/>
<feColorMatrix type="matrix" values="0 0 0 0 0 0 0 0 0 0 0 0 0 0 0 0 0 0 0.25 0"/>
<feBlend mode="normal" in2="BackgroundImageFix" result="effect1_dropShadow"/>
<feBlend mode="normal" in="SourceGraphic" in2="effect1_dropShadow" result="shape"/>
</filter>
<linearGradient id="paint1_linear" x1="0" y1="0" x2="1" y2="0" gradientUnits="userSpaceOnUse" gradientTransform="matrix(1.95943e-14 568 -320 3.478e-14 320 -3.478e-14)">
<stop offset="0" stop-color="#BADFEF"/>
<stop offset="0.977901" stop-color="#EDF8FC"/>
</linearGradient>
<linearGradient id="paint8_linear" x1="0" y1="0" x2="1" y2="0" gradientUnits="userSpaceOnUse" gradientTransform="matrix(1.40834e-14 18 -230 1.10218e-15 230 -1.10218e-15)">
<stop offset="0" stop-color="#000000" stop-opacity="0"/>
<stop offset="0.98895" stop-color="#000000" stop-opacity="0.01"/>
</linearGradient>
<linearGradient id="paint11_linear" x1="0" y1="0" x2="1" y2="0" gradientUnits="userSpaceOnUse" gradientTransform="matrix(1.40834e-14 18 -230 1.10218e-15 230 -1.10218e-15)">
<stop offset="0" stop-color="#000000" stop-opacity="0"/>
<stop offset="0.98895" stop-color="#000000" stop-opacity="0.01"/>
</linearGradient>
<linearGradient id="paint14_linear" x1="0" y1="0" x2="1" y2="0" gradientUnits="userSpaceOnUse" gradientTransform="matrix(1.40834e-14 18 -230 1.10218e-15 230 -1.10218e-15)">
<stop offset="0" stop-color="#000000" stop-opacity="0"/>
<stop offset="0.98895" stop-color="#000000" stop-opacity="0.01"/>
</linearGradient>
<linearGradient id="paint18_linear" x1="0" y1="0" x2="1" y2="0" gradientUnits="userSpaceOnUse" gradientTransform="matrix(2.44929e-15 40 -40 2.44929e-15 40 -2.44929e-15)">
<stop offset="0.0276243" stop-color="#FFFFFF" stop-opacity="0.01"/>
<stop offset="0.933702" stop-color="#FFFFFF" stop-opacity="0"/>
</linearGradient>
<path id="path0_fill" d="M 0 0L 320 0L 320 568L 0 568L 0 0Z"/>
<path id="path1_fill" fill-rule="evenodd" d="M 562.711 0.6469C 553.571 1.89566 547.184 5.31486 539.248 13.2051C 533.307 19.1125 532.055 21.0785 528.391 30.2658C 527.617 32.2058 527.08 32.5589 525.571 32.1185C 520.496 30.6393 518.47 30.6951 514.858 32.414C 510.831 34.328 506.514 39.5553 506.514 42.5155C 506.514 46.1465 504.993 47.6685 501.939 47.0961C 497.343 46.2357 487.355 48.2018 482.653 50.8944C 453.741 67.4534 474.381 104.015 507.716 95.2921C 514.594 93.4914 517.417 94.1493 517.417 97.5536C 517.417 99.2651 523.609 105.087 527.584 107.114C 533.272 110.011 540.957 109.222 546.619 105.158C 551.646 101.549 551.295 101.599 558.792 103.416C 565.471 105.037 570.205 104.331 577.613 100.612L 582.029 98.3936L 584.322 100.44C 599.63 114.1 621.851 111.485 633.666 94.6343C 634.57 93.3428 635.814 92.815 637.945 92.815C 650.18 92.815 658.907 76.8507 653.247 64.8221C 649.94 57.7923 641.916 52.9329 635.371 53.994C 632.756 54.4177 632.006 54.1129 629.497 51.6061C 625.325 47.438 620.408 44.4016 616.057 43.3071C 611.411 42.1383 610.894 41.5548 609.823 36.2513C 606.315 18.8802 594.076 5.73669 577.45 1.48869C 570.425 -0.30639 569.908 -0.336122 562.711 0.6469ZM 184.865 10.0683C 182.572 11.0792 180.07 12.5287 179.31 13.2887C 178.549 14.0506 177.589 14.8125 177.176 14.9853C 175.761 15.5818 170.482 22.8476 169.035 26.1943C 167.592 29.5299 167.562 29.5467 162.912 29.5467C 157.911 29.5467 153.841 32.6797 153.224 37.0076C 153.008 38.5128 152.056 38.903 146.58 39.7355C 131.8 41.9785 124.331 52.5669 129.87 63.4173C 133.91 71.326 143.479 74.2082 156.471 71.4264C 158.923 70.9005 159.308 71.1328 161.346 74.3569C 165.981 81.6933 175.417 83.1985 181.438 77.5605C 182.782 76.3025 183.729 76.0888 185.684 76.6035C 189.947 77.7278 198.447 77.2428 200.733 75.745C 203.493 73.9388 204.338 74.015 207.412 76.3508C 217.659 84.1295 231.46 82.6429 238.036 73.0542C 239.564 70.828 240.585 70.1888 242.619 70.1832C 247.377 70.1739 254.043 63.3039 254.043 58.4111C 254.043 52.0595 248.361 45.0502 243.215 45.0502C 240.016 45.0502 237.7 43.9649 234.495 40.9657C 233.201 39.756 230.383 38.1709 228.233 37.4443C 224.431 36.1602 224.278 35.9763 222.749 30.788C 217.424 12.7219 200.216 3.31165 184.865 10.0683ZM 425.153 91.0515C 410.88 94.9427 397.696 105.524 391.629 117.956C 390.617 120.029 389.442 122.382 389.018 123.181C 388.594 123.982 388.246 125.149 388.246 125.775C 388.246 127.68 385.439 129.707 384.033 128.821C 381.844 127.436 374.131 127.905 370.751 129.627C 364.805 132.658 361.122 137.882 359.385 145.755C 358.892 147.985 358.866 147.993 352.81 147.541C 335.929 146.285 319.762 156.223 315.64 170.392C 308.189 195.997 337.887 217.696 365.5 206.823C 369.57 205.22 372.31 205.248 372.31 206.89C 372.31 207.312 373.348 209.23 374.616 211.151C 384.256 225.748 401.082 228.389 413.504 217.254L 416.532 214.539L 422.311 216.505C 431.544 219.649 440.517 218.805 449.149 213.987C 454.067 211.24 454.507 211.261 457.498 214.383C 472.508 230.048 505.35 226.861 516.578 208.652C 518.665 205.266 520.7 204.27 525.519 204.27C 530.212 204.27 536.348 199.873 541.87 192.559C 551.79 179.414 539.077 155.92 522.192 156.193L 516.482 156.284L 512.544 152.391C 507.879 147.779 502.192 144.456 494.986 142.13C 489.977 140.513 489.737 140.312 489.737 137.722C 489.737 133.979 486.162 123.82 482.673 117.645C 470.334 95.8124 447.094 85.0679 425.153 91.0515ZM 113.13 111.26C 109.157 111.946 102.361 114.362 101.01 115.568C 100.572 115.96 99.7029 116.279 99.078 116.279C 97.3668 116.279 86.9993 124.822 84.2131 128.529C 82.8664 130.319 81.5124 131.971 81.2018 132.201C 79.8905 133.177 75.3782 141.355 73.7582 145.692L 72.0042 150.386L 67.6296 149.251C 57.9837 146.751 47.5586 153.87 45.6856 164.23C 45.1388 167.261 41.7425 170.89 41.1398 169.086C 39.8397 165.185 18.1934 170.557 11.4528 176.454C -17.0475 201.39 12.1429 240.809 49.7645 228.192C 53.3654 226.984 56.3842 226.105 56.4734 226.237C 56.5609 226.369 57.6806 228.303 58.9621 230.535C 67.8807 246.089 87.8921 249.983 98.8083 238.291C 101.25 235.677 101.444 235.666 108.097 237.79C 117.248 240.711 125.808 239.652 135.528 234.398L 139.051 232.493L 142.657 235.43C 162.14 251.301 186.772 248.751 202.321 229.253C 205.236 225.597 205.866 225.218 209.032 225.211C 216.797 225.192 225.664 218.376 228.415 210.308C 234.023 193.868 223.523 177.258 207.423 177.095C 201.721 177.037 201.369 176.913 198.616 174.008C 194.53 169.695 187.237 165.271 180.768 163.184C 176.038 161.656 175.199 161.095 175.199 159.458C 175.199 155.795 171.362 144.311 168.327 138.894C 156.605 117.974 135.496 107.406 113.13 111.26ZM 653.642 149.189C 645.065 154.623 639.809 160.517 635.539 169.493C 633.327 174.142 632.401 175.313 631.071 175.138C 623.89 174.192 613.875 177.288 613.875 180.453C 613.875 181.033 613.325 182.575 612.652 183.879C 611.976 185.186 611.232 187.224 610.994 188.412C 610.576 190.5 610.354 190.571 604.027 190.64C 579.148 190.907 565.743 214.05 580.599 231.085C 587.378 238.858 603.158 242.738 613.037 239.059C 620.127 236.416 620.116 236.414 622.677 240.858C 629.944 253.47 643.062 256.229 654.029 247.454C 656.045 245.84 658.027 244.725 658.433 244.975C 658.853 245.236 659.169 224.183 659.169 195.94C 659.169 168.718 658.887 146.456 658.541 146.467C 658.195 146.476 655.991 147.703 653.642 149.189Z"/>
<path id="path2_fill" d="M 0 0L 262 0L 262 276L 0 276L 0 0Z"/>
<path id="path3_fill" d="M 0 8C 0 3.58172 3.58172 0 8 0L 222 0C 226.418 0 230 3.58172 230 8L 230 34C 230 38.4183 226.418 42 222 42L 8 42C 3.58172 42 0 38.4183 0 34L 0 8Z"/>
<path id="path4_fill" d="M 3.322 17C 2.98467 17 2.58133 16.8827 2.112 16.648C 1.65733 16.3987 1.254 16.1053 0.902 15.768C 0.564667 15.4307 0.396 15.152 0.396 14.932C 0.381333 14.6973 0.447333 14.206 0.594 13.458C 0.755333 12.6953 0.858 12.204 0.902 11.984C 0.960667 11.6907 1.07067 11.1553 1.232 10.378C 1.39333 9.586 1.52533 8.85267 1.628 8.178L 1.804 7.144C 2.08267 5.50133 2.33933 4.16667 2.574 3.14C 2.82333 2.11333 3.07267 1.6 3.322 1.6C 3.57133 1.6 3.90867 1.70267 4.334 1.908C 4.774 2.11333 5.18467 2.37733 5.566 2.7C 5.94733 3.008 6.204 3.30133 6.336 3.58C 6.57067 4.108 6.87867 5.23733 7.26 6.968C 7.524 8.17067 7.722 8.99933 7.854 9.454C 8.48467 8.50067 9.29133 7.04133 10.274 5.076C 10.9047 3.82933 11.3813 2.942 11.704 2.414C 12.0413 1.87133 12.342 1.6 12.606 1.6C 12.8847 1.6 13.2587 1.72467 13.728 1.974C 14.212 2.22333 14.63 2.51667 14.982 2.854C 15.3487 3.19133 15.532 3.48467 15.532 3.734C 15.532 3.93933 15.444 4.51867 15.268 5.472C 15.092 6.41067 14.982 6.99733 14.938 7.232L 14.366 10.334C 14.2193 11.1993 14.0653 12.336 13.904 13.744C 13.7573 14.9467 13.6253 15.79 13.508 16.274C 13.4053 16.758 13.2367 17 13.002 17C 12.6647 17 12.2613 16.8827 11.792 16.648C 11.3373 16.3987 10.934 16.1053 10.582 15.768C 10.2447 15.4307 10.076 15.152 10.076 14.932C 10.0613 14.7413 10.1127 14.338 10.23 13.722C 10.362 13.0913 10.5087 12.38 10.67 11.588C 10.802 10.9573 10.8753 10.598 10.89 10.51L 11.682 8.068L 11.374 7.958L 11.154 8.398C 10.582 9.57133 10.12 10.488 9.768 11.148C 9.43067 11.7933 9.152 12.2553 8.932 12.534C 8.78533 12.71 8.52133 12.8567 8.14 12.974C 7.75867 13.0767 7.38467 13.128 7.018 13.128C 6.63667 13.128 6.38 13.062 6.248 12.93C 6.116 12.8127 5.99867 12.5707 5.896 12.204C 5.808 11.8227 5.68333 11.236 5.522 10.444C 5.49267 10.2827 5.412 9.894 5.28 9.278C 5.148 8.64733 5.00133 8.07533 4.84 7.562L 4.686 10.334C 4.53933 11.1993 4.38533 12.336 4.224 13.744C 4.07733 14.9467 3.94533 15.79 3.828 16.274C 3.72533 16.758 3.55667 17 3.322 17ZM 26.1137 13.766C 27.0083 13.326 27.7637 12.8567 28.3797 12.358C 29.025 12.578 29.5017 12.886 29.8097 13.282C 30.1323 13.6633 30.2937 14.1033 30.2937 14.602C 30.2937 14.954 30.0443 15.3207 29.5457 15.702C 29.047 16.0687 28.453 16.3767 27.7637 16.626C 27.0743 16.8753 26.4877 17 26.0037 17C 25.6663 17 25.2777 16.8753 24.8377 16.626C 24.4123 16.3767 24.0383 16.0833 23.7157 15.746C 23.4077 15.4087 23.2537 15.1447 23.2537 14.954C 23.2537 14.8073 23.3123 14.6093 23.4297 14.36C 23.5617 14.1107 23.701 13.854 23.8477 13.59C 23.9943 13.326 24.0897 13.15 24.1337 13.062L 23.5837 12.754C 22.8063 14.03 22.0583 15.0567 21.3397 15.834C 20.6357 16.6113 19.939 17 19.2497 17C 18.7803 17 18.2817 16.7947 17.7537 16.384C 17.2403 15.9733 16.8003 15.4747 16.4337 14.888C 16.0817 14.3013 15.9057 13.7807 15.9057 13.326C 15.9057 12.0207 16.177 10.686 16.7197 9.322C 17.2623 7.958 18.0177 6.82867 18.9857 5.934C 19.9683 5.03933 21.0757 4.592 22.3077 4.592C 22.7477 4.592 23.195 4.79 23.6497 5.186C 24.1043 5.582 24.3977 5.98533 24.5297 6.396C 24.603 6.07333 24.7057 5.79467 24.8377 5.56C 24.9843 5.31067 25.1383 5.186 25.2997 5.186C 25.681 5.186 26.099 5.32533 26.5537 5.604C 27.023 5.868 27.419 6.18333 27.7417 6.55C 28.0643 6.902 28.2257 7.18067 28.2257 7.386C 28.211 7.66467 28.0937 8.12667 27.8737 8.772C 27.6683 9.41733 27.331 10.4 26.8617 11.72C 26.583 12.4387 26.3337 13.1207 26.1137 13.766ZM 19.3597 13.942C 20.5477 13.2087 21.5817 12.3067 22.4617 11.236C 23.3417 10.1507 23.943 8.95533 24.2657 7.65C 23.8697 7.474 23.4957 7.386 23.1437 7.386C 22.4543 7.386 21.8383 7.694 21.2957 8.31C 20.753 8.926 20.3203 9.73267 19.9977 10.73C 19.675 11.7273 19.4623 12.798 19.3597 13.942ZM 35.952 9.454C 37.0226 8.03133 37.8733 6.968 38.504 6.264C 39.1346 5.54533 39.692 5.186 40.176 5.186C 40.5133 5.186 40.858 5.34733 41.21 5.67C 41.5766 5.99267 41.8773 6.38133 42.112 6.836C 42.3466 7.276 42.464 7.65 42.464 7.958C 42.464 8.794 42.134 9.63 41.474 10.466C 40.8286 11.2873 40.0073 12.028 39.01 12.688C 39.3033 12.9667 39.5526 13.1793 39.758 13.326C 39.9633 13.4727 40.1833 13.59 40.418 13.678C 40.8726 13.5313 41.4446 13.2673 42.134 12.886C 42.574 13.15 42.9113 13.458 43.146 13.81C 43.3806 14.162 43.498 14.514 43.498 14.866C 43.498 15.482 43.2193 15.9953 42.662 16.406C 42.1046 16.802 41.408 17 40.572 17C 39.8826 17 39.2446 16.802 38.658 16.406C 38.086 15.9953 37.6093 15.4527 37.228 14.778C 36.8613 14.0887 36.612 13.348 36.48 12.556L 36.898 11.874C 37.7046 11.5513 38.3133 11.1773 38.724 10.752C 39.1493 10.3267 39.362 9.94533 39.362 9.608C 39.362 9.46133 39.318 9.35133 39.23 9.278C 39.1566 9.19 39.054 9.146 38.922 9.146C 38.5993 9.146 38.2033 9.366 37.734 9.806C 37.2646 10.2313 36.612 10.8987 35.776 11.808C 35.7613 11.8227 35.5926 12.0133 35.27 12.38C 35.226 13.524 35.116 14.58 34.94 15.548C 34.764 16.516 34.522 17 34.214 17C 33.8473 17 33.422 16.8753 32.938 16.626C 32.454 16.3767 32.036 16.0833 31.684 15.746C 31.3466 15.394 31.178 15.0933 31.178 14.844C 31.178 14.668 31.2366 14.3673 31.354 13.942C 31.4713 13.502 31.6106 13.018 31.772 12.49C 32.344 10.6127 32.7913 8.93333 33.114 7.452C 33.29 6.63067 33.444 5.78 33.576 4.9C 33.7813 3.72667 33.9573 2.82467 34.104 2.194C 34.2506 1.56333 34.434 1.03533 34.654 0.61C 34.8886 0.17 35.1746 -0.0499995 35.512 -0.0499995C 35.7613 -0.0499995 36.128 0.104 36.612 0.412C 37.1106 0.705333 37.5506 1.05 37.932 1.446C 38.3133 1.82733 38.504 2.14267 38.504 2.392C 38.504 2.612 38.4233 2.86133 38.262 3.14C 38.1153 3.404 37.866 3.78533 37.514 4.284C 37.4406 4.38667 37.3013 4.592 37.096 4.9C 36.9053 5.208 36.766 5.46467 36.678 5.67C 36.502 6.09533 36.304 6.638 36.084 7.298C 35.8786 7.958 35.7026 8.60333 35.556 9.234L 35.952 9.454ZM 49.3623 17C 48.6583 17 47.925 16.7727 47.1623 16.318C 46.3997 15.8487 45.769 15.2767 45.2703 14.602C 44.7717 13.9273 44.5223 13.2893 44.5223 12.688C 44.5223 11.6173 44.7717 10.444 45.2703 9.168C 45.7837 7.892 46.4877 6.814 47.3823 5.934C 48.277 5.03933 49.289 4.592 50.4183 4.592C 51.225 4.592 51.951 4.768 52.5963 5.12C 53.2563 5.472 53.7697 5.912 54.1363 6.44C 54.503 6.968 54.6863 7.48133 54.6863 7.98C 54.6863 8.596 54.4077 9.20467 53.8503 9.806C 53.293 10.3927 52.5157 10.9133 51.5183 11.368C 50.521 11.808 49.3843 12.1233 48.1083 12.314C 48.0937 12.49 48.0863 12.754 48.0863 13.106C 48.0863 13.546 48.101 13.876 48.1303 14.096C 48.8637 14.0227 49.5897 13.8247 50.3083 13.502C 51.027 13.1793 51.8117 12.7247 52.6623 12.138C 53.2343 12.314 53.667 12.5927 53.9603 12.974C 54.2537 13.3553 54.4003 13.81 54.4003 14.338C 54.4003 14.778 54.129 15.2107 53.5863 15.636C 53.0583 16.0467 52.3983 16.3767 51.6063 16.626C 50.8143 16.8753 50.0663 17 49.3623 17ZM 48.4383 10.664C 49.333 10.3413 50.081 9.93067 50.6823 9.432C 51.2837 8.93333 51.5843 8.508 51.5843 8.156C 51.5843 7.74533 51.2983 7.46667 50.7263 7.32C 50.169 7.73067 49.6923 8.222 49.2963 8.794C 48.915 9.366 48.629 9.98933 48.4383 10.664ZM 72.4182 11.522C 72.4328 11.7567 72.4842 12.3507 72.5722 13.304C 72.6748 14.2427 72.7262 15.0273 72.7262 15.658C 72.7262 16.4793 72.6308 16.9193 72.4402 16.978C 72.3815 16.9927 72.2862 17 72.1542 17C 71.8315 17 71.4282 16.9267 70.9442 16.78C 70.4748 16.6187 70.0495 16.4207 69.6682 16.186C 69.3015 15.9513 69.0888 15.724 69.0302 15.504C 68.9715 15.284 68.9422 14.36 68.9422 12.732C 67.3582 12.9227 66.3168 13.04 65.8182 13.084C 65.4222 14.2427 64.9675 15.5113 64.4542 16.89C 64.0582 16.978 63.6915 17.022 63.3542 17.022C 62.7675 17.022 62.2688 16.8827 61.8582 16.604C 61.4622 16.3107 61.1982 15.8707 61.0662 15.284L 61.5062 14.294C 63.1195 10.7007 64.5128 7.68667 65.6862 5.252C 66.8742 2.81733 67.6442 1.6 67.9962 1.6C 68.2748 1.6 68.6782 1.70267 69.2062 1.908C 69.7488 2.11333 70.2328 2.36267 70.6582 2.656C 71.0982 2.94933 71.3475 3.21333 71.4062 3.448C 71.5088 3.85867 71.6482 4.71667 71.8242 6.022C 72.0002 7.32733 72.1395 8.58867 72.2422 9.806L 72.4182 11.522ZM 68.8762 5.032C 68.2308 6.55733 67.5928 8.19267 66.9622 9.938C 67.6368 9.894 68.3042 9.828 68.9642 9.74C 68.9642 7.716 68.9348 6.14667 68.8762 5.032ZM 77.7788 14.096C 79.1574 14.0373 80.4334 13.326 81.6068 11.962C 82.3254 12.094 82.8974 12.3653 83.3228 12.776C 83.7628 13.1867 83.9828 13.7073 83.9828 14.338C 83.9828 14.7927 83.7188 15.2253 83.1908 15.636C 82.6774 16.0467 82.0321 16.3767 81.2548 16.626C 80.4774 16.8753 79.7294 17 79.0108 17C 78.3068 17 77.5734 16.7727 76.8108 16.318C 76.0481 15.8487 75.4174 15.2767 74.9188 14.602C 74.4201 13.9273 74.1708 13.2893 74.1708 12.688C 74.1708 11.5293 74.4348 10.3193 74.9628 9.058C 75.5054 7.782 76.2534 6.71867 77.2068 5.868C 78.1601 5.01733 79.2308 4.592 80.4188 4.592C 81.1521 4.592 81.8488 4.724 82.5088 4.988C 83.1688 5.252 83.6968 5.604 84.0928 6.044C 84.4888 6.484 84.6868 6.93867 84.6868 7.408C 84.6868 7.86267 84.4888 8.27333 84.0928 8.64C 83.6968 8.992 83.1761 9.168 82.5308 9.168C 82.3254 9.168 82.1128 9.146 81.8928 9.102C 81.5261 8.20733 81.1228 7.57667 80.6828 7.21C 79.7148 7.84067 78.9814 8.72067 78.4828 9.85C 77.9841 10.9793 77.7348 12.1307 77.7348 13.304C 77.7348 13.48 77.7494 13.744 77.7788 14.096ZM 89.1225 14.096C 90.5012 14.0373 91.7772 13.326 92.9505 11.962C 93.6692 12.094 94.2412 12.3653 94.6665 12.776C 95.1065 13.1867 95.3265 13.7073 95.3265 14.338C 95.3265 14.7927 95.0625 15.2253 94.5345 15.636C 94.0212 16.0467 93.3758 16.3767 92.5985 16.626C 91.8212 16.8753 91.0732 17 90.3545 17C 89.6505 17 88.9172 16.7727 88.1545 16.318C 87.3918 15.8487 86.7612 15.2767 86.2625 14.602C 85.7638 13.9273 85.5145 13.2893 85.5145 12.688C 85.5145 11.5293 85.7785 10.3193 86.3065 9.058C 86.8492 7.782 87.5972 6.71867 88.5505 5.868C 89.5038 5.01733 90.5745 4.592 91.7625 4.592C 92.4958 4.592 93.1925 4.724 93.8525 4.988C 94.5125 5.252 95.0405 5.604 95.4365 6.044C 95.8325 6.484 96.0305 6.93867 96.0305 7.408C 96.0305 7.86267 95.8325 8.27333 95.4365 8.64C 95.0405 8.992 94.5198 9.168 93.8745 9.168C 93.6692 9.168 93.4565 9.146 93.2365 9.102C 92.8698 8.20733 92.4665 7.57667 92.0265 7.21C 91.0585 7.84067 90.3252 8.72067 89.8265 9.85C 89.3278 10.9793 89.0785 12.1307 89.0785 13.304C 89.0785 13.48 89.0932 13.744 89.1225 14.096ZM 102.323 4.57C 103.364 4.68733 104.31 5.00267 105.161 5.516C 106.026 6.01467 106.701 6.616 107.185 7.32C 107.669 8.024 107.911 8.728 107.911 9.432C 107.911 10.488 107.64 11.61 107.097 12.798C 106.554 13.986 105.799 14.9833 104.831 15.79C 103.863 16.5967 102.785 17 101.597 17C 101.01 17 100.387 16.7873 99.7269 16.362C 99.0669 15.922 98.5095 15.394 98.0549 14.778C 97.6149 14.1473 97.3949 13.59 97.3949 13.106C 97.3949 12.2113 97.5049 11.2947 97.7249 10.356C 97.9449 9.40267 98.2822 8.47867 98.7369 7.584C 99.1622 7.34933 99.5875 7.232 100.013 7.232C 100.204 7.232 100.38 7.254 100.541 7.298C 100.482 7.122 100.453 6.91667 100.453 6.682C 100.453 6.21267 100.614 5.78733 100.937 5.406C 101.274 5.02467 101.736 4.746 102.323 4.57ZM 100.805 14.492C 102.022 14.0813 102.968 13.3773 103.643 12.38C 104.318 11.3827 104.765 10.1947 104.985 8.816C 104.325 8.34667 103.43 8.112 102.301 8.112C 102.022 8.112 101.81 8.11933 101.663 8.134C 101.824 8.42733 101.905 8.75733 101.905 9.124C 101.524 9.72533 101.23 10.3927 101.025 11.126C 100.82 11.8447 100.717 12.5707 100.717 13.304C 100.717 13.744 100.746 14.14 100.805 14.492ZM 111.865 17C 111.484 17 111.066 16.8607 110.611 16.582C 110.171 16.2887 109.797 15.9587 109.489 15.592C 109.181 15.2107 109.027 14.9027 109.027 14.668C 109.027 14.4333 109.093 14.096 109.225 13.656C 109.372 13.216 109.519 12.776 109.665 12.336C 109.827 11.896 109.929 11.6173 109.973 11.5C 110.164 10.9867 110.333 10.5027 110.479 10.048C 110.641 9.59333 110.721 9.28533 110.721 9.124C 110.721 9.00667 110.648 8.882 110.501 8.75C 110.369 8.60333 110.164 8.42733 109.885 8.222C 109.563 7.97267 109.321 7.77467 109.159 7.628C 109.013 7.48133 108.939 7.32733 108.939 7.166C 108.939 6.858 109.079 6.49867 109.357 6.088C 109.651 5.67733 109.988 5.32533 110.369 5.032C 110.765 4.73867 111.103 4.592 111.381 4.592C 111.689 4.592 112.041 4.73133 112.437 5.01C 112.848 5.28867 113.2 5.61133 113.493 5.978C 113.801 6.33 113.955 6.60133 113.955 6.792C 113.955 7.70133 113.801 8.794 113.493 10.07C 113.185 11.346 112.789 12.6147 112.305 13.876C 113.273 13.0693 114.139 12.1747 114.901 11.192C 115.664 10.2093 116.199 9.32933 116.507 8.552C 116.537 7.59867 116.647 6.79933 116.837 6.154C 117.043 5.50867 117.277 5.186 117.541 5.186C 117.923 5.186 118.341 5.32533 118.795 5.604C 119.265 5.868 119.661 6.18333 119.983 6.55C 120.306 6.902 120.467 7.18067 120.467 7.386C 120.453 7.694 120.313 8.27333 120.049 9.124C 119.785 9.96 119.419 11.038 118.949 12.358C 118.671 13.1793 118.509 13.6487 118.465 13.766C 118.891 13.5753 119.272 13.3773 119.609 13.172C 119.961 12.952 120.328 12.6807 120.709 12.358C 121.355 12.578 121.831 12.886 122.139 13.282C 122.462 13.6633 122.623 14.1033 122.623 14.602C 122.623 14.954 122.374 15.3207 121.875 15.702C 121.377 16.0687 120.783 16.3767 120.093 16.626C 119.404 16.8753 118.817 17 118.333 17C 118.025 17 117.659 16.8753 117.233 16.626C 116.808 16.362 116.427 16.0687 116.089 15.746C 115.767 15.4087 115.605 15.1593 115.605 14.998C 115.605 14.8367 115.657 14.6387 115.759 14.404C 115.877 14.1693 116.001 13.92 116.133 13.656C 116.28 13.3773 116.39 13.1793 116.463 13.062L 115.913 12.754C 115.107 14.2353 114.41 15.3133 113.823 15.988C 113.251 16.6627 112.599 17 111.865 17ZM 135.222 12.358C 135.868 12.578 136.344 12.886 136.652 13.282C 136.975 13.6633 137.136 14.1033 137.136 14.602C 137.136 14.954 136.887 15.3207 136.388 15.702C 135.89 16.0687 135.296 16.3767 134.606 16.626C 133.917 16.8753 133.33 17 132.846 17C 132.509 17 132.12 16.868 131.68 16.604C 131.24 16.34 130.859 16.0393 130.536 15.702C 130.228 15.35 130.074 15.0787 130.074 14.888C 130.074 14.7413 130.236 14.1693 130.558 13.172C 131.13 11.4267 131.416 10.3267 131.416 9.872C 131.416 9.696 131.372 9.608 131.284 9.608C 130.698 9.608 129.605 10.6347 128.006 12.688C 127.948 12.9227 127.882 13.216 127.808 13.568C 127.75 13.92 127.706 14.1693 127.676 14.316C 127.515 15.1813 127.361 15.8487 127.214 16.318C 127.082 16.7727 126.906 17 126.686 17C 126.305 17 125.872 16.8753 125.388 16.626C 124.919 16.362 124.508 16.0613 124.156 15.724C 123.819 15.372 123.65 15.0787 123.65 14.844C 123.65 14.58 123.746 14.1913 123.936 13.678C 124.127 13.1647 124.413 12.4607 124.794 11.566C 125.088 10.8767 125.308 10.3413 125.454 9.96C 125.601 9.564 125.674 9.28533 125.674 9.124C 125.674 9.00667 125.601 8.882 125.454 8.75C 125.322 8.60333 125.117 8.42733 124.838 8.222C 124.516 7.97267 124.274 7.77467 124.112 7.628C 123.966 7.48133 123.892 7.32733 123.892 7.166C 123.892 6.858 124.032 6.49867 124.31 6.088C 124.604 5.67733 124.941 5.32533 125.322 5.032C 125.718 4.73867 126.056 4.592 126.334 4.592C 126.642 4.592 126.994 4.73133 127.39 5.01C 127.801 5.28867 128.153 5.61133 128.446 5.978C 128.754 6.33 128.908 6.60133 128.908 6.792C 128.908 7.144 128.864 7.57667 128.776 8.09C 128.703 8.60333 128.6 9.10933 128.468 9.608C 129.539 8.2 130.426 7.11467 131.13 6.352C 131.834 5.57467 132.384 5.186 132.78 5.186C 133.059 5.186 133.396 5.32533 133.792 5.604C 134.188 5.88267 134.526 6.20533 134.804 6.572C 135.098 6.924 135.244 7.19533 135.244 7.386C 135.23 7.63533 135.127 8.06067 134.936 8.662C 134.746 9.26333 134.474 10.0627 134.122 11.06C 133.653 12.3507 133.352 13.2233 133.22 13.678C 133.675 13.4433 134.027 13.2453 134.276 13.084C 134.54 12.908 134.856 12.666 135.222 12.358ZM 143.014 8.354C 142.53 10.5687 142.214 12.3727 142.068 13.766C 143.006 13.3113 143.762 12.842 144.334 12.358C 144.979 12.578 145.456 12.886 145.764 13.282C 146.086 13.6633 146.248 14.1033 146.248 14.602C 146.248 14.954 145.998 15.3207 145.5 15.702C 145.001 16.0687 144.407 16.3767 143.718 16.626C 143.028 16.8753 142.442 17 141.958 17C 141.532 17 141.056 16.8753 140.528 16.626C 140.014 16.362 139.574 16.0613 139.208 15.724C 138.841 15.372 138.658 15.0713 138.658 14.822C 138.658 14.6167 138.731 14.1767 138.878 13.502C 139.039 12.8127 139.178 12.226 139.296 11.742C 139.428 11.2433 139.523 10.8767 139.582 10.642L 140.11 8.53L 138.768 8.618C 138.518 8.50067 138.328 8.31733 138.196 8.068C 138.064 7.81867 137.998 7.53267 137.998 7.21C 137.998 6.62333 138.21 6.12467 138.636 5.714C 139.164 5.74333 139.809 5.77267 140.572 5.802C 140.572 4.86333 140.674 3.82933 140.88 2.7C 141.085 1.556 141.312 0.984 141.562 0.984C 141.87 0.984 142.258 1.116 142.728 1.38C 143.197 1.644 143.608 1.952 143.96 2.304C 144.312 2.656 144.488 2.964 144.488 3.228C 144.488 3.56533 144.422 3.91 144.29 4.262C 144.172 4.59933 143.974 5.06867 143.696 5.67C 143.945 5.64067 144.576 5.538 145.588 5.362L 146.094 5.274C 146.358 5.42067 146.556 5.63333 146.688 5.912C 146.834 6.19067 146.908 6.49133 146.908 6.814C 146.908 7.078 146.856 7.33467 146.754 7.584C 146.651 7.83333 146.497 8.046 146.292 8.222L 143.014 8.354Z"/>
<path id="path5_stroke" d="M 0 0.5L 232 0.5L 232 -0.5L 0 -0.5L 0 0.5Z"/>
<path id="path6_fill" d="M 8.51074 13.2344C 8.66113 13.5169 8.80013 13.7721 8.92773 14L 7.19824 14C 7.12988 13.8997 7.05469 13.7562 6.97266 13.5693L 6.82227 13.2344C 6.73568 13.0521 6.60124 12.7217 6.41895 12.2432C 6.22754 11.7327 6.05436 11.3112 5.89941 10.9785C 5.74902 10.6413 5.56901 10.3405 5.35938 10.0762C 5.1543 9.81185 4.92188 9.63867 4.66211 9.55664C 4.39323 9.56576 3.78939 9.57031 2.85059 9.57031L 2.85059 14L 1.32617 14L 1.32617 3.5957L 1.98926 3.5957C 2.23535 3.5957 2.5931 3.57975 3.0625 3.54785C 3.79167 3.50684 4.31803 3.48633 4.6416 3.48633C 5.75358 3.48633 6.62174 3.72559 7.24609 4.2041C 7.87044 4.67806 8.18262 5.41406 8.18262 6.41211C 8.18262 7.15951 8.01855 7.77474 7.69043 8.25781C 7.36686 8.74089 6.9043 9.08724 6.30273 9.29688C 6.50781 9.43815 6.69922 9.63867 6.87695 9.89844C 7.05469 10.1582 7.21419 10.4362 7.35547 10.7324C 7.5013 11.0241 7.67448 11.4046 7.875 11.874C 8.15755 12.5166 8.36947 12.9701 8.51074 13.2344ZM 2.85059 8.49023C 3.09212 8.51758 3.6276 8.53125 4.45703 8.53125C 5.1543 8.53125 5.68978 8.36719 6.06348 8.03906C 6.43717 7.70638 6.62402 7.18913 6.62402 6.4873C 6.62402 6.0498 6.54883 5.69434 6.39844 5.4209C 6.2526 5.1429 6.0179 4.93783 5.69434 4.80566C 5.37533 4.6735 4.94922 4.60742 4.41602 4.60742C 3.77799 4.60742 3.25618 4.64844 2.85059 4.73047L 2.85059 8.49023ZM 16.3652 9.03711C 16.3652 9.40625 16.3607 9.69336 16.3516 9.89844C 16.3424 10.099 16.3219 10.2767 16.29 10.4316L 11.4844 10.4316C 11.4889 10.4635 11.4912 10.5091 11.4912 10.5684C 11.5687 12.1725 12.3617 12.9746 13.8701 12.9746C 14.1436 12.9746 14.4899 12.9313 14.9092 12.8447C 15.3285 12.7581 15.6292 12.6602 15.8115 12.5508L 16.0986 13.4121C 15.848 13.6172 15.4674 13.7858 14.957 13.918C 14.4466 14.0456 13.9499 14.1094 13.4668 14.1094C 12.7331 14.1094 12.1087 13.9521 11.5938 13.6377C 11.0788 13.3187 10.6868 12.8584 10.418 12.2568C 10.1491 11.6553 10.0146 10.9329 10.0146 10.0898C 10.0146 9.32422 10.1468 8.6429 10.4111 8.0459C 10.68 7.44889 11.0742 6.97949 11.5938 6.6377C 12.1178 6.29134 12.7513 6.11133 13.4941 6.09766C 14.0182 6.08854 14.4945 6.19564 14.9229 6.41895C 15.3512 6.64225 15.693 6.97721 15.9482 7.42383C 16.208 7.87044 16.347 8.4082 16.3652 9.03711ZM 14.957 9.43359C 14.9661 9.28776 14.9707 9.18066 14.9707 9.1123C 14.9707 8.53353 14.8522 8.06413 14.6152 7.7041C 14.3828 7.34408 13.9818 7.16406 13.4121 7.16406C 12.9062 7.16406 12.4847 7.34408 12.1475 7.7041C 11.8148 8.05957 11.6074 8.63607 11.5254 9.43359L 14.957 9.43359ZM 18.5938 7.3418L 17.582 7.3418L 17.582 6.52832L 17.8281 6.45996C 18.0378 6.40072 18.1927 6.35286 18.293 6.31641C 18.3932 6.27539 18.4798 6.2207 18.5527 6.15234C 18.6302 6.07943 18.6917 5.98145 18.7373 5.8584C 18.8057 5.68522 18.9059 5.37305 19.0381 4.92188L 19.1885 4.42969L 20.0908 4.42969L 20.0908 6.20703L 22.292 6.20703L 22.292 7.3418L 20.0908 7.3418L 20.0908 11.2861C 20.0908 11.8057 20.1113 12.1748 20.1523 12.3936C 20.1934 12.6077 20.2686 12.7467 20.3779 12.8105C 20.4919 12.8743 20.6833 12.9062 20.9521 12.9062C 21.1481 12.9062 21.3851 12.8743 21.6631 12.8105C 21.9456 12.7467 22.153 12.6807 22.2852 12.6123L 22.5449 13.4736C 22.3216 13.6377 22.0003 13.7858 21.5811 13.918C 21.1663 14.0456 20.7699 14.1094 20.3916 14.1094C 19.8219 14.1094 19.3799 13.9681 19.0654 13.6855C 18.751 13.3984 18.5938 12.8812 18.5938 12.1338L 18.5938 7.3418ZM 30.3174 6.20703L 27.6924 14.2461C 27.109 16.028 26.2933 17.0671 25.2451 17.3633C 25.1403 17.3906 25.0173 17.4134 24.876 17.4316C 24.7347 17.4544 24.6117 17.4658 24.5068 17.4658C 24.3883 17.4658 24.2402 17.4544 24.0625 17.4316C 23.8848 17.4134 23.7777 17.3929 23.7412 17.3701L 23.7412 16.1465C 23.8096 16.1693 23.9121 16.1875 24.0488 16.2012C 24.1901 16.2148 24.3063 16.2217 24.3975 16.2217C 24.6253 16.2217 24.8646 16.1602 25.1152 16.0371C 25.3704 15.9141 25.6165 15.6862 25.8535 15.3535C 26.0905 15.0254 26.2773 14.5742 26.4141 14L 25.9697 14L 23.1465 6.20703L 24.7529 6.20703L 26.4756 11.457L 26.8721 12.7285L 27.2207 11.457L 28.6973 6.20703L 30.3174 6.20703ZM 35.1982 6.09766C 35.7633 6.09766 36.2783 6.23665 36.7432 6.51465C 37.208 6.78809 37.5794 7.20508 37.8574 7.76562C 38.1354 8.32161 38.2744 9.00521 38.2744 9.81641C 38.2744 10.6504 38.1126 11.3932 37.7891 12.0449C 37.4655 12.6966 37.0075 13.2048 36.415 13.5693C 35.8271 13.9294 35.1458 14.1094 34.3711 14.1094C 33.9062 14.1094 33.4801 14.0433 33.0928 13.9111L 33.1133 14.9502L 33.1133 17.459L 31.6094 17.459L 31.6094 6.20703L 32.9697 6.20703L 32.9697 7.04785C 33.2249 6.77897 33.5212 6.55339 33.8584 6.37109C 34.1956 6.1888 34.6423 6.09766 35.1982 6.09766ZM 36.7432 9.94629C 36.7432 9.0485 36.5745 8.38086 36.2373 7.94336C 35.9046 7.5013 35.4193 7.28027 34.7812 7.28027C 34.4486 7.28027 34.141 7.34408 33.8584 7.47168C 33.5804 7.59473 33.332 7.74284 33.1133 7.91602L 33.1133 12.667C 33.2546 12.79 33.4368 12.8789 33.6602 12.9336C 33.888 12.9883 34.1729 13.0156 34.5146 13.0156C 34.943 13.0156 35.3258 12.8971 35.6631 12.6602C 36.0003 12.4232 36.2646 12.0745 36.4561 11.6143C 36.6475 11.154 36.7432 10.598 36.7432 9.94629ZM 45.9512 9.03711C 45.9512 9.40625 45.9466 9.69336 45.9375 9.89844C 45.9284 10.099 45.9079 10.2767 45.876 10.4316L 41.0703 10.4316C 41.0749 10.4635 41.0771 10.5091 41.0771 10.5684C 41.1546 12.1725 41.9476 12.9746 43.4561 12.9746C 43.7295 12.9746 44.0758 12.9313 44.4951 12.8447C 44.9144 12.7581 45.2152 12.6602 45.3975 12.5508L 45.6846 13.4121C 45.4339 13.6172 45.0534 13.7858 44.543 13.918C 44.0326 14.0456 43.5358 14.1094 43.0527 14.1094C 42.319 14.1094 41.6947 13.9521 41.1797 13.6377C 40.6647 13.3187 40.2728 12.8584 40.0039 12.2568C 39.735 11.6553 39.6006 10.9329 39.6006 10.0898C 39.6006 9.32422 39.7327 8.6429 39.9971 8.0459C 40.266 7.44889 40.6602 6.97949 41.1797 6.6377C 41.7038 6.29134 42.3372 6.11133 43.0801 6.09766C 43.6042 6.08854 44.0804 6.19564 44.5088 6.41895C 44.9372 6.64225 45.279 6.97721 45.5342 7.42383C 45.7939 7.87044 45.9329 8.4082 45.9512 9.03711ZM 44.543 9.43359C 44.5521 9.28776 44.5566 9.18066 44.5566 9.1123C 44.5566 8.53353 44.4382 8.06413 44.2012 7.7041C 43.9688 7.34408 43.5677 7.16406 42.998 7.16406C 42.4922 7.16406 42.0706 7.34408 41.7334 7.7041C 41.4007 8.05957 41.1934 8.63607 41.1113 9.43359L 44.543 9.43359ZM 53.1494 3.5957C 53.391 3.5957 53.776 3.57747 54.3047 3.54102C 54.8698 3.50456 55.3187 3.48633 55.6514 3.48633C 56.8135 3.48633 57.709 3.76204 58.3379 4.31348C 58.9668 4.86035 59.2812 5.70801 59.2812 6.85645C 59.2812 7.61296 59.1286 8.25781 58.8232 8.79102C 58.5225 9.32422 58.0736 9.7321 57.4766 10.0146C 56.8841 10.2926 56.1595 10.4316 55.3027 10.4316C 54.9245 10.4316 54.5622 10.4225 54.2158 10.4043L 53.9561 10.3975L 53.9561 14L 52.4316 14L 52.4316 3.5957L 53.1494 3.5957ZM 55.2139 9.31055C 55.7152 9.31055 56.1504 9.24447 56.5195 9.1123C 56.8932 8.98014 57.194 8.73405 57.4219 8.37402C 57.6497 8.014 57.7637 7.5127 57.7637 6.87012C 57.7637 6.08171 57.5632 5.50293 57.1621 5.13379C 56.7656 4.76465 56.1709 4.58008 55.3779 4.58008C 54.7764 4.58008 54.3024 4.62337 53.9561 4.70996L 53.9561 9.24219C 54.2933 9.28776 54.7126 9.31055 55.2139 9.31055ZM 63.6426 6.09082C 64.2441 6.09082 64.7454 6.15918 65.1465 6.2959C 65.5475 6.43262 65.8597 6.68327 66.083 7.04785C 66.3063 7.40788 66.418 7.91602 66.418 8.57227L 66.418 14.1094L 65.8027 14.1094C 65.5977 14.1094 65.4427 14.0957 65.3379 14.0684C 65.2331 14.041 65.151 13.9772 65.0918 13.877C 65.0326 13.7767 65.0029 13.6172 65.0029 13.3984L 65.0029 13.3438C 64.7751 13.5534 64.4606 13.7334 64.0596 13.8838C 63.6631 14.0342 63.2484 14.1094 62.8154 14.1094C 62.3551 14.1094 61.9427 14.0205 61.5781 13.8428C 61.2181 13.665 60.9355 13.4121 60.7305 13.084C 60.5299 12.7513 60.4297 12.3617 60.4297 11.915C 60.4297 11.4229 60.5618 10.9967 60.8262 10.6367C 61.0951 10.2767 61.4688 9.9987 61.9473 9.80273C 62.3711 9.63411 62.8496 9.50879 63.3828 9.42676C 63.9206 9.34017 64.431 9.29688 64.9141 9.29688L 64.9141 8.51074C 64.9141 8.14616 64.8548 7.87272 64.7363 7.69043C 64.6224 7.50814 64.4492 7.38509 64.2168 7.32129C 63.9844 7.25749 63.6631 7.22559 63.2529 7.22559C 63.0342 7.22559 62.7812 7.25521 62.4941 7.31445C 62.2116 7.3737 61.945 7.44889 61.6943 7.54004C 61.4482 7.62663 61.266 7.71094 61.1475 7.79297L 60.7783 6.80859C 60.8968 6.73568 61.111 6.64225 61.4209 6.52832C 61.7354 6.41439 62.0908 6.31413 62.4873 6.22754C 62.8883 6.13639 63.2734 6.09082 63.6426 6.09082ZM 63.2598 12.9883C 63.474 12.9883 63.6995 12.9564 63.9365 12.8926C 64.1735 12.8288 64.3809 12.7536 64.5586 12.667C 64.7409 12.5758 64.8594 12.4984 64.9141 12.4346L 64.9141 10.2539C 64.5814 10.2539 64.2054 10.2858 63.7861 10.3496C 63.3714 10.4134 63.0365 10.5068 62.7812 10.6299C 62.5033 10.762 62.2891 10.917 62.1387 11.0947C 61.9883 11.2725 61.9131 11.5026 61.9131 11.7852C 61.9131 12.5872 62.362 12.9883 63.2598 12.9883ZM 68.5166 12.4346C 68.6032 12.4938 68.7627 12.569 68.9951 12.6602C 69.2275 12.7467 69.4987 12.8242 69.8086 12.8926C 70.1185 12.9609 70.4261 12.9951 70.7314 12.9951C 71.1781 12.9951 71.5199 12.9108 71.7568 12.7422C 71.9984 12.5736 72.1191 12.3389 72.1191 12.0381C 72.1191 11.751 71.9824 11.5049 71.709 11.2998C 71.4401 11.0947 71.0413 10.8805 70.5127 10.6572C 69.8245 10.3656 69.2891 10.0238 68.9062 9.63184C 68.528 9.23991 68.3389 8.74544 68.3389 8.14844C 68.3389 7.70638 68.4619 7.33268 68.708 7.02734C 68.9587 6.71745 69.2959 6.48503 69.7197 6.33008C 70.1436 6.17513 70.6221 6.09766 71.1553 6.09766C 71.5745 6.09766 71.9688 6.14323 72.3379 6.23438C 72.707 6.32552 72.9714 6.41439 73.1309 6.50098L 72.8848 7.63574C 72.7572 7.52637 72.5316 7.42839 72.208 7.3418C 71.8844 7.25065 71.5495 7.20508 71.2031 7.20508C 70.7246 7.20508 70.3577 7.28255 70.1025 7.4375C 69.8519 7.59245 69.7266 7.80436 69.7266 8.07324C 69.7266 8.30111 69.7835 8.49707 69.8975 8.66113C 70.016 8.8252 70.1823 8.96875 70.3965 9.0918C 70.6107 9.21484 70.891 9.34701 71.2373 9.48828C 71.9027 9.75716 72.4495 10.083 72.8779 10.4658C 73.3063 10.8441 73.5205 11.3317 73.5205 11.9287C 73.5205 12.3936 73.4089 12.79 73.1855 13.1182C 72.9668 13.4417 72.6501 13.6878 72.2354 13.8564C 71.8252 14.0251 71.3376 14.1094 70.7725 14.1094C 70.2666 14.1094 69.7744 14.0524 69.2959 13.9385C 68.8219 13.8245 68.487 13.6969 68.291 13.5557L 68.5166 12.4346ZM 75.2021 12.4346C 75.2887 12.4938 75.4482 12.569 75.6807 12.6602C 75.9131 12.7467 76.1842 12.8242 76.4941 12.8926C 76.804 12.9609 77.1117 12.9951 77.417 12.9951C 77.8636 12.9951 78.2054 12.9108 78.4424 12.7422C 78.6839 12.5736 78.8047 12.3389 78.8047 12.0381C 78.8047 11.751 78.668 11.5049 78.3945 11.2998C 78.1257 11.0947 77.7269 10.8805 77.1982 10.6572C 76.5101 10.3656 75.9746 10.0238 75.5918 9.63184C 75.2135 9.23991 75.0244 8.74544 75.0244 8.14844C 75.0244 7.70638 75.1475 7.33268 75.3936 7.02734C 75.6442 6.71745 75.9814 6.48503 76.4053 6.33008C 76.8291 6.17513 77.3076 6.09766 77.8408 6.09766C 78.2601 6.09766 78.6543 6.14323 79.0234 6.23438C 79.3926 6.32552 79.6569 6.41439 79.8164 6.50098L 79.5703 7.63574C 79.4427 7.52637 79.2171 7.42839 78.8936 7.3418C 78.57 7.25065 78.235 7.20508 77.8887 7.20508C 77.4102 7.20508 77.0433 7.28255 76.7881 7.4375C 76.5374 7.59245 76.4121 7.80436 76.4121 8.07324C 76.4121 8.30111 76.4691 8.49707 76.583 8.66113C 76.7015 8.8252 76.8678 8.96875 77.082 9.0918C 77.2962 9.21484 77.5765 9.34701 77.9229 9.48828C 78.5882 9.75716 79.1351 10.083 79.5635 10.4658C 79.9919 10.8441 80.2061 11.3317 80.2061 11.9287C 80.2061 12.3936 80.0944 12.79 79.8711 13.1182C 79.6523 13.4417 79.3356 13.6878 78.9209 13.8564C 78.5107 14.0251 78.0231 14.1094 77.458 14.1094C 76.9521 14.1094 76.46 14.0524 75.9814 13.9385C 75.5075 13.8245 75.1725 13.6969 74.9766 13.5557L 75.2021 12.4346ZM 91.9092 6.20703L 89.5303 14.1094L 88.1426 14.1094L 86.748 9.0166L 86.4951 7.77246L 86.2217 9.0166L 84.8477 14.1094L 83.4189 14.1094L 81.04 6.20703L 82.5439 6.20703L 83.8018 10.8828L 84.1436 12.3457L 84.458 10.8896L 85.7568 6.20703L 87.2539 6.20703L 88.5459 10.8828L 88.8809 12.373L 89.2227 10.9307L 90.4395 6.20703L 91.9092 6.20703ZM 92.709 10.0352C 92.709 9.20117 92.8617 8.49023 93.167 7.90234C 93.4723 7.3099 93.8939 6.861 94.4316 6.55566C 94.9694 6.25033 95.5801 6.09766 96.2637 6.09766C 97.0521 6.09766 97.7015 6.27995 98.2119 6.64453C 98.7223 7.00911 99.096 7.49674 99.333 8.10742C 99.57 8.7181 99.6885 9.40625 99.6885 10.1719C 99.6885 11.0059 99.5358 11.7191 99.2305 12.3115C 98.9251 12.904 98.5036 13.3529 97.9658 13.6582C 97.4281 13.959 96.8151 14.1094 96.127 14.1094C 95.3431 14.1094 94.696 13.9271 94.1855 13.5625C 93.6751 13.1979 93.3014 12.7103 93.0645 12.0996C 92.8275 11.4889 92.709 10.8008 92.709 10.0352ZM 98.1641 10.1992C 98.1641 9.61589 98.0911 9.09863 97.9453 8.64746C 97.804 8.19173 97.5853 7.83398 97.2891 7.57422C 96.9928 7.3099 96.6214 7.17773 96.1748 7.17773C 95.5413 7.17773 95.0583 7.41927 94.7256 7.90234C 94.3975 8.38086 94.2334 9.06673 94.2334 9.95996C 94.2334 10.5387 94.3063 11.0628 94.4521 11.5322C 94.598 11.9971 94.819 12.3662 95.1152 12.6396C 95.4115 12.9085 95.7783 13.043 96.2158 13.043C 96.8493 13.043 97.3324 12.7946 97.665 12.2979C 97.9977 11.8011 98.1641 11.1016 98.1641 10.1992ZM 104.973 6.09082C 105.337 6.09082 105.59 6.12272 105.731 6.18652L 105.731 7.59473C 105.636 7.54004 105.51 7.49674 105.355 7.46484C 105.205 7.42839 104.989 7.41016 104.706 7.41016C 104.36 7.41016 104.038 7.47396 103.742 7.60156C 103.451 7.72461 103.204 7.875 103.004 8.05273L 103.004 14L 101.5 14L 101.5 6.2207L 102.765 6.2207L 102.867 7.08203C 102.967 6.94531 103.129 6.79948 103.353 6.64453C 103.58 6.48958 103.838 6.3597 104.125 6.25488C 104.417 6.14551 104.699 6.09082 104.973 6.09082ZM 113.278 2.625L 113.278 14.1094L 112.629 14.1094C 112.451 14.1094 112.308 14.0957 112.198 14.0684C 112.093 14.041 112.009 13.984 111.945 13.8975C 111.886 13.8109 111.856 13.681 111.856 13.5078L 111.856 13.2275C 111.61 13.4782 111.319 13.6878 110.981 13.8564C 110.644 14.0251 110.214 14.1094 109.689 14.1094C 109.124 14.1094 108.609 13.9727 108.145 13.6992C 107.684 13.4212 107.315 13.0042 107.037 12.4482C 106.759 11.8877 106.62 11.2018 106.62 10.3906C 106.62 9.55664 106.782 8.8138 107.105 8.16211C 107.429 7.51042 107.885 7.00456 108.473 6.64453C 109.065 6.27995 109.749 6.09766 110.523 6.09766C 110.961 6.09766 111.385 6.16146 111.795 6.28906L 111.774 5.87207L 111.774 2.625L 113.278 2.625ZM 108.151 10.2607C 108.151 11.1585 108.318 11.8285 108.65 12.2705C 108.988 12.708 109.473 12.9268 110.106 12.9268C 110.439 12.9268 110.747 12.8652 111.029 12.7422C 111.316 12.6146 111.565 12.4665 111.774 12.2979L 111.774 7.5332C 111.638 7.41471 111.455 7.32812 111.228 7.27344C 111 7.21875 110.715 7.19141 110.373 7.19141C 109.949 7.19141 109.569 7.3099 109.231 7.54688C 108.894 7.78385 108.63 8.13477 108.438 8.59961C 108.247 9.0599 108.151 9.61361 108.151 10.2607Z"/>
<path id="path7_fill" d="M 0 0L 230 0L 230 18L 0 18L 0 0Z"/>
<path id="path8_stroke_2x" d="M 0 0L 0 -1L -1 -1L -1 0L 0 0ZM 230 0L 231 0L 231 -1L 230 -1L 230 0ZM 230 18L 230 19L 231 19L 231 18L 230 18ZM 0 18L -1 18L -1 19L 0 19L 0 18ZM 0 1L 230 1L 230 -1L 0 -1L 0 1ZM 229 0L 229 18L 231 18L 231 0L 229 0ZM 230 17L 0 17L 0 19L 230 19L 230 17ZM 1 18L 1 0L -1 0L -1 18L 1 18Z"/>
<path id="path9_fill" d="M 2.04395 3.5957C 2.28548 3.5957 2.67057 3.57747 3.19922 3.54102C 3.76432 3.50456 4.21322 3.48633 4.5459 3.48633C 5.70801 3.48633 6.60352 3.76204 7.23242 4.31348C 7.86133 4.86035 8.17578 5.70801 8.17578 6.85645C 8.17578 7.61296 8.02311 8.25781 7.71777 8.79102C 7.41699 9.32422 6.9681 9.7321 6.37109 10.0146C 5.77865 10.2926 5.05404 10.4316 4.19727 10.4316C 3.81901 10.4316 3.45671 10.4225 3.11035 10.4043L 2.85059 10.3975L 2.85059 14L 1.32617 14L 1.32617 3.5957L 2.04395 3.5957ZM 4.1084 9.31055C 4.6097 9.31055 5.04492 9.24447 5.41406 9.1123C 5.78776 8.98014 6.08854 8.73405 6.31641 8.37402C 6.54427 8.014 6.6582 7.5127 6.6582 6.87012C 6.6582 6.08171 6.45768 5.50293 6.05664 5.13379C 5.66016 4.76465 5.06543 4.58008 4.27246 4.58008C 3.6709 4.58008 3.19694 4.62337 2.85059 4.70996L 2.85059 9.24219C 3.18783 9.28776 3.6071 9.31055 4.1084 9.31055ZM 12.5371 6.09082C 13.1387 6.09082 13.64 6.15918 14.041 6.2959C 14.4421 6.43262 14.7542 6.68327 14.9775 7.04785C 15.2008 7.40788 15.3125 7.91602 15.3125 8.57227L 15.3125 14.1094L 14.6973 14.1094C 14.4922 14.1094 14.3372 14.0957 14.2324 14.0684C 14.1276 14.041 14.0456 13.9772 13.9863 13.877C 13.9271 13.7767 13.8975 13.6172 13.8975 13.3984L 13.8975 13.3438C 13.6696 13.5534 13.3551 13.7334 12.9541 13.8838C 12.5576 14.0342 12.1429 14.1094 11.71 14.1094C 11.2497 14.1094 10.8372 14.0205 10.4727 13.8428C 10.1126 13.665 9.83008 13.4121 9.625 13.084C 9.42448 12.7513 9.32422 12.3617 9.32422 11.915C 9.32422 11.4229 9.45638 10.9967 9.7207 10.6367C 9.98958 10.2767 10.3633 9.9987 10.8418 9.80273C 11.2656 9.63411 11.7441 9.50879 12.2773 9.42676C 12.8151 9.34017 13.3255 9.29688 13.8086 9.29688L 13.8086 8.51074C 13.8086 8.14616 13.7493 7.87272 13.6309 7.69043C 13.5169 7.50814 13.3438 7.38509 13.1113 7.32129C 12.8789 7.25749 12.5576 7.22559 12.1475 7.22559C 11.9287 7.22559 11.6758 7.25521 11.3887 7.31445C 11.1061 7.3737 10.8395 7.44889 10.5889 7.54004C 10.3428 7.62663 10.1605 7.71094 10.042 7.79297L 9.67285 6.80859C 9.79134 6.73568 10.0055 6.64225 10.3154 6.52832C 10.6299 6.41439 10.9854 6.31413 11.3818 6.22754C 11.7829 6.13639 12.168 6.09082 12.5371 6.09082ZM 12.1543 12.9883C 12.3685 12.9883 12.5941 12.9564 12.8311 12.8926C 13.068 12.8288 13.2754 12.7536 13.4531 12.667C 13.6354 12.5758 13.7539 12.4984 13.8086 12.4346L 13.8086 10.2539C 13.4759 10.2539 13.0999 10.2858 12.6807 10.3496C 12.266 10.4134 11.931 10.5068 11.6758 10.6299C 11.3978 10.762 11.1836 10.917 11.0332 11.0947C 10.8828 11.2725 10.8076 11.5026 10.8076 11.7852C 10.8076 12.5872 11.2565 12.9883 12.1543 12.9883ZM 17.4111 12.4346C 17.4977 12.4938 17.6572 12.569 17.8896 12.6602C 18.1221 12.7467 18.3932 12.8242 18.7031 12.8926C 19.013 12.9609 19.3206 12.9951 19.626 12.9951C 20.0726 12.9951 20.4144 12.9108 20.6514 12.7422C 20.8929 12.5736 21.0137 12.3389 21.0137 12.0381C 21.0137 11.751 20.877 11.5049 20.6035 11.2998C 20.3346 11.0947 19.9359 10.8805 19.4072 10.6572C 18.7191 10.3656 18.1836 10.0238 17.8008 9.63184C 17.4225 9.23991 17.2334 8.74544 17.2334 8.14844C 17.2334 7.70638 17.3564 7.33268 17.6025 7.02734C 17.8532 6.71745 18.1904 6.48503 18.6143 6.33008C 19.0381 6.17513 19.5166 6.09766 20.0498 6.09766C 20.4691 6.09766 20.8633 6.14323 21.2324 6.23438C 21.6016 6.32552 21.8659 6.41439 22.0254 6.50098L 21.7793 7.63574C 21.6517 7.52637 21.4261 7.42839 21.1025 7.3418C 20.779 7.25065 20.444 7.20508 20.0977 7.20508C 19.6191 7.20508 19.2523 7.28255 18.9971 7.4375C 18.7464 7.59245 18.6211 7.80436 18.6211 8.07324C 18.6211 8.30111 18.6781 8.49707 18.792 8.66113C 18.9105 8.8252 19.0768 8.96875 19.291 9.0918C 19.5052 9.21484 19.7855 9.34701 20.1318 9.48828C 20.7972 9.75716 21.3441 10.083 21.7725 10.4658C 22.2008 10.8441 22.415 11.3317 22.415 11.9287C 22.415 12.3936 22.3034 12.79 22.0801 13.1182C 21.8613 13.4417 21.5446 13.6878 21.1299 13.8564C 20.7197 14.0251 20.2321 14.1094 19.667 14.1094C 19.1611 14.1094 18.6689 14.0524 18.1904 13.9385C 17.7165 13.8245 17.3815 13.6969 17.1855 13.5557L 17.4111 12.4346ZM 24.0967 12.4346C 24.1833 12.4938 24.3428 12.569 24.5752 12.6602C 24.8076 12.7467 25.0788 12.8242 25.3887 12.8926C 25.6986 12.9609 26.0062 12.9951 26.3115 12.9951C 26.7581 12.9951 27.0999 12.9108 27.3369 12.7422C 27.5785 12.5736 27.6992 12.3389 27.6992 12.0381C 27.6992 11.751 27.5625 11.5049 27.2891 11.2998C 27.0202 11.0947 26.6214 10.8805 26.0928 10.6572C 25.4046 10.3656 24.8691 10.0238 24.4863 9.63184C 24.1081 9.23991 23.9189 8.74544 23.9189 8.14844C 23.9189 7.70638 24.042 7.33268 24.2881 7.02734C 24.5387 6.71745 24.876 6.48503 25.2998 6.33008C 25.7236 6.17513 26.2021 6.09766 26.7354 6.09766C 27.1546 6.09766 27.5488 6.14323 27.918 6.23438C 28.2871 6.32552 28.5514 6.41439 28.7109 6.50098L 28.4648 7.63574C 28.3372 7.52637 28.1117 7.42839 27.7881 7.3418C 27.4645 7.25065 27.1296 7.20508 26.7832 7.20508C 26.3047 7.20508 25.9378 7.28255 25.6826 7.4375C 25.432 7.59245 25.3066 7.80436 25.3066 8.07324C 25.3066 8.30111 25.3636 8.49707 25.4775 8.66113C 25.596 8.8252 25.7624 8.96875 25.9766 9.0918C 26.1908 9.21484 26.471 9.34701 26.8174 9.48828C 27.4827 9.75716 28.0296 10.083 28.458 10.4658C 28.8864 10.8441 29.1006 11.3317 29.1006 11.9287C 29.1006 12.3936 28.9889 12.79 28.7656 13.1182C 28.5469 13.4417 28.2301 13.6878 27.8154 13.8564C 27.4053 14.0251 26.9176 14.1094 26.3525 14.1094C 25.8467 14.1094 25.3545 14.0524 24.876 13.9385C 24.402 13.8245 24.0671 13.6969 23.8711 13.5557L 24.0967 12.4346ZM 40.8037 6.20703L 38.4248 14.1094L 37.0371 14.1094L 35.6426 9.0166L 35.3896 7.77246L 35.1162 9.0166L 33.7422 14.1094L 32.3135 14.1094L 29.9346 6.20703L 31.4385 6.20703L 32.6963 10.8828L 33.0381 12.3457L 33.3525 10.8896L 34.6514 6.20703L 36.1484 6.20703L 37.4404 10.8828L 37.7754 12.373L 38.1172 10.9307L 39.334 6.20703L 40.8037 6.20703ZM 41.6035 10.0352C 41.6035 9.20117 41.7562 8.49023 42.0615 7.90234C 42.3669 7.3099 42.7884 6.861 43.3262 6.55566C 43.8639 6.25033 44.4746 6.09766 45.1582 6.09766C 45.9466 6.09766 46.596 6.27995 47.1064 6.64453C 47.6169 7.00911 47.9906 7.49674 48.2275 8.10742C 48.4645 8.7181 48.583 9.40625 48.583 10.1719C 48.583 11.0059 48.4303 11.7191 48.125 12.3115C 47.8197 12.904 47.3981 13.3529 46.8604 13.6582C 46.3226 13.959 45.7096 14.1094 45.0215 14.1094C 44.2376 14.1094 43.5905 13.9271 43.0801 13.5625C 42.5697 13.1979 42.196 12.7103 41.959 12.0996C 41.722 11.4889 41.6035 10.8008 41.6035 10.0352ZM 47.0586 10.1992C 47.0586 9.61589 46.9857 9.09863 46.8398 8.64746C 46.6986 8.19173 46.4798 7.83398 46.1836 7.57422C 45.8874 7.3099 45.516 7.17773 45.0693 7.17773C 44.4359 7.17773 43.9528 7.41927 43.6201 7.90234C 43.292 8.38086 43.1279 9.06673 43.1279 9.95996C 43.1279 10.5387 43.2008 11.0628 43.3467 11.5322C 43.4925 11.9971 43.7135 12.3662 44.0098 12.6396C 44.306 12.9085 44.6729 13.043 45.1104 13.043C 45.7438 13.043 46.2269 12.7946 46.5596 12.2979C 46.8923 11.8011 47.0586 11.1016 47.0586 10.1992ZM 53.8672 6.09082C 54.2318 6.09082 54.4847 6.12272 54.626 6.18652L 54.626 7.59473C 54.5303 7.54004 54.4049 7.49674 54.25 7.46484C 54.0996 7.42839 53.8831 7.41016 53.6006 7.41016C 53.2542 7.41016 52.9329 7.47396 52.6367 7.60156C 52.3451 7.72461 52.099 7.875 51.8984 8.05273L 51.8984 14L 50.3945 14L 50.3945 6.2207L 51.6592 6.2207L 51.7617 7.08203C 51.862 6.94531 52.0238 6.79948 52.2471 6.64453C 52.4749 6.48958 52.7324 6.3597 53.0195 6.25488C 53.3112 6.14551 53.5938 6.09082 53.8672 6.09082ZM 62.1729 2.625L 62.1729 14.1094L 61.5234 14.1094C 61.3457 14.1094 61.2021 14.0957 61.0928 14.0684C 60.988 14.041 60.9036 13.984 60.8398 13.8975C 60.7806 13.8109 60.751 13.681 60.751 13.5078L 60.751 13.2275C 60.5049 13.4782 60.2132 13.6878 59.876 13.8564C 59.5387 14.0251 59.1081 14.1094 58.584 14.1094C 58.0189 14.1094 57.5039 13.9727 57.0391 13.6992C 56.5788 13.4212 56.2096 13.0042 55.9316 12.4482C 55.6536 11.8877 55.5146 11.2018 55.5146 10.3906C 55.5146 9.55664 55.6764 8.8138 56 8.16211C 56.3236 7.51042 56.7793 7.00456 57.3672 6.64453C 57.9596 6.27995 58.6432 6.09766 59.418 6.09766C 59.8555 6.09766 60.2793 6.16146 60.6895 6.28906L 60.6689 5.87207L 60.6689 2.625L 62.1729 2.625ZM 57.0459 10.2607C 57.0459 11.1585 57.2122 11.8285 57.5449 12.2705C 57.8822 12.708 58.3675 12.9268 59.001 12.9268C 59.3337 12.9268 59.6413 12.8652 59.9238 12.7422C 60.2109 12.6146 60.4593 12.4665 60.6689 12.2979L 60.6689 7.5332C 60.5322 7.41471 60.3499 7.32812 60.1221 7.27344C 59.8942 7.21875 59.6094 7.19141 59.2676 7.19141C 58.8438 7.19141 58.4632 7.3099 58.126 7.54688C 57.7887 7.78385 57.5244 8.13477 57.333 8.59961C 57.1416 9.0599 57.0459 9.61361 57.0459 10.2607Z"/>
<path id="path10_fill" d="M 7.31445 3.5957L 7.31445 4.77148L 2.85059 4.77148L 2.85059 8.05273L 6.125 8.05273L 6.125 9.22852L 2.85059 9.22852L 2.85059 12.8037L 7.81348 12.8037L 7.81348 14L 1.32617 14L 1.32617 3.5957L 7.31445 3.5957ZM 18.4023 6.09082C 18.9447 6.09082 19.3776 6.1888 19.7012 6.38477C 20.0247 6.58073 20.2617 6.89974 20.4121 7.3418C 20.5671 7.7793 20.6445 8.37174 20.6445 9.11914L 20.6445 14L 19.1406 14L 19.1406 9.13965C 19.1406 8.68392 19.1042 8.32845 19.0312 8.07324C 18.9583 7.81348 18.8193 7.62435 18.6143 7.50586C 18.4092 7.38281 18.1107 7.3304 17.7188 7.34863C 17.4408 7.35775 17.1263 7.42611 16.7754 7.55371C 16.4245 7.67676 16.1032 7.84082 15.8115 8.0459C 15.8525 8.36035 15.873 8.7181 15.873 9.11914L 15.873 14L 14.3691 14L 14.3691 9.13965C 14.3691 8.68392 14.3304 8.32845 14.2529 8.07324C 14.18 7.81348 14.041 7.62435 13.8359 7.50586C 13.6309 7.38281 13.3346 7.3304 12.9473 7.34863C 12.6784 7.35775 12.3639 7.42611 12.0039 7.55371C 11.6484 7.67676 11.3249 7.84538 11.0332 8.05957L 11.0332 14L 9.5293 14L 9.5293 6.2207L 10.8691 6.2207L 10.876 7.04102C 11.2269 6.80404 11.6439 6.58984 12.127 6.39844C 12.6146 6.20703 13.0908 6.10449 13.5557 6.09082C 14.0706 6.07715 14.4876 6.14779 14.8066 6.30273C 15.1302 6.45312 15.3763 6.70605 15.5449 7.06152C 15.8913 6.80176 16.3288 6.57617 16.8574 6.38477C 17.3906 6.1888 17.9056 6.09082 18.4023 6.09082ZM 25.6621 6.09082C 26.2637 6.09082 26.765 6.15918 27.166 6.2959C 27.5671 6.43262 27.8792 6.68327 28.1025 7.04785C 28.3258 7.40788 28.4375 7.91602 28.4375 8.57227L 28.4375 14.1094L 27.8223 14.1094C 27.6172 14.1094 27.4622 14.0957 27.3574 14.0684C 27.2526 14.041 27.1706 13.9772 27.1113 13.877C 27.0521 13.7767 27.0225 13.6172 27.0225 13.3984L 27.0225 13.3438C 26.7946 13.5534 26.4801 13.7334 26.0791 13.8838C 25.6826 14.0342 25.2679 14.1094 24.835 14.1094C 24.3747 14.1094 23.9622 14.0205 23.5977 13.8428C 23.2376 13.665 22.9551 13.4121 22.75 13.084C 22.5495 12.7513 22.4492 12.3617 22.4492 11.915C 22.4492 11.4229 22.5814 10.9967 22.8457 10.6367C 23.1146 10.2767 23.4883 9.9987 23.9668 9.80273C 24.3906 9.63411 24.8691 9.50879 25.4023 9.42676C 25.9401 9.34017 26.4505 9.29688 26.9336 9.29688L 26.9336 8.51074C 26.9336 8.14616 26.8743 7.87272 26.7559 7.69043C 26.6419 7.50814 26.4688 7.38509 26.2363 7.32129C 26.0039 7.25749 25.6826 7.22559 25.2725 7.22559C 25.0537 7.22559 24.8008 7.25521 24.5137 7.31445C 24.2311 7.3737 23.9645 7.44889 23.7139 7.54004C 23.4678 7.62663 23.2855 7.71094 23.167 7.79297L 22.7979 6.80859C 22.9163 6.73568 23.1305 6.64225 23.4404 6.52832C 23.7549 6.41439 24.1104 6.31413 24.5068 6.22754C 24.9079 6.13639 25.293 6.09082 25.6621 6.09082ZM 25.2793 12.9883C 25.4935 12.9883 25.7191 12.9564 25.9561 12.8926C 26.193 12.8288 26.4004 12.7536 26.5781 12.667C 26.7604 12.5758 26.8789 12.4984 26.9336 12.4346L 26.9336 10.2539C 26.6009 10.2539 26.2249 10.2858 25.8057 10.3496C 25.391 10.4134 25.056 10.5068 24.8008 10.6299C 24.5228 10.762 24.3086 10.917 24.1582 11.0947C 24.0078 11.2725 23.9326 11.5026 23.9326 11.7852C 23.9326 12.5872 24.3815 12.9883 25.2793 12.9883ZM 32.3682 6.2207L 32.3682 14L 30.8643 14L 30.8643 6.2207L 32.3682 6.2207ZM 30.5771 3.86914C 30.5771 3.67773 30.6296 3.5 30.7344 3.33594C 30.8438 3.17188 30.985 3.04199 31.1582 2.94629C 31.3314 2.85059 31.5068 2.80273 31.6846 2.80273C 31.9945 2.80273 32.2314 2.88932 32.3955 3.0625C 32.5641 3.23568 32.6484 3.45671 32.6484 3.72559C 32.6484 3.92611 32.596 4.1084 32.4912 4.27246C 32.3864 4.43652 32.2497 4.56413 32.0811 4.65527C 31.9124 4.74642 31.7324 4.79199 31.541 4.79199C 31.3678 4.79199 31.2083 4.75553 31.0625 4.68262C 30.9167 4.60514 30.7982 4.49577 30.707 4.35449C 30.6204 4.21322 30.5771 4.05143 30.5771 3.86914ZM 36.5381 2.625L 36.5381 14L 35.0342 14L 35.0342 2.625L 36.5381 2.625Z"/>
<path id="path11_fill" d="M 0 0L 262 0L 262 50L 0 50L 0 0Z"/>
<path id="path12_fill" d="M 9.812 1.842C 10.6333 1.81267 11.2787 1.98133 11.748 2.348C 12.232 2.7 12.474 3.19133 12.474 3.822C 12.474 4.07133 12.4447 4.306 12.386 4.526C 10.45 6.75533 8.27933 8.53 5.874 9.85C 6.69533 10.642 7.62667 11.3753 8.668 12.05C 9.724 12.7247 10.736 13.2527 11.704 13.634C 11.748 13.8687 11.77 14.1033 11.77 14.338C 11.77 15.0273 11.5647 15.6213 11.154 16.12C 10.758 16.604 10.186 16.8973 9.438 17C 8.36733 16.3693 7.45067 15.6433 6.688 14.822C 5.92533 13.986 5.148 12.9447 4.356 11.698C 4.224 13.5753 4.092 14.932 3.96 15.768C 3.828 16.5893 3.61533 17 3.322 17C 2.98467 17 2.58133 16.8827 2.112 16.648C 1.65733 16.3987 1.254 16.1053 0.902 15.768C 0.564667 15.4307 0.396 15.152 0.396 14.932C 0.381333 14.6973 0.447333 14.206 0.594 13.458C 0.755333 12.6953 0.858 12.204 0.902 11.984C 0.960667 11.6907 1.07067 11.1553 1.232 10.378C 1.39333 9.586 1.52533 8.85267 1.628 8.178L 1.804 7.144C 2.08267 5.50133 2.33933 4.16667 2.574 3.14C 2.82333 2.11333 3.07267 1.6 3.322 1.6C 3.60067 1.6 3.97467 1.72467 4.444 1.974C 4.928 2.22333 5.346 2.51667 5.698 2.854C 6.06467 3.19133 6.248 3.48467 6.248 3.734C 6.248 3.89533 6.116 4.40133 5.852 5.252C 5.588 6.10267 5.33867 6.836 5.104 7.452C 5.984 6.704 6.76133 5.90467 7.436 5.054C 8.12533 4.20333 8.91733 3.13267 9.812 1.842ZM 17.8893 4.57C 18.9306 4.68733 19.8766 5.00267 20.7273 5.516C 21.5926 6.01467 22.2673 6.616 22.7513 7.32C 23.2353 8.024 23.4773 8.728 23.4773 9.432C 23.4773 10.488 23.2059 11.61 22.6633 12.798C 22.1206 13.986 21.3653 14.9833 20.3973 15.79C 19.4293 16.5967 18.3513 17 17.1633 17C 16.5766 17 15.9533 16.7873 15.2933 16.362C 14.6333 15.922 14.0759 15.394 13.6213 14.778C 13.1813 14.1473 12.9613 13.59 12.9613 13.106C 12.9613 12.2113 13.0713 11.2947 13.2913 10.356C 13.5113 9.40267 13.8486 8.47867 14.3033 7.584C 14.7286 7.34933 15.1539 7.232 15.5793 7.232C 15.7699 7.232 15.9459 7.254 16.1073 7.298C 16.0486 7.122 16.0193 6.91667 16.0193 6.682C 16.0193 6.21267 16.1806 5.78733 16.5033 5.406C 16.8406 5.02467 17.3026 4.746 17.8893 4.57ZM 16.3713 14.492C 17.5886 14.0813 18.5346 13.3773 19.2093 12.38C 19.8839 11.3827 20.3313 10.1947 20.5513 8.816C 19.8913 8.34667 18.9966 8.112 17.8673 8.112C 17.5886 8.112 17.3759 8.11933 17.2293 8.134C 17.3906 8.42733 17.4713 8.75733 17.4713 9.124C 17.0899 9.72533 16.7966 10.3927 16.5913 11.126C 16.3859 11.8447 16.2833 12.5707 16.2833 13.304C 16.2833 13.744 16.3126 14.14 16.3713 14.492ZM 37.0379 12.358C 37.6832 12.578 38.1599 12.886 38.4679 13.282C 38.7905 13.6633 38.9519 14.1033 38.9519 14.602C 38.9519 14.954 38.7025 15.3207 38.2039 15.702C 37.7052 16.0687 37.1112 16.3767 36.4219 16.626C 35.7325 16.8753 35.1459 17 34.6619 17C 34.3245 17 33.9359 16.8753 33.4959 16.626C 33.0705 16.3767 32.6965 16.0833 32.3739 15.746C 32.0659 15.4087 31.9119 15.1447 31.9119 14.954C 31.9119 14.8073 31.9705 14.6093 32.0879 14.36C 32.2199 14.1107 32.3592 13.854 32.5059 13.59C 32.6525 13.326 32.7479 13.15 32.7919 13.062L 32.2419 12.754C 31.4645 14.0153 30.7239 15.042 30.0199 15.834C 29.3305 16.6113 28.6705 17 28.0399 17C 27.5705 17 27.0645 16.7947 26.5219 16.384C 25.9792 15.9587 25.5172 15.46 25.1359 14.888C 24.7545 14.3013 24.5639 13.7807 24.5639 13.326C 24.5639 11.962 24.8499 10.6053 25.4219 9.256C 25.9939 7.892 26.7492 6.77733 27.6879 5.912C 28.6412 5.032 29.6459 4.592 30.7019 4.592C 31.1272 4.592 31.5599 4.702 31.9999 4.922C 32.4545 5.142 32.8799 5.44267 33.2759 5.824C 33.4079 4.40133 33.4739 2.81 33.4739 1.05C 33.4739 0.742 33.5692 0.485333 33.7599 0.28C 33.9652 0.0600004 34.2072 -0.0499995 34.4859 -0.0499995C 34.8965 -0.0499995 35.3512 0.0966671 35.8499 0.39C 36.3632 0.683333 36.7959 1.03533 37.1479 1.446C 37.4999 1.842 37.6759 2.16467 37.6759 2.414C 37.6759 2.75133 37.6025 3.184 37.4559 3.712C 37.3092 4.22533 37.0452 5.06133 36.6639 6.22C 36.1359 7.78933 35.8059 8.86733 35.6739 9.454C 35.2779 11.0527 34.9772 12.49 34.7719 13.766C 35.6665 13.326 36.4219 12.8567 37.0379 12.358ZM 28.0179 13.942C 29.0152 13.194 29.9245 12.3947 30.7459 11.544C 31.5672 10.6787 32.2565 9.68133 32.8139 8.552L 33.0119 7.694C 32.5572 7.48867 32.1539 7.386 31.8019 7.386C 31.1125 7.386 30.4965 7.694 29.9539 8.31C 29.4112 8.926 28.9785 9.73267 28.6559 10.73C 28.3332 11.7273 28.1205 12.798 28.0179 13.942ZM 44.5222 3.954C 44.2435 3.954 43.9062 3.844 43.5102 3.624C 43.1288 3.38933 42.7988 3.118 42.5202 2.81C 42.2415 2.48733 42.1022 2.20133 42.1022 1.952C 42.1022 1.556 42.2048 1.16 42.4102 0.764001C 42.6155 0.368 42.8722 0.0820001 43.1802 -0.0940002C 43.3268 -0.167333 43.5615 -0.204 43.8842 -0.204C 44.4122 -0.204 44.9402 -0.0866661 45.4682 0.148001C 46.0108 0.382667 46.3408 0.676 46.4582 1.028C 46.4875 1.10133 46.5022 1.21133 46.5022 1.358C 46.5022 1.69533 46.3995 2.06933 46.1942 2.48C 45.9888 2.89067 45.7322 3.24267 45.4242 3.536C 45.1162 3.81467 44.8155 3.954 44.5222 3.954ZM 43.0262 17C 42.6448 17 42.2122 16.8753 41.7282 16.626C 41.2588 16.362 40.8482 16.0613 40.4962 15.724C 40.1588 15.372 39.9902 15.0787 39.9902 14.844C 39.9902 14.58 40.0855 14.1913 40.2762 13.678C 40.4668 13.1647 40.7528 12.4607 41.1342 11.566C 41.4275 10.8767 41.6475 10.3413 41.7942 9.96C 41.9408 9.564 42.0142 9.28533 42.0142 9.124C 42.0142 9.00667 41.9408 8.882 41.7942 8.75C 41.6622 8.60333 41.4568 8.42733 41.1782 8.222C 40.8555 7.97267 40.6135 7.77467 40.4522 7.628C 40.3055 7.48133 40.2322 7.32733 40.2322 7.166C 40.2322 6.858 40.3715 6.49867 40.6502 6.088C 40.9435 5.67733 41.2808 5.32533 41.6622 5.032C 42.0582 4.73867 42.3955 4.592 42.6742 4.592C 43.0115 4.592 43.3782 4.73867 43.7742 5.032C 44.1848 5.32533 44.5295 5.67733 44.8082 6.088C 45.1015 6.484 45.2482 6.80667 45.2482 7.056C 45.2482 7.70133 45.0795 8.62533 44.7422 9.828C 44.4195 11.016 44.0015 12.2993 43.4882 13.678C 43.8402 13.5167 44.1482 13.348 44.4122 13.172C 44.6762 12.996 45.0428 12.7247 45.5122 12.358C 46.1722 12.578 46.6562 12.8933 46.9642 13.304C 47.2722 13.7 47.4262 14.1327 47.4262 14.602C 47.4262 14.9833 47.1768 15.3573 46.6782 15.724C 46.1942 16.0907 45.6002 16.3987 44.8962 16.648C 44.1922 16.8827 43.5688 17 43.0262 17ZM 60.027 12.358C 60.6723 12.578 61.149 12.886 61.457 13.282C 61.7797 13.6633 61.941 14.1033 61.941 14.602C 61.941 14.954 61.6917 15.3207 61.193 15.702C 60.6943 16.0687 60.1003 16.3767 59.411 16.626C 58.7217 16.8753 58.135 17 57.651 17C 57.3137 17 56.925 16.868 56.485 16.604C 56.045 16.34 55.6637 16.0393 55.341 15.702C 55.033 15.35 54.879 15.0787 54.879 14.888C 54.879 14.7413 55.0403 14.1693 55.363 13.172C 55.935 11.4267 56.221 10.3267 56.221 9.872C 56.221 9.696 56.177 9.608 56.089 9.608C 55.5023 9.608 54.4097 10.6347 52.811 12.688C 52.7523 12.9227 52.6863 13.216 52.613 13.568C 52.5543 13.92 52.5103 14.1693 52.481 14.316C 52.3197 15.1813 52.1657 15.8487 52.019 16.318C 51.887 16.7727 51.711 17 51.491 17C 51.1097 17 50.677 16.8753 50.193 16.626C 49.7237 16.362 49.313 16.0613 48.961 15.724C 48.6237 15.372 48.455 15.0787 48.455 14.844C 48.455 14.58 48.5503 14.1913 48.741 13.678C 48.9317 13.1647 49.2177 12.4607 49.599 11.566C 49.8923 10.8767 50.1123 10.3413 50.259 9.96C 50.4057 9.564 50.479 9.28533 50.479 9.124C 50.479 9.00667 50.4057 8.882 50.259 8.75C 50.127 8.60333 49.9217 8.42733 49.643 8.222C 49.3203 7.97267 49.0783 7.77467 48.917 7.628C 48.7703 7.48133 48.697 7.32733 48.697 7.166C 48.697 6.858 48.8363 6.49867 49.115 6.088C 49.4083 5.67733 49.7457 5.32533 50.127 5.032C 50.523 4.73867 50.8603 4.592 51.139 4.592C 51.447 4.592 51.799 4.73133 52.195 5.01C 52.6057 5.28867 52.9577 5.61133 53.251 5.978C 53.559 6.33 53.713 6.60133 53.713 6.792C 53.713 7.144 53.669 7.57667 53.581 8.09C 53.5077 8.60333 53.405 9.10933 53.273 9.608C 54.3437 8.2 55.231 7.11467 55.935 6.352C 56.639 5.57467 57.189 5.186 57.585 5.186C 57.8637 5.186 58.201 5.32533 58.597 5.604C 58.993 5.88267 59.3303 6.20533 59.609 6.572C 59.9023 6.924 60.049 7.19533 60.049 7.386C 60.0343 7.63533 59.9317 8.06067 59.741 8.662C 59.5503 9.26333 59.279 10.0627 58.927 11.06C 58.4577 12.3507 58.157 13.2233 58.025 13.678C 58.4797 13.4433 58.8317 13.2453 59.081 13.084C 59.345 12.908 59.6603 12.666 60.027 12.358ZM 70.3704 13.524C 69.4758 14.228 68.5738 14.8367 67.6644 15.35C 66.7698 15.8633 66.0291 16.12 65.4424 16.12C 65.1051 16.12 64.7311 15.9953 64.3204 15.746C 63.9244 15.482 63.5871 15.1667 63.3084 14.8C 63.0298 14.4187 62.8904 14.0667 62.8904 13.744C 62.8904 12.5267 63.1324 11.1993 63.6164 9.762C 64.1151 8.31 64.7824 7.08533 65.6184 6.088C 66.4691 5.09067 67.4004 4.592 68.4124 4.592C 68.8084 4.592 69.1971 4.77533 69.5784 5.142C 69.9598 5.494 70.2604 5.89 70.4804 6.33C 70.5391 5.978 70.6344 5.69933 70.7664 5.494C 70.9131 5.28867 71.0598 5.186 71.2064 5.186C 71.4264 5.186 71.7638 5.33267 72.2184 5.626C 72.6731 5.90467 73.0838 6.22 73.4504 6.572C 73.8171 6.924 74.0004 7.188 74.0004 7.364C 74.0004 7.92133 73.7804 9.41 73.3404 11.83C 72.9151 14.25 72.4458 16.604 71.9324 18.892C 71.4338 21.18 71.0744 22.5073 70.8544 22.874C 70.5171 23.402 69.9891 23.864 69.2704 24.26C 68.5664 24.656 67.8771 24.854 67.2024 24.854C 66.5718 24.854 65.9338 24.6633 65.2884 24.282C 64.6431 23.9007 64.1151 23.4313 63.7044 22.874C 63.2938 22.3167 63.0884 21.8107 63.0884 21.356C 63.0884 20.828 63.3964 20.212 64.0124 19.508C 64.6431 18.804 65.4058 18.1 66.3004 17.396C 67.1951 16.7067 68.3391 15.8707 69.7324 14.888C 69.9818 14.6973 70.3558 14.426 70.8544 14.074L 70.3704 13.524ZM 69.1824 7.386C 68.6691 7.386 68.1851 7.716 67.7304 8.376C 67.2904 9.02133 66.9164 9.83533 66.6084 10.818C 66.3004 11.786 66.0951 12.7393 65.9924 13.678C 67.3711 13.106 68.4711 12.3067 69.2924 11.28C 70.1138 10.2533 70.5611 9.19733 70.6344 8.112C 70.4584 7.92133 70.2311 7.75267 69.9524 7.606C 69.6884 7.45933 69.4318 7.386 69.1824 7.386ZM 70.1064 17.066C 67.6131 19.0167 66.3664 20.41 66.3664 21.246C 66.3664 21.5393 66.4911 21.7887 66.7404 21.994C 67.0044 22.214 67.3344 22.39 67.7304 22.522C 68.1704 22.0087 68.5738 21.312 68.9404 20.432C 69.3071 19.552 69.6958 18.43 70.1064 17.066ZM 90.4858 1.842C 91.3072 1.81267 91.9525 1.98133 92.4218 2.348C 92.9058 2.7 93.1478 3.19133 93.1478 3.822C 93.1478 4.07133 93.1185 4.306 93.0598 4.526C 91.1238 6.75533 88.9532 8.53 86.5478 9.85C 87.3692 10.642 88.3005 11.3753 89.3418 12.05C 90.3978 12.7247 91.4098 13.2527 92.3778 13.634C 92.4218 13.8687 92.4438 14.1033 92.4438 14.338C 92.4438 15.0273 92.2385 15.6213 91.8278 16.12C 91.4318 16.604 90.8598 16.8973 90.1118 17C 89.0412 16.3693 88.1245 15.6433 87.3618 14.822C 86.5992 13.986 85.8218 12.9447 85.0298 11.698C 84.8978 13.5753 84.7658 14.932 84.6338 15.768C 84.5018 16.5893 84.2892 17 83.9958 17C 83.6585 17 83.2552 16.8827 82.7858 16.648C 82.3312 16.3987 81.9278 16.1053 81.5758 15.768C 81.2385 15.4307 81.0698 15.152 81.0698 14.932C 81.0552 14.6973 81.1212 14.206 81.2678 13.458C 81.4292 12.6953 81.5318 12.204 81.5758 11.984C 81.6345 11.6907 81.7445 11.1553 81.9058 10.378C 82.0672 9.586 82.1992 8.85267 82.3018 8.178L 82.4778 7.144C 82.7565 5.50133 83.0132 4.16667 83.2478 3.14C 83.4972 2.11333 83.7465 1.6 83.9958 1.6C 84.2745 1.6 84.6485 1.72467 85.1178 1.974C 85.6018 2.22333 86.0198 2.51667 86.3718 2.854C 86.7385 3.19133 86.9218 3.48467 86.9218 3.734C 86.9218 3.89533 86.7898 4.40133 86.5258 5.252C 86.2618 6.10267 86.0125 6.836 85.7778 7.452C 86.6578 6.704 87.4352 5.90467 88.1098 5.054C 88.7992 4.20333 89.5912 3.13267 90.4858 1.842ZM 98.2331 3.954C 97.9544 3.954 97.6171 3.844 97.2211 3.624C 96.8398 3.38933 96.5098 3.118 96.2311 2.81C 95.9524 2.48733 95.8131 2.20133 95.8131 1.952C 95.8131 1.556 95.9158 1.16 96.1211 0.764001C 96.3264 0.368 96.5831 0.0820001 96.8911 -0.0940002C 97.0378 -0.167333 97.2724 -0.204 97.5951 -0.204C 98.1231 -0.204 98.6511 -0.0866661 99.1791 0.148001C 99.7218 0.382667 100.052 0.676 100.169 1.028C 100.198 1.10133 100.213 1.21133 100.213 1.358C 100.213 1.69533 100.11 2.06933 99.9051 2.48C 99.6998 2.89067 99.4431 3.24267 99.1351 3.536C 98.8271 3.81467 98.5264 3.954 98.2331 3.954ZM 96.7371 17C 96.3558 17 95.9231 16.8753 95.4391 16.626C 94.9698 16.362 94.5591 16.0613 94.2071 15.724C 93.8698 15.372 93.7011 15.0787 93.7011 14.844C 93.7011 14.58 93.7964 14.1913 93.9871 13.678C 94.1778 13.1647 94.4638 12.4607 94.8451 11.566C 95.1384 10.8767 95.3584 10.3413 95.5051 9.96C 95.6518 9.564 95.7251 9.28533 95.7251 9.124C 95.7251 9.00667 95.6518 8.882 95.5051 8.75C 95.3731 8.60333 95.1678 8.42733 94.8891 8.222C 94.5664 7.97267 94.3244 7.77467 94.1631 7.628C 94.0164 7.48133 93.9431 7.32733 93.9431 7.166C 93.9431 6.858 94.0824 6.49867 94.3611 6.088C 94.6544 5.67733 94.9918 5.32533 95.3731 5.032C 95.7691 4.73867 96.1064 4.592 96.3851 4.592C 96.7224 4.592 97.0891 4.73867 97.4851 5.032C 97.8958 5.32533 98.2404 5.67733 98.5191 6.088C 98.8124 6.484 98.9591 6.80667 98.9591 7.056C 98.9591 7.70133 98.7904 8.62533 98.4531 9.828C 98.1304 11.016 97.7124 12.2993 97.1991 13.678C 97.5511 13.5167 97.8591 13.348 98.1231 13.172C 98.3871 12.996 98.7538 12.7247 99.2231 12.358C 99.8831 12.578 100.367 12.8933 100.675 13.304C 100.983 13.7 101.137 14.1327 101.137 14.602C 101.137 14.9833 100.888 15.3573 100.389 15.724C 99.9051 16.0907 99.3111 16.3987 98.6071 16.648C 97.9031 16.8827 97.2798 17 96.7371 17ZM 113.738 12.358C 114.383 12.578 114.86 12.886 115.168 13.282C 115.491 13.6633 115.652 14.1033 115.652 14.602C 115.652 14.954 115.403 15.3207 114.904 15.702C 114.405 16.0687 113.811 16.3767 113.122 16.626C 112.433 16.8753 111.846 17 111.362 17C 111.025 17 110.636 16.868 110.196 16.604C 109.756 16.34 109.375 16.0393 109.052 15.702C 108.744 15.35 108.59 15.0787 108.59 14.888C 108.59 14.7413 108.751 14.1693 109.074 13.172C 109.646 11.4267 109.932 10.3267 109.932 9.872C 109.932 9.696 109.888 9.608 109.8 9.608C 109.213 9.608 108.121 10.6347 106.522 12.688C 106.463 12.9227 106.397 13.216 106.324 13.568C 106.265 13.92 106.221 14.1693 106.192 14.316C 106.031 15.1813 105.877 15.8487 105.73 16.318C 105.598 16.7727 105.422 17 105.202 17C 104.821 17 104.388 16.8753 103.904 16.626C 103.435 16.362 103.024 16.0613 102.672 15.724C 102.335 15.372 102.166 15.0787 102.166 14.844C 102.166 14.58 102.261 14.1913 102.452 13.678C 102.643 13.1647 102.929 12.4607 103.31 11.566C 103.603 10.8767 103.823 10.3413 103.97 9.96C 104.117 9.564 104.19 9.28533 104.19 9.124C 104.19 9.00667 104.117 8.882 103.97 8.75C 103.838 8.60333 103.633 8.42733 103.354 8.222C 103.031 7.97267 102.789 7.77467 102.628 7.628C 102.481 7.48133 102.408 7.32733 102.408 7.166C 102.408 6.858 102.547 6.49867 102.826 6.088C 103.119 5.67733 103.457 5.32533 103.838 5.032C 104.234 4.73867 104.571 4.592 104.85 4.592C 105.158 4.592 105.51 4.73133 105.906 5.01C 106.317 5.28867 106.669 5.61133 106.962 5.978C 107.27 6.33 107.424 6.60133 107.424 6.792C 107.424 7.144 107.38 7.57667 107.292 8.09C 107.219 8.60333 107.116 9.10933 106.984 9.608C 108.055 8.2 108.942 7.11467 109.646 6.352C 110.35 5.57467 110.9 5.186 111.296 5.186C 111.575 5.186 111.912 5.32533 112.308 5.604C 112.704 5.88267 113.041 6.20533 113.32 6.572C 113.613 6.924 113.76 7.19533 113.76 7.386C 113.745 7.63533 113.643 8.06067 113.452 8.662C 113.261 9.26333 112.99 10.0627 112.638 11.06C 112.169 12.3507 111.868 13.2233 111.736 13.678C 112.191 13.4433 112.543 13.2453 112.792 13.084C 113.056 12.908 113.371 12.666 113.738 12.358ZM 124.081 13.524C 123.187 14.228 122.285 14.8367 121.375 15.35C 120.481 15.8633 119.74 16.12 119.153 16.12C 118.816 16.12 118.442 15.9953 118.031 15.746C 117.635 15.482 117.298 15.1667 117.019 14.8C 116.741 14.4187 116.601 14.0667 116.601 13.744C 116.601 12.5267 116.843 11.1993 117.327 9.762C 117.826 8.31 118.493 7.08533 119.329 6.088C 120.18 5.09067 121.111 4.592 122.123 4.592C 122.519 4.592 122.908 4.77533 123.289 5.142C 123.671 5.494 123.971 5.89 124.191 6.33C 124.25 5.978 124.345 5.69933 124.477 5.494C 124.624 5.28867 124.771 5.186 124.917 5.186C 125.137 5.186 125.475 5.33267 125.929 5.626C 126.384 5.90467 126.795 6.22 127.161 6.572C 127.528 6.924 127.711 7.188 127.711 7.364C 127.711 7.92133 127.491 9.41 127.051 11.83C 126.626 14.25 126.157 16.604 125.643 18.892C 125.145 21.18 124.785 22.5073 124.565 22.874C 124.228 23.402 123.7 23.864 122.981 24.26C 122.277 24.656 121.588 24.854 120.913 24.854C 120.283 24.854 119.645 24.6633 118.999 24.282C 118.354 23.9007 117.826 23.4313 117.415 22.874C 117.005 22.3167 116.799 21.8107 116.799 21.356C 116.799 20.828 117.107 20.212 117.723 19.508C 118.354 18.804 119.117 18.1 120.011 17.396C 120.906 16.7067 122.05 15.8707 123.443 14.888C 123.693 14.6973 124.067 14.426 124.565 14.074L 124.081 13.524ZM 122.893 7.386C 122.38 7.386 121.896 7.716 121.441 8.376C 121.001 9.02133 120.627 9.83533 120.319 10.818C 120.011 11.786 119.806 12.7393 119.703 13.678C 121.082 13.106 122.182 12.3067 123.003 11.28C 123.825 10.2533 124.272 9.19733 124.345 8.112C 124.169 7.92133 123.942 7.75267 123.663 7.606C 123.399 7.45933 123.143 7.386 122.893 7.386ZM 123.817 17.066C 121.324 19.0167 120.077 20.41 120.077 21.246C 120.077 21.5393 120.202 21.7887 120.451 21.994C 120.715 22.214 121.045 22.39 121.441 22.522C 121.881 22.0087 122.285 21.312 122.651 20.432C 123.018 19.552 123.407 18.43 123.817 17.066ZM 141.173 12.358C 141.818 12.578 142.295 12.886 142.603 13.282C 142.925 13.6633 143.087 14.1033 143.087 14.602C 143.087 14.954 142.837 15.3207 142.339 15.702C 141.84 16.0687 141.246 16.3767 140.557 16.626C 139.867 16.8753 139.281 17 138.797 17C 138.459 17 138.071 16.8753 137.631 16.626C 137.205 16.3767 136.831 16.0833 136.509 15.746C 136.201 15.4087 136.047 15.1447 136.047 14.954C 136.047 14.8073 136.105 14.6093 136.223 14.36C 136.355 14.1107 136.494 13.854 136.641 13.59C 136.787 13.326 136.883 13.15 136.927 13.062L 136.377 12.754C 135.599 14.0153 134.859 15.042 134.155 15.834C 133.465 16.6113 132.805 17 132.175 17C 131.705 17 131.199 16.7947 130.657 16.384C 130.114 15.9587 129.652 15.46 129.271 14.888C 128.889 14.3013 128.699 13.7807 128.699 13.326C 128.699 11.962 128.985 10.6053 129.557 9.256C 130.129 7.892 130.884 6.77733 131.823 5.912C 132.776 5.032 133.781 4.592 134.837 4.592C 135.262 4.592 135.695 4.702 136.135 4.922C 136.589 5.142 137.015 5.44267 137.411 5.824C 137.543 4.40133 137.609 2.81 137.609 1.05C 137.609 0.742 137.704 0.485333 137.895 0.28C 138.1 0.0600004 138.342 -0.0499995 138.621 -0.0499995C 139.031 -0.0499995 139.486 0.0966671 139.985 0.39C 140.498 0.683333 140.931 1.03533 141.283 1.446C 141.635 1.842 141.811 2.16467 141.811 2.414C 141.811 2.75133 141.737 3.184 141.591 3.712C 141.444 4.22533 141.18 5.06133 140.799 6.22C 140.271 7.78933 139.941 8.86733 139.809 9.454C 139.413 11.0527 139.112 12.49 138.907 13.766C 139.801 13.326 140.557 12.8567 141.173 12.358ZM 132.153 13.942C 133.15 13.194 134.059 12.3947 134.881 11.544C 135.702 10.6787 136.391 9.68133 136.949 8.552L 137.147 7.694C 136.692 7.48867 136.289 7.386 135.937 7.386C 135.247 7.386 134.631 7.694 134.089 8.31C 133.546 8.926 133.113 9.73267 132.791 10.73C 132.468 11.7273 132.255 12.798 132.153 13.942ZM 148.987 4.57C 150.028 4.68733 150.974 5.00267 151.825 5.516C 152.69 6.01467 153.365 6.616 153.849 7.32C 154.333 8.024 154.575 8.728 154.575 9.432C 154.575 10.488 154.304 11.61 153.761 12.798C 153.218 13.986 152.463 14.9833 151.495 15.79C 150.527 16.5967 149.449 17 148.261 17C 147.674 17 147.051 16.7873 146.391 16.362C 145.731 15.922 145.174 15.394 144.719 14.778C 144.279 14.1473 144.059 13.59 144.059 13.106C 144.059 12.2113 144.169 11.2947 144.389 10.356C 144.609 9.40267 144.946 8.47867 145.401 7.584C 145.826 7.34933 146.252 7.232 146.677 7.232C 146.868 7.232 147.044 7.254 147.205 7.298C 147.146 7.122 147.117 6.91667 147.117 6.682C 147.117 6.21267 147.278 5.78733 147.601 5.406C 147.938 5.02467 148.4 4.746 148.987 4.57ZM 147.469 14.492C 148.686 14.0813 149.632 13.3773 150.307 12.38C 150.982 11.3827 151.429 10.1947 151.649 8.816C 150.989 8.34667 150.094 8.112 148.965 8.112C 148.686 8.112 148.474 8.11933 148.327 8.134C 148.488 8.42733 148.569 8.75733 148.569 9.124C 148.188 9.72533 147.894 10.3927 147.689 11.126C 147.484 11.8447 147.381 12.5707 147.381 13.304C 147.381 13.744 147.41 14.14 147.469 14.492ZM 160.179 9.608C 161.338 8.08267 162.233 6.968 162.863 6.264C 163.494 5.54533 164.007 5.186 164.403 5.186C 164.682 5.186 165.005 5.30333 165.371 5.538C 165.753 5.77267 166.075 6.044 166.339 6.352C 166.618 6.64533 166.75 6.88 166.735 7.056C 166.721 7.42267 166.669 7.81867 166.581 8.244C 166.493 8.66933 166.369 9.19 166.207 9.806C 167.425 8.25133 168.378 7.09267 169.067 6.33C 169.771 5.56733 170.321 5.186 170.717 5.186C 170.996 5.186 171.333 5.32533 171.729 5.604C 172.125 5.88267 172.463 6.20533 172.741 6.572C 173.035 6.924 173.181 7.19533 173.181 7.386C 173.167 7.63533 173.064 8.06067 172.873 8.662C 172.683 9.26333 172.411 10.0627 172.059 11.06C 171.59 12.3507 171.289 13.2233 171.157 13.678C 171.627 13.4287 171.986 13.2233 172.235 13.062C 172.499 12.886 172.807 12.6513 173.159 12.358C 173.805 12.578 174.289 12.886 174.611 13.282C 174.934 13.6633 175.095 14.1033 175.095 14.602C 175.095 14.954 174.839 15.3207 174.325 15.702C 173.827 16.0687 173.233 16.3767 172.543 16.626C 171.854 16.8753 171.267 17 170.783 17C 170.461 17 170.079 16.868 169.639 16.604C 169.199 16.34 168.818 16.0393 168.495 15.702C 168.173 15.35 168.011 15.0787 168.011 14.888C 168.011 14.7707 168.085 14.492 168.231 14.052C 168.378 13.5973 168.473 13.2893 168.517 13.128C 168.796 12.248 169.001 11.5513 169.133 11.038C 169.28 10.51 169.353 10.1213 169.353 9.872C 169.353 9.696 169.317 9.608 169.243 9.608C 168.627 9.608 167.535 10.6347 165.965 12.688C 165.848 13.1133 165.738 13.6487 165.635 14.294C 165.459 15.2327 165.305 15.922 165.173 16.362C 165.041 16.7873 164.865 17 164.645 17C 164.337 17 163.956 16.868 163.501 16.604C 163.047 16.34 162.651 16.0393 162.313 15.702C 161.976 15.35 161.807 15.064 161.807 14.844C 161.807 14.6973 161.969 14.1253 162.291 13.128C 162.555 12.292 162.761 11.61 162.907 11.082C 163.054 10.5393 163.127 10.136 163.127 9.872C 163.127 9.696 163.083 9.608 162.995 9.608C 162.409 9.608 161.316 10.6347 159.717 12.688C 159.659 12.9227 159.593 13.216 159.519 13.568C 159.461 13.92 159.417 14.1693 159.387 14.316C 159.226 15.1813 159.072 15.8487 158.925 16.318C 158.793 16.7727 158.617 17 158.397 17C 158.016 17 157.583 16.8753 157.099 16.626C 156.63 16.362 156.219 16.0613 155.867 15.724C 155.53 15.372 155.361 15.0787 155.361 14.844C 155.361 14.58 155.457 14.1913 155.647 13.678C 155.838 13.1647 156.124 12.4607 156.505 11.566C 156.799 10.8767 157.019 10.3413 157.165 9.96C 157.312 9.564 157.385 9.28533 157.385 9.124C 157.385 9.00667 157.312 8.882 157.165 8.75C 157.033 8.60333 156.828 8.42733 156.549 8.222C 156.227 7.97267 155.985 7.77467 155.823 7.628C 155.677 7.48133 155.603 7.32733 155.603 7.166C 155.603 6.858 155.743 6.49867 156.021 6.088C 156.315 5.67733 156.652 5.32533 157.033 5.032C 157.429 4.73867 157.767 4.592 158.045 4.592C 158.353 4.592 158.705 4.73133 159.101 5.01C 159.512 5.28867 159.864 5.61133 160.157 5.978C 160.465 6.33 160.619 6.60133 160.619 6.792C 160.619 7.144 160.575 7.57667 160.487 8.09C 160.414 8.60333 160.311 9.10933 160.179 9.608Z"/>
<path id="path13_fill" d="M 12.6587 2.40875L 10.25 0L 0 10.25L 10.25 20.5L 12.6587 18.0912L 4.83458 10.25L 12.6587 2.40875Z"/>
<path id="path14_fill" d="M 0 0L 40 0L 40 40L 0 40L 0 0Z"/>
</defs>
</svg>
