<svg width="568" height="320" viewBox="0 0 568 320" version="1.1" xmlns="http://www.w3.org/2000/svg" xmlns:xlink="http://www.w3.org/1999/xlink">
<title>pedometer proto</title>
<desc>Created using Figma</desc>
<g id="Canvas" transform="translate(-479 -946)">
<rect x="479" y="946" width="568" height="320" fill="#E5E5E5"/>
<clipPath id="clip-0" clip-rule="evenodd">
<path d="M 479 946L 1047 946L 1047 1266L 479 1266L 479 946Z" fill="#FFFFFF"/>
</clipPath>
<g id="pedometer proto" clip-path="url(#clip-0)">
<path d="M 479 946L 1047 946L 1047 1266L 479 1266L 479 946Z" fill="#FFFFFF"/>
<g id="Rectangle">
<use xlink:href="#path0_fill" transform="matrix(2.00361e-16 -1 1 2.00361e-16 479 1266)" fill="url(#paint0_linear)"/>
</g>
<g id="back /action=nav">
<g id="click-area-hint">
<use xlink:href="#path1_fill" transform="translate(491 959)" fill="url(#paint1_linear)"/>
</g>
<g id="Vector" filter="url(#filter0_d)">
<use xlink:href="#path2_fill" transform="translate(503 966)" fill="#FFFFFF" fill-opacity="0.9"/>
</g>
</g>
<g id="3">
<use xlink:href="#path3_fill" transform="translate(628 1058)"/>
</g>
<g id="&#230;&#173;&#165;">
<use xlink:href="#path4_fill" transform="translate(888 1097)" fill="#000000" fill-opacity="0.49"/>
</g>
</g>
</g>
<defs>
<filter id="filter0_d" filterUnits="userSpaceOnUse" x="499" y="964" width="23" height="34" color-interpolation-filters="sRGB">
<feFlood flood-opacity="0" result="BackgroundImageFix"/>
<feColorMatrix in="SourceAlpha" type="matrix" values="0 0 0 0 0 0 0 0 0 0 0 0 0 0 0 0 0 0 255 0"/>
<feOffset dx="0" dy="2"/>
<feGaussianBlur stdDeviation="2"/>
<feColorMatrix type="matrix" values="0 0 0 0 0 0 0 0 0 0 0 0 0 0 0 0 0 0 0.25 0"/>
<feBlend mode="normal" in2="BackgroundImageFix" result="effect1_dropShadow"/>
<feBlend mode="normal" in="SourceGraphic" in2="effect1_dropShadow" result="shape"/>
</filter>
<linearGradient id="paint0_linear" x1="0" y1="0" x2="1" y2="0" gradientUnits="userSpaceOnUse" gradientTransform="matrix(6.5966e-06 568 -320 3.89059e-06 320 -1.9453e-06)">
<stop offset="0" stop-color="#E0E0E0"/>
<stop offset="1" stop-color="#E3E3E3"/>
</linearGradient>
<linearGradient id="paint1_linear" x1="0" y1="0" x2="1" y2="0" gradientUnits="userSpaceOnUse" gradientTransform="matrix(2.44929e-15 40 -40 2.44929e-15 40 -2.44929e-15)">
<stop offset="0.0276243" stop-color="#FFFFFF" stop-opacity="0.01"/>
<stop offset="0.933702" stop-color="#FFFFFF" stop-opacity="0"/>
</linearGradient>
<path id="path0_fill" d="M 0 0L 320 0L 320 568L 0 568L 0 0Z"/>
<path id="path1_fill" d="M 0 0L 40 0L 40 40L 0 40L 0 0Z"/>
<path id="path2_fill" d="M 15 3.055L 12.1457 0L 0 13L 12.1457 26L 15 22.945L 5.72874 13L 15 3.055Z"/>
<path id="path3_fill" d="M 130.957 80.245C 129.488 80.245 127.924 80.1173 126.264 79.8619C 124.668 79.6704 123.104 79.415 121.571 79.0958C 120.103 78.7765 118.73 78.4254 117.453 78.0423C 116.177 77.6593 115.187 77.3081 114.485 76.9889L 116.783 67.1249C 118.251 67.7633 120.135 68.4337 122.433 69.136C 124.796 69.8383 127.605 70.1894 130.861 70.1894C 134.883 70.1894 137.692 69.3275 139.288 67.6037C 140.948 65.8799 141.778 63.7411 141.778 61.1873C 141.778 58.0589 140.533 55.8882 138.043 54.6751C 135.553 53.3982 132.393 52.7598 128.562 52.7598L 124.923 52.7598L 124.923 42.9915L 129.329 42.9915C 130.542 42.9915 131.755 42.8638 132.968 42.6085C 134.181 42.3531 135.266 41.9381 136.224 41.3635C 137.181 40.7889 137.948 40.0228 138.522 39.0651C 139.161 38.1074 139.48 36.8944 139.48 35.4259C 139.48 33.2552 138.81 31.5633 137.469 30.3503C 136.192 29.0734 134.404 28.4349 132.106 28.4349C 129.871 28.4349 127.637 28.818 125.402 29.5841C 123.231 30.2864 121.348 31.1802 119.752 32.2656L 115.538 23.6466C 117.262 22.4974 119.528 21.3481 122.338 20.1989C 125.211 18.9859 128.435 18.3794 132.01 18.3794C 135.33 18.3794 138.203 18.7944 140.629 19.6243C 143.119 20.4543 145.162 21.6355 146.758 23.1677C 148.354 24.6362 149.535 26.3919 150.302 28.4349C 151.068 30.478 151.451 32.6806 151.451 35.0429C 151.451 37.4051 150.78 39.6716 149.44 41.8423C 148.099 44.0131 146.311 45.673 144.077 46.8222C 147.141 48.0991 149.504 49.9825 151.163 52.4725C 152.887 54.9624 153.749 57.9312 153.749 61.3788C 153.749 64.1242 153.302 66.646 152.408 68.9444C 151.515 71.2429 150.142 73.254 148.29 74.9778C 146.439 76.6377 144.077 77.9466 141.204 78.9042C 138.331 79.7981 134.915 80.245 130.957 80.245Z"/>
<path id="path4_fill" d="M 32.8 15.64L 20.52 15.64L 20.44 24C 20.3333 25.2533 19.8667 26.1333 19.04 26.64L 18.88 26.72C 18.2133 27.04 17.4267 27.2 16.52 27.2C 15.16 27.2 14.0267 27.0133 13.12 26.64L 12.64 26.32C 12.56 26.24 12.52 26.1733 12.52 26.12C 12.4667 25.8267 12.52 25.56 12.68 25.32C 12.7867 25.1867 12.8933 25.08 13 25L 16.28 25.36C 17.72 25.36 18.4533 24.8267 18.48 23.76L 18.56 15.72L 3.92 15.6C 3.49333 15.6 3.32 15.28 3.4 14.64C 3.42667 14.3733 3.49333 14.1733 3.6 14.04L 4.08 13.84L 9.52 13.84L 9.64 5.96C 9.96 5.45333 10.3733 5.33333 10.88 5.6C 11.0933 5.70667 11.2667 5.85333 11.4 6.04L 11.44 13.76L 18.48 13.84L 18.6 4.4C 18.6 4.18667 18.84 3.97333 19.32 3.76C 19.8533 3.86667 20.16 3.96 20.24 4.04C 20.2933 4.12 20.36 4.21333 20.44 4.32L 20.44 7.4L 29.84 7.52C 30.0267 7.6 30.2 7.78667 30.36 8.08C 30.36 8.56 30.2267 8.90667 29.96 9.12L 29.8 9.24L 20.52 9.28L 20.44 13.76L 33.04 13.88C 33.6 14.2 33.72 14.6133 33.4 15.12C 33.32 15.2533 33.2 15.3733 33.04 15.48C 32.9867 15.5333 32.9067 15.5867 32.8 15.64ZM 31.32 19.64C 31.32 20.6267 31 21.6933 30.36 22.84C 27.24 28.5467 21.7067 31.96 13.76 33.08C 11.3067 33.4 9.64 33.52 8.76 33.44C 8.36 33.44 8.05333 33.2533 7.84 32.88C 7.84 32.1333 8 31.6933 8.32 31.56C 15.7867 31.5333 21.4267 29.8267 25.24 26.44C 27 24.8667 28.28 22.9867 29.08 20.8L 29.48 19.56C 29.64 19.2933 29.88 19.1333 30.2 19.08C 30.4667 19.0533 30.7467 19.1467 31.04 19.36C 31.1733 19.44 31.2667 19.5333 31.32 19.64ZM 12.64 19.4C 11.0133 21.96 9.10667 24.1067 6.92 25.84C 6.30667 26.32 5.72 26.72 5.16 27.04C 5.05333 27.0933 4.74667 27.12 4.24 27.12C 3.97333 27.0133 3.77333 26.8267 3.64 26.56C 3.53333 26.08 4.02667 25.4933 5.12 24.8C 5.54667 24.5333 5.81333 24.36 5.92 24.28C 7.49333 22.92 8.69333 21.72 9.52 20.68L 11 18.44C 11.2933 18.0933 11.6667 18.0133 12.12 18.2C 12.3867 18.3067 12.56 18.48 12.64 18.72L 12.64 19.4Z"/>
</defs>
</svg>
