<svg width="320" height="568" viewBox="0 0 320 568" version="1.1" xmlns="http://www.w3.org/2000/svg" xmlns:xlink="http://www.w3.org/1999/xlink">
<title>quiz-stack</title>
<desc>Created using Figma</desc>
<g id="Canvas" transform="translate(-3016 -1580)">
<clipPath id="clip-0" clip-rule="evenodd">
<path d="M 3016 1580L 3336 1580L 3336 2148L 3016 2148L 3016 1580Z" fill="#FFFFFF"/>
</clipPath>
<g id="quiz-stack" clip-path="url(#clip-0)">
<path d="M 3016 1580L 3336 1580L 3336 2148L 3016 2148L 3016 1580Z" fill="#FFFFFF"/>
<g id="stack">
<g id="background">
<g id="frost">
<use xlink:href="#path0_fill" transform="translate(3016 1580)" fill="#E5E5E5"/>
</g>
<g id="sky" filter="url(#filter0_f)">
<g id="sky">
<use xlink:href="#path0_fill" transform="translate(3016 1580)" fill="url(#paint1_linear)"/>
</g>
<g id="clouds">
<use xlink:href="#path1_fill" transform="translate(2686 1582.72)" fill="#FFFFFF"/>
</g>
</g>
</g>
<g id="start /action=focus" filter="url(#filter1_d)">
<g id="Rectangle 2">
<use xlink:href="#path2_fill" transform="translate(3061 2062)" fill="#4D9DE7"/>
</g>
<g id="Start">
<use xlink:href="#path3_fill" transform="translate(3148 2073)" fill="#FFFFFF"/>
</g>
</g>
<g id="loading">
<g id="Preparing your questions...">
<use xlink:href="#path4_fill" transform="translate(3058 2073)" fill="#000000" fill-opacity="0.28"/>
</g>
<g id="hint /for=fun-loader">
<mask id="mask0_outline_ins">
<use xlink:href="#path5_fill" fill="white" transform="translate(3122 1954)"/>
</mask>
<g mask="url(#mask0_outline_ins)">
<use xlink:href="#path6_stroke_2x" transform="translate(3122 1954)" fill="url(#paint6_linear)"/>
</g>
</g>
</g>
<g id="quiz">
<g id="tagline">
<use xlink:href="#path7_fill" transform="translate(3110 1872)"/>
</g>
<g id="title">
<g id="hint /for=text /style=&#34;font-family: Mogra; font-weight: 900; font-size: 38.45; color: #000000&#34; /positioner-style=&#34;display: flex; width: 10000vw; margin-left: calc(50% - 5000vw); justify-content: center;&#34;">
<use xlink:href="#path8_fill" transform="translate(3082 1825)" fill="url(#paint8_linear)"/>
</g>
<g id="/example">
<use xlink:href="#path9_fill" transform="translate(3082 1825)"/>
</g>
</g>
<g id="icon">
<g id="hint /for=image /style=&#34;display: flex; width: 100%; height: 100%; flex-direction: column; justify-content: space-around;&#34;">
<use xlink:href="#path10_fill" transform="translate(3093 1614)" fill="url(#paint10_linear)"/>
</g>
</g>
</g>
<g id="back /action=nav">
<g id="hint /for=click">
<use xlink:href="#path11_fill" transform="translate(3020 1590)" fill="url(#paint11_linear)"/>
</g>
<g id="Vector">
<use xlink:href="#path12_fill" transform="translate(3032 1597)" fill="#000000" fill-opacity="0.7"/>
</g>
</g>
</g>
</g>
</g>
<defs>
<filter id="filter0_f" filterUnits="userSpaceOnUse" x="2666" y="1560" width="700" height="608" color-interpolation-filters="sRGB">
<feFlood flood-opacity="0" result="BackgroundImageFix"/>
<feBlend mode="normal" in="SourceGraphic" in2="BackgroundImageFix" result="shape"/>
<feGaussianBlur stdDeviation="10" result="effect1_foregroundBlur"/>
</filter>
<filter id="filter1_d" filterUnits="userSpaceOnUse" x="3057" y="2062" width="238" height="50" color-interpolation-filters="sRGB">
<feFlood flood-opacity="0" result="BackgroundImageFix"/>
<feColorMatrix in="SourceAlpha" type="matrix" values="0 0 0 0 0 0 0 0 0 0 0 0 0 0 0 0 0 0 255 0"/>
<feOffset dx="0" dy="4"/>
<feGaussianBlur stdDeviation="2"/>
<feColorMatrix type="matrix" values="0 0 0 0 0 0 0 0 0 0 0 0 0 0 0 0 0 0 0.25 0"/>
<feBlend mode="normal" in2="BackgroundImageFix" result="effect1_dropShadow"/>
<feBlend mode="normal" in="SourceGraphic" in2="effect1_dropShadow" result="shape"/>
</filter>
<linearGradient id="paint1_linear" x1="0" y1="0" x2="1" y2="0" gradientUnits="userSpaceOnUse" gradientTransform="matrix(1.95943e-14 568 -320 3.478e-14 320 -3.478e-14)">
<stop offset="0" stop-color="#BADFEF"/>
<stop offset="0.977901" stop-color="#E3F7FC" stop-opacity="0.6"/>
</linearGradient>
<linearGradient id="paint6_linear" x1="0" y1="0" x2="1" y2="0" gradientUnits="userSpaceOnUse" gradientTransform="matrix(6.61309e-15 108 -108 6.61309e-15 108 -6.61309e-15)">
<stop offset="0" stop-color="#000000" stop-opacity="0"/>
<stop offset="0.98895" stop-color="#000000" stop-opacity="0.01"/>
</linearGradient>
<linearGradient id="paint8_linear" x1="0" y1="0" x2="1" y2="0" gradientUnits="userSpaceOnUse" gradientTransform="matrix(1.15117e-14 47 -188 2.87792e-15 188 -2.87792e-15)">
<stop offset="0" stop-color="#FFFFFF" stop-opacity="0"/>
<stop offset="1" stop-color="#FFFFFF" stop-opacity="0.01"/>
<stop offset="1" stop-color="#FFFFFF" stop-opacity="0.01"/>
</linearGradient>
<linearGradient id="paint10_linear" x1="0" y1="0" x2="1" y2="0" gradientUnits="userSpaceOnUse" gradientTransform="matrix(1.01646e-14 183 -166 1.12055e-14 166 -1.12055e-14)">
<stop offset="0" stop-color="#FFFFFF" stop-opacity="0"/>
<stop offset="1" stop-color="#FFFFFF" stop-opacity="0.01"/>
<stop offset="1" stop-color="#FFFFFF" stop-opacity="0.01"/>
</linearGradient>
<linearGradient id="paint11_linear" x1="0" y1="0" x2="1" y2="0" gradientUnits="userSpaceOnUse" gradientTransform="matrix(2.44929e-15 40 -40 2.44929e-15 40 -2.44929e-15)">
<stop offset="0.0276243" stop-color="#FFFFFF" stop-opacity="0.01"/>
<stop offset="0.933702" stop-color="#FFFFFF" stop-opacity="0"/>
</linearGradient>
<path id="path0_fill" d="M 0 0L 320 0L 320 568L 0 568L 0 0Z"/>
<path id="path1_fill" fill-rule="evenodd" d="M 562.711 0.6469C 553.571 1.89566 547.184 5.31486 539.248 13.2051C 533.307 19.1125 532.055 21.0785 528.391 30.2658C 527.617 32.2058 527.08 32.5589 525.571 32.1185C 520.496 30.6393 518.47 30.6951 514.858 32.414C 510.831 34.328 506.514 39.5553 506.514 42.5155C 506.514 46.1465 504.993 47.6685 501.939 47.0961C 497.343 46.2357 487.355 48.2018 482.653 50.8944C 453.741 67.4534 474.381 104.015 507.716 95.2921C 514.594 93.4915 517.417 94.1493 517.417 97.5536C 517.417 99.2651 523.609 105.087 527.584 107.114C 533.272 110.011 540.957 109.222 546.619 105.158C 551.646 101.549 551.295 101.599 558.792 103.416C 565.471 105.037 570.205 104.331 577.613 100.612L 582.029 98.3936L 584.322 100.44C 599.63 114.1 621.851 111.485 633.666 94.6343C 634.57 93.3428 635.814 92.815 637.945 92.815C 650.18 92.815 658.907 76.8507 653.247 64.8221C 649.94 57.7923 641.916 52.9329 635.371 53.994C 632.756 54.4177 632.006 54.1129 629.497 51.6061C 625.325 47.438 620.408 44.4016 616.057 43.3071C 611.411 42.1383 610.894 41.5548 609.823 36.2513C 606.315 18.8802 594.076 5.73669 577.45 1.4887C 570.425 -0.30639 569.908 -0.336122 562.711 0.6469ZM 184.865 10.0683C 182.572 11.0792 180.07 12.5287 179.31 13.2887C 178.549 14.0506 177.589 14.8125 177.176 14.9853C 175.761 15.5818 170.482 22.8476 169.035 26.1943C 167.592 29.5299 167.562 29.5467 162.912 29.5467C 157.911 29.5467 153.841 32.6797 153.224 37.0076C 153.008 38.5128 152.056 38.903 146.58 39.7355C 131.8 41.9785 124.331 52.5669 129.87 63.4173C 133.91 71.3261 143.479 74.2082 156.471 71.4264C 158.923 70.9005 159.308 71.1328 161.346 74.3569C 165.981 81.6933 175.417 83.1985 181.438 77.5605C 182.782 76.3025 183.729 76.0888 185.684 76.6035C 189.947 77.7278 198.447 77.2428 200.733 75.745C 203.493 73.9388 204.338 74.015 207.412 76.3508C 217.659 84.1295 231.46 82.6429 238.036 73.0542C 239.564 70.828 240.585 70.1888 242.619 70.1832C 247.377 70.1739 254.043 63.3039 254.043 58.4111C 254.043 52.0596 248.361 45.0502 243.215 45.0502C 240.016 45.0502 237.7 43.9649 234.495 40.9657C 233.201 39.756 230.383 38.1709 228.233 37.4443C 224.431 36.1602 224.278 35.9763 222.749 30.788C 217.424 12.7219 200.216 3.31165 184.865 10.0683ZM 425.153 91.0515C 410.88 94.9428 397.696 105.524 391.629 117.956C 390.617 120.029 389.442 122.382 389.018 123.181C 388.594 123.982 388.246 125.149 388.246 125.775C 388.246 127.68 385.439 129.707 384.033 128.821C 381.844 127.436 374.131 127.905 370.751 129.627C 364.805 132.658 361.122 137.882 359.385 145.755C 358.892 147.985 358.866 147.993 352.81 147.541C 335.929 146.285 319.762 156.223 315.64 170.392C 308.189 195.997 337.887 217.696 365.5 206.823C 369.57 205.22 372.31 205.248 372.31 206.89C 372.31 207.312 373.348 209.23 374.616 211.151C 384.256 225.748 401.082 228.389 413.504 217.254L 416.532 214.539L 422.311 216.505C 431.544 219.649 440.517 218.805 449.149 213.987C 454.067 211.24 454.507 211.261 457.498 214.383C 472.508 230.048 505.35 226.861 516.578 208.652C 518.665 205.266 520.7 204.27 525.519 204.27C 530.212 204.27 536.348 199.873 541.87 192.559C 551.79 179.414 539.077 155.92 522.192 156.193L 516.482 156.284L 512.544 152.391C 507.879 147.779 502.192 144.456 494.986 142.13C 489.977 140.513 489.737 140.312 489.737 137.722C 489.737 133.979 486.162 123.82 482.673 117.645C 470.334 95.8124 447.094 85.0679 425.153 91.0515ZM 113.13 111.26C 109.157 111.946 102.361 114.362 101.01 115.568C 100.572 115.96 99.7029 116.279 99.078 116.279C 97.3668 116.279 86.9993 124.822 84.2131 128.529C 82.8664 130.319 81.5124 131.971 81.2018 132.201C 79.8905 133.177 75.3782 141.355 73.7582 145.692L 72.0042 150.386L 67.6296 149.251C 57.9837 146.751 47.5586 153.87 45.6856 164.23C 45.1388 167.261 41.7425 170.89 41.1398 169.086C 39.8397 165.185 18.1934 170.557 11.4528 176.454C -17.0475 201.39 12.1429 240.809 49.7645 228.192C 53.3654 226.984 56.3842 226.105 56.4734 226.237C 56.5609 226.369 57.6806 228.303 58.9621 230.535C 67.8807 246.089 87.8921 249.983 98.8083 238.291C 101.25 235.677 101.444 235.666 108.097 237.79C 117.248 240.711 125.808 239.652 135.528 234.398L 139.051 232.493L 142.657 235.43C 162.14 251.301 186.772 248.751 202.321 229.253C 205.236 225.597 205.866 225.218 209.032 225.211C 216.797 225.192 225.664 218.376 228.415 210.308C 234.023 193.868 223.523 177.258 207.423 177.095C 201.721 177.037 201.369 176.913 198.616 174.008C 194.53 169.695 187.237 165.271 180.768 163.184C 176.038 161.656 175.199 161.095 175.199 159.458C 175.199 155.795 171.362 144.311 168.327 138.894C 156.605 117.974 135.496 107.406 113.13 111.26ZM 653.642 149.189C 645.065 154.623 639.809 160.517 635.539 169.493C 633.327 174.142 632.401 175.313 631.071 175.138C 623.89 174.192 613.875 177.288 613.875 180.453C 613.875 181.033 613.325 182.575 612.652 183.879C 611.976 185.186 611.232 187.224 610.994 188.412C 610.576 190.5 610.354 190.571 604.027 190.64C 579.148 190.907 565.743 214.05 580.599 231.085C 587.378 238.858 603.158 242.738 613.037 239.059C 620.127 236.416 620.116 236.414 622.677 240.858C 629.944 253.47 643.062 256.229 654.029 247.454C 656.045 245.84 658.027 244.725 658.433 244.975C 658.853 245.236 659.169 224.183 659.169 195.94C 659.169 168.718 658.887 146.456 658.541 146.467C 658.195 146.476 655.991 147.703 653.642 149.189Z"/>
<path id="path2_fill" d="M 0 8C 0 3.58172 3.58172 0 8 0L 222 0C 226.418 0 230 3.58172 230 8L 230 34C 230 38.4183 226.418 42 222 42L 8 42C 3.58172 42 0 38.4183 0 34L 0 8Z"/>
<path id="path3_fill" d="M 7.084 7.078C 7.20133 6.34467 7.26 5.758 7.26 5.318C 7.26 5.01 7.23067 4.768 7.172 4.592C 7.128 4.416 7.06933 4.328 6.996 4.328C 6.776 4.328 6.51933 4.51133 6.226 4.878C 5.94733 5.24467 5.70533 5.68467 5.5 6.198C 5.30933 6.69667 5.214 7.144 5.214 7.54C 5.214 8.03867 5.456 8.54467 5.94 9.058C 6.43867 9.55667 7.16467 10.1727 8.118 10.906C 8.83667 11.434 9.372 11.874 9.724 12.226C 10.076 12.5633 10.2593 12.8713 10.274 13.15C 10.2887 13.766 9.966 14.3747 9.306 14.976C 8.646 15.5627 7.81733 16.0467 6.82 16.428C 5.83733 16.8093 4.92067 17 4.07 17C 3.41 17 2.728 16.8387 2.024 16.516C 1.32 16.1787 0.733333 15.79 0.264 15.35C -0.205333 14.8953 -0.447333 14.4993 -0.462 14.162C -0.491333 13.5167 -0.278667 12.996 0.176 12.6C 0.630667 12.1893 1.23933 11.984 2.002 11.984C 2.38333 11.984 2.772 12.0353 3.168 12.138C 3.344 13.106 3.498 13.8027 3.63 14.228C 4.49533 14.008 5.434 13.6267 6.446 13.084C 3.17533 10.6053 1.54 8.66933 1.54 7.276C 1.54 6.60133 1.78933 5.79467 2.288 4.856C 2.78667 3.90267 3.44667 3.08867 4.268 2.414C 5.08933 1.72467 5.95467 1.38 6.864 1.38C 7.53867 1.38 8.19133 1.60733 8.822 2.062C 9.45267 2.51667 9.966 3.074 10.362 3.734C 10.758 4.394 10.956 5.01 10.956 5.582C 10.956 6.13933 10.7287 6.58667 10.274 6.924C 9.834 7.24667 9.284 7.408 8.624 7.408C 8.11067 7.408 7.59733 7.298 7.084 7.078ZM 16.2559 8.354C 15.7719 10.5687 15.4566 12.3727 15.3099 13.766C 16.2486 13.3113 17.0039 12.842 17.5759 12.358C 18.2213 12.578 18.6979 12.886 19.0059 13.282C 19.3286 13.6633 19.4899 14.1033 19.4899 14.602C 19.4899 14.954 19.2406 15.3207 18.7419 15.702C 18.2433 16.0687 17.6493 16.3767 16.9599 16.626C 16.2706 16.8753 15.6839 17 15.1999 17C 14.7746 17 14.2979 16.8753 13.7699 16.626C 13.2566 16.362 12.8166 16.0613 12.4499 15.724C 12.0833 15.372 11.8999 15.0713 11.8999 14.822C 11.8999 14.6167 11.9733 14.1767 12.1199 13.502C 12.2813 12.8127 12.4206 12.226 12.5379 11.742C 12.6699 11.2433 12.7653 10.8767 12.8239 10.642L 13.3519 8.53L 12.0099 8.618C 11.7606 8.50067 11.5699 8.31733 11.4379 8.068C 11.3059 7.81867 11.2399 7.53267 11.2399 7.21C 11.2399 6.62333 11.4526 6.12467 11.8779 5.714C 12.4059 5.74333 13.0513 5.77267 13.8139 5.802C 13.8139 4.86333 13.9166 3.82933 14.1219 2.7C 14.3273 1.556 14.5546 0.984 14.8039 0.984C 15.1119 0.984 15.5006 1.116 15.9699 1.38C 16.4393 1.644 16.8499 1.952 17.2019 2.304C 17.5539 2.656 17.7299 2.964 17.7299 3.228C 17.7299 3.56533 17.6639 3.91 17.5319 4.262C 17.4146 4.59933 17.2166 5.06867 16.9379 5.67C 17.1873 5.64067 17.8179 5.538 18.8299 5.362L 19.3359 5.274C 19.5999 5.42067 19.7979 5.63333 19.9299 5.912C 20.0766 6.19067 20.1499 6.49133 20.1499 6.814C 20.1499 7.078 20.0986 7.33467 19.9959 7.584C 19.8933 7.83333 19.7393 8.046 19.5339 8.222L 16.2559 8.354ZM 31.141 13.766C 32.0357 13.326 32.791 12.8567 33.407 12.358C 34.0523 12.578 34.529 12.886 34.837 13.282C 35.1597 13.6633 35.321 14.1033 35.321 14.602C 35.321 14.954 35.0717 15.3207 34.573 15.702C 34.0743 16.0687 33.4803 16.3767 32.791 16.626C 32.1017 16.8753 31.515 17 31.031 17C 30.6937 17 30.305 16.8753 29.865 16.626C 29.4397 16.3767 29.0657 16.0833 28.743 15.746C 28.435 15.4087 28.281 15.1447 28.281 14.954C 28.281 14.8073 28.3397 14.6093 28.457 14.36C 28.589 14.1107 28.7283 13.854 28.875 13.59C 29.0217 13.326 29.117 13.15 29.161 13.062L 28.611 12.754C 27.8337 14.03 27.0857 15.0567 26.367 15.834C 25.663 16.6113 24.9663 17 24.277 17C 23.8077 17 23.309 16.7947 22.781 16.384C 22.2677 15.9733 21.8277 15.4747 21.461 14.888C 21.109 14.3013 20.933 13.7807 20.933 13.326C 20.933 12.0207 21.2043 10.686 21.747 9.322C 22.2897 7.958 23.045 6.82867 24.013 5.934C 24.9957 5.03933 26.103 4.592 27.335 4.592C 27.775 4.592 28.2223 4.79 28.677 5.186C 29.1317 5.582 29.425 5.98533 29.557 6.396C 29.6303 6.07333 29.733 5.79467 29.865 5.56C 30.0117 5.31067 30.1657 5.186 30.327 5.186C 30.7083 5.186 31.1263 5.32533 31.581 5.604C 32.0503 5.868 32.4463 6.18333 32.769 6.55C 33.0917 6.902 33.253 7.18067 33.253 7.386C 33.2383 7.66467 33.121 8.12667 32.901 8.772C 32.6957 9.41733 32.3583 10.4 31.889 11.72C 31.6103 12.4387 31.361 13.1207 31.141 13.766ZM 24.387 13.942C 25.575 13.2087 26.609 12.3067 27.489 11.236C 28.369 10.1507 28.9703 8.95533 29.293 7.65C 28.897 7.474 28.523 7.386 28.171 7.386C 27.4817 7.386 26.8657 7.694 26.323 8.31C 25.7803 8.926 25.3477 9.73267 25.025 10.73C 24.7023 11.7273 24.4897 12.798 24.387 13.942ZM 39.9453 17C 39.5493 17 39.1166 16.8753 38.6473 16.626C 38.178 16.362 37.7746 16.0613 37.4373 15.724C 37.1 15.372 36.9313 15.0787 36.9313 14.844C 36.9313 14.5653 36.99 14.206 37.1073 13.766C 37.2246 13.3113 37.4006 12.7247 37.6353 12.006C 37.87 11.258 38.046 10.664 38.1633 10.224C 38.2806 9.76933 38.3393 9.40267 38.3393 9.124C 38.3393 9.00667 38.2733 8.882 38.1413 8.75C 38.0093 8.618 37.804 8.442 37.5253 8.222C 37.2026 7.958 36.968 7.75267 36.8213 7.606C 36.6746 7.45933 36.6013 7.31267 36.6013 7.166C 36.6013 6.858 36.748 6.49867 37.0413 6.088C 37.3346 5.67733 37.6793 5.32533 38.0753 5.032C 38.4713 4.73867 38.8086 4.592 39.0873 4.592C 39.3953 4.592 39.7473 4.73133 40.1433 5.01C 40.5393 5.28867 40.884 5.61133 41.1773 5.978C 41.4706 6.33 41.6173 6.60133 41.6173 6.792C 41.6173 7.34933 41.5073 8.08267 41.2873 8.992L 41.5513 9.124C 41.8886 8.58133 42.2553 7.936 42.6513 7.188C 43.062 6.42533 43.3113 5.956 43.3993 5.78L 43.8173 4.988C 44.8293 4.95867 45.5846 5.142 46.0833 5.538C 46.582 5.934 46.8313 6.462 46.8313 7.122C 46.8313 7.76733 46.6186 8.41267 46.1933 9.058C 45.1373 9.41 44.2353 9.762 43.4873 10.114C 42.754 10.4513 42.0133 10.8547 41.2653 11.324C 41.2213 12.952 41.0893 14.3087 40.8693 15.394C 40.664 16.4647 40.356 17 39.9453 17ZM 52.5645 8.354C 52.0805 10.5687 51.7652 12.3727 51.6185 13.766C 52.5572 13.3113 53.3125 12.842 53.8845 12.358C 54.5299 12.578 55.0065 12.886 55.3145 13.282C 55.6372 13.6633 55.7985 14.1033 55.7985 14.602C 55.7985 14.954 55.5492 15.3207 55.0505 15.702C 54.5519 16.0687 53.9579 16.3767 53.2685 16.626C 52.5792 16.8753 51.9925 17 51.5085 17C 51.0832 17 50.6065 16.8753 50.0785 16.626C 49.5652 16.362 49.1252 16.0613 48.7585 15.724C 48.3919 15.372 48.2085 15.0713 48.2085 14.822C 48.2085 14.6167 48.2819 14.1767 48.4285 13.502C 48.5899 12.8127 48.7292 12.226 48.8465 11.742C 48.9785 11.2433 49.0739 10.8767 49.1325 10.642L 49.6605 8.53L 48.3185 8.618C 48.0692 8.50067 47.8785 8.31733 47.7465 8.068C 47.6145 7.81867 47.5485 7.53267 47.5485 7.21C 47.5485 6.62333 47.7612 6.12467 48.1865 5.714C 48.7145 5.74333 49.3599 5.77267 50.1225 5.802C 50.1225 4.86333 50.2252 3.82933 50.4305 2.7C 50.6359 1.556 50.8632 0.984 51.1125 0.984C 51.4205 0.984 51.8092 1.116 52.2785 1.38C 52.7479 1.644 53.1585 1.952 53.5105 2.304C 53.8625 2.656 54.0385 2.964 54.0385 3.228C 54.0385 3.56533 53.9725 3.91 53.8405 4.262C 53.7232 4.59933 53.5252 5.06867 53.2465 5.67C 53.4959 5.64067 54.1265 5.538 55.1385 5.362L 55.6445 5.274C 55.9085 5.42067 56.1065 5.63333 56.2385 5.912C 56.3852 6.19067 56.4585 6.49133 56.4585 6.814C 56.4585 7.078 56.4072 7.33467 56.3045 7.584C 56.2019 7.83333 56.0479 8.046 55.8425 8.222L 52.5645 8.354Z"/>
<path id="path4_fill" d="M 3.33 14C 3.054 14 2.724 13.898 2.34 13.694C 1.968 13.49 1.638 13.25 1.35 12.974C 1.074 12.698 0.936 12.47 0.936 12.29C 0.936 11.978 1.23 10.388 1.818 7.52C 1.89 7.184 2.004 6.614 2.16 5.81C 2.328 4.994 2.442 4.406 2.502 4.046L 1.836 4.154C 1.464 3.806 1.278 3.368 1.278 2.84C 1.278 2.468 1.38 2.084 1.584 1.688C 2.556 1.436 3.54 1.31 4.536 1.31C 5.592 1.31 6.57 1.448 7.47 1.724C 8.382 2 9.12 2.426 9.684 3.002C 10.248 3.566 10.53 4.274 10.53 5.126C 10.53 5.882 10.278 6.602 9.774 7.286C 9.282 7.958 8.562 8.516 7.614 8.96C 6.666 9.404 5.55 9.674 4.266 9.77C 4.182 10.346 4.116 10.868 4.068 11.336C 3.96 12.248 3.858 12.92 3.762 13.352C 3.666 13.784 3.522 14 3.33 14ZM 4.536 7.538C 5.58 7.334 6.384 7.022 6.948 6.602C 7.524 6.17 7.812 5.69 7.812 5.162C 7.812 4.802 7.632 4.502 7.272 4.262C 6.924 4.01 6.45 3.884 5.85 3.884C 5.634 3.884 5.4 3.902 5.148 3.938L 4.86 5.63C 4.692 6.578 4.584 7.214 4.536 7.538ZM 13.6806 14C 13.3566 14 13.0026 13.898 12.6186 13.694C 12.2346 13.478 11.9046 13.232 11.6286 12.956C 11.3526 12.668 11.2146 12.428 11.2146 12.236C 11.2146 12.008 11.2626 11.714 11.3586 11.354C 11.4546 10.982 11.5986 10.502 11.7906 9.914C 11.9826 9.302 12.1266 8.816 12.2226 8.456C 12.3186 8.084 12.3666 7.784 12.3666 7.556C 12.3666 7.46 12.3126 7.358 12.2046 7.25C 12.0966 7.142 11.9286 6.998 11.7006 6.818C 11.4366 6.602 11.2446 6.434 11.1246 6.314C 11.0046 6.194 10.9446 6.074 10.9446 5.954C 10.9446 5.702 11.0646 5.408 11.3046 5.072C 11.5446 4.736 11.8266 4.448 12.1506 4.208C 12.4746 3.968 12.7506 3.848 12.9786 3.848C 13.2306 3.848 13.5186 3.962 13.8426 4.19C 14.1666 4.418 14.4486 4.682 14.6886 4.982C 14.9286 5.27 15.0486 5.492 15.0486 5.648C 15.0486 6.104 14.9586 6.704 14.7786 7.448L 14.9946 7.556C 15.2706 7.112 15.5706 6.584 15.8946 5.972C 16.2306 5.348 16.4346 4.964 16.5066 4.82L 16.8486 4.172C 17.6766 4.148 18.2946 4.298 18.7026 4.622C 19.1106 4.946 19.3146 5.378 19.3146 5.918C 19.3146 6.446 19.1406 6.974 18.7926 7.502C 17.9286 7.79 17.1906 8.078 16.5786 8.366C 15.9786 8.642 15.3726 8.972 14.7606 9.356C 14.7246 10.688 14.6166 11.798 14.4366 12.686C 14.2686 13.562 14.0166 14 13.6806 14ZM 23.5124 14C 22.9364 14 22.3364 13.814 21.7124 13.442C 21.0884 13.058 20.5724 12.59 20.1644 12.038C 19.7564 11.486 19.5524 10.964 19.5524 10.472C 19.5524 9.596 19.7564 8.636 20.1644 7.592C 20.5844 6.548 21.1604 5.666 21.8924 4.946C 22.6244 4.214 23.4524 3.848 24.3764 3.848C 25.0364 3.848 25.6304 3.992 26.1584 4.28C 26.6984 4.568 27.1184 4.928 27.4184 5.36C 27.7184 5.792 27.8684 6.212 27.8684 6.62C 27.8684 7.124 27.6404 7.622 27.1844 8.114C 26.7284 8.594 26.0924 9.02 25.2764 9.392C 24.4604 9.752 23.5304 10.01 22.4864 10.166C 22.4744 10.31 22.4684 10.526 22.4684 10.814C 22.4684 11.174 22.4804 11.444 22.5044 11.624C 23.1044 11.564 23.6984 11.402 24.2864 11.138C 24.8744 10.874 25.5164 10.502 26.2124 10.022C 26.6804 10.166 27.0344 10.394 27.2744 10.706C 27.5144 11.018 27.6344 11.39 27.6344 11.822C 27.6344 12.182 27.4124 12.536 26.9684 12.884C 26.5364 13.22 25.9964 13.49 25.3484 13.694C 24.7004 13.898 24.0884 14 23.5124 14ZM 22.7564 8.816C 23.4884 8.552 24.1004 8.216 24.5924 7.808C 25.0844 7.4 25.3304 7.052 25.3304 6.764C 25.3304 6.428 25.0964 6.2 24.6284 6.08C 24.1724 6.416 23.7824 6.818 23.4584 7.286C 23.1464 7.754 22.9124 8.264 22.7564 8.816ZM 35.3839 4.154C 36.0199 4.154 36.5839 4.304 37.0759 4.604C 37.5679 4.904 37.9459 5.318 38.2099 5.846C 38.4859 6.362 38.6239 6.944 38.6239 7.592C 38.6239 8.552 38.3479 9.536 37.7959 10.544C 37.2559 11.54 36.5419 12.368 35.6539 13.028C 34.7779 13.676 33.8659 14 32.9179 14C 32.5099 14 32.1019 13.838 31.6939 13.514C 31.5499 14.114 31.4359 14.726 31.3519 15.35C 31.2799 15.986 31.2379 16.358 31.2259 16.466C 31.1299 17.282 31.0339 17.87 30.9379 18.23C 30.8539 18.59 30.7159 18.77 30.5239 18.77C 30.2119 18.77 29.8639 18.668 29.4799 18.464C 29.1079 18.26 28.7899 18.014 28.5259 17.726C 28.2499 17.45 28.1119 17.21 28.1119 17.006C 28.1119 16.778 28.2139 16.274 28.4179 15.494C 28.6219 14.714 28.9339 13.586 29.3539 12.11C 29.7259 10.79 30.0139 9.752 30.2179 8.996C 30.4219 8.24 30.5239 7.76 30.5239 7.556C 30.5239 7.46 30.4699 7.364 30.3619 7.268C 30.2659 7.16 30.1039 7.01 29.8759 6.818C 29.6239 6.614 29.4379 6.452 29.3179 6.332C 29.1979 6.212 29.1379 6.086 29.1379 5.954C 29.1379 5.702 29.2519 5.408 29.4799 5.072C 29.7199 4.736 29.9959 4.448 30.3079 4.208C 30.6319 3.968 30.9079 3.848 31.1359 3.848C 31.4839 3.848 31.8799 4.04 32.3239 4.424C 32.7679 4.808 33.0859 5.192 33.2779 5.576L 33.9799 4.388C 34.4479 4.232 34.9159 4.154 35.3839 4.154ZM 32.9179 11.696C 33.3019 11.696 33.7219 11.498 34.1779 11.102C 34.6339 10.694 35.0179 10.196 35.3299 9.608C 35.6419 9.008 35.7979 8.438 35.7979 7.898C 35.7979 7.502 35.7019 7.196 35.5099 6.98C 35.3179 6.764 35.0419 6.656 34.6819 6.656C 34.2619 6.656 33.8779 6.896 33.5299 7.376C 33.1939 7.844 32.9239 8.42 32.7199 9.104C 32.5279 9.788 32.4319 10.418 32.4319 10.994C 32.4319 11.222 32.4739 11.396 32.5579 11.516C 32.6539 11.636 32.7739 11.696 32.9179 11.696ZM 47.7505 11.354C 48.4825 10.994 49.1005 10.61 49.6045 10.202C 50.1325 10.382 50.5225 10.634 50.7745 10.958C 51.0385 11.27 51.1705 11.63 51.1705 12.038C 51.1705 12.326 50.9665 12.626 50.5585 12.938C 50.1505 13.238 49.6645 13.49 49.1005 13.694C 48.5365 13.898 48.0565 14 47.6605 14C 47.3845 14 47.0665 13.898 46.7065 13.694C 46.3585 13.49 46.0525 13.25 45.7885 12.974C 45.5365 12.698 45.4105 12.482 45.4105 12.326C 45.4105 12.206 45.4585 12.044 45.5545 11.84C 45.6625 11.636 45.7765 11.426 45.8965 11.21C 46.0165 10.994 46.0945 10.85 46.1305 10.778L 45.6805 10.526C 45.0445 11.57 44.4325 12.41 43.8445 13.046C 43.2685 13.682 42.6985 14 42.1345 14C 41.7505 14 41.3425 13.832 40.9105 13.496C 40.4905 13.16 40.1305 12.752 39.8305 12.272C 39.5425 11.792 39.3985 11.366 39.3985 10.994C 39.3985 9.926 39.6205 8.834 40.0645 7.718C 40.5085 6.602 41.1265 5.678 41.9185 4.946C 42.7225 4.214 43.6285 3.848 44.6365 3.848C 44.9965 3.848 45.3625 4.01 45.7345 4.334C 46.1065 4.658 46.3465 4.988 46.4545 5.324C 46.5145 5.06 46.5985 4.832 46.7065 4.64C 46.8265 4.436 46.9525 4.334 47.0845 4.334C 47.3965 4.334 47.7385 4.448 48.1105 4.676C 48.4945 4.892 48.8185 5.15 49.0825 5.45C 49.3465 5.738 49.4785 5.966 49.4785 6.134C 49.4665 6.362 49.3705 6.74 49.1905 7.268C 49.0225 7.796 48.7465 8.6 48.3625 9.68C 48.1345 10.268 47.9305 10.826 47.7505 11.354ZM 42.2245 11.498C 43.1965 10.898 44.0425 10.16 44.7625 9.284C 45.4825 8.396 45.9745 7.418 46.2385 6.35C 45.9145 6.206 45.6085 6.134 45.3205 6.134C 44.7565 6.134 44.2525 6.386 43.8085 6.89C 43.3645 7.394 43.0105 8.054 42.7465 8.87C 42.4825 9.686 42.3085 10.562 42.2245 11.498ZM 54.954 14C 54.63 14 54.276 13.898 53.892 13.694C 53.508 13.478 53.178 13.232 52.902 12.956C 52.626 12.668 52.488 12.428 52.488 12.236C 52.488 12.008 52.536 11.714 52.632 11.354C 52.728 10.982 52.872 10.502 53.064 9.914C 53.256 9.302 53.4 8.816 53.496 8.456C 53.592 8.084 53.64 7.784 53.64 7.556C 53.64 7.46 53.586 7.358 53.478 7.25C 53.37 7.142 53.202 6.998 52.974 6.818C 52.71 6.602 52.518 6.434 52.398 6.314C 52.278 6.194 52.218 6.074 52.218 5.954C 52.218 5.702 52.338 5.408 52.578 5.072C 52.818 4.736 53.1 4.448 53.424 4.208C 53.748 3.968 54.024 3.848 54.252 3.848C 54.504 3.848 54.792 3.962 55.116 4.19C 55.44 4.418 55.722 4.682 55.962 4.982C 56.202 5.27 56.322 5.492 56.322 5.648C 56.322 6.104 56.232 6.704 56.052 7.448L 56.268 7.556C 56.544 7.112 56.844 6.584 57.168 5.972C 57.504 5.348 57.708 4.964 57.78 4.82L 58.122 4.172C 58.95 4.148 59.568 4.298 59.976 4.622C 60.384 4.946 60.588 5.378 60.588 5.918C 60.588 6.446 60.414 6.974 60.066 7.502C 59.202 7.79 58.464 8.078 57.852 8.366C 57.252 8.642 56.646 8.972 56.034 9.356C 55.998 10.688 55.89 11.798 55.71 12.686C 55.542 13.562 55.29 14 54.954 14ZM 65.0268 3.326C 64.7988 3.326 64.5228 3.236 64.1988 3.056C 63.8868 2.864 63.6168 2.642 63.3888 2.39C 63.1608 2.126 63.0468 1.892 63.0468 1.688C 63.0468 1.364 63.1308 1.04 63.2988 0.716C 63.4668 0.392 63.6768 0.158 63.9288 0.0139998C 64.0488 -0.0460001 64.2408 -0.0760001 64.5048 -0.0760001C 64.9368 -0.0760001 65.3688 0.0200005 65.8008 0.212C 66.2448 0.404001 66.5148 0.644 66.6108 0.932C 66.6348 0.992 66.6468 1.082 66.6468 1.202C 66.6468 1.478 66.5628 1.784 66.3948 2.12C 66.2268 2.456 66.0168 2.744 65.7648 2.984C 65.5128 3.212 65.2668 3.326 65.0268 3.326ZM 63.8028 14C 63.4908 14 63.1368 13.898 62.7408 13.694C 62.3568 13.478 62.0208 13.232 61.7328 12.956C 61.4568 12.668 61.3188 12.428 61.3188 12.236C 61.3188 12.02 61.3968 11.702 61.5528 11.282C 61.7088 10.862 61.9428 10.286 62.2548 9.554C 62.4948 8.99 62.6748 8.552 62.7948 8.24C 62.9148 7.916 62.9748 7.688 62.9748 7.556C 62.9748 7.46 62.9148 7.358 62.7948 7.25C 62.6868 7.13 62.5188 6.986 62.2908 6.818C 62.0268 6.614 61.8288 6.452 61.6968 6.332C 61.5768 6.212 61.5168 6.086 61.5168 5.954C 61.5168 5.702 61.6308 5.408 61.8588 5.072C 62.0988 4.736 62.3748 4.448 62.6868 4.208C 63.0108 3.968 63.2868 3.848 63.5148 3.848C 63.7908 3.848 64.0908 3.968 64.4148 4.208C 64.7508 4.448 65.0328 4.736 65.2608 5.072C 65.5008 5.396 65.6208 5.66 65.6208 5.864C 65.6208 6.392 65.4828 7.148 65.2068 8.132C 64.9428 9.104 64.6008 10.154 64.1808 11.282C 64.4688 11.15 64.7208 11.012 64.9368 10.868C 65.1528 10.724 65.4528 10.502 65.8368 10.202C 66.3768 10.382 66.7728 10.64 67.0248 10.976C 67.2768 11.3 67.4028 11.654 67.4028 12.038C 67.4028 12.35 67.1988 12.656 66.7908 12.956C 66.3948 13.256 65.9088 13.508 65.3328 13.712C 64.7568 13.904 64.2468 14 63.8028 14ZM 77.7126 10.202C 78.2406 10.382 78.6306 10.634 78.8826 10.958C 79.1466 11.27 79.2786 11.63 79.2786 12.038C 79.2786 12.326 79.0746 12.626 78.6666 12.938C 78.2586 13.238 77.7726 13.49 77.2086 13.694C 76.6446 13.898 76.1646 14 75.7686 14C 75.4926 14 75.1746 13.892 74.8146 13.676C 74.4546 13.46 74.1426 13.214 73.8786 12.938C 73.6266 12.65 73.5006 12.428 73.5006 12.272C 73.5006 12.152 73.6326 11.684 73.8966 10.868C 74.3646 9.44 74.5986 8.54 74.5986 8.168C 74.5986 8.024 74.5626 7.952 74.4906 7.952C 74.0106 7.952 73.1166 8.792 71.8086 10.472C 71.7606 10.664 71.7066 10.904 71.6466 11.192C 71.5986 11.48 71.5626 11.684 71.5386 11.804C 71.4066 12.512 71.2806 13.058 71.1606 13.442C 71.0526 13.814 70.9086 14 70.7286 14C 70.4166 14 70.0626 13.898 69.6666 13.694C 69.2826 13.478 68.9466 13.232 68.6586 12.956C 68.3826 12.668 68.2446 12.428 68.2446 12.236C 68.2446 12.02 68.3226 11.702 68.4786 11.282C 68.6346 10.862 68.8686 10.286 69.1806 9.554C 69.4206 8.99 69.6006 8.552 69.7206 8.24C 69.8406 7.916 69.9006 7.688 69.9006 7.556C 69.9006 7.46 69.8406 7.358 69.7206 7.25C 69.6126 7.13 69.4446 6.986 69.2166 6.818C 68.9526 6.614 68.7546 6.452 68.6226 6.332C 68.5026 6.212 68.4426 6.086 68.4426 5.954C 68.4426 5.702 68.5566 5.408 68.7846 5.072C 69.0246 4.736 69.3006 4.448 69.6126 4.208C 69.9366 3.968 70.2126 3.848 70.4406 3.848C 70.6926 3.848 70.9806 3.962 71.3046 4.19C 71.6406 4.418 71.9286 4.682 72.1686 4.982C 72.4206 5.27 72.5466 5.492 72.5466 5.648C 72.5466 5.936 72.5106 6.29 72.4386 6.71C 72.3786 7.13 72.2946 7.544 72.1866 7.952C 73.0626 6.8 73.7886 5.912 74.3646 5.288C 74.9406 4.652 75.3906 4.334 75.7146 4.334C 75.9426 4.334 76.2186 4.448 76.5426 4.676C 76.8666 4.904 77.1426 5.168 77.3706 5.468C 77.6106 5.756 77.7306 5.978 77.7306 6.134C 77.7186 6.338 77.6346 6.686 77.4786 7.178C 77.3226 7.67 77.1006 8.324 76.8126 9.14C 76.4286 10.196 76.1826 10.91 76.0746 11.282C 76.4466 11.09 76.7346 10.928 76.9386 10.796C 77.1546 10.652 77.4126 10.454 77.7126 10.202ZM 86.1754 11.156C 85.4434 11.732 84.7054 12.23 83.9614 12.65C 83.2294 13.07 82.6234 13.28 82.1434 13.28C 81.8674 13.28 81.5614 13.178 81.2254 12.974C 80.9014 12.758 80.6254 12.5 80.3974 12.2C 80.1694 11.888 80.0554 11.6 80.0554 11.336C 80.0554 10.34 80.2534 9.254 80.6494 8.078C 81.0574 6.89 81.6034 5.888 82.2874 5.072C 82.9834 4.256 83.7454 3.848 84.5734 3.848C 84.8974 3.848 85.2154 3.998 85.5274 4.298C 85.8394 4.586 86.0854 4.91 86.2654 5.27C 86.3134 4.982 86.3914 4.754 86.4994 4.586C 86.6194 4.418 86.7394 4.334 86.8594 4.334C 87.0394 4.334 87.3154 4.454 87.6874 4.694C 88.0594 4.922 88.3954 5.18 88.6954 5.468C 88.9954 5.756 89.1454 5.972 89.1454 6.116C 89.1454 6.572 88.9654 7.79 88.6054 9.77C 88.2574 11.75 87.8734 13.676 87.4534 15.548C 87.0454 17.42 86.7514 18.506 86.5714 18.806C 86.2954 19.238 85.8634 19.616 85.2754 19.94C 84.6994 20.264 84.1354 20.426 83.5834 20.426C 83.0674 20.426 82.5454 20.27 82.0174 19.958C 81.4894 19.646 81.0574 19.262 80.7214 18.806C 80.3854 18.35 80.2174 17.936 80.2174 17.564C 80.2174 17.132 80.4694 16.628 80.9734 16.052C 81.4894 15.476 82.1134 14.9 82.8454 14.324C 83.5774 13.76 84.5134 13.076 85.6534 12.272C 85.8574 12.116 86.1634 11.894 86.5714 11.606L 86.1754 11.156ZM 85.2034 6.134C 84.7834 6.134 84.3874 6.404 84.0154 6.944C 83.6554 7.472 83.3494 8.138 83.0974 8.942C 82.8454 9.734 82.6774 10.514 82.5934 11.282C 83.7214 10.814 84.6214 10.16 85.2934 9.32C 85.9654 8.48 86.3314 7.616 86.3914 6.728C 86.2474 6.572 86.0614 6.434 85.8334 6.314C 85.6174 6.194 85.4074 6.134 85.2034 6.134ZM 85.9594 14.054C 83.9194 15.65 82.8994 16.79 82.8994 17.474C 82.8994 17.714 83.0014 17.918 83.2054 18.086C 83.4214 18.266 83.6914 18.41 84.0154 18.518C 84.3754 18.098 84.7054 17.528 85.0054 16.808C 85.3054 16.088 85.6234 15.17 85.9594 14.054ZM 101.373 11.12C 100.629 11.72 99.8555 12.254 99.0515 12.722C 98.2475 13.19 97.6295 13.424 97.1975 13.424C 97.0175 13.424 96.7775 13.328 96.4775 13.136C 96.1895 12.932 95.9315 12.692 95.7035 12.416C 95.4875 12.14 95.3795 11.888 95.3795 11.66C 95.3795 11.444 95.4275 11.162 95.5235 10.814C 95.6315 10.466 95.7995 9.962 96.0275 9.302C 96.3635 8.366 96.5315 7.784 96.5315 7.556C 96.5315 7.46 96.4715 7.358 96.3515 7.25C 96.2435 7.13 96.0755 6.986 95.8475 6.818C 95.5835 6.614 95.3855 6.452 95.2535 6.332C 95.1335 6.212 95.0735 6.086 95.0735 5.954C 95.0735 5.702 95.1875 5.408 95.4155 5.072C 95.6555 4.736 95.9315 4.448 96.2435 4.208C 96.5675 3.968 96.8435 3.848 97.0715 3.848C 97.3235 3.848 97.6115 3.962 97.9355 4.19C 98.2715 4.418 98.5595 4.682 98.7995 4.982C 99.0515 5.27 99.1775 5.492 99.1775 5.648C 99.1775 6.32 99.0815 7.124 98.8895 8.06C 98.7095 8.984 98.4455 9.932 98.0975 10.904C 99.0695 10.4 100.041 9.752 101.013 8.96C 101.169 7.424 101.319 6.272 101.463 5.504C 101.607 4.724 101.811 4.334 102.075 4.334C 102.255 4.334 102.525 4.46 102.885 4.712C 103.257 4.952 103.587 5.228 103.875 5.54C 104.175 5.84 104.325 6.074 104.325 6.242C 104.325 6.494 104.139 7.64 103.767 9.68C 103.395 11.708 103.005 13.658 102.597 15.53C 102.189 17.414 101.895 18.5 101.715 18.788C 101.451 19.22 101.019 19.598 100.419 19.922C 99.8195 20.246 99.2375 20.408 98.6735 20.408C 98.1935 20.408 97.6775 20.246 97.1255 19.922C 96.5855 19.598 96.1295 19.196 95.7575 18.716C 95.3975 18.248 95.2175 17.816 95.2175 17.42C 95.2175 16.892 95.8175 16.118 97.0175 15.098C 98.2175 14.09 99.7775 12.926 101.697 11.606L 101.373 11.12ZM 101.085 14.054C 98.9735 15.71 97.9175 16.862 97.9175 17.51C 97.9175 17.738 98.0375 17.948 98.2775 18.14C 98.5175 18.332 98.8175 18.458 99.1775 18.518C 99.5735 17.954 99.9035 17.342 100.167 16.682C 100.443 16.034 100.749 15.158 101.085 14.054ZM 109.102 3.83C 109.954 3.926 110.728 4.184 111.424 4.604C 112.132 5.012 112.684 5.504 113.08 6.08C 113.476 6.656 113.674 7.232 113.674 7.808C 113.674 8.672 113.452 9.59 113.008 10.562C 112.564 11.534 111.946 12.35 111.154 13.01C 110.362 13.67 109.48 14 108.508 14C 108.028 14 107.518 13.826 106.978 13.478C 106.438 13.118 105.982 12.686 105.61 12.182C 105.25 11.666 105.07 11.21 105.07 10.814C 105.07 10.082 105.16 9.332 105.34 8.564C 105.52 7.784 105.796 7.028 106.168 6.296C 106.516 6.104 106.864 6.008 107.212 6.008C 107.368 6.008 107.512 6.026 107.644 6.062C 107.596 5.918 107.572 5.75 107.572 5.558C 107.572 5.174 107.704 4.826 107.968 4.514C 108.244 4.202 108.622 3.974 109.102 3.83ZM 107.86 11.948C 108.856 11.612 109.63 11.036 110.182 10.22C 110.734 9.404 111.1 8.432 111.28 7.304C 110.74 6.92 110.008 6.728 109.084 6.728C 108.856 6.728 108.682 6.734 108.562 6.746C 108.694 6.986 108.76 7.256 108.76 7.556C 108.448 8.048 108.208 8.594 108.04 9.194C 107.872 9.782 107.788 10.376 107.788 10.976C 107.788 11.336 107.812 11.66 107.86 11.948ZM 116.909 14C 116.597 14 116.255 13.886 115.883 13.658C 115.523 13.418 115.217 13.148 114.965 12.848C 114.713 12.536 114.587 12.284 114.587 12.092C 114.587 11.9 114.641 11.624 114.749 11.264C 114.869 10.904 114.989 10.544 115.109 10.184C 115.241 9.824 115.325 9.596 115.361 9.5C 115.517 9.08 115.655 8.684 115.775 8.312C 115.907 7.94 115.973 7.688 115.973 7.556C 115.973 7.46 115.913 7.358 115.793 7.25C 115.685 7.13 115.517 6.986 115.289 6.818C 115.025 6.614 114.827 6.452 114.695 6.332C 114.575 6.212 114.515 6.086 114.515 5.954C 114.515 5.702 114.629 5.408 114.857 5.072C 115.097 4.736 115.373 4.448 115.685 4.208C 116.009 3.968 116.285 3.848 116.513 3.848C 116.765 3.848 117.053 3.962 117.377 4.19C 117.713 4.418 118.001 4.682 118.241 4.982C 118.493 5.27 118.619 5.492 118.619 5.648C 118.619 6.392 118.493 7.286 118.241 8.33C 117.989 9.374 117.665 10.412 117.269 11.444C 118.061 10.784 118.769 10.052 119.393 9.248C 120.017 8.444 120.455 7.724 120.707 7.088C 120.731 6.308 120.821 5.654 120.977 5.126C 121.145 4.598 121.337 4.334 121.553 4.334C 121.865 4.334 122.207 4.448 122.579 4.676C 122.963 4.892 123.287 5.15 123.551 5.45C 123.815 5.738 123.947 5.966 123.947 6.134C 123.935 6.386 123.821 6.86 123.605 7.556C 123.389 8.24 123.089 9.122 122.705 10.202C 122.477 10.874 122.345 11.258 122.309 11.354C 122.657 11.198 122.969 11.036 123.245 10.868C 123.533 10.688 123.833 10.466 124.145 10.202C 124.673 10.382 125.063 10.634 125.315 10.958C 125.579 11.27 125.711 11.63 125.711 12.038C 125.711 12.326 125.507 12.626 125.099 12.938C 124.691 13.238 124.205 13.49 123.641 13.694C 123.077 13.898 122.597 14 122.201 14C 121.949 14 121.649 13.898 121.301 13.694C 120.953 13.478 120.641 13.238 120.365 12.974C 120.101 12.698 119.969 12.494 119.969 12.362C 119.969 12.23 120.011 12.068 120.095 11.876C 120.191 11.684 120.293 11.48 120.401 11.264C 120.521 11.036 120.611 10.874 120.671 10.778L 120.221 10.526C 119.561 11.738 118.991 12.62 118.511 13.172C 118.043 13.724 117.509 14 116.909 14ZM 129.485 14C 129.161 14 128.807 13.898 128.423 13.694C 128.039 13.478 127.709 13.232 127.433 12.956C 127.157 12.668 127.019 12.428 127.019 12.236C 127.019 12.008 127.067 11.714 127.163 11.354C 127.259 10.982 127.403 10.502 127.595 9.914C 127.787 9.302 127.931 8.816 128.027 8.456C 128.123 8.084 128.171 7.784 128.171 7.556C 128.171 7.46 128.117 7.358 128.009 7.25C 127.901 7.142 127.733 6.998 127.505 6.818C 127.241 6.602 127.049 6.434 126.929 6.314C 126.809 6.194 126.749 6.074 126.749 5.954C 126.749 5.702 126.869 5.408 127.109 5.072C 127.349 4.736 127.631 4.448 127.955 4.208C 128.279 3.968 128.555 3.848 128.783 3.848C 129.035 3.848 129.323 3.962 129.647 4.19C 129.971 4.418 130.253 4.682 130.493 4.982C 130.733 5.27 130.853 5.492 130.853 5.648C 130.853 6.104 130.763 6.704 130.583 7.448L 130.799 7.556C 131.075 7.112 131.375 6.584 131.699 5.972C 132.035 5.348 132.239 4.964 132.311 4.82L 132.653 4.172C 133.481 4.148 134.099 4.298 134.507 4.622C 134.915 4.946 135.119 5.378 135.119 5.918C 135.119 6.446 134.945 6.974 134.597 7.502C 133.733 7.79 132.995 8.078 132.383 8.366C 131.783 8.642 131.177 8.972 130.565 9.356C 130.529 10.688 130.421 11.798 130.241 12.686C 130.073 13.562 129.821 14 129.485 14ZM 148.242 18.392C 147.906 18.392 147.534 18.29 147.126 18.086C 146.73 17.882 146.388 17.636 146.1 17.348C 145.824 17.072 145.686 16.832 145.686 16.628C 145.686 16.46 145.89 15.608 146.298 14.072C 146.574 13.04 146.724 12.458 146.748 12.326C 146.784 12.074 147.024 11.558 147.468 10.778L 147.018 10.526C 146.382 11.57 145.77 12.41 145.182 13.046C 144.606 13.682 144.036 14 143.472 14C 143.088 14 142.68 13.832 142.248 13.496C 141.828 13.16 141.468 12.752 141.168 12.272C 140.88 11.792 140.736 11.366 140.736 10.994C 140.736 9.926 140.958 8.834 141.402 7.718C 141.846 6.602 142.464 5.678 143.256 4.946C 144.06 4.214 144.966 3.848 145.974 3.848C 146.334 3.848 146.7 4.01 147.072 4.334C 147.444 4.658 147.684 4.988 147.792 5.324C 147.852 5.06 147.936 4.832 148.044 4.64C 148.164 4.436 148.29 4.334 148.422 4.334C 148.734 4.334 149.076 4.448 149.448 4.676C 149.832 4.892 150.156 5.15 150.42 5.45C 150.684 5.738 150.816 5.966 150.816 6.134C 150.816 6.47 150.732 6.962 150.564 7.61C 150.396 8.258 150.162 9.086 149.862 10.094L 149.61 10.958L 149.484 11.426C 149.436 11.582 149.292 12.074 149.052 12.902C 148.812 13.718 148.482 14.684 148.062 15.8L 148.188 15.872L 148.44 15.566C 149.04 14.846 149.514 14.324 149.862 14C 150.21 13.676 150.552 13.514 150.888 13.514C 151.284 13.514 151.62 13.676 151.896 14C 152.172 14.336 152.328 14.714 152.364 15.134L 152.022 15.458C 151.134 16.334 150.366 17.042 149.718 17.582C 149.082 18.122 148.59 18.392 148.242 18.392ZM 143.562 11.498C 144.534 10.898 145.38 10.16 146.1 9.284C 146.82 8.396 147.312 7.418 147.576 6.35C 147.252 6.206 146.946 6.134 146.658 6.134C 146.094 6.134 145.59 6.386 145.146 6.89C 144.702 7.394 144.348 8.054 144.084 8.87C 143.82 9.686 143.646 10.562 143.562 11.498ZM 154.333 14C 154.021 14 153.679 13.886 153.307 13.658C 152.947 13.418 152.641 13.148 152.389 12.848C 152.137 12.536 152.011 12.284 152.011 12.092C 152.011 11.9 152.065 11.624 152.173 11.264C 152.293 10.904 152.413 10.544 152.533 10.184C 152.665 9.824 152.749 9.596 152.785 9.5C 152.941 9.08 153.079 8.684 153.199 8.312C 153.331 7.94 153.397 7.688 153.397 7.556C 153.397 7.46 153.337 7.358 153.217 7.25C 153.109 7.13 152.941 6.986 152.713 6.818C 152.449 6.614 152.251 6.452 152.119 6.332C 151.999 6.212 151.939 6.086 151.939 5.954C 151.939 5.702 152.053 5.408 152.281 5.072C 152.521 4.736 152.797 4.448 153.109 4.208C 153.433 3.968 153.709 3.848 153.937 3.848C 154.189 3.848 154.477 3.962 154.801 4.19C 155.137 4.418 155.425 4.682 155.665 4.982C 155.917 5.27 156.043 5.492 156.043 5.648C 156.043 6.392 155.917 7.286 155.665 8.33C 155.413 9.374 155.089 10.412 154.693 11.444C 155.485 10.784 156.193 10.052 156.817 9.248C 157.441 8.444 157.879 7.724 158.131 7.088C 158.155 6.308 158.245 5.654 158.401 5.126C 158.569 4.598 158.761 4.334 158.977 4.334C 159.289 4.334 159.631 4.448 160.003 4.676C 160.387 4.892 160.711 5.15 160.975 5.45C 161.239 5.738 161.371 5.966 161.371 6.134C 161.359 6.386 161.245 6.86 161.029 7.556C 160.813 8.24 160.513 9.122 160.129 10.202C 159.901 10.874 159.769 11.258 159.733 11.354C 160.081 11.198 160.393 11.036 160.669 10.868C 160.957 10.688 161.257 10.466 161.569 10.202C 162.097 10.382 162.487 10.634 162.739 10.958C 163.003 11.27 163.135 11.63 163.135 12.038C 163.135 12.326 162.931 12.626 162.523 12.938C 162.115 13.238 161.629 13.49 161.065 13.694C 160.501 13.898 160.021 14 159.625 14C 159.373 14 159.073 13.898 158.725 13.694C 158.377 13.478 158.065 13.238 157.789 12.974C 157.525 12.698 157.393 12.494 157.393 12.362C 157.393 12.23 157.435 12.068 157.519 11.876C 157.615 11.684 157.717 11.48 157.825 11.264C 157.945 11.036 158.035 10.874 158.095 10.778L 157.645 10.526C 156.985 11.738 156.415 12.62 155.935 13.172C 155.467 13.724 154.933 14 154.333 14ZM 167.899 14C 167.323 14 166.723 13.814 166.099 13.442C 165.475 13.058 164.959 12.59 164.551 12.038C 164.143 11.486 163.939 10.964 163.939 10.472C 163.939 9.596 164.143 8.636 164.551 7.592C 164.971 6.548 165.547 5.666 166.279 4.946C 167.011 4.214 167.839 3.848 168.763 3.848C 169.423 3.848 170.017 3.992 170.545 4.28C 171.085 4.568 171.505 4.928 171.805 5.36C 172.105 5.792 172.255 6.212 172.255 6.62C 172.255 7.124 172.027 7.622 171.571 8.114C 171.115 8.594 170.479 9.02 169.663 9.392C 168.847 9.752 167.917 10.01 166.873 10.166C 166.861 10.31 166.855 10.526 166.855 10.814C 166.855 11.174 166.867 11.444 166.891 11.624C 167.491 11.564 168.085 11.402 168.673 11.138C 169.261 10.874 169.903 10.502 170.599 10.022C 171.067 10.166 171.421 10.394 171.661 10.706C 171.901 11.018 172.021 11.39 172.021 11.822C 172.021 12.182 171.799 12.536 171.355 12.884C 170.923 13.22 170.383 13.49 169.735 13.694C 169.087 13.898 168.475 14 167.899 14ZM 167.143 8.816C 167.875 8.552 168.487 8.216 168.979 7.808C 169.471 7.4 169.717 7.052 169.717 6.764C 169.717 6.428 169.483 6.2 169.015 6.08C 168.559 6.416 168.169 6.818 167.845 7.286C 167.533 7.754 167.299 8.264 167.143 8.816ZM 178.709 5.99C 178.169 6.398 177.731 6.8 177.395 7.196C 177.071 7.592 176.909 7.928 176.909 8.204C 176.909 8.336 177.023 8.474 177.251 8.618C 177.479 8.75 177.857 8.936 178.385 9.176C 179.225 9.56 179.885 9.92 180.365 10.256C 180.845 10.58 181.085 10.958 181.085 11.39C 181.085 11.822 180.839 12.242 180.347 12.65C 179.867 13.046 179.267 13.37 178.547 13.622C 177.827 13.874 177.155 14 176.531 14C 176.063 14 175.571 13.904 175.055 13.712C 174.539 13.508 174.107 13.256 173.759 12.956C 173.411 12.644 173.237 12.35 173.237 12.074C 173.237 11.582 173.393 11.192 173.705 10.904C 174.029 10.604 174.449 10.454 174.965 10.454C 175.205 10.454 175.451 10.49 175.703 10.562C 175.907 11.21 176.081 11.672 176.225 11.948C 176.957 11.756 177.611 11.432 178.187 10.976C 177.179 10.544 176.255 10.058 175.415 9.518C 174.587 8.978 174.173 8.474 174.173 8.006C 174.173 7.526 174.395 6.956 174.839 6.296C 175.283 5.624 175.847 5.048 176.531 4.568C 177.227 4.076 177.935 3.83 178.655 3.83C 179.147 3.83 179.615 3.974 180.059 4.262C 180.515 4.55 180.881 4.91 181.157 5.342C 181.433 5.774 181.571 6.194 181.571 6.602C 181.571 6.998 181.415 7.322 181.103 7.574C 180.803 7.814 180.419 7.934 179.951 7.934C 179.651 7.934 179.345 7.874 179.033 7.754C 179.009 7.274 178.901 6.686 178.709 5.99ZM 186.427 6.926C 186.031 8.738 185.773 10.214 185.653 11.354C 186.421 10.982 187.039 10.598 187.507 10.202C 188.035 10.382 188.425 10.634 188.677 10.958C 188.941 11.27 189.073 11.63 189.073 12.038C 189.073 12.326 188.869 12.626 188.461 12.938C 188.053 13.238 187.567 13.49 187.003 13.694C 186.439 13.898 185.959 14 185.563 14C 185.215 14 184.825 13.898 184.393 13.694C 183.973 13.478 183.613 13.232 183.313 12.956C 183.013 12.668 182.863 12.422 182.863 12.218C 182.863 12.05 182.923 11.69 183.043 11.138C 183.175 10.574 183.289 10.094 183.385 9.698C 183.493 9.29 183.571 8.99 183.619 8.798L 184.051 7.07L 182.953 7.142C 182.749 7.046 182.593 6.896 182.485 6.692C 182.377 6.488 182.323 6.254 182.323 5.99C 182.323 5.51 182.497 5.102 182.845 4.766C 183.277 4.79 183.805 4.814 184.429 4.838C 184.429 4.07 184.513 3.224 184.681 2.3C 184.849 1.364 185.035 0.896 185.239 0.896C 185.491 0.896 185.809 1.004 186.193 1.22C 186.577 1.436 186.913 1.688 187.201 1.976C 187.489 2.264 187.633 2.516 187.633 2.732C 187.633 3.008 187.579 3.29 187.471 3.578C 187.375 3.854 187.213 4.238 186.985 4.73C 187.189 4.706 187.705 4.622 188.533 4.478L 188.947 4.406C 189.163 4.526 189.325 4.7 189.433 4.928C 189.553 5.156 189.613 5.402 189.613 5.666C 189.613 5.882 189.571 6.092 189.487 6.296C 189.403 6.5 189.277 6.674 189.109 6.818L 186.427 6.926ZM 193.98 3.326C 193.752 3.326 193.476 3.236 193.152 3.056C 192.84 2.864 192.57 2.642 192.342 2.39C 192.114 2.126 192 1.892 192 1.688C 192 1.364 192.084 1.04 192.252 0.716C 192.42 0.392 192.63 0.158 192.882 0.0139998C 193.002 -0.0460001 193.194 -0.0760001 193.458 -0.0760001C 193.89 -0.0760001 194.322 0.0200005 194.754 0.212C 195.198 0.404001 195.468 0.644 195.564 0.932C 195.588 0.992 195.6 1.082 195.6 1.202C 195.6 1.478 195.516 1.784 195.348 2.12C 195.18 2.456 194.97 2.744 194.718 2.984C 194.466 3.212 194.22 3.326 193.98 3.326ZM 192.756 14C 192.444 14 192.09 13.898 191.694 13.694C 191.31 13.478 190.974 13.232 190.686 12.956C 190.41 12.668 190.272 12.428 190.272 12.236C 190.272 12.02 190.35 11.702 190.506 11.282C 190.662 10.862 190.896 10.286 191.208 9.554C 191.448 8.99 191.628 8.552 191.748 8.24C 191.868 7.916 191.928 7.688 191.928 7.556C 191.928 7.46 191.868 7.358 191.748 7.25C 191.64 7.13 191.472 6.986 191.244 6.818C 190.98 6.614 190.782 6.452 190.65 6.332C 190.53 6.212 190.47 6.086 190.47 5.954C 190.47 5.702 190.584 5.408 190.812 5.072C 191.052 4.736 191.328 4.448 191.64 4.208C 191.964 3.968 192.24 3.848 192.468 3.848C 192.744 3.848 193.044 3.968 193.368 4.208C 193.704 4.448 193.986 4.736 194.214 5.072C 194.454 5.396 194.574 5.66 194.574 5.864C 194.574 6.392 194.436 7.148 194.16 8.132C 193.896 9.104 193.554 10.154 193.134 11.282C 193.422 11.15 193.674 11.012 193.89 10.868C 194.106 10.724 194.406 10.502 194.79 10.202C 195.33 10.382 195.726 10.64 195.978 10.976C 196.23 11.3 196.356 11.654 196.356 12.038C 196.356 12.35 196.152 12.656 195.744 12.956C 195.348 13.256 194.862 13.508 194.286 13.712C 193.71 13.904 193.2 14 192.756 14ZM 201.176 3.83C 202.028 3.926 202.802 4.184 203.498 4.604C 204.206 5.012 204.758 5.504 205.154 6.08C 205.55 6.656 205.748 7.232 205.748 7.808C 205.748 8.672 205.526 9.59 205.082 10.562C 204.638 11.534 204.02 12.35 203.228 13.01C 202.436 13.67 201.554 14 200.582 14C 200.102 14 199.592 13.826 199.052 13.478C 198.512 13.118 198.056 12.686 197.684 12.182C 197.324 11.666 197.144 11.21 197.144 10.814C 197.144 10.082 197.234 9.332 197.414 8.564C 197.594 7.784 197.87 7.028 198.242 6.296C 198.59 6.104 198.938 6.008 199.286 6.008C 199.442 6.008 199.586 6.026 199.718 6.062C 199.67 5.918 199.646 5.75 199.646 5.558C 199.646 5.174 199.778 4.826 200.042 4.514C 200.318 4.202 200.696 3.974 201.176 3.83ZM 199.934 11.948C 200.93 11.612 201.704 11.036 202.256 10.22C 202.808 9.404 203.174 8.432 203.354 7.304C 202.814 6.92 202.082 6.728 201.158 6.728C 200.93 6.728 200.756 6.734 200.636 6.746C 200.768 6.986 200.834 7.256 200.834 7.556C 200.522 8.048 200.282 8.594 200.114 9.194C 199.946 9.782 199.862 10.376 199.862 10.976C 199.862 11.336 199.886 11.66 199.934 11.948ZM 215.859 10.202C 216.387 10.382 216.777 10.634 217.029 10.958C 217.293 11.27 217.425 11.63 217.425 12.038C 217.425 12.326 217.221 12.626 216.813 12.938C 216.405 13.238 215.919 13.49 215.355 13.694C 214.791 13.898 214.311 14 213.915 14C 213.639 14 213.321 13.892 212.961 13.676C 212.601 13.46 212.289 13.214 212.025 12.938C 211.773 12.65 211.647 12.428 211.647 12.272C 211.647 12.152 211.779 11.684 212.043 10.868C 212.511 9.44 212.745 8.54 212.745 8.168C 212.745 8.024 212.709 7.952 212.637 7.952C 212.157 7.952 211.263 8.792 209.955 10.472C 209.907 10.664 209.853 10.904 209.793 11.192C 209.745 11.48 209.709 11.684 209.685 11.804C 209.553 12.512 209.427 13.058 209.307 13.442C 209.199 13.814 209.055 14 208.875 14C 208.563 14 208.209 13.898 207.813 13.694C 207.429 13.478 207.093 13.232 206.805 12.956C 206.529 12.668 206.391 12.428 206.391 12.236C 206.391 12.02 206.469 11.702 206.625 11.282C 206.781 10.862 207.015 10.286 207.327 9.554C 207.567 8.99 207.747 8.552 207.867 8.24C 207.987 7.916 208.047 7.688 208.047 7.556C 208.047 7.46 207.987 7.358 207.867 7.25C 207.759 7.13 207.591 6.986 207.363 6.818C 207.099 6.614 206.901 6.452 206.769 6.332C 206.649 6.212 206.589 6.086 206.589 5.954C 206.589 5.702 206.703 5.408 206.931 5.072C 207.171 4.736 207.447 4.448 207.759 4.208C 208.083 3.968 208.359 3.848 208.587 3.848C 208.839 3.848 209.127 3.962 209.451 4.19C 209.787 4.418 210.075 4.682 210.315 4.982C 210.567 5.27 210.693 5.492 210.693 5.648C 210.693 5.936 210.657 6.29 210.585 6.71C 210.525 7.13 210.441 7.544 210.333 7.952C 211.209 6.8 211.935 5.912 212.511 5.288C 213.087 4.652 213.537 4.334 213.861 4.334C 214.089 4.334 214.365 4.448 214.689 4.676C 215.013 4.904 215.289 5.168 215.517 5.468C 215.757 5.756 215.877 5.978 215.877 6.134C 215.865 6.338 215.781 6.686 215.625 7.178C 215.469 7.67 215.247 8.324 214.959 9.14C 214.575 10.196 214.329 10.91 214.221 11.282C 214.593 11.09 214.881 10.928 215.085 10.796C 215.301 10.652 215.559 10.454 215.859 10.202ZM 223.656 5.99C 223.116 6.398 222.678 6.8 222.342 7.196C 222.018 7.592 221.856 7.928 221.856 8.204C 221.856 8.336 221.97 8.474 222.198 8.618C 222.426 8.75 222.804 8.936 223.332 9.176C 224.172 9.56 224.832 9.92 225.312 10.256C 225.792 10.58 226.032 10.958 226.032 11.39C 226.032 11.822 225.786 12.242 225.294 12.65C 224.814 13.046 224.214 13.37 223.494 13.622C 222.774 13.874 222.102 14 221.478 14C 221.01 14 220.518 13.904 220.002 13.712C 219.486 13.508 219.054 13.256 218.706 12.956C 218.358 12.644 218.184 12.35 218.184 12.074C 218.184 11.582 218.34 11.192 218.652 10.904C 218.976 10.604 219.396 10.454 219.912 10.454C 220.152 10.454 220.398 10.49 220.65 10.562C 220.854 11.21 221.028 11.672 221.172 11.948C 221.904 11.756 222.558 11.432 223.134 10.976C 222.126 10.544 221.202 10.058 220.362 9.518C 219.534 8.978 219.12 8.474 219.12 8.006C 219.12 7.526 219.342 6.956 219.786 6.296C 220.23 5.624 220.794 5.048 221.478 4.568C 222.174 4.076 222.882 3.83 223.602 3.83C 224.094 3.83 224.562 3.974 225.006 4.262C 225.462 4.55 225.828 4.91 226.104 5.342C 226.38 5.774 226.518 6.194 226.518 6.602C 226.518 6.998 226.362 7.322 226.05 7.574C 225.75 7.814 225.366 7.934 224.898 7.934C 224.598 7.934 224.292 7.874 223.98 7.754C 223.956 7.274 223.848 6.686 223.656 5.99ZM 228.909 14C 228.705 14 228.489 13.892 228.261 13.676C 228.045 13.448 227.859 13.178 227.703 12.866C 227.559 12.554 227.487 12.278 227.487 12.038C 227.487 11.834 227.625 11.618 227.901 11.39C 228.189 11.162 228.531 10.97 228.927 10.814C 229.323 10.658 229.677 10.58 229.989 10.58C 230.193 10.58 230.397 10.688 230.601 10.904C 230.805 11.108 230.967 11.36 231.087 11.66C 231.219 11.948 231.285 12.194 231.285 12.398C 231.285 12.614 231.141 12.848 230.853 13.1C 230.577 13.352 230.247 13.568 229.863 13.748C 229.491 13.916 229.173 14 228.909 14ZM 234.586 14C 234.382 14 234.166 13.892 233.938 13.676C 233.722 13.448 233.536 13.178 233.38 12.866C 233.236 12.554 233.164 12.278 233.164 12.038C 233.164 11.834 233.302 11.618 233.578 11.39C 233.866 11.162 234.208 10.97 234.604 10.814C 235 10.658 235.354 10.58 235.666 10.58C 235.87 10.58 236.074 10.688 236.278 10.904C 236.482 11.108 236.644 11.36 236.764 11.66C 236.896 11.948 236.962 12.194 236.962 12.398C 236.962 12.614 236.818 12.848 236.53 13.1C 236.254 13.352 235.924 13.568 235.54 13.748C 235.168 13.916 234.85 14 234.586 14ZM 240.264 14C 240.06 14 239.844 13.892 239.616 13.676C 239.4 13.448 239.214 13.178 239.058 12.866C 238.914 12.554 238.842 12.278 238.842 12.038C 238.842 11.834 238.98 11.618 239.256 11.39C 239.544 11.162 239.886 10.97 240.282 10.814C 240.678 10.658 241.032 10.58 241.344 10.58C 241.548 10.58 241.752 10.688 241.956 10.904C 242.16 11.108 242.322 11.36 242.442 11.66C 242.574 11.948 242.64 12.194 242.64 12.398C 242.64 12.614 242.496 12.848 242.208 13.1C 241.932 13.352 241.602 13.568 241.218 13.748C 240.846 13.916 240.528 14 240.264 14Z"/>
<path id="path5_fill" d="M 0 0L 108 0L 108 108L 0 108L 0 0Z"/>
<path id="path6_stroke_2x" d="M 0 0L 0 -1L -1 -1L -1 0L 0 0ZM 108 0L 109 0L 109 -1L 108 -1L 108 0ZM 108 108L 108 109L 109 109L 109 108L 108 108ZM 0 108L -1 108L -1 109L 0 109L 0 108ZM 0 1L 108 1L 108 -1L 0 -1L 0 1ZM 107 0L 107 108L 109 108L 109 0L 107 0ZM 108 107L 0 107L 0 109L 108 109L 108 107ZM 1 108L 1 0L -1 0L -1 108L 1 108Z"/>
<path id="path7_fill" d="M 2.4375 16.5938L 2.4375 6.11719L 1.08398 5.8623L 1.08398 4.62305L 7.0957 4.62305L 7.0957 5.8623L 5.42578 6.11719L 5.42578 16.585L 8.88867 16.3916L 10.0488 12.9902L 11.6924 13.2363L 11.1738 18L 1.06641 18L 1.06641 16.8223L 2.4375 16.5938ZM 12.5098 13.0078C 12.5098 11.9238 12.7119 10.9863 13.1162 10.1953C 13.5264 9.4043 14.1006 8.79785 14.8389 8.37598C 15.5771 7.9541 16.4326 7.74316 17.4053 7.74316C 18.6416 7.74316 19.5879 8.05664 20.2441 8.68359C 20.9062 9.31055 21.252 10.21 21.2812 11.3818C 21.2812 12.1963 21.2373 12.8145 21.1494 13.2363L 15.4717 13.2363C 15.542 14.3145 15.8057 15.1143 16.2627 15.6357C 16.7256 16.1572 17.3379 16.418 18.0996 16.418C 18.5391 16.418 18.9961 16.3418 19.4707 16.1895C 19.9512 16.0371 20.3408 15.8643 20.6396 15.6709L 21.1494 16.7607C 20.9443 16.9775 20.6396 17.1973 20.2354 17.4199C 19.8369 17.6426 19.377 17.8301 18.8555 17.9824C 18.3398 18.1289 17.8213 18.2021 17.2998 18.2021C 16.21 18.2021 15.3076 17.9854 14.5928 17.5518C 13.8779 17.1182 13.3506 16.5146 13.0107 15.7412C 12.6768 14.9619 12.5098 14.0508 12.5098 13.0078ZM 18.4775 12.0322L 18.4863 11.2939C 18.4863 10.5615 18.3809 9.99316 18.1699 9.58887C 17.959 9.18457 17.6016 8.98242 17.0977 8.98242C 16.7637 8.98242 16.4795 9.06738 16.2451 9.2373C 16.0107 9.40723 15.8232 9.71777 15.6826 10.1689C 15.542 10.6143 15.4629 11.2354 15.4453 12.0322L 18.4775 12.0322ZM 28.1895 11.4697C 28.1895 11.0303 28.1396 10.6816 28.04 10.4238C 27.9463 10.166 27.7705 9.97266 27.5127 9.84375C 27.2549 9.71484 26.8857 9.65039 26.4053 9.65039C 25.8076 9.65039 25.2656 9.71777 24.7793 9.85254C 24.2988 9.98145 23.8154 10.1514 23.3291 10.3623L 23.3203 10.3623L 22.749 9.17578C 22.9424 9.01172 23.2617 8.82129 23.707 8.60449C 24.1582 8.38184 24.6826 8.18848 25.2803 8.02441C 25.8838 7.85449 26.499 7.76953 27.126 7.76953C 28.0635 7.76953 28.7988 7.89258 29.332 8.13867C 29.8711 8.37891 30.2549 8.7627 30.4834 9.29004C 30.7119 9.81738 30.8262 10.5293 30.8262 11.4258L 30.8262 16.8135L 31.7842 16.8135L 31.7842 17.9297C 31.4854 17.9941 31.1104 18.0586 30.6592 18.123C 30.208 18.1875 29.8125 18.2197 29.4727 18.2197C 29.1621 18.2197 28.9219 18.1904 28.752 18.1318C 28.5879 18.0791 28.4707 17.9824 28.4004 17.8418C 28.3301 17.6953 28.2949 17.4844 28.2949 17.209L 28.2949 16.9365C 28.0078 17.2705 27.6182 17.5664 27.126 17.8242C 26.6338 18.0762 26.0684 18.2021 25.4297 18.2021C 24.8672 18.2021 24.3516 18.0879 23.8828 17.8594C 23.4199 17.625 23.0508 17.2822 22.7754 16.8311C 22.5 16.3799 22.3623 15.835 22.3623 15.1963C 22.3623 14.0947 22.8779 13.2656 23.9092 12.709C 24.9404 12.1465 26.3672 11.8564 28.1895 11.8389L 28.1895 11.4697ZM 28.1895 13.0254C 27.2109 13.0313 26.502 13.207 26.0625 13.5527C 25.6289 13.8984 25.4121 14.3379 25.4121 14.8711C 25.4121 15.4102 25.5352 15.8262 25.7812 16.1191C 26.0332 16.4063 26.3701 16.5498 26.792 16.5498C 26.9971 16.5498 27.2344 16.4971 27.5039 16.3916C 27.7793 16.2803 28.0078 16.1426 28.1895 15.9785L 28.1895 13.0254ZM 33.9902 16.6553L 33.9902 9.89648L 32.9268 9.54492L 32.9268 8.15625L 35.8711 7.75195L 35.915 7.75195L 36.4336 8.13867L 36.4336 8.64844L 36.3896 10.0371L 36.4336 10.0371C 36.5156 9.77344 36.7002 9.45996 36.9873 9.09668C 37.2803 8.7334 37.6523 8.41699 38.1035 8.14746C 38.5547 7.87207 39.0469 7.73438 39.5801 7.73438C 39.7266 7.73438 39.8584 7.74902 39.9756 7.77832C 40.0986 7.80176 40.1953 7.83398 40.2656 7.875L 40.2656 10.8721C 40.0605 10.7314 39.8496 10.6289 39.6328 10.5645C 39.4219 10.5 39.1641 10.4678 38.8594 10.4678C 38.4258 10.4678 38.0273 10.5146 37.6641 10.6084C 37.3008 10.7021 37.0254 10.8193 36.8379 10.96L 36.8379 16.6465L 38.9121 16.8311L 38.9121 18L 32.8301 18L 32.8301 16.8223L 33.9902 16.6553ZM 42.5947 16.6641L 42.5947 9.89648L 41.5137 9.54492L 41.5137 8.15625L 44.6865 7.75195L 44.7305 7.75195L 45.2139 8.13867L 45.2139 8.78027L 45.1963 9.18457C 45.6123 8.79785 46.1426 8.46973 46.7871 8.2002C 47.4375 7.9248 48.0996 7.78711 48.7734 7.78711C 49.5 7.78711 50.0713 7.91895 50.4873 8.18262C 50.9092 8.44043 51.2109 8.85644 51.3926 9.43066C 51.5801 10.0049 51.6738 10.7842 51.6738 11.7686L 51.6738 16.6465L 52.7285 16.8047L 52.7285 18L 47.8418 18L 47.8418 16.8223L 48.7646 16.6553L 48.7646 11.7686C 48.7646 11.1885 48.7266 10.7373 48.6504 10.415C 48.5742 10.0869 48.4365 9.84668 48.2373 9.69434C 48.0381 9.54199 47.751 9.46582 47.376 9.46582C 47.0361 9.46582 46.6963 9.53906 46.3564 9.68555C 46.0225 9.82617 45.7354 9.99316 45.4951 10.1865L 45.4951 16.6553L 46.5146 16.8223L 46.5146 18L 41.5752 18L 41.5752 16.8223L 42.5947 16.6641ZM 58.626 9.4834L 58.626 8.45508C 58.7666 8.40234 58.9658 8.32031 59.2236 8.20898C 59.4814 8.09766 59.625 8.03027 59.6543 8.00684C 59.877 7.79004 60.0645 7.50586 60.2168 7.1543C 60.3223 6.92578 60.4365 6.63867 60.5596 6.29297C 60.6826 5.94727 60.7852 5.63379 60.8672 5.35254L 62.4932 5.35254L 62.5723 7.99805L 65.209 7.99805L 65.209 9.4834L 62.5898 9.4834L 62.5898 14.2471C 62.5898 14.9385 62.6045 15.416 62.6338 15.6797C 62.6689 15.9434 62.7422 16.1162 62.8535 16.1982C 62.9648 16.2744 63.1611 16.3125 63.4424 16.3125L 63.4512 16.3125C 63.9492 16.3125 64.4971 16.2246 65.0947 16.0488L 65.1035 16.0488L 65.4814 17.1387C 65.2705 17.3145 64.9805 17.4814 64.6113 17.6396C 64.248 17.792 63.8408 17.918 63.3896 18.0176C 62.9443 18.1172 62.5107 18.167 62.0889 18.167L 62.0713 18.167C 61.2744 18.167 60.6797 17.9883 60.2871 17.6309C 59.9004 17.2676 59.707 16.708 59.707 15.9521L 59.707 9.4834L 58.626 9.4834ZM 71.124 7.73438C 72.1201 7.73438 72.9756 7.94238 73.6904 8.3584C 74.4111 8.76855 74.959 9.36328 75.334 10.1426C 75.7148 10.916 75.9053 11.8359 75.9053 12.9023C 75.9053 14.0684 75.6768 15.0498 75.2197 15.8467C 74.7627 16.6436 74.1533 17.2354 73.3916 17.6221C 72.6299 18.0088 71.7891 18.2021 70.8691 18.2021C 69.873 18.2021 69.0146 17.9971 68.2939 17.5869C 67.5791 17.1709 67.0312 16.5762 66.6504 15.8027C 66.2754 15.0234 66.0879 14.1006 66.0879 13.0342C 66.0879 11.8975 66.3164 10.9307 66.7734 10.1338C 67.2363 9.33691 67.8486 8.73926 68.6104 8.34082C 69.3779 7.93652 70.2158 7.73438 71.124 7.73438ZM 72.8027 13.1221C 72.8027 11.7451 72.6592 10.7139 72.3721 10.0283C 72.0908 9.33691 71.6279 8.99121 70.9834 8.99121C 70.374 8.99121 69.9199 9.30176 69.6211 9.92285C 69.3223 10.5439 69.1729 11.5078 69.1729 12.8145C 69.1729 14.1797 69.3193 15.2109 69.6123 15.9082C 69.9111 16.5996 70.3828 16.9453 71.0273 16.9453C 71.6309 16.9453 72.0762 16.6377 72.3633 16.0225C 72.6562 15.4014 72.8027 14.4346 72.8027 13.1221ZM 81.9961 11.4082C 81.9961 9.98438 82.2832 8.75098 82.8574 7.70801C 83.4375 6.65918 84.2314 5.85937 85.2393 5.30859C 86.2471 4.75781 87.3867 4.48242 88.6582 4.48242C 89.1797 4.48242 89.6895 4.51172 90.1875 4.57031C 90.6855 4.62891 91.2451 4.71094 91.8662 4.81641C 92.3525 4.89258 92.6602 4.93652 92.7891 4.94824L 92.5781 8.86816L 90.6973 8.86816L 90.082 6.21387C 89.9824 6.0791 89.7979 5.9707 89.5283 5.88867C 89.2588 5.80078 88.8955 5.75684 88.4385 5.75684C 87.8174 5.75684 87.2754 5.95898 86.8125 6.36328C 86.3555 6.76758 86.001 7.37402 85.749 8.18262C 85.4971 8.98535 85.3711 9.97266 85.3711 11.1445C 85.3711 12.2461 85.4854 13.2334 85.7139 14.1064C 85.9482 14.9736 86.3057 15.6592 86.7861 16.1631C 87.2666 16.667 87.8643 16.9189 88.5791 16.9189C 89.0361 16.9189 89.3906 16.8662 89.6426 16.7607C 89.9004 16.6494 90.1025 16.5088 90.249 16.3389L 91.0928 14.3965L 92.7979 14.5547L 92.4639 17.5078C 92.2764 17.5254 92.0977 17.5547 91.9277 17.5957C 91.7637 17.6367 91.5498 17.6953 91.2861 17.7715C 90.835 17.9062 90.4102 18.0117 90.0117 18.0879C 89.6191 18.1641 89.1299 18.2021 88.5439 18.2021C 87.1201 18.2021 85.9189 17.9297 84.9404 17.3848C 83.9619 16.8398 83.2266 16.0605 82.7344 15.0469C 82.2422 14.0332 81.9961 12.8203 81.9961 11.4082ZM 98.9854 7.73438C 99.9814 7.73438 100.837 7.94238 101.552 8.3584C 102.272 8.76855 102.82 9.36328 103.195 10.1426C 103.576 10.916 103.767 11.8359 103.767 12.9023C 103.767 14.0684 103.538 15.0498 103.081 15.8467C 102.624 16.6436 102.015 17.2354 101.253 17.6221C 100.491 18.0088 99.6504 18.2021 98.7305 18.2021C 97.7344 18.2021 96.876 17.9971 96.1553 17.5869C 95.4404 17.1709 94.8926 16.5762 94.5117 15.8027C 94.1367 15.0234 93.9492 14.1006 93.9492 13.0342C 93.9492 11.8975 94.1777 10.9307 94.6348 10.1338C 95.0977 9.33691 95.71 8.73926 96.4717 8.34082C 97.2393 7.93652 98.0771 7.73438 98.9854 7.73438ZM 100.664 13.1221C 100.664 11.7451 100.521 10.7139 100.233 10.0283C 99.9521 9.33691 99.4893 8.99121 98.8447 8.99121C 98.2354 8.99121 97.7812 9.30176 97.4824 9.92285C 97.1836 10.5439 97.0342 11.5078 97.0342 12.8145C 97.0342 14.1797 97.1807 15.2109 97.4736 15.9082C 97.7725 16.5996 98.2441 16.9453 98.8887 16.9453C 99.4922 16.9453 99.9375 16.6377 100.225 16.0225C 100.518 15.4014 100.664 14.4346 100.664 13.1221ZM 104.936 13.2275C 104.936 12.2197 105.141 11.2998 105.551 10.4678C 105.967 9.63574 106.579 8.97363 107.388 8.48145C 108.196 7.9834 109.166 7.73438 110.297 7.73438C 110.643 7.73438 111.015 7.77539 111.413 7.85742L 111.413 4.96582L 109.717 4.7373L 109.717 3.6123L 113.602 3.23438L 113.672 3.23438L 114.226 3.64746L 114.226 16.7695L 115.166 16.7695L 115.166 17.9297C 114.246 18.123 113.49 18.2197 112.898 18.2197C 112.611 18.2197 112.386 18.1934 112.222 18.1406C 112.058 18.0879 111.932 17.9883 111.844 17.8418C 111.762 17.6953 111.721 17.4844 111.721 17.209L 111.721 16.8223C 111.41 17.2266 110.997 17.5576 110.481 17.8154C 109.966 18.0732 109.418 18.2021 108.838 18.2021C 108.094 18.2021 107.429 18.0234 106.843 17.666C 106.257 17.3086 105.791 16.7578 105.445 16.0137C 105.105 15.2695 104.936 14.3408 104.936 13.2275ZM 111.413 9.36035C 111.337 9.24902 111.185 9.15527 110.956 9.0791C 110.728 8.99707 110.476 8.95605 110.2 8.95605C 109.526 8.95605 108.984 9.28125 108.574 9.93164C 108.17 10.5762 107.968 11.6221 107.968 13.0693C 107.968 14.2529 108.144 15.1348 108.495 15.7148C 108.847 16.2949 109.318 16.585 109.91 16.585C 110.238 16.585 110.531 16.5205 110.789 16.3916C 111.047 16.2568 111.255 16.0957 111.413 15.9082L 111.413 9.36035ZM 116.238 13.0078C 116.238 11.9238 116.44 10.9863 116.845 10.1953C 117.255 9.4043 117.829 8.79785 118.567 8.37598C 119.306 7.9541 120.161 7.74316 121.134 7.74316C 122.37 7.74316 123.316 8.05664 123.973 8.68359C 124.635 9.31055 124.98 10.21 125.01 11.3818C 125.01 12.1963 124.966 12.8145 124.878 13.2363L 119.2 13.2363C 119.271 14.3145 119.534 15.1143 119.991 15.6357C 120.454 16.1572 121.066 16.418 121.828 16.418C 122.268 16.418 122.725 16.3418 123.199 16.1895C 123.68 16.0371 124.069 15.8643 124.368 15.6709L 124.878 16.7607C 124.673 16.9775 124.368 17.1973 123.964 17.4199C 123.565 17.6426 123.105 17.8301 122.584 17.9824C 122.068 18.1289 121.55 18.2021 121.028 18.2021C 119.938 18.2021 119.036 17.9854 118.321 17.5518C 117.606 17.1182 117.079 16.5146 116.739 15.7412C 116.405 14.9619 116.238 14.0508 116.238 13.0078ZM 122.206 12.0322L 122.215 11.2939C 122.215 10.5615 122.109 9.99316 121.898 9.58887C 121.688 9.18457 121.33 8.98242 120.826 8.98242C 120.492 8.98242 120.208 9.06738 119.974 9.2373C 119.739 9.40723 119.552 9.71777 119.411 10.1689C 119.271 10.6143 119.191 11.2354 119.174 12.0322L 122.206 12.0322ZM 128.701 14.9502C 129.041 14.9502 129.337 15.0498 129.589 15.249C 129.847 15.4482 130.043 15.7354 130.178 16.1104C 130.318 16.4795 130.389 16.9189 130.389 17.4287C 130.389 18.1377 130.26 18.8262 130.002 19.4941C 129.75 20.1621 129.434 20.7334 129.053 21.208C 128.672 21.6885 128.306 22.0137 127.954 22.1836L 127.928 22.1836L 127.11 21.5596L 127.11 21.2783C 127.456 21.0205 127.737 20.6924 127.954 20.2939C 128.177 19.9014 128.288 19.4414 128.288 18.9141C 128.288 18.668 128.238 18.4687 128.139 18.3164C 128.045 18.1641 127.896 17.9854 127.69 17.7803C 127.544 17.6338 127.427 17.5107 127.339 17.4111C 127.257 17.3057 127.184 17.1768 127.119 17.0244C 127.061 16.8662 127.031 16.6846 127.031 16.4795C 127.031 16.1748 127.099 15.9082 127.233 15.6797C 127.368 15.4453 127.55 15.2666 127.778 15.1436C 128.013 15.0146 128.271 14.9502 128.552 14.9502L 128.701 14.9502ZM 3.8877 33.4082C 3.8877 31.9844 4.1748 30.751 4.74902 29.708C 5.3291 28.6592 6.12305 27.8594 7.13086 27.3086C 8.13867 26.7578 9.27832 26.4824 10.5498 26.4824C 11.0713 26.4824 11.5811 26.5117 12.0791 26.5703C 12.5771 26.6289 13.1367 26.7109 13.7578 26.8164C 14.2441 26.8926 14.5518 26.9365 14.6807 26.9482L 14.4697 30.8682L 12.5889 30.8682L 11.9736 28.2139C 11.874 28.0791 11.6895 27.9707 11.4199 27.8887C 11.1504 27.8008 10.7871 27.7568 10.3301 27.7568C 9.70898 27.7568 9.16699 27.959 8.7041 28.3633C 8.24707 28.7676 7.89258 29.374 7.64062 30.1826C 7.38867 30.9854 7.2627 31.9727 7.2627 33.1445C 7.2627 34.2461 7.37695 35.2334 7.60547 36.1064C 7.83984 36.9736 8.19727 37.6592 8.67773 38.1631C 9.1582 38.667 9.75586 38.9189 10.4707 38.9189C 10.9277 38.9189 11.2822 38.8662 11.5342 38.7607C 11.792 38.6494 11.9941 38.5088 12.1406 38.3389L 12.9844 36.3965L 14.6895 36.5547L 14.3555 39.5078C 14.168 39.5254 13.9893 39.5547 13.8193 39.5957C 13.6553 39.6367 13.4414 39.6953 13.1777 39.7715C 12.7266 39.9062 12.3018 40.0117 11.9033 40.0879C 11.5107 40.1641 11.0215 40.2021 10.4355 40.2021C 9.01172 40.2021 7.81055 39.9297 6.83203 39.3848C 5.85352 38.8398 5.11816 38.0605 4.62598 37.0469C 4.13379 36.0332 3.8877 34.8203 3.8877 33.4082ZM 20.877 29.7344C 21.873 29.7344 22.7285 29.9424 23.4434 30.3584C 24.1641 30.7686 24.7119 31.3633 25.0869 32.1426C 25.4678 32.916 25.6582 33.8359 25.6582 34.9023C 25.6582 36.0684 25.4297 37.0498 24.9727 37.8467C 24.5156 38.6436 23.9063 39.2354 23.1445 39.6221C 22.3828 40.0088 21.542 40.2021 20.6221 40.2021C 19.626 40.2021 18.7676 39.9971 18.0469 39.5869C 17.332 39.1709 16.7842 38.5762 16.4033 37.8027C 16.0283 37.0234 15.8408 36.1006 15.8408 35.0342C 15.8408 33.8975 16.0693 32.9307 16.5264 32.1338C 16.9893 31.3369 17.6016 30.7393 18.3633 30.3408C 19.1309 29.9365 19.9688 29.7344 20.877 29.7344ZM 22.5557 35.1221C 22.5557 33.7451 22.4121 32.7139 22.125 32.0283C 21.8438 31.3369 21.3809 30.9912 20.7363 30.9912C 20.127 30.9912 19.6729 31.3018 19.374 31.9229C 19.0752 32.5439 18.9258 33.5078 18.9258 34.8145C 18.9258 36.1797 19.0723 37.2109 19.3652 37.9082C 19.6641 38.5996 20.1357 38.9453 20.7803 38.9453C 21.3838 38.9453 21.8291 38.6377 22.1162 38.0225C 22.4092 37.4014 22.5557 36.4346 22.5557 35.1221ZM 26.8271 35.2275C 26.8271 34.2197 27.0322 33.2998 27.4424 32.4678C 27.8584 31.6357 28.4707 30.9736 29.2793 30.4814C 30.0879 29.9834 31.0576 29.7344 32.1885 29.7344C 32.5342 29.7344 32.9063 29.7754 33.3047 29.8574L 33.3047 26.9658L 31.6084 26.7373L 31.6084 25.6123L 35.4932 25.2344L 35.5635 25.2344L 36.1172 25.6475L 36.1172 38.7695L 37.0576 38.7695L 37.0576 39.9297C 36.1377 40.123 35.3818 40.2197 34.79 40.2197C 34.5029 40.2197 34.2773 40.1934 34.1133 40.1406C 33.9492 40.0879 33.8232 39.9883 33.7354 39.8418C 33.6533 39.6953 33.6123 39.4844 33.6123 39.209L 33.6123 38.8223C 33.3018 39.2266 32.8887 39.5576 32.373 39.8154C 31.8574 40.0732 31.3096 40.2021 30.7295 40.2021C 29.9854 40.2021 29.3203 40.0234 28.7344 39.666C 28.1484 39.3086 27.6826 38.7578 27.3369 38.0137C 26.9971 37.2695 26.8271 36.3408 26.8271 35.2275ZM 33.3047 31.3604C 33.2285 31.249 33.0762 31.1553 32.8477 31.0791C 32.6191 30.9971 32.3672 30.9561 32.0918 30.9561C 31.418 30.9561 30.876 31.2812 30.4658 31.9316C 30.0615 32.5762 29.8594 33.6221 29.8594 35.0693C 29.8594 36.2529 30.0352 37.1348 30.3867 37.7148C 30.7383 38.2949 31.21 38.585 31.8018 38.585C 32.1299 38.585 32.4229 38.5205 32.6807 38.3916C 32.9385 38.2568 33.1465 38.0957 33.3047 37.9082L 33.3047 31.3604ZM 38.1299 35.0078C 38.1299 33.9238 38.332 32.9863 38.7363 32.1953C 39.1465 31.4043 39.7207 30.7979 40.459 30.376C 41.1973 29.9541 42.0527 29.7432 43.0254 29.7432C 44.2617 29.7432 45.208 30.0566 45.8643 30.6836C 46.5264 31.3105 46.8721 32.21 46.9014 33.3818C 46.9014 34.1963 46.8574 34.8145 46.7695 35.2363L 41.0918 35.2363C 41.1621 36.3145 41.4258 37.1143 41.8828 37.6357C 42.3457 38.1572 42.958 38.418 43.7197 38.418C 44.1592 38.418 44.6162 38.3418 45.0908 38.1895C 45.5713 38.0371 45.9609 37.8643 46.2598 37.6709L 46.7695 38.7607C 46.5645 38.9775 46.2598 39.1973 45.8555 39.4199C 45.457 39.6426 44.9971 39.8301 44.4756 39.9824C 43.96 40.1289 43.4414 40.2021 42.9199 40.2021C 41.8301 40.2021 40.9277 39.9854 40.2129 39.5518C 39.498 39.1182 38.9707 38.5146 38.6309 37.7412C 38.2969 36.9619 38.1299 36.0508 38.1299 35.0078ZM 44.0977 34.0322L 44.1064 33.2939C 44.1064 32.5615 44.001 31.9932 43.79 31.5889C 43.5791 31.1846 43.2217 30.9824 42.7178 30.9824C 42.3838 30.9824 42.0996 31.0674 41.8652 31.2373C 41.6309 31.4072 41.4434 31.7178 41.3027 32.1689C 41.1621 32.6143 41.083 33.2354 41.0654 34.0322L 44.0977 34.0322ZM 52.957 31.4834L 52.957 30.4551C 53.0977 30.4023 53.2969 30.3203 53.5547 30.209C 53.8125 30.0977 53.9561 30.0303 53.9854 30.0068C 54.208 29.79 54.3955 29.5059 54.5479 29.1543C 54.6533 28.9258 54.7676 28.6387 54.8906 28.293C 55.0137 27.9473 55.1162 27.6338 55.1982 27.3525L 56.8242 27.3525L 56.9033 29.998L 59.54 29.998L 59.54 31.4834L 56.9209 31.4834L 56.9209 36.2471C 56.9209 36.9385 56.9355 37.416 56.9648 37.6797C 57 37.9434 57.0732 38.1162 57.1846 38.1982C 57.2959 38.2744 57.4922 38.3125 57.7734 38.3125L 57.7822 38.3125C 58.2803 38.3125 58.8281 38.2246 59.4258 38.0488L 59.4346 38.0488L 59.8125 39.1387C 59.6016 39.3145 59.3115 39.4814 58.9424 39.6396C 58.5791 39.792 58.1719 39.918 57.7207 40.0176C 57.2754 40.1172 56.8418 40.167 56.4199 40.167L 56.4023 40.167C 55.6055 40.167 55.0107 39.9883 54.6182 39.6309C 54.2314 39.2676 54.0381 38.708 54.0381 37.9521L 54.0381 31.4834L 52.957 31.4834ZM 65.4551 29.7344C 66.4512 29.7344 67.3066 29.9424 68.0215 30.3584C 68.7422 30.7686 69.29 31.3633 69.665 32.1426C 70.0459 32.916 70.2363 33.8359 70.2363 34.9023C 70.2363 36.0684 70.0078 37.0498 69.5508 37.8467C 69.0938 38.6436 68.4844 39.2354 67.7227 39.6221C 66.9609 40.0088 66.1201 40.2021 65.2002 40.2021C 64.2041 40.2021 63.3457 39.9971 62.625 39.5869C 61.9102 39.1709 61.3623 38.5762 60.9814 37.8027C 60.6064 37.0234 60.4189 36.1006 60.4189 35.0342C 60.4189 33.8975 60.6475 32.9307 61.1045 32.1338C 61.5674 31.3369 62.1797 30.7393 62.9414 30.3408C 63.709 29.9365 64.5469 29.7344 65.4551 29.7344ZM 67.1338 35.1221C 67.1338 33.7451 66.9902 32.7139 66.7031 32.0283C 66.4219 31.3369 65.959 30.9912 65.3145 30.9912C 64.7051 30.9912 64.251 31.3018 63.9521 31.9229C 63.6533 32.5439 63.5039 33.5078 63.5039 34.8145C 63.5039 36.1797 63.6504 37.2109 63.9434 37.9082C 64.2422 38.5996 64.7139 38.9453 65.3584 38.9453C 65.9619 38.9453 66.4072 38.6377 66.6943 38.0225C 66.9873 37.4014 67.1338 36.4346 67.1338 35.1221ZM 77.8916 38.5938L 77.8916 28.1172L 76.5381 27.8623L 76.5381 26.623L 82.5498 26.623L 82.5498 27.8623L 80.8799 28.1172L 80.8799 38.585L 84.3428 38.3916L 85.5029 34.9902L 87.1465 35.2363L 86.6279 40L 76.5205 40L 76.5205 38.8223L 77.8916 38.5938ZM 87.9639 35.0078C 87.9639 33.9238 88.166 32.9863 88.5703 32.1953C 88.9805 31.4043 89.5547 30.7979 90.293 30.376C 91.0312 29.9541 91.8867 29.7432 92.8594 29.7432C 94.0957 29.7432 95.042 30.0566 95.6982 30.6836C 96.3604 31.3105 96.7061 32.21 96.7354 33.3818C 96.7354 34.1963 96.6914 34.8145 96.6035 35.2363L 90.9258 35.2363C 90.9961 36.3145 91.2598 37.1143 91.7168 37.6357C 92.1797 38.1572 92.792 38.418 93.5537 38.418C 93.9932 38.418 94.4502 38.3418 94.9248 38.1895C 95.4053 38.0371 95.7949 37.8643 96.0938 37.6709L 96.6035 38.7607C 96.3984 38.9775 96.0938 39.1973 95.6895 39.4199C 95.291 39.6426 94.8311 39.8301 94.3096 39.9824C 93.7939 40.1289 93.2754 40.2021 92.7539 40.2021C 91.6641 40.2021 90.7617 39.9854 90.0469 39.5518C 89.332 39.1182 88.8047 38.5146 88.4648 37.7412C 88.1309 36.9619 87.9639 36.0508 87.9639 35.0078ZM 93.9316 34.0322L 93.9404 33.2939C 93.9404 32.5615 93.835 31.9932 93.624 31.5889C 93.4131 31.1846 93.0557 30.9824 92.5518 30.9824C 92.2178 30.9824 91.9336 31.0674 91.6992 31.2373C 91.4648 31.4072 91.2773 31.7178 91.1367 32.1689C 90.9961 32.6143 90.917 33.2354 90.8994 34.0322L 93.9316 34.0322ZM 103.644 33.4697C 103.644 33.0303 103.594 32.6816 103.494 32.4238C 103.4 32.166 103.225 31.9727 102.967 31.8438C 102.709 31.7148 102.34 31.6504 101.859 31.6504C 101.262 31.6504 100.72 31.7178 100.233 31.8525C 99.7529 31.9814 99.2695 32.1514 98.7832 32.3623L 98.7744 32.3623L 98.2031 31.1758C 98.3965 31.0117 98.7158 30.8213 99.1611 30.6045C 99.6123 30.3818 100.137 30.1885 100.734 30.0244C 101.338 29.8545 101.953 29.7695 102.58 29.7695C 103.518 29.7695 104.253 29.8926 104.786 30.1387C 105.325 30.3789 105.709 30.7627 105.938 31.29C 106.166 31.8174 106.28 32.5293 106.28 33.4258L 106.28 38.8135L 107.238 38.8135L 107.238 39.9297C 106.939 39.9941 106.564 40.0586 106.113 40.123C 105.662 40.1875 105.267 40.2197 104.927 40.2197C 104.616 40.2197 104.376 40.1904 104.206 40.1318C 104.042 40.0791 103.925 39.9824 103.854 39.8418C 103.784 39.6953 103.749 39.4844 103.749 39.209L 103.749 38.9365C 103.462 39.2705 103.072 39.5664 102.58 39.8242C 102.088 40.0762 101.522 40.2021 100.884 40.2021C 100.321 40.2021 99.8057 40.0879 99.3369 39.8594C 98.874 39.625 98.5049 39.2822 98.2295 38.8311C 97.9541 38.3799 97.8164 37.835 97.8164 37.1963C 97.8164 36.0947 98.332 35.2656 99.3633 34.709C 100.395 34.1465 101.821 33.8564 103.644 33.8389L 103.644 33.4697ZM 103.644 35.0254C 102.665 35.0313 101.956 35.207 101.517 35.5527C 101.083 35.8984 100.866 36.3379 100.866 36.8711C 100.866 37.4102 100.989 37.8262 101.235 38.1191C 101.487 38.4063 101.824 38.5498 102.246 38.5498C 102.451 38.5498 102.688 38.4971 102.958 38.3916C 103.233 38.2803 103.462 38.1426 103.644 37.9785L 103.644 35.0254ZM 109.444 38.6553L 109.444 31.8965L 108.381 31.5449L 108.381 30.1562L 111.325 29.752L 111.369 29.752L 111.888 30.1387L 111.888 30.6484L 111.844 32.0371L 111.888 32.0371C 111.97 31.7734 112.154 31.46 112.441 31.0967C 112.734 30.7334 113.106 30.417 113.558 30.1475C 114.009 29.8721 114.501 29.7344 115.034 29.7344C 115.181 29.7344 115.313 29.749 115.43 29.7783C 115.553 29.8018 115.649 29.834 115.72 29.875L 115.72 32.8721C 115.515 32.7314 115.304 32.6289 115.087 32.5645C 114.876 32.5 114.618 32.4678 114.313 32.4678C 113.88 32.4678 113.481 32.5146 113.118 32.6084C 112.755 32.7021 112.479 32.8193 112.292 32.96L 112.292 38.6465L 114.366 38.8311L 114.366 40L 108.284 40L 108.284 38.8223L 109.444 38.6553ZM 118.049 38.6641L 118.049 31.8965L 116.968 31.5449L 116.968 30.1562L 120.141 29.752L 120.185 29.752L 120.668 30.1387L 120.668 30.7803L 120.65 31.1846C 121.066 30.7979 121.597 30.4697 122.241 30.2002C 122.892 29.9248 123.554 29.7871 124.228 29.7871C 124.954 29.7871 125.525 29.9189 125.941 30.1826C 126.363 30.4404 126.665 30.8564 126.847 31.4307C 127.034 32.0049 127.128 32.7842 127.128 33.7686L 127.128 38.6465L 128.183 38.8047L 128.183 40L 123.296 40L 123.296 38.8223L 124.219 38.6553L 124.219 33.7686C 124.219 33.1885 124.181 32.7373 124.104 32.415C 124.028 32.0869 123.891 31.8467 123.691 31.6943C 123.492 31.542 123.205 31.4658 122.83 31.4658C 122.49 31.4658 122.15 31.5391 121.811 31.6855C 121.477 31.8262 121.189 31.9932 120.949 32.1865L 120.949 38.6553L 121.969 38.8223L 121.969 40L 117.029 40L 117.029 38.8223L 118.049 38.6641Z"/>
<path id="path8_fill" d="M 0 0L 188 0L 188 47L 0 47L 0 0Z"/>
<path id="path9_fill" d="M 5.80664 29C 5.217 29 4.512 28.7949 3.69164 28.3847C 2.89691 27.9489 2.19191 27.4362 1.57664 26.8465C 0.987 26.2569 0.692182 25.7698 0.692182 25.3853C 0.666545 24.9751 0.781909 24.1163 1.03827 22.8088C 1.32027 21.4757 1.49973 20.6169 1.57664 20.2324C 1.67918 19.7196 1.87145 18.7839 2.15345 17.4252C 2.43545 16.0408 2.66618 14.759 2.84564 13.5797L 3.15327 11.7724C 3.64036 8.90109 4.089 6.56818 4.49918 4.77364C 4.935 2.97909 5.37082 2.08182 5.80664 2.08182C 6.24245 2.08182 6.83209 2.26127 7.57555 2.62018C 8.34464 2.97909 9.06245 3.44055 9.729 4.00455C 10.3955 4.54291 10.8442 5.05564 11.0749 5.54273C 11.4851 6.46564 12.0235 8.43964 12.69 11.4647C 13.1515 13.5669 13.4975 15.0154 13.7283 15.8101C 14.8306 14.1437 16.2406 11.5929 17.9583 8.15764C 19.0606 5.97855 19.8938 4.42755 20.4578 3.50464C 21.0475 2.55609 21.573 2.08182 22.0345 2.08182C 22.5215 2.08182 23.1753 2.29973 23.9956 2.73555C 24.8416 3.17136 25.5723 3.68409 26.1875 4.27373C 26.8285 4.86337 27.1489 5.37609 27.1489 5.81191C 27.1489 6.17082 26.9951 7.18346 26.6875 8.84982C 26.3798 10.4905 26.1875 11.516 26.1106 11.9262L 25.1108 17.3483C 24.8545 18.8608 24.5853 20.8476 24.3033 23.3087C 24.0469 25.4109 23.8162 26.885 23.6111 27.731C 23.4316 28.577 23.1368 29 22.7266 29C 22.137 29 21.432 28.7949 20.6116 28.3847C 19.8169 27.9489 19.1119 27.4362 18.4966 26.8465C 17.907 26.2569 17.6122 25.7698 17.6122 25.3853C 17.5865 25.052 17.6763 24.347 17.8814 23.2703C 18.1121 22.1679 18.3685 20.9245 18.6505 19.5402C 18.8812 18.4378 19.0094 17.8097 19.035 17.6559L 20.4194 13.3875L 19.881 13.1952L 19.4965 13.9643C 18.4966 16.0152 17.6891 17.6175 17.0738 18.7711C 16.4842 19.8991 15.9971 20.7066 15.6125 21.1937C 15.3562 21.5014 14.8947 21.7577 14.2282 21.9628C 13.5616 22.1423 12.9079 22.232 12.267 22.232C 11.6005 22.232 11.1518 22.1166 10.9211 21.8859C 10.6904 21.6808 10.4853 21.2578 10.3058 20.6169C 10.152 19.9504 9.93409 18.9249 9.65209 17.5405C 9.60082 17.2585 9.45982 16.5792 9.22909 15.5025C 8.99836 14.4001 8.742 13.4003 8.46 12.503L 8.19082 17.3483C 7.93445 18.8608 7.66527 20.8476 7.38327 23.3087C 7.12691 25.4109 6.89618 26.885 6.69109 27.731C 6.51164 28.577 6.21682 29 5.80664 29ZM 35.7621 6.19646C 35.275 6.19646 34.6854 6.00418 33.9932 5.61964C 33.3267 5.20946 32.7499 4.73518 32.2628 4.19682C 31.7757 3.63282 31.5321 3.13291 31.5321 2.69709C 31.5321 2.00491 31.7116 1.31273 32.0705 0.620547C 32.4294 -0.0716346 32.878 -0.571544 33.4164 -0.879181C 33.6728 -1.00736 34.0829 -1.07145 34.6469 -1.07145C 35.5699 -1.07145 36.4928 -0.866362 37.4157 -0.45618C 38.3642 -0.0459978 38.941 0.466729 39.1461 1.082C 39.1974 1.21018 39.223 1.40245 39.223 1.65882C 39.223 2.24846 39.0436 2.90218 38.6847 3.62C 38.3258 4.33782 37.8771 4.95309 37.3388 5.46582C 36.8004 5.95291 36.2749 6.19646 35.7621 6.19646ZM 33.1472 29C 32.4807 29 31.7244 28.7821 30.8784 28.3463C 30.058 27.8848 29.3402 27.3593 28.7249 26.7696C 28.1353 26.1544 27.8405 25.6416 27.8405 25.2315C 27.8405 24.77 28.0071 24.0906 28.3404 23.1934C 28.6737 22.2961 29.1736 21.0655 29.8401 19.5017C 30.3529 18.2968 30.7374 17.3611 30.9938 16.6945C 31.2501 16.0024 31.3783 15.5153 31.3783 15.2333C 31.3783 15.0282 31.2501 14.8103 30.9938 14.5795C 30.763 14.3232 30.4041 14.0155 29.917 13.6566C 29.353 13.2208 28.93 12.8747 28.648 12.6184C 28.3917 12.362 28.2635 12.0928 28.2635 11.8108C 28.2635 11.2725 28.507 10.6444 28.9941 9.92655C 29.5069 9.20873 30.0965 8.59346 30.763 8.08073C 31.4552 7.568 32.0449 7.31164 32.5319 7.31164C 33.1216 7.31164 33.7625 7.568 34.4547 8.08073C 35.1725 8.59346 35.7749 9.20873 36.262 9.92655C 36.7748 10.6187 37.0311 11.1827 37.0311 11.6185C 37.0311 12.7465 36.7363 14.3616 36.1467 16.4638C 35.5827 18.5404 34.852 20.7835 33.9548 23.1934C 34.57 22.9114 35.1084 22.6165 35.5699 22.3089C 36.0313 22.0013 36.6722 21.527 37.4926 20.8861C 38.6462 21.2706 39.4922 21.8218 40.0306 22.5396C 40.5689 23.2318 40.8381 23.9881 40.8381 24.8085C 40.8381 25.475 40.4023 26.1287 39.5307 26.7696C 38.6847 27.4105 37.6464 27.9489 36.4159 28.3847C 35.1853 28.7949 34.0958 29 33.1472 29ZM 62.8636 20.8861C 63.9916 21.2706 64.8247 21.809 65.3631 22.5012C 65.9271 23.1677 66.2091 23.9368 66.2091 24.8085C 66.2091 25.4237 65.7733 26.0646 64.9017 26.7312C 64.03 27.3721 62.9917 27.9105 61.7868 28.3463C 60.5819 28.7821 59.5565 29 58.7105 29C 58.1208 29 57.4415 28.7693 56.6724 28.3078C 55.9033 27.8464 55.2367 27.3208 54.6727 26.7312C 54.1344 26.1159 53.8652 25.6416 53.8652 25.3084C 53.8652 25.052 54.1472 24.0522 54.7112 22.3089C 55.711 19.2582 56.2109 17.3355 56.2109 16.5407C 56.2109 16.2331 56.134 16.0793 55.9802 16.0793C 54.9547 16.0793 53.0448 17.8738 50.2505 21.4629C 50.1479 21.8731 50.0326 22.3858 49.9044 23.0011C 49.8018 23.6164 49.7249 24.0522 49.6737 24.3085C 49.3917 25.8211 49.1225 26.9875 48.8661 27.8079C 48.6354 28.6026 48.3277 29 47.9432 29C 47.2767 29 46.5204 28.7821 45.6744 28.3463C 44.854 27.8848 44.1362 27.3593 43.5209 26.7696C 42.9313 26.1544 42.6365 25.6416 42.6365 25.2315C 42.6365 24.77 42.8031 24.0906 43.1364 23.1934C 43.4697 22.2961 43.9696 21.0655 44.6361 19.5017C 45.1488 18.2968 45.5334 17.3611 45.7897 16.6945C 46.0461 16.0024 46.1743 15.5153 46.1743 15.2333C 46.1743 15.0282 46.0461 14.8103 45.7897 14.5795C 45.559 14.3232 45.2001 14.0155 44.713 13.6566C 44.149 13.2208 43.726 12.8747 43.444 12.6184C 43.1877 12.362 43.0595 12.0928 43.0595 11.8108C 43.0595 11.2725 43.303 10.6444 43.7901 9.92655C 44.3028 9.20873 44.8925 8.59346 45.559 8.08073C 46.2512 7.568 46.8408 7.31164 47.3279 7.31164C 47.8663 7.31164 48.4816 7.55518 49.1737 8.04227C 49.8916 8.52937 50.5068 9.09337 51.0196 9.73427C 51.5579 10.3495 51.8271 10.8238 51.8271 11.1571C 51.8271 11.7724 51.7502 12.5286 51.5964 13.4259C 51.4682 14.3232 51.2887 15.2076 51.058 16.0793C 52.9295 13.6182 54.4805 11.7211 55.711 10.388C 56.9416 9.02927 57.9029 8.34991 58.5951 8.34991C 59.0822 8.34991 59.6718 8.59346 60.364 9.08055C 61.0562 9.56764 61.6458 10.1316 62.1329 10.7725C 62.6457 11.3878 62.902 11.8621 62.902 12.1954C 62.8764 12.6312 62.6969 13.3746 62.3637 14.4257C 62.0304 15.4768 61.5561 16.874 60.9408 18.6173C 60.1205 20.8733 59.5949 22.3986 59.3642 23.1934C 60.1589 22.7832 60.7742 22.4371 61.21 22.1551C 61.6715 21.8475 62.2227 21.4245 62.8636 20.8861ZM 76.4056 29C 75.175 29 73.8932 28.6026 72.5601 27.8079C 71.227 26.9875 70.1247 25.9877 69.253 24.8085C 68.3814 23.6292 67.9456 22.514 67.9456 21.4629C 67.9456 19.5915 68.3814 17.5405 69.253 15.3102C 70.1503 13.0798 71.3808 11.1955 72.9447 9.65736C 74.5085 8.09355 76.2774 7.31164 78.2514 7.31164C 79.6614 7.31164 80.9304 7.61927 82.0584 8.23455C 83.212 8.84982 84.1093 9.61891 84.7502 10.5418C 85.3911 11.4647 85.7116 12.362 85.7116 13.2336C 85.7116 14.3104 85.2245 15.3743 84.2503 16.4254C 83.2761 17.4508 81.9174 18.3609 80.1741 19.1556C 78.4308 19.9247 76.444 20.4759 74.2137 20.8092C 74.188 21.1168 74.1752 21.5783 74.1752 22.1935C 74.1752 22.9626 74.2008 23.5395 74.2521 23.924C 75.5339 23.7958 76.8029 23.4497 78.0591 22.8857C 79.3153 22.3217 80.6868 21.527 82.1738 20.5015C 83.1736 20.8092 83.9298 21.2963 84.4426 21.9628C 84.9553 22.6294 85.2117 23.4241 85.2117 24.347C 85.2117 25.1161 84.7374 25.8724 83.7888 26.6158C 82.8659 27.3336 81.7123 27.9105 80.3279 28.3463C 78.9436 28.7821 77.6361 29 76.4056 29ZM 74.7905 17.9251C 76.3543 17.3611 77.6618 16.6433 78.7128 15.7716C 79.7639 14.9 80.2895 14.1565 80.2895 13.5413C 80.2895 12.8235 79.7896 12.3364 78.7898 12.08C 77.8156 12.7978 76.9824 13.6566 76.2902 14.6565C 75.6237 15.6563 75.1238 16.7458 74.7905 17.9251ZM 94.2305 23.924C 96.6403 23.8215 98.8706 22.5781 100.922 20.1939C 102.178 20.4246 103.178 20.8989 103.921 21.6167C 104.69 22.3345 105.075 23.2446 105.075 24.347C 105.075 25.1417 104.613 25.898 103.69 26.6158C 102.793 27.3336 101.665 27.9105 100.306 28.3463C 98.9475 28.7821 97.6401 29 96.3839 29C 95.1534 29 93.8715 28.6026 92.5385 27.8079C 91.2054 26.9875 90.103 25.9877 89.2314 24.8085C 88.3597 23.6292 87.9239 22.514 87.9239 21.4629C 87.9239 19.4376 88.3854 17.3226 89.3083 15.1179C 90.2568 12.8875 91.5643 11.0289 93.2306 9.542C 94.897 8.05509 96.7685 7.31164 98.845 7.31164C 100.127 7.31164 101.345 7.54236 102.498 8.00382C 103.652 8.46527 104.575 9.08055 105.267 9.84964C 105.959 10.6187 106.305 11.4135 106.305 12.2338C 106.305 13.0285 105.959 13.7464 105.267 14.3873C 104.575 15.0025 103.665 15.3102 102.537 15.3102C 102.178 15.3102 101.806 15.2717 101.421 15.1948C 100.781 13.631 100.076 12.5286 99.3065 11.8877C 97.6145 12.9901 96.3326 14.5283 95.461 16.5023C 94.5894 18.4763 94.1535 20.4887 94.1535 22.5396C 94.1535 22.8473 94.1792 23.3087 94.2305 23.924ZM 114.097 29C 113.405 29 112.649 28.7821 111.828 28.3463C 111.008 27.8848 110.303 27.3593 109.713 26.7696C 109.124 26.1544 108.829 25.6416 108.829 25.2315C 108.829 24.7444 108.931 24.1163 109.136 23.3472C 109.341 22.5525 109.649 21.527 110.059 20.2708C 110.469 18.9634 110.777 17.9251 110.982 17.156C 111.187 16.3613 111.29 15.7204 111.29 15.2333C 111.29 15.0282 111.174 14.8103 110.944 14.5795C 110.713 14.3488 110.354 14.0412 109.867 13.6566C 109.303 13.1952 108.893 12.8363 108.636 12.5799C 108.38 12.3235 108.252 12.0672 108.252 11.8108C 108.252 11.2725 108.508 10.6444 109.021 9.92655C 109.534 9.20873 110.136 8.59346 110.828 8.08073C 111.521 7.568 112.11 7.31164 112.597 7.31164C 113.136 7.31164 113.751 7.55518 114.443 8.04227C 115.135 8.52937 115.738 9.09337 116.25 9.73427C 116.763 10.3495 117.02 10.8238 117.02 11.1571C 117.02 12.1313 116.827 13.4131 116.443 15.0025L 116.904 15.2333C 117.494 14.2847 118.135 13.1567 118.827 11.8493C 119.545 10.5162 119.981 9.69582 120.134 9.38818L 120.865 8.00382C 122.634 7.95255 123.954 8.273 124.826 8.96518C 125.697 9.65736 126.133 10.5803 126.133 11.7339C 126.133 12.8619 125.762 13.9899 125.018 15.1179C 123.172 15.7332 121.596 16.3485 120.288 16.9637C 119.006 17.5534 117.712 18.2584 116.404 19.0787C 116.327 21.9244 116.097 24.2957 115.712 26.1928C 115.353 28.0643 114.815 29 114.097 29ZM 144.335 23.3472C 145.899 22.5781 147.219 21.7577 148.296 20.8861C 149.424 21.2706 150.257 21.809 150.795 22.5012C 151.359 23.1677 151.641 23.9368 151.641 24.8085C 151.641 25.4237 151.205 26.0646 150.334 26.7312C 149.462 27.3721 148.424 27.9105 147.219 28.3463C 146.014 28.7821 144.989 29 144.143 29C 143.553 29 142.874 28.7821 142.105 28.3463C 141.361 27.9105 140.707 27.3977 140.143 26.8081C 139.605 26.2185 139.336 25.757 139.336 25.4237C 139.336 25.1674 139.438 24.8213 139.643 24.3855C 139.874 23.9496 140.118 23.501 140.374 23.0395C 140.63 22.5781 140.797 22.2705 140.874 22.1166L 139.913 21.5783C 138.554 23.8086 137.246 25.6032 135.99 26.9619C 134.76 28.3206 133.542 29 132.337 29C 131.517 29 130.645 28.6411 129.722 27.9233C 128.825 27.2055 128.056 26.3338 127.415 25.3084C 126.8 24.2829 126.492 23.3728 126.492 22.5781C 126.492 20.2965 126.966 17.9635 127.915 15.5794C 128.863 13.1952 130.184 11.2212 131.876 9.65736C 133.593 8.09355 135.529 7.31164 137.682 7.31164C 138.451 7.31164 139.233 7.65773 140.028 8.34991C 140.823 9.04209 141.335 9.74709 141.566 10.4649C 141.694 9.90091 141.874 9.41382 142.105 9.00364C 142.361 8.56782 142.63 8.34991 142.912 8.34991C 143.579 8.34991 144.309 8.59346 145.104 9.08055C 145.924 9.542 146.617 10.0932 147.181 10.7341C 147.745 11.3494 148.027 11.8365 148.027 12.1954C 148.001 12.6825 147.796 13.49 147.411 14.618C 147.052 15.746 146.463 17.4636 145.642 19.7709C 145.155 21.0271 144.719 22.2192 144.335 23.3472ZM 132.529 23.6548C 134.606 22.373 136.413 20.7964 137.951 18.9249C 139.49 17.0278 140.541 14.9385 141.105 12.6568C 140.413 12.3492 139.759 12.1954 139.144 12.1954C 137.939 12.1954 136.862 12.7337 135.913 13.8105C 134.965 14.8872 134.209 16.2972 133.645 18.0405C 133.081 19.7837 132.709 21.6552 132.529 23.6548ZM 160.07 29C 159.378 29 158.609 28.8077 157.763 28.4232C 156.917 28.0386 156.199 27.5772 155.61 27.0388C 155.046 26.5005 154.764 26.0262 154.764 25.616C 154.764 25.1545 154.917 24.4624 155.225 23.5395C 155.558 22.5909 156.033 21.3347 156.648 19.7709L 157.648 17.1175L 154.764 17.579C 154.328 17.3483 153.982 17.0022 153.725 16.5407C 153.469 16.0793 153.341 15.5794 153.341 15.041C 153.341 14.5539 153.431 14.0925 153.61 13.6566C 153.815 13.1952 154.11 12.8106 154.494 12.503C 155.11 12.5286 156.071 12.5158 157.379 12.4645L 158.648 12.4261C 158.237 9.29846 158.032 6.91427 158.032 5.27355C 158.032 4.11991 158.122 3.23545 158.301 2.62018C 158.455 2.15873 158.853 1.65882 159.494 1.12045C 160.16 0.582091 160.916 0.133455 161.762 -0.225453C 162.634 -0.609998 163.454 -0.802271 164.223 -0.802271C 165.557 -0.802271 166.787 -0.520271 167.915 0.0437275C 169.069 0.582091 169.979 1.29991 170.645 2.19718C 171.312 3.06882 171.645 3.95327 171.645 4.85055C 171.645 5.82473 171.299 6.61945 170.607 7.23473C 169.915 7.82436 169.017 8.11918 167.915 8.11918C 167.505 8.11918 167.005 8.05509 166.415 7.92691C 166.133 6.08109 165.467 4.70955 164.416 3.81227C 164.006 5.40173 163.685 6.77327 163.454 7.92691C 163.249 9.08055 163.134 10.4521 163.108 12.0415C 164.441 11.8621 166.146 11.5288 168.223 11.0417C 168.684 11.375 169.03 11.7852 169.261 12.2723C 169.517 12.7337 169.646 13.2336 169.646 13.772C 169.646 14.5924 169.351 15.3999 168.761 16.1946C 168.248 16.2459 167.479 16.2972 166.454 16.3485L 162.531 16.6561C 162.378 17.8354 162.275 18.7967 162.224 19.5402C 161.891 22.7191 161.57 25.0905 161.262 26.6543C 160.98 28.2181 160.583 29 160.07 29ZM 180.205 13.8874C 179.359 17.7585 178.807 20.9117 178.551 23.3472C 180.192 22.5525 181.512 21.7321 182.512 20.8861C 183.64 21.2706 184.473 21.809 185.011 22.5012C 185.575 23.1677 185.857 23.9368 185.857 24.8085C 185.857 25.4237 185.422 26.0646 184.55 26.7312C 183.678 27.3721 182.64 27.9105 181.435 28.3463C 180.23 28.7821 179.205 29 178.359 29C 177.615 29 176.782 28.7821 175.859 28.3463C 174.962 27.8848 174.193 27.3593 173.552 26.7696C 172.911 26.1544 172.591 25.6288 172.591 25.193C 172.591 24.8341 172.719 24.065 172.975 22.8857C 173.257 21.6808 173.501 20.6554 173.706 19.8094C 173.937 18.9377 174.103 18.2968 174.206 17.8866L 175.129 14.195L 172.783 14.3488C 172.347 14.1437 172.014 13.8233 171.783 13.3875C 171.552 12.9516 171.437 12.4517 171.437 11.8877C 171.437 10.8623 171.809 9.99064 172.552 9.27282C 173.475 9.32409 174.603 9.37536 175.936 9.42664C 175.936 7.78591 176.116 5.97855 176.475 4.00455C 176.833 2.00491 177.231 1.00509 177.667 1.00509C 178.205 1.00509 178.884 1.23582 179.705 1.69727C 180.525 2.15873 181.243 2.69709 181.858 3.31237C 182.473 3.92764 182.781 4.466 182.781 4.92746C 182.781 5.51709 182.666 6.11955 182.435 6.73482C 182.23 7.32446 181.884 8.14482 181.397 9.19591C 181.833 9.14464 182.935 8.96518 184.704 8.65755L 185.588 8.50373C 186.05 8.76009 186.396 9.13182 186.627 9.61891C 186.883 10.106 187.011 10.6315 187.011 11.1955C 187.011 11.657 186.921 12.1056 186.742 12.5415C 186.562 12.9773 186.293 13.349 185.934 13.6566L 180.205 13.8874Z"/>
<path id="path10_fill" d="M 0 0L 166 0L 166 183L 0 183L 0 0Z"/>
<path id="path11_fill" d="M 0 0L 40 0L 40 40L 0 40L 0 0Z"/>
<path id="path12_fill" d="M 15 3.055L 12.1457 0L 0 13L 12.1457 26L 15 22.945L 5.72874 13L 15 3.055Z"/>
</defs>
</svg>
